/* XPM */
static char * icl8_7905_xpm[] = {
/* width height ncolors chars_per_pixel */
"32 32 7 1",
/* colors */
" 	s None	c None",
".	c #FFFE9A",
"X	c #986500",
"o	c #FECB00",
"O	c #BBBBBB",
"+	c #555555",
"@	c #111111",
/* pixels */
"                                ",
"                                ",
"             ..........X        ",
"              .ooooooooX        ",
"              .oXXXXXXXX        ",
"              .oX      X        ",
"              .oX               ",
"              .oX   X           ",
"              .o....X           ",
"              .oooooX           ",
"              .oXXXXX           ",
"              .oX   X           ",
"              .oX               ",
"              .oX               ",
"              .oX               ",
"              .oX               ",
"             O++@@              ",
"              O+@               ",
"        OOOO  O+@  OOOO         ",
"       O+++++ O+@ O++++@        ",
"      O+@@@@++O+@+@@@@@@@       ",
"     O+@    ++@+@@@    O+@      ",
"     O+@      @@@      O+@      ",
"     O+@               O+@      ",
"      +++      O      O+@       ",
"       +++    O+@    O+@        ",
"        +++OOO+++OOOO+@         ",
"         ++@++++++++@@          ",
"           @@+++++@@            ",
"             @@@@@              ",
"                                ",
"                                "};
