/* XPM */
static char * icl8_8116_xpm[] = {
/* width height ncolors chars_per_pixel */
"32 32 9 1",
/* colors */
" 	s None	c None",
".	c black",
"X	c #440000",
"o	c #FFCC9A",
"O	c #9A6633",
"+	c #CC9966",
"@	c #BBBBBB",
"#	c #888888",
"$	c #444444",
/* pixels */
"                                ",
"                                ",
"                                ",
"                                ",
"                                ",
"                                ",
"                                ",
"              ......            ",
"             .XXXXXX.           ",
"    .........X......X.......... ",
"   .oooooooo.X.oooo.X.oooooooo..",
"  .ooooooooo...oooo...ooooooo.O.",
" .oooooooooooooooooooooooooo.OO.",
" ...........................OOO.",
".++++++++++++++++++++++++++.OOO.",
".++++++++++++++++++++++++++.OOO.",
".++++++@@@@@++++++@@@@@++++.OOO.",
".+++++++@++@+++++++@++@++++.OOO.",
".+++++++@OOOOO+++++@OOOOO++.OOO.",
".+++++++@@@++O+++++@@@++O++.OOO.",
".+++++++@+O++++++++@+O+++++.OOO.",
".+++++++@+OOO++++++@+OOO+++.OOO.",
".+++++++@+O++++++++@+O+++++.OOO.",
".+++++#+@+$++++++#+@+$+++++.OOO.",
".++++#$$$$$$++++#$$$$$$++++.OOO.",
".+++#$++$+O$.++#$++.+O$.+++.OOO.",
".+++#$+OOOO$.O+#$+OOOO$.O++.OOO.",
".++++$$O$+$.++O+$$O$+$.++O+.OOO.",
".+++++$$$$.+++O++$$$$.+++O+.OO. ",
".++++++O++O++O++++O++O++O++.O.  ",
".+++++++OOOOO++++++OOOOO+++..   ",
" ...........................    "};
