/* XPM */
static char *filing[] = {
/* width height ncolors chars_per_pixel */
"32 32 5 1",
/* colors */
"` c black",
"a c grey",
"b c navy blue",
"c c white",
"d c slate grey",
/* pixels */
"cccccccccccccccccccccccccccccccc",
"cccccccccccccccccccccccccccccccc",
"ccccccc````````````````````ccccc",
"ccccccc`aaaaaaaaaaaaaaaaaa`ccccc",
"ccccccc`a````````````````a`ddccc",
"ccccccc`a`acacacacacacac`a`ddccc",
"ccccccc`a`cacacacacacaca`a`ddccc",
"ccccccc`a`acac``````acac`a`ddccc",
"ccccccc`a`caca`cccc`caca`a`ddccc",
"ccccccc`a`acac`bbbb`acac`a`ddccc",
"ccccccc`a`caca``````caca`a`ddccc",
"ccccccc`a`acacacacacacac`a`ddccc",
"ccccccc`a`cacacacacacaca`a`ddccc",
"ccccccc`a`acacacacacacac`a`ddccc",
"ccccccc`a`cacacacacacaca`a`ddccc",
"ccccccc`a````````````````a`ddccc",
"ccccccc`aaaaaaaaaaaaaaaaaa`ddccc",
"ccccccc`a````````````````a`ddccc",
"ccccccc`a`cacacacacacaca`a`ddccc",
"ccccccc`a`acacacacacacac`a`ddccc",
"ccccccc`a`caca``````caca`a`ddccc",
"ccccccc`a`acac`cccc`acac`a`ddccc",
"ccccccc`a`caca`bbbb`caca`a`ddccc",
"ccccccc`a`acac``````acac`a`ddccc",
"ccccccc`a`cacacacacacaca`a`ddccc",
"ccccccc`a`acacacacacacac`a`ddccc",
"ccccccc`a`cacacacacacaca`a`ddccc",
"ccccccc`a`acacacacacacac`a`ddccc",
"ccccccc`a````````````````a`ddccc",
"ccccccc`aaaaaaaaaaaaaaaaaa`ddccc",
"ccccccc````````````````````ddccc",
"cccccccccddddddddddddddddddddccc"
};
