/* XPM */
static char * icl8_27818_xpm[] = {
/* width height ncolors chars_per_pixel */
"32 32 16 1",
/* colors */
" 	s None	c None",
".	c #EEEEEE",
"X	c #BBBBBB",
"o	c #555555",
"O	c black",
"+	c #FEFE00",
"@	c #00FEFE",
"#	c #00FE00",
"$	c #FE00FE",
"%	c #222222",
"&	c #33FE00",
"*	c #888888",
"=	c #FE0000",
"-	c #0066FE",
";	c #777777",
":	c #AAAAAA",
/* pixels */
"                                ",
"     ......................     ",
"    .XXXXXXXXXXXXXXXXXXXXXXo    ",
"    .XXXXXXXXXXXXXXXXXXXXXXo    ",
"    .XXoOOOOOOOOOOOOOOOOoXXo    ",
"    .XXOOOOOO+@OO@O@OOOO.XXo    ",
"    .XXOOOOO#OO@@O@O@@OO.XXo    ",
"    .XXOOOOO@OOOO@@@OOO@.XXo    ",
"    .XXOOOO+OOO@@O@O@@OO.XXo    ",
"    .XXOOOO#O@OOO@O@OOO@.XXo    ",
"    .XXOOOO@OOO@O@O@O@OO.XXo    ",
"    .XXOOO+OOO@OOOOOOO@O.XXo    ",
"    .XXOOO#OO@OO@O@O@OO@.XXo    ",
"    .XXOOO@OOOOOOOOOOOOO.XXo    ",
"    .XXOOOOOOOO@OO@OO@OO.XXo    ",
"    .XXOOO$OOOOOOOOOOOOO.XXo    ",
"    .XXOO$$$OOOOOOOOOOOO.XXo    ",
"    .XXo................XXXo    ",
"    .XXXXXXXXXXXXXXXXXXXXXXo    ",
"    .XXXXXXXXXXXXXXXXXXXXXXo    ",
"    .XXXXXXXXXXXXXXXXXXXXXXo    ",
"    .XXXXXXXXXXXXXXXooooXXXo    ",
"    .XXXXXXXXXXXooooo%%ooXXo    ",
"    .X&&XXXXXXXXXXXX****XXXo    ",
"    .X==XoX*XXX*XXXXXXXXXXXo    ",
"    .X--X*o***X*XXXXXXXXXXXo    ",
"    .XXXXXXXXXXXXXXXXXXXXXXo    ",
"     oooooooooooooooooooooo     ",
"     ;;;;;;;;;;;;;;;;;;;;;O     ",
"     *********************%     ",
"     X::::::::::::::::::::%     ",
"     *%%%%%%%%%%%%%%%%%%%%%     "};
