/* XPM */
static char *flight_sim[] = {
/* width height ncolors chars_per_pixel */
"32 32 7 1",
/* colors */
"` c black",
"a c cyan",
"b c gainsboro",
"c c grey",
"d c sienna",
"e c orange",
"f c white",
/* pixels */
"bbbbbbbbbbbbbbbbbbbbbbbbbbbbbbbb",
"baaaaaaaaaaaaaaaaaaaaaaaaaaaaaab",
"baaaaaaaaaaaaaaaaaaaaaaaaaaaaaab",
"baaaaaaaaaaaaaaaaaaaaaaaaaaaaaab",
"baaaaaaaaaaaaaaaaaaaaaaaaaaaaaab",
"baaaaaaaaaaaaaaaaaaaaaaaaaaaaaab",
"baaaaaaaaaaaaaaaaaaaaaaaaaaaeaab",
"baaaaaaaaaaaa`aaaaaaaaaaaaaaeeab",
"baaaaaaaaaaaa`aaaaaaaaaaaaaeeeab",
"baaaaaaaaaaaa`aaaaaaaaaaaaaeeeeb",
"baaaaaaaaaaaa`aaaaaaaaaaaaeeeeeb",
"baaaaaaaaaaaa``aaaaaaaaaaeeeeeeb",
"baaaaaaaaaaa`aa`aaaaaaaaeeee`eeb",
"baaaaa`````a`aa`a`````aeeeeeeeeb",
"bddddddddddd`aa`dddddddddddddddb",
"bdddddddddccc``cccdddddddddddddb",
"bdddddfccccccc`ccccccfdddddddddb",
"bdddcccccccccc`ccccccccfdddddddb",
"bccccccccccccc`ccccccccccccddddb",
"bccccccccccccc`ccccccccccccccfdb",
"bccccccccccccbcccccccccccccccccb",
"bccccccccccccbcccccccccccccccccb",
"bccccccccccccccccccccccccccccccb",
"bccccccccccccccccccccccccccccccb",
"bccccccccccccccccccccccccc`c``cb",
"bc```````````````````````c`cc`cb",
"bccccccccccccccccccccccccc`c``cb",
"bccccccccccccccccccccccccc`cc`cb",
"bccccccccccccccccccccccccc`c``cb",
"bccccccccccccccccccccccccccccccb",
"bccccccccccccccccccccccccccccccb",
"bccccccccccccccccccccccccccccccb"
};
