/* XPM */
static char * icl8_24303_xpm[] = {
/* width height ncolors chars_per_pixel */
"32 32 4 1",
/* colors */
" 	s None	c None",
".	c black",
"X	c #6699FF",
"o	c #CBFFFF",
/* pixels */
"......................          ",
".XXXXXXXXXXXXXXXXXXXX.          ",
"......................          ",
".oooooooooooooooooooo...........",
".oooooooooooooooooooo.XXXXXXXXX.",
".oooXXooXooXooXXooXoo...........",
".ooXooXoXooXoXooXoXoo.ooooooooo.",
".ooXooXoXooXoXooXoXoo.oooXXXXXo.",
".oooXXooXooXooXXooXoo.XXXXoooXo.",
".oooooooooooooooooooo.oooXoooXo.",
".oooooooooooooooooooo.oooXXXXXo.",
".oo.....................oooXooo.",
".oo.XXXXXXXXXXXXXXXXXXX.oooXooo.",
".oo.....................oooXooo.",
".oo.ooooooooooooooooooo.ooXXXoo.",
".oo.ooooooooooooooooooo.oXoooXo.",
".oo.ooXXXXXXXXXXXoooooo.oXoooXo.",
"....ooooooooooooooooooo.oXoooXo.",
"   .oooXXXXXXXXXXoooooo.ooXXXoo.",
"   .ooooooooooooooooooo.ooooooo.",
"   .oooooXXXXXXXXXooooo.........",
"   .ooooooooooooooooooo.        ",
"   .oooXXXXXXXXXXoooooo.        ",
"   .ooooooooooooooooooo.        ",
"   .ooooXXXXXXXXXXooooo.        ",
"   .ooooooooooooooooooo.        ",
"   .ooooooooooooooooooo.        ",
"   .ooooooooooooooooooo.        ",
"   .....................        ",
"                                ",
"                                ",
"                                "};
