/* XPM */
static char * icl8_17431_xpm[] = {
/* width height ncolors chars_per_pixel */
"32 32 8 1",
/* colors */
" 	s None	c None",
".	c black",
"X	c tan",
"o	c wheat",
"O	c blue",
"+	c #FF9966",
"@	c #FFCC9A",
"#	c #EF0000",
/* pixels */
"......................          ",
".XXXXXXXXXXXXXXXXXXXX.          ",
"......................          ",
".oooooooooooooooooooo...........",
".oooooooooooooooooooo.XXXXXXXXX.",
".oooOOooOooOooOOooOoo...........",
".ooOooOoOooOoOooOoOoo.ooooooooo.",
".ooOooOoOooOoOooOoOoo.oooOOOOOo.",
".oooOOooOooOooOOooOoo.OOOOoooOo.",
".oooooooooooooooooooo.oooOoooOo.",
".oooooooooooooooooooo.oooOOOOOo.",
".oo.....................oooOooo.",
".oo.XXXXXXXXXXXXXXXXXXX.oooOooo.",
".oo.....................oooOooo.",
".oo.ooooooooooooooooooo.ooOOOoo.",
".oo.ooooooooooooooooooo.oOoooOo.",
".oo.ooOOOOOOOOOOOoooooo.oOoooOo.",
"....ooooooooooooooooooo.oOoooOo.",
"   .oooOOOOOOOOOOoooooo.ooOOOoo.",
"   .oooooooooooooo......ooooooo.",
"   .oooooOOOOOOOO.++++++........",
"   .oooooooooooo.+@@@@@@+.      ",
"   .oooOOOOOOOO.+@..@@@@@+.     ",
"   .ooooooooooo...oo.@@@@@+.    ",
"   .ooooOOOO...++........@@+.###",
"   .oooooooooo.@@+..+++++@@@+###",
"   .ooooooooooo.@@++@@@@@@@@@###",
"   .oooooooooooo.@@@@@@@@@@@@###",
"   ................@@@@@@@@@@###",
"                   ........@@###",
"                           ..###",
"                             ###"};
