/* XPM */
static char * Freedom[] = {
"49 49 2 1",
"  c black",
". c white",
"                                                 ",
"        ...  ...  ...  ...  ...    ..   .   .    ",
"        .    . .  .    .    .  .  .  .  .. ..    ",
"        ..   ...  ..   ..   .  .  .  .  . . .    ",
"        .    . .  .    .    .  .  .  .  .   .    ",
"        .    . .  ...  ...  ...    ..   .   .    ",
"                                                 ",
"                                                 ",
"                    .......                      ",
"                 ...       ...                   ",
"               ..            ..                  ",
"              .                                  ",
"             .                                   ",
"            .                                    ",
"           .                                     ",
"          .                                      ",
"         .                                       ",
"        .                                        ",
"        .....  ....                 ..... ....   ",
"       .....  ....                 ....  ....    ",
"       .                                         ",
"       .....  ....                 ....  ....    ",
"      .....  ....      ..  ..     ....  ....     ",
"      .                ..  ..                    ",
"      .....  ....     ... ...     ....  ....     ",
"      ....  ....      ... ...    ....  ....      ",
"      .          ...  ..  .. ...                 ",
"      ....  ....     ... ...     ....  ....      ",
"     ....  ....      ... ...    ....  .....      ",
"      .              ..  ..                      ",
"     ....  ....      ..  ..     ....  .....      ",
"    ....  ....                 ....  .....       ",
"       .                                         ",
"    ....  ....                 ....  .....       ",
"   .... .....                 ....  .....        ",
"        .                                        ",
"         .                                       ",
"          .                                      ",
"           .                                     ",
"            .                                    ",
"             .                                   ",
"              .                                  ",
"               ..             ..                 ",
"                 ...       ...                   ",
"                    .......                      ",
"                                                 ",
"                                                 ",
"                                                 ",
"                                                 "};

