/* XPM */
static char * icl8_8120_xpm[] = {
/* width height ncolors chars_per_pixel */
"32 32 10 1",
/* colors */
" 	s None	c None",
".	c #FECB00",
"X	c #FE9800",
"o	c #FE6500",
"O	c #AAAAAA",
"+	c #444444",
"@	c black",
"#	c #FF9A9A",
"$	c #FE0000",
"%	c #770000",
/* pixels */
"                .               ",
"               .X.              ",
"              ooXoo             ",
"                X               ",
"                X               ",
"                X               ",
"                                ",
"             OOOOOO             ",
"           O+@@@@@@+O           ",
"          O@@      @@+          ",
"         O@          @@         ",
"        O@ ####$####$ +@        ",
"        +@ #$$$%#$$$% O@        ",
"  .    O@  #%$%%#%$%%  +@    .  ",
" .X    O@   #$%  #$%   O@    X. ",
".XXXXX O@   #$%  #$%   O@ XXXXXo",
" oX    O@   #$%  #$%   O@    .X ",
"  o    O@  ##$%###$%#  +@    o  ",
"        +@ #$$$%#$$$% O@        ",
"        O@ $%%%%$%%%% +@        ",
"         +@          O@         ",
"      O+@ @+O      O+@          ",
"     O+@   @@+OOOO+@@           ",
"    O+@      @@@@@@             ",
"   O+@                          ",
"  O+@           .               ",
" O+@            X               ",
"O+@             X               ",
"+@            o.X.o             ",
"               oXo              ",
"                o               ",
"                                "};
