/* XPM */
static char *index[] = {
/* width height ncolors chars_per_pixel */
"32 32 5 1",
/* colors */
"` c black",
"a c navy blue",
"b c white",
"c c slate grey",
"d c blue",
/* pixels */
"bbbbbbbbbbbbbbbbbbbbbbbbbbbbbbbb",
"bbbbbbbbbbbbbbbbbbbbbbbbbbbbbbbb",
"bbbbbbbbbbbbbbbbbbbbbbbbbbbbbbbb",
"bbbbbbbbbbbbbbbbbbbbbbbbbbbbbbbb",
"bbbbbbbbbbbbbbbbbbbbbbbbbbbbbbbb",
"bbbbbbbbbbb```baaab``````````bbb",
"bbbbbbbbbb`bbbdddddbbbbbbbbbb`bb",
"bbbbbbbbb``````````baaab```bb`cc",
"bbbbbbbb`bbbbbbbbbbdddddbbb`b`cc",
"bbbbbbb``````baaab```````bb`b`cc",
"bbbbbb`bbbbbbdddddbbbbbbb`b`b`cc",
"bbbbb``baaab```````````bb`b`b`cc",
"bbbb`bbdddddbbbbbbbbbbb`b`b`b`cc",
"bbb``````````````````bb`b`b`b`cc",
"bb`bbbbbbbbbbbbbbbbbb`b`b`b`b`cc",
"bb`bb``````````bbbbbb`b`b`b`b`cc",
"bb`bbbbbbbbbbbbbbbbbb`b`b`b`b`cc",
"bb`bb```````````bbbbb`b`b`b`b`cc",
"bb`bbbbbbbbbbbbbbbbbb`b`b`b`dacc",
"bb`bb`````````bbbbbbb`b`b`b`accc",
"bb`bbbbbbbbbbbbbbbbbb`b`b`dacccc",
"bb`bbbbbbbbbbbbbbbbbb`b`b`accccb",
"baaaaaaaaaaaaaaaa`bbb`b`daccccbb",
"`dddddddddddddddd`abb`b`accccbbb",
"``````````````````aab`daccccbbbb",
"bbddddddddddddddddddddaccccbbbbb",
"bbbaaaaaaaaaaaaaaaaaaaccccbbbbbb",
"bbbbcccccccccccccccccccccbbbbbbb",
"bbbbbcccccccccccccccccccbbbbbbbb",
"bbbbbbbbbbbbbbbbbbbbbbbbbbbbbbbb",
"bbbbbbbbbbbbbbbbbbbbbbbbbbbbbbbb",
"bbbbbbbbbbbbbbbbbbbbbbbbbbbbbbbb"
};
