/* XPM */
static char * icl8_6669_xpm[] = {
/* width height ncolors chars_per_pixel */
"32 32 16 1",
/* colors */
" 	s None	c None",
".	c #BBBBBB",
"X	c #777777",
"o	c #DDDDDD",
"O	c black",
"+	c #FE0000",
"@	c #00CD00",
"#	c #222222",
"$	c #999999",
"%	c #339A66",
"&	c #CBFFFF",
"*	c #444444",
"=	c #FE9800",
"-	c #0033CD",
";	c #FEFE00",
":	c #9800FE",
/* pixels */
" .............................X ",
" .oooooooooooooooooooooooooooXO ",
" .o.++++..O............@@@@@@#O ",
" .o.+OO+$OO$O$$$$$$$O$$@%%%&@#O ",
" .o.+OO+XXOXXXXXXXOXOOX@%&&&@#O ",
" .o.+OO+XXXXOXXXXXXXOXX@&&&&@#O ",
" .o++++++XOXXXOXXXOXXXX@@@@@@#O ",
" .o++++++XXOXOXXXXXXXXXX@@@@*#O ",
" .o.$XXXXXXOOOXXXXOXXXXX@@+@*#O ",
" .o.$XXXXXXOXOXXXXXXXXXX@@@@*#O ",
" .o.$XXXXXOXXXOXXXOXXXXX@@@@*#O ",
" .o.$XXXXXXXXXXXXXXXXOXXXXXX*#O ",
" .o.$XXXXXXXOXOXOXOOXOOX====*#O ",
" .o.$XXXXXXXXXXXXXXXXOXX=OO=*#O ",
" .o.$XXXXXXXOXXXXXXXXXXX=OO=*#O ",
" .o.$XXXXXOXXXOXXXXXXXX======#O ",
" .o.$XXXXXXOXOXXXXXXXXX======#O ",
" .o.$XXXXXXOOOXXXXXXXXXXXXXX*#O ",
" .o.$XXXXXXOXOXXXXXXXXXXXXXX*#O ",
" .o.$XXXXXOXXXOXXXXXXXXXXXXX*#O ",
" .o.----XXXXOXXXXXXXXXXXXXXX*#O ",
" .o.-%&-XXXXXXXXXXXXXXXXXXXX*#O ",
" .o.-&&-XXXXXOXXXXXXXXXXXXXX*#O ",
" .o.----OXXXXX;;;;XXXXX::::X*#O ",
" .o.----XXOXXX;OO;XXXXX:%&:X*#O ",
" .o.$XXXXXXXOX;OO;XOXOX:&&:X*#O ",
" .o.$XXXXXXXXX;;;;XXXXX::::X*#O ",
" .oX**********;;;;*****::::**#O ",
" .X###########################O ",
" XOOOOOOOOOOOOOOOOOOOOOOOOOOOOO ",
"                                ",
"                                "};
