/* XPM */
static char * icl8_16449_xpm[] = {
/* width height ncolors chars_per_pixel */
"32 32 5 1",
/* colors */
" 	s None	c None",
".	c black",
"X	c #DDDDDD",
"o	c #FE0000",
"O	c #66FE00",
/* pixels */
"        ....................... ",
"       .XXXXXXXXXXXXXXXX.XXXXX. ",
"      .XXXXXXXXXXXXXXXXX.XXXXX. ",
"      .XXXXXXXXXXXXXXXXX.XXXXX. ",
"      .XXXXXXXXXXXXXXXXX........",
"       .XXXXXXXXXXXXXXXX.XXXXXX.",
"   o    .................XXXXXX.",
"   oo    .XXXXXXXXXXXXXXXXXXXXX.",
"oooooo   .................XoXOX.",
"ooooooo  .XXXXXXXXXXXXXXXXXXXXX.",
"oooooooo .XOXXXXXXXXXXXXXXXXXXX.",
"ooooooo  .XXXXXXXXXXXXXXXXXXXXX.",
"oooooo   .......................",
"   oo    ..X.X.X.X.X.X.X.X.X.X..",
"   o     .......................",
"                       .X.      ",
"                       .X.      ",
"                       .X.      ",
"                       .X.      ",
"                       .X.      ",
"                       .X.      ",
"                       .X.      ",
"                       .X.      ",
"                      .....     ",
"                      .XXX.     ",
"                      .XXX.     ",
"                      .....     ",
"                      .X.X.     ",
". ....................XX.XX... .",
"X XXXXXXXXXXXXXXXXXXXXX. .XXXX X",
". .....................   .... .",
"                                "};
