/* XPM */
static char * icl8_26881_xpm[] = {
/* width height ncolors chars_per_pixel */
"32 32 13 1",
/* colors */
" 	s None	c None",
".	c #DDDDDD",
"X	c #BBBBBB",
"o	c #444444",
"O	c #9B9BDDDDD9D9",
"+	c #FFFECB",
"@	c black",
"#	c #222222",
"$	c #777777",
"%	c #999999",
"&	c #00DC00",
"*	c #FE0000",
"=	c cadet blue",
/* pixels */
"  ...........        XXXXXXo    ",
"  .XXXXXXXXXo    O   X+++++@o   ",
"  .X######XXo   OOO  X+++++@@o  ",
"  .X#ooooo.Xo  OOOOO X+++++++o  ",
"  .X#o@###.Xo OOOOOOOX+++++++o  ",
"  .X#o####.XoOOOOOOOOX+++++++o  ",
"  .X#o@###.XoOOOOOOOO$$$$$$$$$  ",
"  .XX......XoOOOOOO..$$$$$$$$$..",
"  .%%%%%%%%%oOOOOOO.XoooooooooX@",
"...............OOOO.X&XXXXXXX@X@",
".XXXXXXXXXXXXX@OOOO.X*XXXXXXXXX@",
"$$$$$$$$$$###$@OOOO############@",
".X&XXXXXXXXXXX@OOOOOOOOOOO@OO   ",
".X*XXXXXXXXXXX@OOOOOOOOOOO@OOO  ",
"##############@OOOOOOOOOOO@OOOO ",
"   OO@OOOOOOOOOOOOOOOOOOOO@OOOO=",
"  OOO@OOOOOOOOOOOOOOOOOOOO@OOO= ",
" =OOO@OOOOOOOOOOOOOOOOOOOO@OO=  ",
"  =OO@OOOOOOOOOOOOOOOOOOOO@O=   ",
"   =O@OOOOOOOOOOOOOOOO......... ",
"    =@OOOOOOOOOOOOOOO.XXXXXXXXX@",
"     @OOOOOOOOOOOOOOO.X######XX@",
"...............OOOOOO.X#ooooo.X@",
".XXXXXXXXXXXXX@OOOOOO.X#o####.X@",
".XXXXXXXXXXXXX@OOOOOO.X#o####.X@",
".$$$$$$$$$$$$$@OOOOOO.X#o####.X@",
".XXXoXXXXXXXXX@OOOOO=.XX......X@",
".XXXoXXXXXXXX@OOOOO= .XXXXXXXXX@",
".ooooooooooo@OOOOO=  .XXXXX@@@X@",
".XXXXXXXXXXX@@@@@@@@@.X&XXXXXXX@",
".XXXXXXXXXXX@ =O=    .X*XXXXXXX@",
"############@  =     ##########@"};
