/* XPM */
static char * icl8_30943_xpm[] = {
/* width height ncolors chars_per_pixel */
"32 32 7 1",
/* colors */
" 	s None	c None",
".	c black",
"X	c wheat",
"o	c #FF9966",
"O	c #FFCC9A",
"+	c #99CC66",
"@	c #0000EF",
/* pixels */
"               .                ",
"              .X.               ",
"             .XXX.              ",
"            .XXXXX.             ",
"           .XXXXXXX.            ",
"          .XXXXXXXXX.           ",
"         .XXXXXXXXXXX.          ",
"        .XXXXXXXXXXXXX.         ",
"       .XXXXXXXXXXXXXXX.        ",
"      .XXXXXXXXXXXXXXXXX.       ",
"     .XXXXXXXXXXXXXXXXXXX.      ",
"    .XXXXXXXXXXXXXXXXXXXXX.     ",
"   .XXXXXXXXXXXXXXXXXXXXXXX.    ",
"  .XXXXXXXXXXXXXXXXXXXXXXXXX.   ",
" .XXXXXXXXXXXXXXXX......XXXXX.  ",
".XXXXXXXXXXXXXXXX.oooooo.XXXXX. ",
" .XXXXXXXXXXXXXX.oOOOOOOo.XXXXX.",
"  .XXXXXXXXXXXX.oO..OOOOOo.XXX. ",
"   .XXXXXXXXXX+...++.OOOOOo.X.  ",
"    .XXXXXXX...oo........OOo....",
"     .XXXXXXX+.OOo..oooooOOOo.@@",
"      .XXX+++++.OOooOOOOOOOOO.@@",
"       .XXXX++++.OOOOOOOOOOOO.@@",
"        .XXXX++++..OOOOOOOOOO.@@",
"         .XXXX+++++........OO.@@",
"          .XXXX+++++++.    ...@@",
"           .XXXXX++++.       ...",
"            .XXXXXXX.           ",
"             .XXXXX.            ",
"              .XXX.             ",
"               .X.              ",
"                .               "};
