/* XPM */
static char * noentry_xpm[] = {
"31 31 4 1",
"  c #FFFFFF",
". c #AA0000",
"X c None s #AAAAAA",
"o c #FF5555",
"XXXXXXXXXXXX       XXXXXXXXXXXX",
"XXXXXXXXX   .o.o.o.   XXXXXXXXX",
"XXXXXXX  .o.o.o.o.o.o.  XXXXXXX",
"XXXXXX o.o.o.o.o.o.o.o.o XXXXXX",
"XXXXX o.o.o.o.o.o.o.o.o.o XXXXX",
"XXXX o.o.o.o.o.o.o.o.o.o.o XXXX",
"XXX o.o.o.o.o.o.o.o.o.o.o.o XXX",
"XX o.o.o.o.o.o.o.o.o.o.o.o.o XX",
"XX .o.o.o.o.o.o.o.o.o.o.o.o. XX",
"X .o.o.o.o.o.o.o.o.o.o.o.o.o. X",
"X o.o.o.o.o.o.o.o.o.o.o.o.o.o X",
"X .o.o.o.o.o.o.o.o.o.o.o.o.o. X",
" .o.o                     o.o. ",
" o.o.                     .o.o ",
" .o.o                     o.o. ",
" o.o.                     .o.o ",
" .o.o                     o.o. ",
" o.o.                     .o.o ",
" .o.o                     o.o. ",
"X .o.o.o.o.o.o.o.o.o.o.o.o.o. X",
"X o.o.o.o.o.o.o.o.o.o.o.o.o.o X",
"X .o.o.o.o.o.o.o.o.o.o.o.o.o. X",
"XX .o.o.o.o.o.o.o.o.o.o.o.o. XX",
"XX o.o.o.o.o.o.o.o.o.o.o.o.o XX",
"XXX o.o.o.o.o.o.o.o.o.o.o.o XXX",
"XXXX o.o.o.o.o.o.o.o.o.o.o XXXX",
"XXXXX o.o.o.o.o.o.o.o.o.o XXXXX",
"XXXXXX o.o.o.o.o.o.o.o.o XXXXXX",
"XXXXXXX  .o.o.o.o.o.o.  XXXXXXX",
"XXXXXXXXX   .o.o.o.   XXXXXXXXX",
"XXXXXXXXXXXX       XXXXXXXXXXXX"
} ;
