/* XPM */
static char * icl8_3045_xpm[] = {
/* width height ncolors chars_per_pixel */
"32 32 6 1",
/* colors */
" 	s None	c None",
".	c black",
"X	c white",
"o	c #BBBBBB",
"O	c #CBFFFF",
"+	c #888888",
/* pixels */
"                     ..........X",
"                    .oooooooooo.",
"                    .oo......oo.",
"                    .o.OOOOOO.o.",
"                    .o.OO.....o.",
"                    .o.OO.....o.",
"                    .o.OO.....o.",
"                    .o.OO.....o.",
"                    .o........o.",
"                    .oo......oo.",
"                    .oooooooooo.",
"                    .ooooo....o.",
"                    .oooooooooo.",
"               ...  ............",
"             ........++++++++++.",
"            .  ...  ............",
" ..........  .                  ",
".oooooooooo.  ...               ",
".oo......oo.     ...            ",
".o.OOOOOO.o.        ...         ",
".o.OO.....o.           .        ",
".o.OO.....o.            .       ",
".o.OO.....o.            .       ",
".o.OO.....o.             .      ",
".o........o.             .      ",
".oo......oo.             .      ",
".oooooooooo.            .       ",
".ooooo....o.            .       ",
".oooooooooo.          ..        ",
"............  ...  ...          ",
".++++++++++........             ",
"............  ...               "};
