/* XPM */
static char *noname[] = {
/* width height ncolors chars_per_pixel */
"32 32 22 1",
/* colors */
"` c #CBFFFF",
"a c #AB0000",
"b c #0033FE",
"c c #326565",
"d c #FF9A9A",
"e c #770000",
"f c #99CCCC",
"g c #EEEEEE",
"h c #0000EF",
"i c #659898",
"j c #000077",
"k c #000055",
"l c #0000AB",
"m c #000044",
"n c #0000DC",
"o c #000089",
"p c #000022",
"q c #DDDDDD",
"r c #FE0000",
"s c #0000BA",
"t c #000011",
"u c #BBBBBB",
/* pixels */
"```````````````````````````````f",
"``````````````````````````````fi",
"``dduugququuuuuuuuuuifffffffdrii",
"``drrgququuuiiiiiiiiiffffffdreii",
"``uarruquuuuifffffffffffffdrefii",
"``ugarruuuuuiffffffffffffdreffii",
"``gquarriiiiifffffffffffdrefficc",
"``ququarrffffffffffffffdreffiicc",
"``uquuiarrffffffffffffdreffiiicc",
"``qiiiifarrffffffffffdreffiiifii",
"``uifffffarrbbfffffbdreffiiiffii",
"``uiffffffarrhfffffdreffiiifffii",
"``uifffffffarriiffdreniciiffffii",
"``uiffffffffarrifdresiccifffffii",
"``uifffffffflarrdrellcccffffffii",
"``uiffffffffooarreoooccfffffffii",
"``iifffffffffjdrrrjjccifffffffii",
"``fffffffffffdrearrkciifffffffii",
"``ffffffffffdrekiarriiffffffffii",
"``fffffffffdremmmmarriffffffffii",
"``ffffffffdrefmmmmmarrffffffffii",
"``fffffffdreffpppppiarrfffffffii",
"``ffffffdreffiipppiiiarrffffffii",
"``fffffdreffiiitttiiifarrfffffii",
"``ffffdreffiiifffiiifffarrffffii",
"``fffdreffiiiffffiiiffffarrgggii",
"``ffdreffiiifffffffffffffarruuii",
"``fdreffiiiffffffffffgggggarruii",
"``dreffiiifffffffffffguuuuuareii",
"``reffiiiffgggggggggguuuuuuueeci",
"`fiiiiccciiiiiiiiiiiiiiiiiiiiccc",
"fiiiiiccciiiiiiiiiiiiiiiiiiiiicc"
};
