/* XPM */
static char * icl8_6666_xpm[] = {
/* width height ncolors chars_per_pixel */
"32 32 7 1",
/* colors */
" 	s None	c None",
".	c black",
"X	c #CBFFCB",
"o	c #9AFF9A",
"O	c #9800FE",
"+	c #550000",
"@	c #009865",
/* pixels */
"   ....................         ",
"   .XXXXXXXXXXXXXXXXXX..        ",
"   .XXXXXXXXXXXXXXXXXX.o.       ",
"   .XXXXXXXXXXXXXXXXXX.oo.      ",
"   .XXOXOXXXXXXXXXXXXX.ooo.     ",
"   .XOOOOOXXXXXXXXXXXX.oooo.    ",
"   .XXOXOXX++++++++XXX.......   ",
"   .XOOOOOXXXXXXXXXXXXX@@@@@.   ",
"   .XXOXOXX++++++++++XX@@@@@.   ",
"   .XXXXXXXXXXXXXXXXXXXXXXXX.   ",
"   .XXXXXXXX+++++++++XXXXXXX.   ",
"   .XXXXXXXXXXXXXXXXXXXXXXXX.   ",
"   .XXXXXXXXXX+++++++++XXXXX.   ",
"   .XXOXOXXXXXXXXXXXXXXXXXXX.   ",
"   .XOOOOOXXXX++++++++XXXXXX.   ",
"   .XXOXOXXXXXXXXXXXXXXXXXXX.   ",
"   .XOOOOOXX++++++++++++XXXX.   ",
"   .XXOXOXXXXXXXXXXXXXXXXXXX.   ",
"   .XXXXXX+++++++++++++++XXX.   ",
"   .XXXXXXXXXXXXXXXXXXXXXXXX.   ",
"   .XXXXXXXX+++++++++XXXXXXX.   ",
"   .XXXXXXXXXXXXXXXXXXXXXXXX.   ",
"   .XXOXOXXXXX++++++++++++XX.   ",
"   .XOOOOOXXXXXXXXXXXXXXXXXX.   ",
"   .XXOXOXXXXXXX+++++++XXXXX.   ",
"   .XOOOOOXXXXXXXXXXXXXXXXXX.   ",
"   .XXOXOXXX+++++++++++++XXX.   ",
"   .XXXXXXXXXXXXXXXXXXXXXXXX.   ",
"   .XXXXXXXXXXXXXXXXXXXXXXXX.   ",
"   .XXXXXXXXXXXXXXXXXXXXXXXX.   ",
"   .XXXXXXXXXXXXXXXXXXXXXXXX.   ",
"   ..........................   "};
