/* XPM */
static char * icl8_15027_xpm[] = {
/* width height ncolors chars_per_pixel */
"32 32 7 1",
/* colors */
" 	s None	c None",
".	c black",
"X	c #0000FE",
"o	c #BBBBBB",
"O	c white",
"+	c #777777",
"@	c #444444",
/* pixels */
"   ...................          ",
"   .XXXXXXXXXXXX.......         ",
"   .XXXXXXXXXXXX......o.        ",
"   .XXXXXXXXXXXX......oo.       ",
"   .XXXXXXXXXXXX......ooo.      ",
"   .OOOOOOOOOOOO+++++.oooo.     ",
"   .OOOOOOOOOOOO+++++.......    ",
"   .OOOOOOOOOOOO++++++@@@@@.    ",
"   .OOOOOOOOOOOO++++++@@@@@.    ",
"   .OOOOOOOOOOOO+++++++++++.    ",
"   .OOO....OO....++....++++.    ",
"   .OOOOOOOOOOOO+++++++++++.    ",
"   .OOO..OOO......++...++++.    ",
"   .OOOOOOOOOOOO+++++++++++.    ",
"   .OOO..O....OO....+..++++.    ",
"   .OOOOOOOOOOOO+++++++++++.    ",
"   .OOOOOOOOOOOO+++++++++++.    ",
"   .OOOOOOOOOOOO+++++++++++.    ",
"   .OOO...OO...O...++..++++.    ",
"   .OOOOOOOOOOOO+++++++++++.    ",
"   .OOO.OO....OO..++...++++.    ",
"   .OOOOOOOOOOOO+++++++++++.    ",
"   .OOO....OO....++....++++.    ",
"   .OOOOOOOOOOOO+++++++++++.    ",
"   .OOO..O....OO...++..++++.    ",
"   .OOOOOOOOOOOO+++++++++++.    ",
"   .OOOOOOOOOOOO+++++++++++.    ",
"   .OOOOOOOOOOOO+++++++++++.    ",
"   .OOOOOOOOOOOO+++++++++++.    ",
"   .OOOOOOOOOOOO+++++++++++.    ",
"   .........................    ",
"                                "};
