/* XPM */
static char * icl8_5792_xpm[] = {
/* width height ncolors chars_per_pixel */
"32 32 24 1",
/* colors */
" 	s None	c None",
".	c #00EF00",
"X	c #00DC00",
"o	c #00BA00",
"O	c #00AB00",
"+	c #008900",
"@	c #007700",
"#	c #005500",
"$	c #004400",
"%	c #002200",
"&	c #001100",
"*	c black",
"=	c #0000EF",
"-	c #000044",
";	c #444444",
":	c #0000AB",
"?	c #AAAAAA",
">	c white",
",	c #BBBBBB",
"<	c #888888",
"1	c #DDDDDD",
"2	c #555555",
"3	c #222222",
"4	c #111111",
/* pixels */
"                                ",
"   ..  ..          ..           ",
"   XX  XX          XX           ",
"   oo  oo   oooo   oo  ooooo    ",
"   OO  OO  OO  OO  OO  OO  OO   ",
"   ++++++  ++  ++  ++  ++  ++   ",
"   @@  @@  @@@@@@  @@  @@  @@   ",
"   ##  ##  ##      ##  ##  ##   ",
"   $$  $$  $$   $  $$  $$  $$   ",
"   %%  %%   %%%%   %%  %%%%%    ",
"                       &&       ",
"                       **       ",
"                                ",
"       =   =   =   =   =        ",
"      ==- ==- ==- ==- ==-       ",
"     ;===-:==-:==-:==-:==-      ",
"    ;??===-:==-:==-:==-:==-     ",
"   ;?:??===-:==-:==-:==-:==-    ",
"  ;???:?==>=-:,=-:,=-:,=-:,=-   ",
" ==????==>>>=-<,=-<,=-<,=-<,=-  ",
"====??==>>>>>=-<,=-<,=-<,=-<,=- ",
" -=====>>>>>>-<,,-<,,-<,,-<,,-  ",
"  -===>>>>>>-<,,-<,,-<,,-<,,-   ",
"   -=>>>>>>-<,,-<,,-<,,-<,,-    ",
"    -=>>>>-<,,-<,,-<,,-<,,-     ",
"     -=>>-:,,-:,,-:,,-:,,-      ",
"      -=- *=- *=- *=- *=-       ",
"       -   -   -   -   -        ",
"********************************",
" <111,,,,????<<<<22222;;;33344* ",
"  ****************************  ",
"                                "};
