/* XPM */
static char *calendar[] = {
/* width height ncolors chars_per_pixel */
"32 32 5 1",
/* colors */
"` c black",
"a c gainsboro",
"b c red",
"c c white",
"d c slate grey",
/* pixels */
"aaaaaaaaaaaaaaaaaaaaaaaaaaaaaaaa",
"aaaaaaaaa`aaaaaaaaaaa`aaaaaaaaaa",
"aaaaaaaa`c`aaaaaaaaa`a`aaaaaaaaa",
"aaaaaaaa```aaaaaaaaa```aaaaaaaaa",
"a````````c```````````c````````aa",
"a`cccccc`c``c`cccccc`a``a`ccc`da",
"a`cccccc```c`acccccc```a`cccc`da",
"a`ccccc``c```cccccc``c```cccc`da",
"a`ccccc``a``ccccccc``a``ccccc`da",
"a`cccccc```ccccbbbcc```cccccc`da",
"a`ccccccccccbbbbbbccccccccccc`da",
"a`ccccccccccbbbbbbcccccbcbcbc`da",
"a`ccccccccccbbbbbbccccccccccc`da",
"a`cccccccccccccbbbccccccbbcbc`da",
"a`cccccccccccccbbbccccccccccc`da",
"a`cccccccccccccbbbcccccbcbbcc`da",
"a`cccccccccccccbbbccccccccccc`da",
"a`cccccccccccccbbbccccccccccc`da",
"a`cccccccccccccbbbccccccccccc`da",
"a`cccccccccccccbbbccccccccccc`da",
"a`cccccccccccccbbbccccccccccc`da",
"a`accccccccccccbbbccccccccccc`da",
"a````````ccccccbbbccccccccccc`da",
"a``ddddd`ccccccbbbccccccccccc`da",
"a`a`dddd`bbcccccccacccbcccccc`da",
"a`ca`ddd`cbccbaabbbacbbcbbcac`da",
"a`cca`dd`bccbabcbabababacbcac`da",
"a`ccca`d`bbcabacbabaabbcbbcac`da",
"a`cccca``cccccccaaaaaaccccccc`da",
"a`````````````````````````````da",
"aaadddddddddddddddddddddddddddda",
"aaaaaaaaaaaaaaaaaaaaaaaaaaaaaaaa"
};
