/* XPM */
static char * icl8_25244_xpm[] = {
/* width height ncolors chars_per_pixel */
"32 32 23 1",
/* colors */
" 	s None	c None",
".	c #888888",
"X	c #BBBBBB",
"o	c #AAAAAA",
"O	c #222222",
"+	c #DDDDDD",
"@	c #444444",
"#	c #555555",
"$	c #440000",
"%	c #CC9966",
"&	c #663300",
"*	c #CCCC66",
"=	c #983200",
"-	c #FFFE9A",
";	c #9A6633",
":	c #FFFECB",
"?	c #FE0032",
">	c white",
",	c #CC6666",
"<	c #CC9999",
"1	c #33FF99",
"2	c #32CB65",
"3	c #777777",
/* pixels */
"                                ",
"         ...................... ",
"        X.ooooooooooooooooooooO ",
"       X+.ooooooooooooooooooooO ",
"      X++.OOOOOOOOOOOOOOOOOOOOO ",
"     X++.@@@@@@@@@@@@@@@@@O###O ",
"    X++.@@@@@@@@@@@@@@@@@O###O  ",
"   X++.@@@@@@@@@@@@@@@@@O###O   ",
"  X++.@@@@@@@@@@@@@@@@@O###O    ",
" X++.@@@@@@@@@@@@@@@@@O###O     ",
" X+.@@@@@@@@@@@@@@@@@O###O      ",
" X.@@@@@@@@@@@@@@@@@O###O       ",
" #OOO$$$$$OOOOOOOOOOOOOO        ",
" X..$%%&&&&&.............       ",
" X..$%&*****&&&&&&&&&&..X.      ",
" X+.$%&**=====********&.XX.     ",
" X++.%&*=-----==========XXX.    ",
" X+++.&*=--;;;;;--------=XXX.   ",
" X++++.*=-;:::::;;;;;;;;;;XXX.  ",
" X+++++.=-;:::::::::::::::;XXX. ",
" X++++++....................... ",
" X++++++.ooo????>>>>,<o????,oooo",
"oo#>>>1>>X++++++.oooo?oo>>>>,,oo",
"?oo########>>>2>>>.+++++.oooo?oo",
">>>>o?oo?oo#.....O#>>>>>>>>.++++",
".oooo?oo>>>>o?oo???#....O3#>>>>>",
">>>>.+++.oooo?oo>>>>o?oo?oo#...O",
"33#>>>>>>>>>>.++.oooo?oo>>>>,,oo",
"?oo#..O333#>>>2>>>>>>>.+.ooo????",
">>>>,<o????#.O3333#>>>1>>>>>>>>.",
".oooooooooooooo#O33333#>>>>>>>>>",
".######################>>>>>>>>>"};
