/* XPM */
static char * icl8_27838_xpm[] = {
/* width height ncolors chars_per_pixel */
"32 32 17 1",
/* colors */
" 	s None	c None",
".	c #222222",
"X	c #00FE00",
"o	c #EEEEEE",
"O	c #BBBBBB",
"+	c #00EF00",
"@	c #00DC00",
"#	c #888888",
"$	c #CCCC99",
"%	c #00BA00",
"&	c #00AB00",
"*	c #008900",
"=	c #007700",
"-	c #005500",
";	c #004400",
":	c #002200",
"?	c #001100",
/* pixels */
"    ...................         ",
"    .XXXXXXXXXX.oooooo..        ",
"    .XXXXXXXXXX.oooooo.O.       ",
"    .X+X+X+X+X+.oooooo.OO.      ",
"    .++++++++++.oooooo.OOO.     ",
"    .++++++++++.oooooo.OOOO.    ",
"    .+@+@+@+@+@.oooooo.......   ",
"    .@.....@@......oo....###.   ",
"    .@.$$$.@@.$.%%.oo.%%.###.   ",
"    .@.$$$.@%.$.%@.oo.%@.ooo.   ",
"    .%.$$$.%%.$.%%.oo.%%.ooo.   ",
"    .%.$$$.%%.$.%%.oo.%%.ooo.   ",
"    .%.$$$....$.&%....&%.ooo.   ",
"    .&.$$$$$$$$.&&&&&&&&.ooo.   ",
"    .&.$$$$$$$$.&&&&&&&&.ooo.   ",
"    .&.$$$$$$$$.*&*&*&*&.ooo.   ",
"    .*.$$$$$$$$.********.ooo.   ",
"    .*.$$$$$$$$.********.ooo.   ",
"    .*.$$$$$$$$.=*=*=*=*.ooo.   ",
"    .=.$$$$$$$$..=======.ooo.   ",
"    .=.$$$$$$$$.o.======.ooo.   ",
"    .=.$$$$$$$..oo.=-=-=.ooo.   ",
"    .-.$$$$$$.-.ooo.----.ooo.   ",
"    .-.$$$$$$.-.ooo.----.ooo.   ",
"    .-.$$$$$$.;.ooo.;-;-.ooo.   ",
"    .;.$$$$$$.;.ooo.;;;;.ooo.   ",
"    .;.$$$$$$.;.ooo.;;;;.ooo.   ",
"    .;.$$$$$$.:.ooo.:;:;.ooo.   ",
"    .:.$$$$$$.:.ooo.::::.ooo.   ",
"    .:........:.ooo......ooo.   ",
"    .:?:?:?:?:?.oooooooooooo.   ",
"    .???????????.............   "};
