/* XPM */
static char * catm_xpm[] = {
"50 50 5 1",
" 	s None	c None",
".	c white",
"X	c black",
"o	c green",
"O	c red",
"                              .XX.                ",
"    .                        .XXXX.               ",
"   .X...                  . XXXXXX.               ",
"   .XXX...                .XXXX.XXX.              ",
"  .XXXXXX..              .XXX....XX.              ",
" .XXX XXXX..             .XX..XX.XX.              ",
" .XXX...XXXX.          ..XXX.XXX.XXX              ",
"  .XX.X..XXX . .........XXX..XXX.XXX.             ",
" .XXX.XX.XXXX..X.X.XX...XXX.XXXX.XXX .            ",
" .XXX.XX..XX XXXXXXXXXXXXXXXXXXX.XXX.             ",
"  .XX.XXXXXX XXXXXXXXXXX XXXXXX..XX .             ",
"  .XX..XXXXXXXXXXXXXXXXX XXXXXXXXXXX              ",
" .XXXXX.XXXXXXXXXXXXXXXXXXXXXXXXXXXXX             ",
" .XXXXXXXXXXXXXXXXXXXXXXXXXXXXXXXX. .             ",
"  .XXXXXXXXXXXXXXXXXXXXXXXXXXXXXX XX              ",
"  .XXXXXXXXXXXXXXXXXXXXXXXXXXXXXXXXXX             ",
"   ..XXXXXXXXXXXXXXXXXXXXXXXXXXXXXXX.             ",
"    X.XXXXXXXXXXXXXXXXXXXXXXXXXXXXXXX             ",
"    .XXXXXXXXXXXXXXXXXXX....XXXXXXXXX             ",
"    .XXXXXXX....XXXXXXX .XX.XXXXXXXX              ",
"   .XXXXXXXX.XX..XXXXXX.XXX.XXXXXXXX.             ",
"   .XXXXXXXX.XXX.XXXXXX.XX..XXXXXXXXX             ",
"   .XXXXXXXX..XX.XXXXXXX...XXXXXXXXXX             ",
"    .XXXXXXXX...XXXXXXXXXXXXXXXXXXXXXX.           ",
"    .XXXXXXXXXXXXXX    XXXXXXXXXXXXXXXX           ",
"    .XXXXoooXooooXX    XXXoooXXXXXX XXXX          ",
"   .oooooXXXXXXXXXXX  XXXXXXXoooooXXXXX X         ",
"       XXXXXooXoooXXXXXXXXoooXXXX oooXX.          ",
"   .   oooooXXXoXXXX...XXXXoXooooXXXXXXXXXX.      ",
"    ooo..XXXXXoXXXX.XXX.X..XoXXXXoooXXXXX X       ",
"          XXXoXXX..XXXXX XXXXoo XXXXXXXXX.        ",
"         .XXoXXXXXXXX..XXXXXXXXoXXXXXXXXXOX X     ",
"         .XoXXXXXXXXXXXXXXXXX.XXoXXXXXXXOXXXX     ",
"         .oX.XXXXXXXXXXXXXXXX.XXXoXXXXXXOXXXX .   ",
"         o XXX...XXXXXXXXX..XXXXXXXXXXXXOXXXXXX   ",
"        o ..XXXXXXX.XXXXXXXXXXXXXXXXXXXOOXXXXXXX .",
"           .XXXXXXXX...X.XXXXXXXXXXXXXXOXXXXXXXXXX",
"            .OOXXXXXXXXXXXXXXXXXXXXXXXOXXXXXXXXX  ",
"            .XXOOOXXXXXXXXXXXXXXXXXXOOXXXXXXXXXXXX",
"            .XXXXXOOOOOOOOOOOOOOOOOOOOXXXXXXXXXXXX",
"             .XXXXXXOXOXXXXXXXXXXXXOXOXXXXXXXXXXX ",
"             .XXOOOOOOOOOOOOOOOOOOOOOOOOOOOXXXXXX ",
"            .XXXOXXXXXXXXXXXXXXXXXXXXXXXXXOXXXXXX ",
"             XXXOXOXXXOXXOOOOXOOOOOXOOOOXXOXXXX   ",
"            ..XXOXOOXOOXOXXXXXXXOXXXOXXXOXOXXXXX .",
"             .XXOXOXOXOXXOOOXXXXOXXXOXXXOXOXXXXXXX",
"            ..XXOXOXXXOXXXXXOXXXOXXXOXXXOXOXXXXXXX",
"            .XXXOXOXXXOXOOOOXXOOOOOXOOOOXXOXXXXXX.",
"           .XXXXOXXXXXXXXXXXXXXXXXXXXXXXXXOXXXXXXX",
"           .XXXXOOOOOOOOOOOOOOOOOOOOOOOOOOOXXXXXXX"};
