/* XPM */
static char * icl8_31866_xpm[] = {
/* width height ncolors chars_per_pixel */
"32 32 15 1",
/* colors */
" 	s None	c None",
".	c #550000",
"X	c #004400",
"o	c #FE0000",
"O	c #00AB00",
"+	c #DDDDDD",
"@	c #AAAAAA",
"#	c #99CC66",
"$	c #222222",
"%	c black",
"&	c #BBBBBB",
"*	c #000044",
"=	c #660033",
"-	c #0000EF",
";	c #980098",
/* pixels */
"......                    XXXXXX",
".oooo.                    XOOOOX",
".oooo.                    XOOOOX",
".oooo.                    XOOOOX",
".oooo.                    XOOOOX",
"......                    XXXXXX",
"      o                  o      ",
"       o                o       ",
"        o              o        ",
"         o            o         ",
"        +++++++++++++++@        ",
"        +##############$        ",
"        +#%%%###%%%%###$        ",
"        +#%##%%%%###%%#$        ",
"        +#%%%###%%%%###$        ",
"        +##############$        ",
"        +%%%%%%%%%%%%%%$        ",
"        +&&&&&&&&&&&&&&$        ",
"        +&&%%%%%&&&%%%&$        ",
"        +%%%&&&%%%%%&%%$        ",
"        +&&&&&&&&&&&&&&$        ",
"        @$$$$$$$$$$$$$$$        ",
"         o            o         ",
"        o              o        ",
"       o                o       ",
"      o                  o      ",
"******                    ======",
"*----*                    =;;;;=",
"*----*                    =;;;;=",
"*----*                    =;;;;=",
"*----*                    =;;;;=",
"******                    ======"};
