/* XPM */
static char * chalkbrd_colors[] = {
"32 26 6 1",
"  c #000000",
". c #FFFFFF",
"X c #AA5500",
"o c #AAAAAA",
"O c #55FF55",
"+ c #55FFFF",
"o                              o",
"o XXXXXXXXXXXXXXXXXXXXXXXXXXXX o",
"o X                          X o",
"o X           .              X o",
"o X         .                X o",
"o X        ..                X o",
"o X                          X o",
"o X      . .      ...        X o",
"o X    .. ..      . .        X o",
"o X   .     .      ..        X o",
"o X  .........     .   ...   X o",
"o X  .       .  .  .   . .   X o",
"o X  . .   . .   .....  ..   X o",
"o X  .   .   .    .     .    X o",
"o X  .   .   .    .   ....   X o",
"o X  .........   . .    .    X o",
"o X             .. ..  ...   X o",
"o X             .      . ..  X o",
"o X                   ..  .  X o",
"o X                          X o",
"o X                          X o",
"o X                          X o",
"o XXXOOOOXXXXX....XXX++++XXXXX o",
" XXXXXXXXXXXXXXXXXXXXXXXXXXXXXX ",
" XXXXXXXXXXXXXXXXXXXXXXXXXXXXXX ",
"o                              o"
} ;
