/* XPM */
static char *clipbd2_xpm[] = {
/* width height ncolors chars_per_pixel */
"32 32 8 1",
/* colors */
"` c black",
"a c cyan",
"b c grey",
"c c red",
"d c sea green",
"e c white",
"f c slate grey",
"g c blue",
/* pixels */
"aaaaaaaaaaaaaaaaaaaaaaaaaaaaaaaa",
"aaaaaaaaaaaaaaaaaaaaaaaaaaaaaaaa",
"aaaaaaaaaaaaaaaaaaaaaaaaaaaaaaaa",
"aaaaaaaaaabbffffffffaaaaaaaaaaaa",
"aaaaaaaaaab`````````faaaaaaaaaaa",
"aaaaaaaaaab`eebebeb``baaaaaaaaaa",
"aaaaaaaaaab`ffbbbfb``baaaaaaaaaa",
"aaabbbbbbbbb``fff````bbbbbbbbaaa",
"aab``````````fbbfff``````````baa",
"ab`dddddd`fffffffffff``dddddd`ba",
"ab`dddddd`beeeeeeeeeb``dddddd``a",
"ab`dd`````bbbbbbbbbbb``````dd``b",
"ab`dd`eee``````````````eee`dd``b",
"ab`dd`eeec`````````````eee`dd``b",
"ab`dd`eeeceeeeeeeeeeeeeeee`dd``b",
"ab`dd`eeeceeeeeeeeeeeeeeee`dd``b",
"ab`dd`gggggggggggggggggggg`dd``b",
"ab`dd`eeeceeeeeeeeeeeeeeee`dd``b",
"ab`dd`eeeceeeeeeeeeeeeeeee`dd``b",
"ab`dd`gggggggggggggggggggg`dd``b",
"ab`dd`eeeceeeeeeeeeeeeeeee`dd``b",
"ab`dd`eeeceeeeeeeeeeeeeeee`dd``b",
"ab`dd`gggggggggggggggggggg`dd``b",
"ab`dd`eeeceeeeeeeeeeeeeeee`dd``b",
"ab`dd`eeeceeeeeeeeeeeeeeee`dd``b",
"ab`dd`gggggggggggggggggggg`dd``b",
"ab`dd`eeeceeeeeeeeeeeeeeee`dd``b",
"ab`dd`eeeceeeeeeeeeeeeeeee`dd``b",
"ab`dd`gggggggggggggggggggg`dd``b",
"ab`dd`eeeceeeeeeeeeeeeeeee`dd``b",
"ab`dd`eeeceeeeeeeeeeeeeeee`dd``b",
"ab`dd`gggggggggggggggggggg`dd``b"
};
