/* XPM */
static char * clock3_xpm[] = {
"31 31 5 1",
"  c #000000",
". c #AAAAAA",
"X c #555555",
"o c #00AAAA",
"O c #55FFFF",
"...XXXXXXXXXXXXXXXXXXXXXXXXX...",
".XXoooooooooooooooooooooooooXX.",
".XooooooooooooXXOooooooooooooO.",
"XoooooooooooooXoOoooooooooooooO",
"XoooooooooooooXoOoooooooooooooO",
"XoooooooooooooXoOoooooooooooooO",
"XoooooooooooooXoOoooooooooooooO",
"Xoooooo ooooooXOOoooooooooooooO",
"Xooooooo oooooooooooooooooooooO",
"Xoooooooo ooooooooooooooooooooO",
"Xooooooooo ooooooooo oooooooooO",
"Xoooooooooo ooooooo ooooooooooO",
"Xooooooooooo ooooo oooooooooooO",
"Xoooooooooooo ooo ooooooooooooO",
"XoXXXXXOoooooo o ooooooXXXXXOoO",
"XoXooooOooooooo oooooooXooooOoO",
"XoXOOOOOoooooooooooooooXOOOOOoO",
"XoooooooooooooooooooooooooooooO",
"XoooooooooooooooooooooooooooooO",
"XoooooooooooooooooooooooooooooO",
"XoooooooooooooooooooooooooooooO",
"XoooooooooooooooooooooooooooooO",
"XoooooooooooooooooooooooooooooO",
"XoooooooooooooXXOoooooooooooooO",
"XoooooooooooooXoOoooooooooooooO",
"XoooooooooooooXoOoooooooooooooO",
"XoooooooooooooXoOoooooooooooooO",
"XoooooooooooooXoOoooooooooooooO",
".XooooooooooooXOOooooooooooooO.",
".XOoooooooooooooooooooooooooOO.",
"...OOOOOOOOOOOOOOOOOOOOOOOOO..."
} ;
