/* XPM */
static char *noname[] = {
/* width height ncolors chars_per_pixel */
"32 32 16 1",
/* colors */
"` c #000000",
"a c #777777",
"b c #555555",
"c c #EEEEEE",
"d c #AAAAAA",
"e c #000077",
"f c #888888",
"g c #000055",
"h c #000044",
"i c #FFFFFF",
"j c #444444",
"k c #000022",
"l c #DDDDDD",
"m c #222222",
"n c #000011",
"o c #BBBBBB",
/* pixels */
"iiiiiiiiiiiiiiiiiiiiiiiiiiiiiiii",
"iiiiiiiiiillllllllllllllllllllii",
"iiiiiiiiiloooooooooooooooooooooi",
"iiiiiiiilooooooooooooooooooooooj",
"iiiiiiiilooa````````````````dooj",
"iiiiiiiiloo```````f``````f``booj",
"iiiiiiiiaff`nnnnnnnnnnndnnnnbooj",
"iiiiiillllllllllllllllllllkkbooj",
"iiiiiloooooooooooooooooooookbooj",
"iiiiloooooooooooooooooooooojjooj",
"iiiilooa````````````````doojjooj",
"iiiiloo```````f``````f``boojjooj",
"iiiiaff`nnnnnnnnnnndnnnnboojjooj",
"iillllllllllllllllllllkkboojjooj",
"iloooooooooooooooooooookboojjooj",
"loooooooooooooooooooooojjoojbooj",
"looa````````````````doojjoojfooj",
"loo```````f``````f``boojjoojfooj",
"loo`nnnnnnnnnnndnnnnboojjoojfoji",
"loo`kkkfkkkkkodkkkkkboojjoojmjii",
"loo`hkhkhkhkokhkhkhkboojjoojiiii",
"loo`hhhhhhcllhhhhhhhboojboojiiii",
"loo`hfhhhhichhhhhhhhboojfoojiiii",
"loo`ghghghghghgfghghboojfoojiiii",
"loo`ggggggggggggggggboojfojiiiii",
"loo`ggggfgggggggggfgboojmjiiiiii",
"loo`egegegegegegegegboojiiiiiiii",
"loo`eeeeeeeeeeefeeeeboojiiiiiiii",
"looabbbbbbbbbbbbbbbbooojiiiiiiii",
"loooooooooooooooooooooojiiiiiiii",
"iaoooooooooooooooooooojiiiiiiiii",
"iijjjjjjjjjjjjjjjjjjjjiiiiiiiiii"
};
