/* XPM */
static char * icl8_18402_xpm[] = {
/* width height ncolors chars_per_pixel */
"32 32 11 1",
/* colors */
" 	s None	c None",
".	c #111111",
"X	c #777777",
"o	c white",
"O	c #BBBBBB",
"+	c #AAAAAA",
"@	c #DDDDDD",
"#	c #444444",
"$	c #0000EF",
"%	c #888888",
"&	c #FFFE66",
/* pixels */
"           ..........           ",
"         ...XXXXXXXX...         ",
"       ..XXXXoXXooOXXXX..       ",
"      .oXXXXXoXXX+oXXXXXo.      ",
"     .XOoXXXXoXX@@XXXXXXoX.     ",
"    .XXXOoXXXoXXoooXXXXoX##.    ",
"   .XXXXXXXXXXXXXXXXXX#o####.   ",
"  .oXXXXXXXXX$$$$$$#########..  ",
"  .XooXXXXX$$$$$$$$$$########.  ",
" .XXXOoXXX$$$++++++$$$#######@. ",
" .XXXXXXX$$++......++$$#####@%. ",
"..XXXXXX$$+.........+$$.###@%#..",
".XXXXXXX$$+..........+$$.######.",
".XXXXXX$$+...........+$$..#####.",
".XOoOXX$$+...&...&...+$$...%o%#.",
".XoXoXX$$+....&..&...+$$....#o#.",
".XOooXX$$+....&&&&&....$....o%#.",
".XXXoXX$$+.....&&&&&.&......#o#.",
".XXXoXX#$$+....&&.&&.&.....%o%#.",
".XXXXXX#$$$+....&.&&&&&.....###.",
"..XXXXX##$$$++.....&&&&....###..",
" .XooX####$$$$++++.&&.&&...###. ",
" .oOXX#####$$$$$$$..&..&..#@@#. ",
"  .XXX######.$$$$$.....&..###.  ",
"  ..X########............###..  ",
"   .X###o#####.XoX......####.   ",
"    .##o%######o......#@###.    ",
"     .o%#######oo%#####%@#..    ",
"      ..#######o#o######@.      ",
"       ..######%o%#####..       ",
"         ...########...         ",
"           ..........           "};
