/* XPM */
static char * icl8_14774_xpm[] = {
/* width height ncolors chars_per_pixel */
"32 32 7 1",
/* colors */
" 	s None	c None",
".	c #222222",
"X	c #CBFE00",
"o	c #FE00FE",
"O	c black",
"+	c #FE9800",
"@	c #00FEFE",
/* pixels */
"..  ..  ..  ..  ..  ..          ",
".X..XX..XX..XX..XX..XX.         ",
" .XXXXXXXXXXXXXXXXXXX...  ..  ..",
".XXXXXXXXXXXXXXXXXXXX.oo..oo... ",
".XXXXXXXXXXXXXXXXXXXXX.ooooooo. ",
" .XXXXXXXXXXXXXXXXXXXX.oooooooo.",
" .XXXXXXXXXXXXXXXXXXX.ooooooooo.",
".XXXXXXXXXXXXXXXXXXXX.oooooooo. ",
".XXXXXXXXXXXXXXXXXXXXX.ooooooo. ",
" .XXXXXXXXXXXXXXXXXXXX.oooooooo.",
" .XXXXXXXXXXXXXXXXXXX.ooooooooo.",
".XXXXXXXXXXXXXXXXXXXX.oooooooo. ",
".XXXXXXXXXXXXXXXXXXXXX.ooooooo. ",
" .XXXXXXXXXXXXXXXXXXXX.oooooooo.",
" .XXXXXXXXXXXXXXXXXXX.ooooooooo.",
".XXXXXXXXXXXXXXXXXXXX.oooooooo. ",
".XXXXXXXXXXXXXXXXXXXXX.ooooooo. ",
" .XXXXXXXXXXXXXXXXXXXX.oooooooo.",
" .XXXXXXXXXXXXXXXXXXX.ooooooooo.",
".XXXXXXXXXXXXXXXXXXXX.oooooooo. ",
".XXOXXXOXXXOXXXOXXXOXX.ooooooo. ",
" .OOOOOOOOOOOOOOOOOOO.ooooooooo.",
" .+++++++++++++++++++.ooooooooo.",
".+++++++++++++++++++++.ooooooo. ",
".+++++++++++++++++++++.@@@@@@@. ",
" .+++++++++++++++++++.@@@@@@@@@.",
" .+++++++++++++++++++.@@@@@@@@@.",
".+++++++++++++++++++++.@@@@@@@. ",
".++..++..++..++..++..+.@@@@@@@. ",
" ..  ..  ..@@..@@..@@.@@@@@@@@@.",
"         .@@..@@..@@..@@..@@..@.",
"         ...  ..  ..  ..  ..  .."};
