/* XPM */
static char * CONFUSED_colors[] = {
"20 30 4 1",
"- s background c none",
"  c #000000",
"= c #00AA00",
"# c #FFFFFF",
"-------      -------",
"------  ----  ------",
"------------  ------",
"------------  ------",
"------------  ------",
"---------    -------",
"---------  ---------",
"---------  ---------",
"--------------------",
"---------  ---------",
"---------  ---------",
"--------------------",
"---              ---",
"-- ============== --",
"- ================ -",
" ================== ",
" ===    ====    === ",
" ==   ## == #### == ",
" ==   ## == #### == ",
" == #### == #  # == ",
" == #### == #  # == ",
" ===    ====    === ",
" ================== ",
" ================== ",
" =====        ===== ",
" ===  == # # =  === ",
" == ==== # # === == ",
"- ====== ### ===== -",
"- =======   ====== -",
"-- ============== --"
} ;
