/* XPM */
static char * icl8_13320_xpm[] = {
/* width height ncolors chars_per_pixel */
"32 32 6 1",
/* colors */
" 	s None	c None",
".	c black",
"X	c #0000FE",
"o	c #333333",
"O	c wheat",
"+	c tan",
/* pixels */
"    ...................         ",
"    .XXXXXXXXooooooooo..        ",
"    .XXXXXXXXooooooooo.O.       ",
"    .XXXXXXXXooooooooo.OO.      ",
"    .XX.XXXXX.ooooo.oo.OOO.     ",
"    .OOOOOOOO+++++++++.OOOO.    ",
"    .OOOOOOOO+++++++++.......   ",
"    .OOOOOOOO.......++++++++.   ",
"    .OOOOOOOO.+++++.++++++++.   ",
"    .OOOOOOOO.+++++.++++++++.   ",
"    .OO.OOOOO.++.......++.++.   ",
"    .OOOOOOOO.++.+++++.+++++.   ",
"    .OOOOOOOO.++.+++++.+++++.   ",
"    .OOOOOOOO....+++++.+++++.   ",
"    .OOOOOOOO+++.+++++.+++++.   ",
"    .OOOOOOOO+++.+++++.+++++.   ",
"    .OO.OOOOO.++.......++.++.   ",
"    .OOOOOOOO+++++++++++++++.   ",
"    .OOOOOOOO+++++++++++++++.   ",
"    .OOOOOOOO+++++++++++++++.   ",
"    .OOOOOOOO+++++++++++++++.   ",
"    .OOOOOOOO+++++++++++++++.   ",
"    .OO.OOOO...++++.+++++.++.   ",
"    .OOOOOO.O++.++++++++++++.   ",
"    .OOOOO.OO+++.+++++++++++.   ",
"    .OOOOO.OO+++.+++++++++++.   ",
"    .OOOOO.OO+++.+++++++++++.   ",
"    .OOOOOO.O++.++++++++++++.   ",
"    .OO.OOOO...++++.+++++.++.   ",
"    .OOOOOOOO+++++++++++++++.   ",
"    .OOOOOOOO+++++++++++++++.   ",
"    .........................   "};
