/* XPM */
static char * icl8_10466_xpm[] = {
/* width height ncolors chars_per_pixel */
"32 32 20 1",
/* colors */
" 	s None	c None",
".	c #FF9A9A",
"X	c #CC6666",
"o	c #FFCBCB",
"O	c #653232",
"+	c #650098",
"@	c #444444",
"#	c #222222",
"$	c #EF0000",
"%	c #550000",
"&	c #440000",
"*	c white",
"=	c #888888",
"-	c #111111",
";	c #555555",
":	c #986500",
"?	c #663300",
">	c #CC9966",
",	c #220000",
"<	c black",
/* pixels */
"   ..................X          ",
"   .oooooooooooooooooXO         ",
"   .ooooooo++ooooooooX.O        ",
"   .oooooo+oo+oooooooX..O       ",
"   .ooooooooo+oo@#oooX...O      ",
"   .ooo$Oooo+ooo@#..oX....O     ",
"   .oo$$ooo+oooo@#..oXOOOOOO    ",
"   .oo$$O.++++o@@@#.ooXXOXX%    ",
"   .oo$$$.oooo@@oo@#ooXXXXX%    ",
"   .oo$$&&oooo@oO..#.oooOooO    ",
"   .oo$&*&&ooo@o..o#..oooooO    ",
"   .Oo$&&&&.Oo@@Oo##O.OoOoOO    ",
"   .oo$&&&&=.oo@@@@oo.oooooO    ",
"   .ooo&&&**=oo@@@@o..ooOooO    ",
"   .ooooo-;**=-@o.@@.ooooooO    ",
"   .ooooOo-;*-:#O.@@.oooOooO    ",
"   .ooooooo-?>?:..@@..oooooO    ",
"   .ooooOooo,?>?:.@@@.ooOooO    ",
"   .ooooooooo,?>?:o@@.oooooO    ",
"   .OoOoOoOoO@,?>?:#@.OoOoOO    ",
"   .oooooooo@@@,?>?:#@.ooooO    ",
"   .ooooOooo@@o.,?>?:#.oOooO    ",
"   .oooooooo@@..@,?>?:.ooooO    ",
"   .ooooO@@@@@@@@@,?>?:<OooO    ",
"   .ooooooo@@o..@@.,?>?:oooO    ",
"   .ooooOo.@@...@@..,?>?:ooO    ",
"   .oooooo@@@..ooo..o,?>?:oO    ",
"   .OoOoOo@@@.OoOoO.Oo,?>?:O    ",
"   .oooooo@@...ooooooo@,?>?O    ",
"   .ooooO@@@...oOooooo@@,?>O    ",
"   .ooooo@@o..ooooooooo@@,?O    ",
"   XOOOOOOOOOOOOOOOOOOOOOOOO    "};
