/* XPM */
static char * crystal_xpm [] = {
"38 42 3 1",
"  c #FFFFFFFFFFFF",
". c #000000000000",
"a c None",
"aa..................................aa",
"a..                                ..a",
"..                                  ..",
".                                    .",
".                                    .",
".                                    .",
".              .......               .",
".            ..       ..             .",
".          ..           ..           .",
".         .          .    .          .",
".        .    .        . . .         .",
".       .          .      . .        .",
".       .            . . . . .       .",
".      .         .      . .  .       .",
".      .  .  .     . . . . . .       .",
".     .        .      . . . . .      .",
".     . .  .     . . . . . .  .      .",
".     .      .      . . . . . .      .",
".     .. .     . . . . . . .  .      .",
".     .    .      . . . . . . .      .",
".     ..     . . . . . . . .  .      .",
".     .  .      . . . . . . . .      .",
".      .   . . . . . . . . . .       .",
".      .      . . . . . . .  .       .",
".       .. . . . . . . . .  .        .",
".       .   . . . . . . . . .        .",
".        . . . . . . . . . .         .",
".         .   . . . . .   ..         .",
".         ...   .. . .  ....         .",
".        ......       .......        .",
".       ......................       .",
".      ........................      .",
".     ..........................     .",
".    ............................    .",
".   ..............................   .",
".  ................................  .",
". .................................. .",
"......................................",
"......................................",
"......................................",
"a....................................a",
"aa..................................aa",
} ;
