/* XPM */
static char *noname[] = {
/* width height ncolors chars_per_pixel */
"32 32 10 1",
/* colors */
"` c #CC9999",
"a c #00EF00",
"b c #555555",
"c c #111111",
"d c #AAAAAA",
"e c #888888",
"f c #FFFFFF",
"g c #DDDDDD",
"h c #CD0033",
"i c #222222",
/* pixels */
"ffffffffffffffffffffffffffffffff",
"ffffffffffffffffffffffffffffffff",
"ffffffffffffffffffffffffffffffff",
"ffffffffffffffffffffffffffffffff",
"ffffffffffffffffffffffffffffffff",
"ffffffffffffffffffffffffffffffff",
"ffffffffffffffffffffffffffffffff",
"ffffffffffffffffffffffffffffffff",
"ffffffffffffffffffffffffffffffff",
"ffffffffffffffffffffffffffffffff",
"ffdffffffffffffffffffffffffffdff",
"ffffffffffffffffffffffffffffffff",
"ffdfffffffddddfffffffffffffffdff",
"ffffffffddffffdfffffffffffffffff",
"ffdffffdffffffdffffffffffffffdff",
"ffdffffdffffffeffffffffffffffdff",
"ffdfffdfff````````````fffffffdff",
"ffdffdfff`iiiiiiiaiaia`ffffffdff",
"fggdfdfff`ihhhhhccccci`fffffggdf",
"fgdbfdfff`ihdddddddddi`fffffgdbf",
"fgdbeffff`ihhhhhccccci`ffffegdbf",
"fgdbfffff`ihhhdddddddi`fffdfgdbf",
"fdbbfffff`ihhhhhccccci`fffdfdbbf",
"ffeffffff`iiiiiiiiiiii`fffdffeff",
"ffdfffffff````````````fffdfffdff",
"ffdffffffffffffffeffffffdffffdff",
"ffdffffffffffffffeffffffdffffdff",
"fffffffffffffffffdffffddffffffff",
"ffdfffffffffffffffddddfffffffdff",
"ffffffffffffffffffffffffffffffff",
"ffdffffffffffffffffffffffffffdff",
"ffffffffffffffffffffffffffffffff"
};
