/* XPM */
static char * gcheck2_colors[] = {
"16 24 4 1",
"  c white",
". c black",
"X c red",
"o c None s Background",
"ooooooooooooo oo",
"ooooooooooooo oo",
"oooooooooooo X o",
"oooooooooooo X o",
"ooooooooooo XXX ",
"ooooooooooo XXX.",
"oooooooooo XXXX.",
"oooooooooo XXX.o",
"ooooooooo XXXX.o",
"ooooooooo XXX.oo",
"  oooooo XXXX.oo",
" X ooooo XXX.ooo",
" XX ooo XXXX.ooo",
" XXX oo XXX.oooo",
" XXXX  XXXX.oooo",
" XXXXX XXX.ooooo",
" XXXXXXXXX.ooooo",
" XXXXXXXX.oooooo",
"o.XXXXXXX.oooooo",
"oo.XXXXX.ooooooo",
"ooo.XXXX.ooooooo",
"oooo.XX.oooooooo",
"ooooo.X.oooooooo",
"oooooo.ooooooooo"
} ;
