/* XPM */
static char * icl8_32385_xpm[] = {
/* width height ncolors chars_per_pixel */
"32 32 10 1",
/* colors */
" 	s None	c None",
".	c #0000EF",
"X	c black",
"o	c wheat",
"O	c #CCCC99",
"+	c #00CBFE",
"@	c #EF0000",
"#	c #FFCBFE",
"$	c #00AB00",
"%	c #00EF00",
/* pixels */
"   ...........XXXXXXXX          ",
"   ...........oooooooXX         ",
"   ...........oooooooXOX        ",
"   ...........oooooooXOOX       ",
"   ...........oooooooXOOOX      ",
"   XoooooooooooooooooXOOOOX     ",
"   XoooooooooooooooooXXXXXXX    ",
"   XoooooooooooooooooooooooX    ",
"   Xooooooo.......oooooooooX    ",
"   Xooooooo.+++++.oooooooooX    ",
"   Xooooooo.+++++.oooooooooX    ",
"   Xooooooo.++@@@@@@@ooooooX    ",
"   Xooooooo.++@#####@ooooooX    ",
"   Xooooooo.++@#####@ooooooX    ",
"   Xooooooo...@#####@ooooooX    ",
"   Xoooooooooo@#####@ooooooX    ",
"   Xoooooooooo@#####@ooooooX    ",
"   Xoooooooooo@@@@@@@ooooooX    ",
"   XoooooooooooooooooooooooX    ",
"   XoooooooooooooooooooooooX    ",
"   Xoooooo$$$ooooooooooooooX    ",
"   Xooooo$%%%$oooooooooooooX    ",
"   Xoooo$%%%%%$ooooooooooooX    ",
"   Xoooo$%%%%%$ooooooooooooX    ",
"   Xoooo$%%%%%$ooooooooooooX    ",
"   Xooooo$%%%$oooooooooooooX    ",
"   Xoooooo$$$ooooooooooooooX    ",
"   XoooooooooooooooooooooooX    ",
"   XoooooooooooooooooooooooX    ",
"   XoooooooooooooooooooooooX    ",
"   XXXXXXXXXXXXXXXXXXXXXXXXX    ",
"                                "};
