/* XPM */
static char * gnu [] = {
"48 48 3 1",
" 	s None	c None",
".	m black	c black",
"X	m white	c white",
"                                                ",
"                                  .             ",
"                                   ..           ",
"                                   ....         ",
"                                     ...        ",
"         .                             ...      ",
"        ..                ...          ....     ",
"       ..           ... ...X...         .X..    ",
"      ...       ....XX...XXXXX..        .X..    ",
"     ...      .....XXXX..XXXXXX..       .XX.    ",
"     ...      ....XXXXXX.XXXXXXX..     ..XX.    ",
"    ...      ....XXXXXXXXXXXXXXXX.    ..XX..    ",
"   ..X.     ....XXX...XXXXXXX...X... ..XXX..    ",
"  ..XX.    .....XX..XXX...............XXX..     ",
"  .XXX.   .....XXX..XX...XXX....XXX........     ",
"  .XXX.   ....XXX..X...XXXXXXX.X.XXXXXXX....    ",
"  .XXX..     .XX..X..XXXXXXXXXX.X..XXXXXXXXX.   ",
"  .XXXX..  ..XX..X..XXXX.X.X.X.X.X.X..........  ",
"  ..XXXX....XX..X..X....X.X.X.X.X...   . . .    ",
"   ..XXXXXXXX..XX.X...XX.X.X.X.X.X..            ",
"   ...XXXXX...XX..X..X.XX...X.X.X.X..           ",
"     ....X..XXX..X..X.X..XX..X.X.X...           ",
"      ....XXXXX..X..X.XX.X..X.X.X.X..           ",
"       ..XXXXX..XX..X....X...X.X.X...           ",
"      .XXXX....XX..XXX...XX.X.X.X.X..           ",
"    ...........XX..XXXXXX.XX.X.X.X....          ",
"    . . . ...X.X.X.XXX....X.X.X.X.X...          ",
"          ...X.X.X..XXX..XX..X.X.X.X..          ",
"         ..X.XX.X.X..XXXXXXXX.X.X.X...          ",
"        ...X..X.X.X.X.XXXXXXX..X.X.X...         ",
"        ...XX....XX.XX..XXXXXX..X.X....         ",
"        ....X..X.XX..XXX.XXXXXXX.X.X...         ",
"        ....XX.X.X.X.X.X..X.....X.X..X..        ",
"       .....XX.X..XX..X.X.X.XXX.....XXX.        ",
"       ......X.XX...X.X.X.X.XXXXX...X...        ",
"        .....X..XX.XX..X....XX.XXX.XX...        ",
"        .....XX..X...X...X...XX..X.XX..         ",
"         ......X..X..XX..X....XX.XXX...         ",
"         ......X...X..X.........XXXX...         ",
"          .....XXX..X..X......XX.......         ",
"          . ......X.XX...XX....XXXXX..          ",
"            ......XX.XX..XX....XXXX..           ",
"             .........X..X...........           ",
"             . .......XX...    .....            ",
"               . ..........                     ",
"                 .........                      ",
"                   . . .                        ",
"                                                "};
