/* XPM */
static char * icl8_9710_xpm[] = {
/* width height ncolors chars_per_pixel */
"32 32 18 1",
/* colors */
" 	s None	c None",
".	c #EEEEEE",
"X	c #BBBBBB",
"o	c #444444",
"O	c #659898",
"+	c #CBFFFF",
"@	c #FE0000",
"#	c #AAAAAA",
"$	c black",
"%	c #CB9832",
"&	c #9999CC",
"*	c #9A3366",
"=	c #339A66",
"-	c #CC6699",
";	c #00EF00",
":	c #555555",
"?	c #888888",
">	c #222222",
/* pixels */
"                                ",
"   ...........................  ",
"  .XXXXXXXXXXXXXXXXXXXXXXXXXXXo ",
"  .XXXXXXXXXXXXXXXXXXXXXXXXXXXo ",
"  .XXXoooooooooooooooooooooXXXo ",
"  .XXoOOOOOOOOOOOOOOOOOOOOO.XXo ",
"  .XXoO++++++++++++++++++++.XXo ",
"  .XXoO++++++++++++++++++++.XXo ",
"  .XXoO+++++++++++@@@@@++++.XXo ",
"  .XXoO++++++++@@@+++++@+++.XXo ",
"  .XXoO++++++@@+++++OOOO@++.XXo ",
"  .XXoO+++@+@++++OOO+++++@+.XXo ",
"  .XXoO+++@@+++OO++++++++@O.XXo ",
"  .XXoO++@@@@+O++++++++++@+#XXo ",
"  .XXoO++@@+OO+++++++++++@+#XXo ",
"  .XXoO+@++OOOO+++++++++@++#XXo ",
"  .XXoO++++OO++++++++++@+++#XXo ",
"  .XXoO$%+$&+$*+$=+$-+++++O.XXo ",
"  .XXoO%%+&&+**+==+--++++O+.XXo ",
"  .XXoO++++++++++++++++++++.XXo ",
"  .XXX.....................XXXo ",
"  .XX;;XXXXXXXXXXXXXXXXXXXXXXXo ",
"  .XX@@XXXXXXXXXXXXXXXXXXX;;XXo ",
"  .XXXXXXXXXXXXXXXXXXXXXXXXXXXo ",
"   ooooooooooooooooooooooooooo  ",
"    :???????????????????????$   ",
"    ::oo>>$$$$$$$$$$$$$$$$$$$   ",
"      $:::::::::::::::::::$     ",
"     >>>>>>>>>>>>>>>>>>>>>>>    ",
" ..............................X",
" .XXXXXXXXXXXXXXXXXXXXXXXXXXXXXo",
" Xoooooooooooooooooooooooooooooo"};
