/* XPM */
static char * icl8_6164_xpm[] = {
/* width height ncolors chars_per_pixel */
"32 32 12 1",
/* colors */
" 	s None	c None",
".	c #002200",
"X	c #FE0000",
"o	c cadet blue",
"O	c #330066",
"+	c #CC6699",
"@	c #BBBBBB",
"#	c #777777",
"$	c #222222",
"%	c black",
"&	c #000044",
"*	c blue",
/* pixels */
"      .......                   ",
"XXXXXX.oooooo.                  ",
"      .ooooooo.                 ",
"      .ooooooo.XXX              ",
"      .ooooooo.  X OOOOOO       ",
"XXXXXX.oooooo.   X  O++++O      ",
"   X  .......    XXXXO++++O O   ",
"   X                 O+++++O+O  ",
"   X                 O+++++O+OXX",
"   X  .......    XXXXO++++O O   ",
"   XXX.oooooo.   X  O++++O      ",
"      .ooooooo.  X OOOOOO       ",
"XXXXXX.ooooooo.XXX              ",
"      .ooooooo.                 ",
"XXXXXX.oooooo.                  ",
"   X  .......                   ",
"   X                            ",
"   X                            ",
"   X         @@@@@@@@@@#        ",
"   X         @#########$        ",
"   X         @#%%%#%%%#$XXXXXXXX",
"   XXXXXXXXXX@#%###%#%#$        ",
"             @#%%%#%%%#$        ",
"             @#########$        ",
"   &&        @#########$        ",
"   &*&       @#########$        ",
"   &**& &    @#%%%#%%%#$        ",
"XXX&***&*&XXX@##%##%#%#$        ",
"   &**& &    @##%##%%%#$XXXXXXXX",
"   &*&       @#########$        ",
"   &&        #$$$$$$$$$$        ",
"                                "};
