/* XPM */
static char *noname[] = {
/* width height ncolors chars_per_pixel */
"32 32 24 1",
/* colors */
"` c #000000",
"a c #AB0000",
"b c #110000",
"c c #220000",
"d c #FFCC9A",
"e c #FFFECB",
"f c #440000",
"g c #EF0000",
"h c #550000",
"i c #770000",
"j c #CC9966",
"k c #000077",
"l c #000055",
"m c #663300",
"n c #0000AB",
"o c #000044",
"p c #BA0000",
"q c #0000DC",
"r c #FFFFFF",
"s c #FF3333",
"t c #000089",
"u c #DC0000",
"v c #000022",
"w c #890000",
/* pixels */
"rrrrrrrrrrrrrrrrrrrrrrrrrrrrrrrr",
"rrrrrrrrrrrrrrrrrrrrrrrrrrrrrrrr",
"rrrrrrrrrrrrrrrrrrrrrrrrrrrrrrrr",
"rrrrrrrrrrrrrrrrrrrrrrrrrrrrrrrr",
"rrrrrrrrrrrrrrrrrrrrrrrrrrrrrrrr",
"rrrrrrrrrrrrrrrrrrrrrrrrrrrrrrrr",
"rrrrrrrrrrrrrrrrrrrrrrrrrrrrrrrr",
"rrrrrrrrrrrrrrrrrrrrrrrrrrrrrrrr",
"rrrrrrrrrrrrrrrrrrrrrrrrrrrrrrrr",
"rrrrrrrrrrrrrrrrrrrrrrrrrrrrrrrr",
"rsssssssssssssssssssssssssgrrrrr",
"rseeeeeeeeeeeeeeeeeeeeeeeearrrrr",
"rseeeeeeeeeeeeeeeeeeeeeeeearrrrr",
"rseggggeeeeeeeeeeeeeeeggeearrrrr",
"rseueeeeeeeeeeeeeeeeeeeeuearrrrr",
"rsepeeeeeeeeeeeeeeeeeeepeearrrrr",
"rseaeeeaaeeeeeeeeeeeeeaaaearrrrr",
"rsewwweeeewwwewweeewwweeeearrrrr",
"rseieeeeeeieeieeieieeeeeeearrrrr",
"rseheeehheheeheehejjjjjjeearrrrr",
"rsefeeeeeefeefeefjddddddjearrrrr",
"rseceeeeeeceeceejdjjdddddjarrrrr",
"rsebbbbeeebeebejdjmmjdddddjrrrrr",
"rseeeeeeeeeeeeejjmeejddddddjrrrr",
"rgaaaaaaaaaaa```j`````ddddddjkkk",
"rrrrrrrrrrrrrrrjddjjjjjddddddqqq",
"rrrrrrrrrrrrrrrmjddddddddddddnnn",
"rrrrrrrrrrrrrrrrmjjddddddddddttt",
"rrrrrrrrrrrrrrrrrmmjjjjjjjjddkkk",
"rrrrrrrrrrrrrrrrrrrmmmmmmmmjjlll",
"rrrrrrrrrrrrrrrrrrrrrrrrrrrmmooo",
"rrrrrrrrrrrrrrrrrrrrrrrrrrrrrvvv"
};
