/* XPM */
static char * grafdoc_xpm[] = {
"31 34 8 1",
"  c #000000",
". c #FFFFFF",
"X c #0000AA",
"o c #00AA00",
"O c #AA0000",
"+ c None s Background",
"@ c #555555",
"# c #FF55FF",
"+++++++@@@@@@@@@@@@@@@@@@@@@@++",
"++++++@@....................@++",
"+++++@.@....................@@@",
"++++@..@....................@@@",
"+++@...@....................@@@",
"++@....@....................@@@",
"+@.....@....................@@@",
"@@@@@@@@.......### .........@@@",
"@..............### .........@@@",
"@..............### .........@@@",
"@..............### .........@@@",
"@........ooo ..### .........@@@",
"@........ooo ..### .........@@@",
"@........ooo ..### ..OOO ...@@@",
"@........ooo ..### ..OOO ...@@@",
"@........ooo ..### ..OOO ...@@@",
"@........ooo ..### ..OOO ...@@@",
"@........ooo ..### ..OOO ...@@@",
"@..XXX ..ooo ..### ..OOO ...@@@",
"@..XXX ..ooo ..### ..OOO ...@@@",
"@..XXX ..ooo ..### ..OOO ...@@@",
"@..XXX ..ooo ..### ..OOO ...@@@",
"@..XXX ..ooo ..### ..OOO ...@@@",
"@..XXX ..ooo ..### ..OOO ...@@@",
"@..XXX ..ooo ..### ..OOO ...@@@",
"@..XXX ..ooo ..### ..OOO ...@@@",
"@..XXX ..ooo ..### ..OOO ...@@@",
"@..XXX ..ooo ..### ..OOO ...@@@",
"@..    ..    ..    ..    ...@@@",
"@...........................@@@",
"@...........................@@@",
"@@@@@@@@@@@@@@@@@@@@@@@@@@@@@@@",
"++@@@@@@@@@@@@@@@@@@@@@@@@@@@@@",
"++@@@@@@@@@@@@@@@@@@@@@@@@@@@@@"
} ;
