/* XPM */
static char *graph[] = {
/* width height ncolors chars_per_pixel */
"32 32 5 1",
/* colors */
"` c black",
"a c cyan",
"b c dodger blue",
"c c tomato",
"d c white",
/* pixels */
"dddddddddddddddddddddddddddddddd",
"d``````````````````````````````d",
"d`dddddddddddddddddddddddddddd`d",
"d`dddddddddddddddddddddddddddd`d",
"d`dddddddddddddddddddddddddddb`d",
"d`ddddddddddddddddddddddddddbb`d",
"d`ddddddddddddddddddddddddbbbd`d",
"d`ddddddddddddddddddddddbbbdcc`d",
"d`ddddddddddddddddddddddbddccd`d",
"d`dddddddddddddddddddddbbddcdd`d",
"d`aadddddddddddddddddddbddccdd`d",
"d`dadddddddddddaaaaaaaabdccdaa`d",
"d`ddadddddddddaaddddddaaacaadd`d",
"d`dddaaddddddaadbbbbdbbdccdddd`d",
"d`ddddaaaaaaaadbbddbbbdccddddd`d",
"d`ddddddddddccccddddddccdddddd`d",
"d`dddddddddccddccddddccddddddd`d",
"d`dddddddbccddbbdcccccdddddddd`d",
"d`ddddddbccbdbbddddddddddddddd`d",
"d`ddddddccdbbbdddddddddddddddd`d",
"d`dddddccddddddddddddddddddddd`d",
"d`bbbcccdddddddddddddddddddddd`d",
"d`dddcddddddddddddddddddddd`dd`d",
"d`dccdddddddddddddddddddd`d`dd`d",
"d`ccdddddddddddddddd`ddd``d``d`d",
"d`ddddddddddddddddd``dd```d``d`d",
"d`ddd`dddddd`dddd`d``dd``````d`d",
"d``d``ddd`d```dd`````d`````````d",
"d``````d```````d```````````````d",
"d``````````````````````````````d",
"d``````````````````````````````d",
"dddddddddddddddddddddddddddddddd"
};
