/* XPM */
static char *noname[] = {
/* width height ncolors chars_per_pixel */
"32 32 20 1",
/* colors */
"` c #777777",
"a c #555555",
"b c #00AB00",
"c c #008900",
"d c #005500",
"e c #111111",
"f c #AAAAAA",
"g c #000066",
"h c #888888",
"i c #00DC00",
"j c #FFFFFF",
"k c #000033",
"l c #444444",
"m c #33FE00",
"n c #DDDDDD",
"o c #222222",
"p c #FE0000",
"q c #004400",
"r c #002200",
"s c #BBBBBB",
/* pixels */
"jjjjjjjjjjjjeeeeeeeejjjjjjjjjjjj",
"jjjjjjjjjjjjejjjjjjejjjjjjjjjjjj",
"jjjjaaaaaaaaaaaalloooeeeeeeejjjj",
"jjjjahfsnnnnnssffhh``aallooejjjj",
"jjjjeeeeeeeeeeeeeeeeeeeeeeeejjjj",
"jjjjjjrrrrrrrrrrrrrrrrrrrrjjjjjj",
"jjjjjjrrrrqjjjqrrqjjjqrrrrjjjjjj",
"jjjjjjjqqqjjggjqqjggjjdddjjjjjjj",
"jjjjjjmibbqjgkqbbqkgjqccdrjjjjjj",
"jjjjjjmibbbqqqbbbbqqqbbcdrjjjjjj",
"jjjjjjmibbbbbbbbbbbbbbbcdrjjjjjj",
"jjjjjjmiibbiiiiiiiiibcdddrjjjjjj",
"jjjjjjjmmiibiqpppqqqcdrrrjjjjjjj",
"jjjjjjjjmmmibiqqqqbcdrrjjjjjjjjj",
"jjjjjjjjjjjmrbbbbbcdrjjjjjjjjjjj",
"jjjjjjjjjjjmirrrrrrdrjjjjjjjjjjj",
"jjjjjjjjjjjmidddddddrjjjjjjjjjjj",
"jjjjjjjjjjjmibcccccdrjjjjjjjjjjj",
"jjjjjjjjjjjmibbbbbcdrjjjjjjjjjjj",
"jjjjmmmmmmmibbbbbbbbdrjjjjjjjjjj",
"jmmiiiiiiimbbbbbbbbbbmmmmjjjjjjj",
"jmibbbbbbbbbbbbbbbbbbbiiirjjjjjj",
"jmibbbrdccccccccccccccbbcdrjjjjj",
"jmibbcdrddddddddddddrdcbbcdrjjjj",
"jmibccdrrrrrrrrrrrrrrrdcbbcdrjjj",
"jjrddddrjjjjjjjjjjjjjrddcbbcdrjj",
"jjjrrrrrjjjjjjjjjjjjjjrrdcbbcqrj",
"jjjjjjjjjjjjjjjjjjjjjjjjrdcbbdrj",
"jjjjjjjjjjjjjjjjjjjjjjjjjrdcbcdr",
"jjjjjjjjjjjjjjjjjjjjjjjjjjrdccdr",
"jjjjjjjjjjjjjjjjjjjjjjjjjjjrddrj",
"jjjjjjjjjjjjjjjjjjjjjjjjjjjjrrjj"
};
