/* XPM */
static char * icl8_12833_xpm[] = {
/* width height ncolors chars_per_pixel */
"32 32 18 1",
/* colors */
" 	s None	c None",
".	c #66CC66",
"X	c #99FE00",
"o	c #EEEEEE",
"O	c #AAAAAA",
"+	c gray80",
"@	c #00BA00",
"#	c #002200",
"$	c #00AB00",
"%	c #555555",
"&	c #777777",
"*	c #888888",
"=	c #444444",
"-	c #008900",
";	c #BBBBBB",
":	c #DDDDDD",
"?	c white",
">	c #222222",
/* pixels */
".XXXXXXoOOOOOoOOOoOoOOO+@XX@@   ",
"X@@#$$$o%%%&O%%*o+=+=&&%#@@@@@  ",
"X@@#$$$o%%&O%%*o*%%%&&+%#@@@@@@ ",
"X@@#$$$o%&O%%*o+%###o+O%#@@@@@@#",
"X@@#$$$o=O%%*o+=%#--oO&%#@@@@@@#",
"X@@#$$$oO%%*o+=%%#--o&&%#@@@@@@#",
"X@@#$$$o%%*o+===%#--o&+%#@@@@@@#",
"X@@#$$$o%*o+=%=&%#--o+&=#@@@@@@#",
"X@@#$$$o*o+=%=&&oooo;&=%#@@@@@@#",
"X@@#$$$oo+=%=&&oO*&+&=%%#@@@@@@#",
"X@@#$$$.%%%%%%%%%%%%=%%=#@@@@@@#",
"X@@@XXXXX###############@@@@@@@#",
"X@@@@@@@@@@@@@@@@@@@@@@@@@@@@@@#",
"X@@@@@@@@@@@@@@@@@@@@@@@@@@@@@@#",
"X@@@.;;;;;;;;;;;;;;;;;;;;;;.@@@#",
"X@@@;::?;::::::?;::::::?;::*@@@#",
"X@@@;:::?;:::::;::::::?;:::*@@@#",
"X@@@;::::?;::::O:::::?;::::*@@@#",
"X@@@;:::::?;::O>O:::?;:::::*@@@#",
"X@@@;:::::;:::>?>:::;::::::*@@@#",
"X@@@;::::::::&:?:&:::::::::*@@@#",
"X@@@;::::::::=?;O=:::::::::*@@@#",
"X@@@;:::::::&:ooo:&::::::::*@@@#",
"X@@@;:????;:>??*o*>::?????;*@@@#",
"X@@@;:;;;;::&:?;o:&::;;;;;:*@@@#",
"X@@@;::::::::=?*O=:::::::::*@@@#",
"X@@@;::::::::&:O:&:::::::::*@@@#",
"X@@@;:::::::::>o>::::::::::*@@@#",
"X  @;:::::?;::O>O:::?;:::::*@@@#",
"X  @;::::?;::::O:::::?;::::*@@@#",
"X@@@;:::?;::::::::::::?;:::*@@@#",
"@###***********?;***********###@"};
