/* XPM */
static char * grnsball_xpm[] = {
"39 33 4 1",
"   c #00AA00",
".  c #55FF55",
"X  c None s #AAAAAA",
"o  c #555555",
"XXXXXXXXX.......XXXXXXXXXXXXXXXXXXXXXXX",
"XXXXXXX...........XXXXXXXXXXXXXXXXXXXXX",
"XXXXX...............XXXXXXXXXXXXXXXXXXX",
"XXXX.................XXXXXXXXXXXXXXXXXX",
"XXX...................XXXXXXXXXXXXXXXXX",
"XX.................... XXXXXXXXXXXXXXXX",
"XX.................... XXXXXXXXXXXXXXXX",
"X...................... XXXXXXXXXXXXXXX",
"X...................... XXXXXXXXXXXXXXX",
".......................  XXXXXXXXXXXXXX",
".......................  XXXXXXXXXXXXXX",
".......................  XXXXXXXXXXXXXX",
".......................  XXXXXXXXXXXXXX",
".......................  XXXXXXXXXXXXXX",
"......................   XXXXXXXXXXXXXX",
"......................   XXXXXXXXXXXXXX",
"X....................   XXXXXXXXXXXXXXX",
"X....................   XXXXXXXXXXXXXXX",
"XX..................   XXXXXXXXXXXXXXXX",
"XX.................    XXXXXXXXXXXXXXXX",
"XXX...............    XXXXXXXXXXXXXXXXX",
"XXXX............     XXXXXXXXXXXXXXXXXX",
"XXXXX  .......      XXXXXXXXXXXXXXXXXXX",
"XXXXXXX           XXXXXXXXXXXXXXXXXXXXX",
"XXXXXXXXX       XXXXXXXXXXXXXXXXXXXXXXX",
"XXXXXXXXXXXXXXXXXXXXXXXXXXXXXXXXXXXXXXX",
"XXXXXXXXXXXXXXXXXoooooooooooooooXXXXXXX",
"XXXXXXXXXXXXXoooooooooooooooooooooooXXX",
"XXXXXXXXXXXoooooooooooooooooooooooooooX",
"XXXXXXXXXXooooooooooooooooooooooooooooo",
"XXXXXXXXXXXoooooooooooooooooooooooooooX",
"XXXXXXXXXXXXXoooooooooooooooooooooooXXX",
"XXXXXXXXXXXXXXXXXoooooooooooooooXXXXXXX"
} ;
