/* XPM */
static char * icl8_25810_xpm[] = {
/* width height ncolors chars_per_pixel */
"32 32 13 1",
/* colors */
" 	s None	c None",
".	c #CC9966",
"X	c #663300",
"o	c #444444",
"O	c #BBBBBB",
"+	c #9A6633",
"@	c #FFCC9A",
"#	c #004400",
"$	c #008900",
"%	c #66CC66",
"&	c #DDDDDD",
"*	c #FECB00",
"=	c #CD6600",
/* pixels */
"         .XoOOoOOOoOOOOOoOOO+   ",
"        .XoOOoOOOoOOOOooOO..X   ",
"       .XoOOoOOooOOoooOO..++X   ",
"      .XoOOoOOoOOooOOO..++++X   ",
"     .XoOooOooOooOOO..++++++X   ",
"     ...............++++++++X   ",
"    .@............X+++++++++X   ",
"    .@##########$.X+++++++++X   ",
"    .@#$$$$$$$$$%.X+++++++++X   ",
"    .@#&&&$$&$$&%.X+++++++++X   ",
"    .@#$$&$$&$$&%.X+++++++++X   ",
"    .@#$$&$$&$&$%.X+++++++++X   ",
"    .@#$$&$&&$&$%.X+++++++++X   ",
"    .@#$$&&$&&$$%.X+++++++++X   ",
"    .@#$$&$$&$$$%.X+++++++++X   ",
"    .@$%%%%%%%%%%.X+++++++++X   ",
"    .@............X+++++++++X   ",
"    .@............X+++++++++X   ",
"    .@............X+++++++++X   ",
"    .@....**......X+++++++++X   ",
"    .@...*.=*.....X+++++++++X   ",
"    .@...****=....X+++++++++X   ",
"    .@...*==*=....X+++++++++X   ",
"    .@....=..=....X+++++++++X   ",
"    .@............X+++++++++X   ",
"    .@...****.....X+++++++++X   ",
"    .@....=*==....X+++++++XX    ",
"    .@....*.=.....X+++++XX      ",
"    .@...****.....X+++XX        ",
"    .@....====....X+XX          ",
"    .@............XX            ",
"     XXXXXXXXXXXXX              "};
