/* XPM */
static char * icl8_18113_xpm[] = {
/* width height ncolors chars_per_pixel */
"32 32 7 1",
/* colors */
" 	s None	c None",
".	c #989878786767",
"X	c tan",
"o	c wheat",
"O	c #FE0000",
"+	c black",
"@	c white",
/* pixels */
"       ......................   ",
"       ......................   ",
"     XXXXXXXXXXXXXXXXXXXXXX..   ",
"     XXXXXXXXXXXXXXXXXXXXXX..   ",
"   ooooooooooooooooooooooXX..   ",
"   ooooooooooooooooooooooXX..   ",
"   ooOOOOOOOOOOOo++o+++ooXX..   ",
"   ooOOOOOOOOOOOoooooooooXX..   ",
"   ooO@@@OO@OO@Oo+++o++ooXX..   ",
"   ooOOO@OO@OO@OoooooooooXX..   ",
"   ooOOO@OO@O@OOo++++++ooXX..   ",
"   ooOOO@O@@O@OOoooooooooXX..   ",
"   ooOOO@@O@@OOOo++o+++ooXX..   ",
"   ooOOO@OO@OOOOoooooooooXX..   ",
"   ooOOOOOOOOOOOo+++o++ooXX..   ",
"   ooooooooooooooooooooooXX..   ",
"   ooooooooooooooooooooooXX..   ",
"   ooooo++++o++++++o+++ooXX..   ",
"   ooooooooooooooooooooooXX..   ",
"   oo++++o+++o++++o++++ooXX..   ",
"   ooooooooooooooooooooooXX..   ",
"   oo++++++o+++++++o+++ooXX..   ",
"   ooooooooooooooooooooooXX..   ",
"   ooooooooooooooooooooooXX..   ",
"   ooooo++o+++++o++++++ooXX..   ",
"   ooooooooooooooooooooooXX..   ",
"   oo+++o+++++o++++++++ooXX..   ",
"   ooooooooooooooooooooooXX..   ",
"   oo+++++o+++++o++o+++ooXX     ",
"   ooooooooooooooooooooooXX     ",
"   oooooooooooooooooooooo       ",
"   oooooooooooooooooooooo       "};
