/* XPM */
static char *noname[] = {
/* width height ncolors chars_per_pixel */
"32 32 13 1",
/* colors */
"` c #000000",
"a c #CBFFFF",
"b c #326565",
"c c #FF9A9A",
"d c #EF0000",
"e c #FF33CC",
"f c #770000",
"g c #99CCCC",
"h c #00AB00",
"i c #659898",
"j c #FFFFFF",
"k c #444444",
"l c #DDDDDD",
/* pixels */
"jjjjjjjkkkkkkkkkkkkkkkkkkkkkkjjj",
"jjjjjjjkiiiiiiiiiiiiiiiiiiiikjjj",
"jjjjjbbbbbbbbbbbbbbbbbbbbbbikjjj",
"jjjjjbggggggggggggggggggggbikjjj",
"jjjiiiiiiiiiiiiiiiiiiiiiigbikjjj",
"jjjiaaaaaaaaaaaaaaaaaaaaigbikjjj",
"jjjiaffffffffffdaaaaaaaaigbikjjj",
"jjjiafdddddddddcaaaaaaaaigbikjjj",
"jjjiaflllddlddlcaaaaaaaaigbikjjj",
"jjjiafddlddlddlcaaaaaaaaigbikjjj",
"jjjiafddlddldldcaaaaaaaaigbikjjj",
"jjjiafddldlldldcaaaaaaaaigbikjjj",
"jjjiafddlldllddcaaaaaaaaigbikjjj",
"jjjiafddlddldddcaaaaaaaaigbikjjj",
"jjjiadccccccccccaaaaaaaaigbikjjj",
"jjjiaaaaaaaaaaaaaaaaaaaaigbikjjj",
"jjjiaaaaaaaaaaaaaaaaaaaaigbikjjj",
"jjjiaeeeeaa`````a``````aigbikjjj",
"jjjiaeeeeaaaaaaaaaaaaaaaigbikjjj",
"jjjiaaaaaaa````a```a```aigbikjjj",
"jjjiaaaaaaaaaaaaaaaaaaaaigbikjjj",
"jjjiaaaaaaaaaaaaaaaaaaaaigbikjjj",
"jjjiahhhhaa````a```a```aigbikjjj",
"jjjiahhhhaaaaaaaaaaaaaaaigbikjjj",
"jjjiaaaaaaa``a````a````aigbikjjj",
"jjjiaaaaaaaaaaaaaaaaaaaaigbikjjj",
"jjjiaaaaaaaaaaaaaaaaaaaaigbikjjj",
"jjjiaddddaa`````a``````aigbkkjjj",
"jjjiaddddaaaaaaaaaaaaaaaigbjjjjj",
"jjjiaaaaaaa```a````a```aibbjjjjj",
"jjjiaaaaaaaaaaaaaaaaaaaaijjjjjjj",
"jjjiiiiiiiiiiiiiiiiiiiiiijjjjjjj"
};
