/* XPM */
static char * icl8_6829_xpm[] = {
/* width height ncolors chars_per_pixel */
"32 32 13 1",
/* colors */
" 	s None	c None",
".	c black",
"X	c #00EF00",
"o	c #CD00CD",
"O	c #005500",
"+	c #00DC00",
"@	c #FF9933",
"#	c #663300",
"$	c #00BA00",
"%	c #00AB00",
"&	c #BBBBBB",
"*	c #008900",
"=	c #007700",
/* pixels */
"........................        ",
".XXXXXXXXXXoooooooooXXX..       ",
".XXXXXXXooooooooooooooX.O.      ",
".XXXXXoooooooooXXXXXXXo.OO.     ",
".XXXXooooooooXXXXXXXXXX.OOO.    ",
".XXXXoooooooXXXXXXXXXXX.OOOO.   ",
".+++oooooooo++++++++++..OOOOO.  ",
".+++ooooooooo++++++++.@.OOOOOO. ",
".+++oooooooooo++++++.@#.........",
".+++ooooooooooo++++.@#.OOOOOOOO.",
".++++ooooooooooo++.@#.+++++++++.",
".$$$$oooooooooo$$.@#.$$$$oooo$$.",
".$$$$$oooooooo$$.@#.$$$$oo$$oo$.",
".$$$$$$oooooo$$.@#.$$$$$oo$$oo$.",
".$$$$$$$oooo$$.@#.$$$$$$$$$$oo$.",
".$$$$$$$$oo$$.@#.$$oo$$$$$$oo$$.",
".%%%%%%%%%%%.@#.%%oooo%%%%oo%%%.",
".%%%%%%%%%%.@#.%%oooooo%%%oo%%%.",
".%%%%%%%%%.@#.%%oooooooo%%%%%%%.",
".%%%%%%%...#.%%oooooooooo%oo%%%.",
".%%%%%%..&..%%ooooooooooo%oo%%%.",
".******.&&&.***ooooooooooo*****.",
".*****..&&..****oooooooooo*****.",
".*****..&..******ooooooooo*****.",
".*****....********oooooooo*****.",
".*****...**********ooooooo*****.",
".=====...==========oooooo======.",
".======...=========oooooo======.",
".====o============oooooo=======.",
".=====oo========ooooooo========.",
".=======ooooooooooooo==========.",
"................................"};
