/* XPM */
static char * icl8_18359_xpm[] = {
/* width height ncolors chars_per_pixel */
"32 32 23 1",
/* colors */
" 	s None	c None",
".	c #99CC66",
"X	c #66CC66",
"o	c #9AFF9A",
"O	c #550000",
"+	c #66FF66",
"@	c #659865",
"#	c black",
"$	c #339A9A",
"%	c #0000FE",
"&	c #66CC99",
"*	c #0000EF",
"=	c #0000DC",
"-	c #0000BA",
";	c #006633",
":	c #0000AB",
"?	c #002200",
">	c #000089",
",	c #326532",
"<	c #000077",
"1	c #000055",
"2	c #000044",
"3	c #000022",
/* pixels */
"              ..                ",
"             .XX.               ",
"            .XXXX.              ",
"           .XXXXXX.   oo        ",
"          .XXOOOOXX. o++o       ",
"         .XXOOOOOOX@o++++o      ",
"        .XXOOO  OOOo++++++o     ",
"       .XXXOO ## Oo++++++++o    ",
"      .XXXXOO ## o++++++++++o   ",
"     .XXXXXOOO  o+$%%%%&+++++o  ",
"    .XXXXXXXOOOo+$******++++++o ",
"   .XXXOOXXXXOo++==+++==+++++++o",
"  .XXXO  OXX@o+++--+++--+++++++;",
" .XXXO ## O@o++++::+++::++++++;?",
" @XXXO ## Oo++++++++$>>$+++++;@?",
" ,?XXOO  Oo+++++++++<<$+++++;@? ",
" ?,?XXOOOo++++++++++11+++++;@?  ",
"  ?,?XXOO@++++++++++++++++;@?   ",
"   ?,?XX@,;+++++++++22+++;@?    ",
"    ?,?X@?@;++++++++33++;@?     ",
"   ?#?,?X@?@;++++++++++;@?      ",
"   ?@@?,?X@?@;++++++++;@?       ",
"   ??@@?,??,?@;++++++;@?        ",
"   ?,?@@?,,???@;++++;@?         ",
"    ?,?@@???@@?@;++;@?          ",
"     ?,?@@@@@@@?@;;@?           ",
"      ?,?@@@@@@??@@?            ",
"       ?,?@@@@?,???             ",
"        ?,?@@?,?                ",
"         ?,??,?                 ",
"          ?,,?                  ",
"           ??                   "};
