/* XPM */
static char * icl8_7715_xpm[] = {
/* width height ncolors chars_per_pixel */
"32 32 19 1",
/* colors */
" 	s None	c None",
".	c #99CCCC",
"X	c wheat",
"o	c #659898",
"O	c tan",
"+	c #FF6666",
"@	c #EF0000",
"#	c #550000",
"$	c #326565",
"%	c #CC9966",
"&	c #FFCC9A",
"*	c #BBBBBB",
"=	c #EEEEEE",
"-	c #555555",
";	c #339A9A",
":	c #777777",
"?	c #888888",
">	c #FECB00",
",	c #111111",
/* pixels */
"    ...................         ",
"    .XXXXXXXXXXXXXXXXXoo        ",
"    .XXXXXXXXXXXXXXXXXoOo       ",
"    .XXXXXXXXXXXXXXXXXoOOo      ",
"    .XXXXXXXXX++@@XXXXoOOOo     ",
"    .XXXXXXXX+#XX#@XXXoOOOOo    ",
"    .XXXXXXX+#XXXX@#XXo$$$$$o   ",
"    .XXXXXXX@#XXXX@#XXXOOOOO$   ",
"    .XXXXXXXXXXXXX@#XXXOOOOO$   ",
"    .XXXXXXXXXXXX+#XXXXXXXXX$   ",
"    .XXXXXXXXXXX+#XXXXXXXXXX$   ",
"    .XXXXXXXXXX+#XXXXXXXXXXX$   ",
"    .XXXXXXXXXX@#XXXXXXXXXXX$   ",
"    .XXXXXXXXXXXXXXXXXXXXXXX$   ",
"    .XXXXXXXXXX+@XXXXXXXXXXX$   ",
"    .XXXXXXXXXX@#XXXXXXXXXXX$   ",
"    .XXXXXXXXXXXXXXXXXXXXXXX$   ",
"    .XXXXX%%%%%%%%%%%%%XXXXX$   ",
"    .XXXX%%%%%%%%%%%%%%%XXXX$   ",
"    .XX%%%%%%%%%%%%%%%%%%%XX$   ",
"    .X&&&&&&&&&&&&&&&&&&&&&X$   ",
"    .X&*******************%X$   ",
"    .X&*=---==============%X$   ",
"    .X&*=-;-======::;;;;==%X$   ",
"    .X&-?>??>??>??????????%X$   ",
"    .X&-??????????????????%X$   ",
"    .X&%%%%%%%%%%%%%%%%%%%%X$   ",
"    .XXXX,,XXXXXXXXXXX,,XXXX$   ",
"    .XXXXXXXXXXXXXXXXXXXXXXX$   ",
"    .XXXXXXXXXXXXXXXXXXXXXXX$   ",
"    .XXXXXXXXXXXXXXXXXXXXXXX$   ",
"    o$$$$$$$$$$$$$$$$$$$$$$$$   "};
