/* XPM */
static char * icl8_9876_xpm[] = {
/* width height ncolors chars_per_pixel */
"32 32 20 1",
/* colors */
" 	s None	c None",
".	c #6699FF",
"X	c #3366FF",
"o	c #EEEEEE",
"O	c #AAAAAA",
"+	c gray80",
"@	c #0000BA",
"#	c #000044",
"$	c #555555",
"%	c #777777",
"&	c #888888",
"*	c #444444",
"=	c #000055",
"-	c #000089",
";	c #BBBBBB",
":	c #6699CC",
"?	c #656598",
">	c #FE0000",
",	c #770000",
"<	c black",
/* pixels */
".XXXXXXoOOOOOoOOOoOoOOO+@XX@@   ",
"X@@#@@@o$$$%O$$&o+*+*%%$=@@@@@  ",
"X@@#@@@o$$%O$$&o&$$$%%+$=@@@@@@ ",
"X@@#@@@o$%O$$&o+$===o+O$=@@@@@@#",
"X@@#@@@o*O$$&o+*$=--oO%$=@@@@@@#",
"X@@#@@@oO$$&o+*$$=--o%%$=@@@@@@#",
"X@@#@@@o$$&o+***$=--o%+$=@@@@@@#",
"X@@#@@@o$&o+*$*%$=--o+%*=@@@@@@#",
"X@@#@@@o&o+*$*%%oooo;%*$=@@@@@@#",
"X@@#@@@oo+*$*%%oO&%+%*$$=@@@@@@#",
"X@@#@@@:$$$$$$$$$$$$*$$*=@@@@@@#",
"X@@@XXXXX===============@@@@@@@#",
"X@@@@@@@@@@@@@@@@@@@@@@@@@@@@@@#",
"X@@@@@@@@@@@@@@@@@@@@@@@@@@@@@@#",
"X@@@?;;;;;;;;;;;;;;;;;;;;;;?@@@#",
"X@@@;oooooooooooooooooooooo&@@@#",
"X@@@;oooooooooooooooooooooo&@@@#",
"X@@@;oooooooo>>>>>>oooooooo&@@@#",
"X@@@;ooooooo>>,,,,>,ooooooo&@@@#",
"X@@@;ooooooo>,oooo>,ooooooo&@@@#",
"X@@@;ooooooo,,oooo>,ooooooo&@@@#",
"X@@@;oooooooooooo>>,ooooooo&@@@#",
"X@@@;ooooooooooo>>,oooooooo&@@@#",
"X@@@;oooooooooo>>,ooooooooo&@@@#",
"X@@@;oooooooooo>,oooooooooo&@@@#",
"X@@@;oooooooooo,,oooooooooo&@@@#",
"X@@@;oooooooooooooooooooooo&@@@#",
"X@@@;oooooooooo>,oooooooooo&@@@#",
"X<<@;oooooooooo,,oooooooooo&@@@#",
"X<<@;oooooooooooooooooooooo&@@@#",
"X@@@;oooooooooooooooooooooo&@@@#",
"@###&&&&&&&&&&&&&&&&&&&&&&&&###@"};
