/* XPM */
static char *white[] = {
/* width height ncolors chars_per_pixel */
"32 32 16 1",
/* colors */
"  c #000000000000",
"! c #000000000000",
"# c #800080008000",
"$ c #c000c000c000",
"% c #000080000000",
"& c #800000000000",
"' c #000080000000",
"( c #000000008000",
") c #000000000000",
"* c #420042004200",
"+ c #000000000000",
", c #ff00ff00ff00",
"- c #ff00ff000000",
". c #ff0000000000",
"/ c #0000ff000000",
"0 c #ff00ff00ff00",
/* pixels */
"                                ",
"++++++++++++++++++++++++++++++++",
"++++++++++++++++++++++++++++++++",
"++++++++++++++++++++++++++++++++",
"++++++++++++++++++++++++++++++++",
"++++++++++++++++++++++++++++++++",
"++++++++++++++++!!!!!!!!++++++++",
"+++++++++++++++!,0,0,0,0!+++++++",
"+++++!!!!!!!!!!,0,0,0,0,0!!!++++",
"++++!0,0,0,0,0,0,0,0,0,0,0,0!+++",
"++!!!!!!!!!!!!!!!!!!!!!!!!0,!#++",
"+!0,0,0,0,0,0,0,0,0,0,0,0,!0!##+",
"+!,0,0,0,0,0,0,0,0,0,0,0,0!,!##+",
"+!0,0,0,0,0,0,0,0,0,0,0,0,!0!##+",
"+!,0,0,0,0,0,0,0,0,0,0,0,0!,!##+",
"+!0,0,0,0,0,0,0,0,0,0,0,0,!0!##+",
"+!,0,0,0,0,0,0,0,0,0,0,0,0!,!##+",
"+!0,0,0,0,0,0,0,0,0,0,0,0,!0!##+",
"+!,0,0,0,0,0,0,0,0,0,0,0,0!,!##+",
"+!0,0,0,0,0,0,0,0,0,0,0,0,!0!##+",
"+!,0,0,0,0,0,0,0,0,0,0,0,0!,!##+",
"+!0,0,0,0,0,0,0,0,0,0,0,0,!0!##+",
"+!,0,0,0,0,0,0,0,0,0,0,0,0!,!##+",
"+!0,0,0,0,0,0,0,0,0,0,0,0,!0!##+",
"+!,0,0,0,0,0,0,0,0,0,0,0,0!,!##+",
"+!0,0,0,0,0,0,0,0,0,0,0,0,!0!##+",
"+!,0,0,0,0,0,0,0,0,0,0,0,0!,!##+",
"+!0,0,0,0,0,0,0,0,0,0,0,0,0!!##+",
"+!!!!!!!!!!!!!!!!!!!!!!!!!!!###+",
"+++############################+",
"+++###########################++",
"++++++++++++++++++++++++++++++++"
} ;
