/* XPM */
static char *wing[] = {
/* width height ncolors chars_per_pixel */
"32 32 16 1",
/* colors */
"  c #000000000000",
"! c #bf0000000000",
"# c #0000bf000000",
"$ c #bf00bf000000",
"% c #00000000bf00",
"& c #bf000000bf00",
"' c #0000bf00bf00",
"( c #c000c000c000",
") c #800080008000",
"* c #ff0000000000",
"+ c #0000ff000000",
", c #ff00ff000000",
"- c #00000000ff00",
". c #ff000000ff00",
"/ c #0000ff00ff00",
"0 c #ff00ff00ff00",
/* pixels */
"                                ",
"     ,         /                ",
"    ,,,        /        0       ",
"    ,,,0       /            !   ",
"     ,  0      //          !$!  ",
" //          // --/         !   ",
"  /          // ----/           ",
"  /      0   // --0-///         ",
"  -/         // ----0//         ",
"/ ---/       //  /--/////       ",
"/ -----//    //                 ",
"/ -----0//   //             0   ",
"/ //---0000                     ",
"/   ///////                  ,,,",
"//                0          ,,,",
" /                              ",
"  /         $$    0   /         ",
"           $$$$       /         ",
"           $$$$       //        ",
"            $$      /  -        ",
" 0    /             // ---/     ",
"      /             // -0-////  ",
"   0  //            // -----/// ",
"      //            // -----00//",
"    // ---           /          ",
"    // ---///        /          ",
"    // -0---/0/      /          ",
"    // -----0//          0      ",
"  '  /   --/////              0 ",
" '-' /               *          ",
" 0'  /              ***   0     ",
"                     *          "
} ;
