/* XPM */
static char * icl8_13578_xpm[] = {
/* width height ncolors chars_per_pixel */
"32 32 9 1",
/* colors */
" 	s None	c None",
".	c tan",
"X	c #326565",
"o	c white",
"O	c wheat",
"+	c #770000",
"@	c #EF0000",
"#	c #FF9A9A",
"$	c #DDDDDD",
/* pixels */
" ...............XXXXXXXX......o ",
" .OOOOOOOOOOOOOOXXXXXXXXOOOOO.X ",
" .O++++++++++@OOXXXXXXXXOOOOO.X ",
" ..+@@@@@@@@@#..XXXXXXXXXXXX..X ",
" .O+$$$@@$@@$#OOXooooooooooXO.X ",
" .O+@@$@@$@@$#OOXoXXXXXXoooXO.X ",
" .O+@@$@@$@$@#OOXooooooooooXO.X ",
" .O+@@$@$$@$@#OOXoXXXXoXXXoXO.X ",
" .O+@@$$@$$@@#OOXooooooooooXO.X ",
" .O+@@$@@$@@@#OOXoXXXXXooooXO.X ",
" .O@##########OOXooooooooooXO.X ",
" .OOOOOOOOOOOOOOXoXXXXXXXooXO.X ",
" .OOOOOOOOOOOOOOXooooooooooXO.X ",
" .OOOOOOOOOOOOOOXXXXXXXXXXXXO.X ",
" .OOOOOOOOOOOOOOXXooooooXXXXO.X ",
" .OOOOOOOOOOOOOOXXXXXXXXXXXXO.X ",
" .OOOOOOOOOOOOOOXooooooooooXO.X ",
" .OOOOOOOOOOOOOOXoXXXXXXoooXO.X ",
" .OOOOOOOOOOOOOOXooooooooooXO.X ",
" .OOOOOOOOOOOOOOXXXXXXXXXXXXO.X ",
" .OOOOOOOOOOOOOOOOOOOOOOOOOOO.X ",
" .OOOOOOOOOOOOOOOOOOOOOOOOOOO.X ",
" .OOOOOOOOOOOOOO.OOOOOOOOOO.O.X ",
" .OOOOOOOOOOOOOO.OOOOOOOOOO.O.X ",
" .OOOOOOOOOOOOOOOOOOOOOOOOOOO.X ",
" .OOOOOOOOOOOOOO.OOOOOOOOOO.O.X ",
" .OOOOOOOOOOOOOO.OOOOOOOOOO.O.X ",
" .OOOOOOOOOOOOOO..O..O..O...O.X ",
" .OOOOOOOOOOOOOOOOOOOOOOOOOOO.X ",
" .OOOOOOOOOOOOOOOOOOOOOOOOOOO.X ",
" .............................X ",
"  XXXXXXXXXXXXXXXXXXXXXXXXXXXXX "};
