/* XPM */
static char * woman [] = {
"56 59 4 1",
"  c #D2D2B4B48C8C",
". c #000000000000",
"X c #FFFFFFFFFFFF",
"o c #64649595EDED",
"  .    ...   ...... ...   .        ..   ..     ...      ",
"   ..     ..    ... . .   .  ..   ..  .......     ....  ",
"    .       ..      . .  .   ... ...         ...........",
".   ..        ..    . .  .  .X.. ....            .    ..",
"..       .......    . .  . ..XX.. . .. .         ...   .",
"..   .. ..XXXXXX..... ..   .XXXX....   ..    .     ..  .",
"    ..  .XXXXXXXXXX..  ..X..XXXXXXX..    ..  ..     .  .",
" ....  ..XXXXXXXXXXX.   .X.XXXXXXXXXXXXXXX. ...     .. .",
". ..   .XXXXX....XXX..   X.XXXXXXXX....X..   .....   ...",
"  .    .XXXX.......XX.. .X.XXXXXX.......X..  . .  ..  ..",
" ..    .XXX.........XX...X.XXXXXX........X.. . .      ..",
" .     .XXX..XXXX...XXX..X.XXXX.....XXX...X.   .  .   ..",
" .     .XXX..XXXXX...XXX.XXXXXX...XXXXXX..X. . .  .   ..",
" .     .XXX..X.X.XX...XX.XXXXX..XXXX.X.XX.X. .  . ..  ..",
"..  .. XXXX.X.X...XX...X.XXXX..XXXX....XX.X. .  . ..  . ",
".   .. .XXXXX.......XXXXX.XXX.XXX..oo...XXX. .     .  . ",
".   .. XXXXX...XXoXoo.XXX.XXXXX...oXo...XXX..   . ..   .",
".   ....XXXXX...Xoooo..XX.XXXX..XXooo..XXXX..   . .    .",
"    . .XXXXXX...XXoo.X.XX.XXXX..XXoo....XXX..   .. .   .",
"  . . ...X..X.........XXX..XXXX........XX...    .. .   .",
"  . .  ..X.XXXX...XXXXXXXX.XXXXXXXXX..XXX...    .      .",
"  . .   ...XXXXXXXXXXXXXXXXXXXXXXXXXXXXXXXX.    .. .   .",
"  . .    .XXXXXXXXXXXXXXXXXXXXXXXXXXXXXXXXX.    .. .   .",
". . .    .XXXXXXXXXXXXXXXXXXXXXXXXXXXXXXXX..     .  .  .",
". . .    .XXXXXXXXXXXXXXXXXXXXXXXXXXXXXXXX..   ...  .  .",
". .  .   .XXXXXXXXXXXXXXXXXXXXXXXXXXXXXXX.      .      .",
". .  .   ..XXXXXXXXXXXXXXXXXXXXXXXXXXXXX....   ..   .  .",
"  .   .   .XXXXXXXXXXXXXXXXXXXXXXXXXXXXXXXX.  ..    .  .",
". .    .  .XXXXXXXXXXX..XXXXXXXXXXXXXXXXXXX. ...    .  .",
". .    ....XXXXXXXXXXX....XX.XXXXXXXXXXXXX.. ..     .  .",
"         ...XXXXXXXXXX....XX..XXXXXXXXXXX.  ....       .",
".     .......XXXXXXXXXXXXXXXXXXXXXXXXXXXX. .....   .   .",
"       . .....XXXXXXXXXXXXXXXXXXXX..XXX... .. .    .   .",
".  .   .. .  ..XXXXXXXXX......XXXXX..XXXXX. .          .",
"   .    ..... ..XXXXXX............XX.XXXX..        .   .",
".  ..   . ......XXXXX.............XX.XXXX. .  ..   .   .",
"    .    .. .. .XXXX..............XXXXXXX..    .       .",
".   ..   ... . ..XXX.......XXX...XXXXXXX...  . .   .  .X",
"     .   . .... .XXXX..........XXXXXXXX.....  ..   .  .X",
"..   ..   . ......XXXXX.......XXXXXXXX..X..  ..        X",
"..     .  .  .. ...XXXXXXXXXXXXXXXXXX..XXX.  .    .   .X",
" .     .. .. .. .XX.XXXXXXXXXXXXXXX..XXXX..       .  ..X",
"..      .. .. ...XXX.XXXXXXXXXXXXX..XXXXX...         ..X",
" ..    ........ .XXXX..XXXXXXXXX...XX.XX..         .. .X",
". .   ...  .. ...XXXXX...........XXXX....      .   .  .X",
"  .. ......    ......XXXXXXXXXXXXXXXXXX..... . ..     .X",
"   ... . .............XXXXXXXXXXXXXXXXXXXX.  ..      ..X",
".  ........ .  .XXXXXXXXXXXXXXXXXX.XXXXXXX.. .      ..XX",
".     ..........XXXXXXXXXXXXXXXXXX.XXXXXXXX. ..     . .X",
"      .. .  ...XXXXXXXXXXXXXXXXXXX.XXXXX.XX. ..     . XX",
".      ........XXXXXXXXXXXXXXXXXXX.XXXXX.... ..     . .X",
".      . .. ..XXXXXXXXXXXXXXXXXXXX.XXXXX.. ....    .. .X",
"..     ......XXXXXXXXXXXXXXXXXXXXX.XXXXXX.   .    .. .XX",
".....  .....XXXXXXXXXXXXXXXXXXXXXXX..XXXXX.   .. ..  .XX",
".   .   .....XXXXXXXXXXXXXXXXXXXXXXXXXXXXX..        ..XX",
"...     .......XXXXXXXXXXXXXXXXXXXXXXXXXXXX...     ...XX",
".X..    ........XXXXXXXXXXXXXXXXXXXXXXXXXXXX...  ....XXX",
".XXX... ............XXXXXXXXXXXXXXXXXXX.............XXXX",
"..XX.XX..XXXXXXXXXXXXXXXXXXXXXXXXXXXXXXXXXXXXXXXXXXXXXXX"};

