/* XPM */
static char *noname[] = {
/* width height ncolors chars_per_pixel */
"32 32 11 1",
/* colors */
"` c #AB0000",
"a c #FFCC9A",
"b c #FFFECB",
"c c #777777",
"d c #CC9966",
"e c #111111",
"f c #FF9966",
"g c #AAAAAA",
"h c #9A6633",
"i c #FFFFFF",
"j c #444444",
/* pixels */
"iiiiiiiiiiiiiiiiiiiiiiiiiiiiiiii",
"iiidddddddddddddddddddddddiiiiii",
"iiidbbbbbbbbbbbbbbbbbbbbbddiiiii",
"iiidbbbbbbbbbbbbbbbbbbbbbdadiiii",
"iiidbbjcgbcggbbbbbbbbbbbbdaadiii",
"iiidbbbbbbbbbbbbbbbbbbbbbdaaadii",
"iiidbbgecgcjgbbbbbbbbbbbbhhhhhhi",
"iiidbbbbbbbbbbbbbbbbbbbbbbddddhi",
"iiidbbbbbbbbbbbbbbbbbbbbbbbbbbhi",
"iiidbbeggccegggcgggccgggjgggbbhi",
"iiidbbbbbbbbbbbbbbbbbbbbbbbbbbhi",
"iiidbbgeccgbjjggcggjggcgjjggbbhi",
"iiidbbbbbbbbbbbbbbbbbbbbbbbbbbhi",
"iiidbbbbbbbbbbbbbbbbbbbbbbbbbbhi",
"iiidbbgjggccgejbcgbgeegcbgegbbhi",
"iiidbbbbbbbbbbbbbbbbbbbbbbbbbbhi",
"iiidbbgjcbjjgcgjbgcggbjggebcbbhi",
"iiidbbbbbbbbbbbbbbbbbbbbbbbbbbhi",
"iiidbbcgjecbgjggcbjjgejbcggjbbhi",
"iiidbbbbbbbbbbbbbbbbbbbbbbbbbbhi",
"iiidbbbbbbbbbbbbbbbbbbbbbbbbbbhi",
"iiidbbbbbb`bbbbb`bb````fbbbbbbhi",
"iiidbbbbbb`bbbbb`bb`bbb`bbbbbbhi",
"iiidbbbbbb`bbbbb`bb`bbb`bbbbbbhi",
"iiidbbbbbb`bb`bb`bb````fbbbbbbhi",
"iiidbbbbbb`bb`bb`bb`bbbbbbbbbbhi",
"iiidbbbbbb`bb`bb`bb`bbbbbbbbbbhi",
"iiidbbbbbbf``b``fbb`bbbbbbbbbbhi",
"iiidbbbbbbbbbbbbbbbbbbbbbbbbbbhi",
"iiidbbbbbbbbbbbbbbbbbbbbbbbbbbhi",
"iiibhhhhhhhhhhhhhhhhhhhhhhhhhhhi",
"iiiiiiiiiiiiiiiiiiiiiiiiiiiiiiii"
};
