/* XPM */
static char * icl8_28743_xpm[] = {
/* width height ncolors chars_per_pixel */
"32 32 20 1",
/* colors */
" 	s None	c None",
".	c #444444",
"X	c #FF9A9A",
"o	c #0000EF",
"O	c #FFFECB",
"+	c black",
"@	c #0000FE",
"#	c #FFCC9A",
"$	c #CC9966",
"%	c #FE9800",
"&	c #CD6600",
"*	c #66FFFF",
"=	c #FEFE00",
"-	c #FECB00",
";	c #00AB00",
":	c #222222",
"?	c #99FF33",
">	c #EF0000",
",	c #FFCBCB",
"<	c #CB6532",
/* pixels */
"               .        ...     ",
"              ...      .XX..    ",
" oooooooooooo..O..+++++.XX..++  ",
" o@@@@@@@@@@..OOO..####.....$+  ",
" o@oooooooo..OOoOO..###.%%&.$+  ",
" oo@@@@@@@..OOo*oOO..##.....$+  ",
" oooooooo..OOo***oOO..#.=-%.$+  ",
" +#$$$$$..OOo*****oOO...=-%.$+  ",
" +#$$$$..OOo*****oOOOO..=-%.$+  ",
" +####..OOOOo***oOOOOOO.=-%.$+  ",
" +###..OO;O:Oo*oOOOOOOO.=-%.$+  ",
" +##..OO;?;OOOoOOOOOOO:.=-%.$+  ",
" +#..OO;???;OOOOOO>OO:O.=-%.$+  ",
" +..OO;?????;OOOO>,>>OO.=-%..+  ",
" ..OO;?????;OOOO>,,,>OO.=-%...  ",
"..OOOO;???;OOOO>,,,,,>O.=-%.O.. ",
" ..OOOO;?;OOOO>,,,,,>OO.=-%.OO..",
" +..OOOO;OOOO>,,,,,>OOO.=-%.O.. ",
" +#..OOO:OOOOO>,,,>OOOO.=-%...  ",
" +##..OO:OOOO::>,>OOOOO.=-%..+  ",
" +###...O:O::OOO>OOOOOO.=-%.$+  ",
" +####..OO:OOOOOOOOOOOO.=-%.$+  ",
" +#####..OO:OOOOOOOOOOO.=.%.$+  ",
" +######..OO:OOOOOOOOOO..<..$+  ",
" +#######...OOOOOOOOOO..<<<.$+  ",
" +########..OOOOOOOOO..$.<.$$+  ",
" +#########..OOOOOOO..$$...$$+  ",
" +##########..OOOOO..$$$$+$$$+  ",
" +###########..OOO..$$$$#+$$$+  ",
" +############..O..$$$$####$#+  ",
" ++++++++++++++...++++++++++++  ",
"                .               "};
