/* XPM */
static char * icl8_8066_xpm[] = {
/* width height ncolors chars_per_pixel */
"32 32 21 1",
/* colors */
" 	s None	c None",
".	c black",
"X	c wheat",
"o	c #FFCC9A",
"O	c #FF9A9A",
"+	c #555555",
"@	c #FF6666",
"#	c #888888",
"$	c #222222",
"%	c #FE9800",
"&	c #FF3366",
"*	c #FFFE66",
"=	c #FECB00",
"-	c #9A3333",
";	c #FE6500",
":	c #CD6600",
"?	c #CD3300",
">	c #FFCC66",
",	c #FF9966",
"<	c #CB6532",
"1	c #9A6633",
/* pixels */
"               .                ",
"              .X.               ",
"             .XXX.              ",
"            .XXXXX.             ",
"           .XXXXXXX.       ooO  ",
"          .XXXX.XXXX.     ooOOO ",
"         .XXXX+XXXXXX.   .oOO@@O",
"        .XXXX#XXX$XXXX. .%.O@@@&",
"       .XXXX$XXX+XXXXXX*=.%.@@&-",
"      .XXXX#XXX.XXX$XX*===.;.&- ",
"     .XXXX.XXX#XXX.XX*===%%.:.  ",
"    .XXXXXXXXXXXX#XX*===%%%?.   ",
"   .XXXX$XXX#XXXXXX*===%%%??    ",
"  .XXXX+XXX.XXX.XX*===%%%??X.   ",
" .XXXX#XXXXXXX+XX*===%%%??XXX.  ",
".XXXX.XXX.XXX+XX>%?=%%%??XXXXX. ",
" .XXXXXX+XXX$XXX>>,?%%??XXXXXXX.",
"  .XXXX#XXX#XXXX..,<???XXXXXXX. ",
"   .XXXXXX#XXXXX...11?XXXXXXX.  ",
"    .XXXX$XXXXXX...11XXXXXXX.   ",
"     .XXXXXXXXXXXXXXXXXXXXX.    ",
"      .XXXXXXXXXXXXXXXXXXX.     ",
"       .XXXXXXXXXXXXXXXXX.      ",
"        .XXXXXXXXXXXXXXX.       ",
"         .XXXXXXXXXXXXX.        ",
"          .XXXXXXXXXXX.         ",
"           .XXXXXXXXX.          ",
"            .XXXXXXX.           ",
"             .XXXXX.            ",
"              .XXX.             ",
"               .X.              ",
"                .               "};
