/* XPM */
static char * accessry_xpm[] = {
"48 40 4 1",
"  s background c none",
". c #000000",
"X c #FFFFFF",
"o c #AA5500",
"                              ...               ",
"                             .XX.               ",
"                            .XXX.               ",
"                    ........XXXX.               ",
"                  ..XXXXXXXXXXXX.               ",
"                 .XXXXXXXXXXXXXX.               ",
"                .XXXXXXXXXXXXXXX.               ",
"               .XXXX........XXXX.               ",
"               .XX.. .ooo.  .XXX.               ",
"              .X..   .ooo.   .XX.               ",
"              ..     .ooo.    ...               ",
"              .      .ooo.                      ",
"                     .ooo.                      ",
"                     .ooo.                      ",
"                     .ooo.                      ",
"                     .ooo.                      ",
"......................ooo...................... ",
".X.X.X.X.X.X.X.X.X.XX.ooo.XX.X.X.X.X.X.X.X.X.X. ",
".X.X.X.X.X.X.X.X.X.XX.ooo.XX.X.X.X.X.X.X.X.X.X. ",
".X.X.X.X.X.X.X.X.X.XX.ooo.XX.X.X.X.X.X.X.X.X.X. ",
".X.XXXXX.XXXXX.XXXXXX.ooo.XXXXXX.XXXXX.XXXXX.X. ",
".X.XXXXX.XXXXX.XXXXXX.ooo.XXXXXX.XXXXX.XXXXX.X. ",
".XXXXXXXXXXXXXXXXXXXX.ooo.XXXXXXXXXXXXXXXXXXXX. ",
".XXXXXXXXXXXXXXXXXXXX.ooo.XXXXXXXXXXXXXXXXXXXX. ",
".XXXXXXXXXXXXXXXXXXX..ooo..XXXXXXXXXXXXXXXXXXX. ",
".XXXXXXXXXXXXXXXXXXX.ooooo.XXXXXXXXXXXXXXXXXXX. ",
".XXXXXXXXXXXXXXXXXXX.ooooo.XXXXXXXXXXXXXXXXXXX. ",
".XXXXXXXXXXXXXXXXXXX.ooooo.XXXXXXXXXXXXXXXXXXX. ",
".....................ooooo..................... ",
"                    .ooooo.                     ",
"                    .ooooo.                     ",
"                    .ooooo.                     ",
"                    .ooooo.                     ",
"                    .ooooo.                     ",
"                    .ooooo.                     ",
"                    .ooooo.                     ",
"                    .ooooo.                     ",
"                    .ooooo.                     ",
"                    .ooooo.                     ",
"                    .......                     ",
} ;
