/* XPM */
static char * acm [] = {
"32 32 4 1",
" 	s None	c None",
".	m black	c black",
"X	m white	c SkyBlue",
"o	c lightseagreen",
"            .......             ",
"         .............          ",
"       .....XXX.XXX.....        ",
"      ...XXXXXX.XXXXXX...       ",
"     ..XXXXXXXX.XXXXXXXX..      ",
"    ...XXXXXXXXXXXXXXXXXX..     ",
"   ..XX.XXXXXXX.XXXXXXXXX...    ",
"  ..XXXXXXXXXXX.XXXXXXXX.XX..   ",
"  ..XXXXXXXXXX...XXXXXXXXXX..   ",
" ..XXXXXXXXXXX...XXXXXXXXXXX..  ",
" ..XXXXXXXXXXX...XXXXXXXXXXX..  ",
" ..XXXXXXXXXXX...XXXXXXXXXXX..  ",
"..XXXXXXXXXXXX...XXXXXXXXXXXX.. ",
"..XXXXXXXXXXX.....XXXXXXXXXXX.. ",
"..XXXX........   ........XXXX.. ",
"..... ................... ..... ",
"..oooo...................oooo.. ",
"..ooooooooooo.. ..ooooooooooo.. ",
"..oooooooooooo...oooooooooooo.. ",
" ..ooooooooooo...ooooooooooo..  ",
" ..ooooooooooo...ooooooooooo..  ",
" ..ooooooooooo...ooooooooooo..  ",
"  ..ooo.ooooooo.oooooooo.oo..   ",
"  ..oo.ooo..... ......ooo.o..   ",
"   ...oooo............oooo..    ",
"    ..ooooooooooooooooooo..     ",
"     ..oooooooo.oooooooo..      ",
"      ...oooooo.oooooo...       ",
"       .....ooo.ooo.....        ",
"         .............          ",
"            .......             ",
"                                "};
