/* XPM */
static char * icl8_8886_xpm[] = {
/* width height ncolors chars_per_pixel */
"32 32 15 1",
/* colors */
" 	s None	c None",
".	c #BBBBBB",
"X	c #AAAAAA",
"o	c #777777",
"O	c #DDDDDD",
"+	c #222222",
"@	c #555555",
"#	c #EF0000",
"$	c #00DC00",
"%	c #FEFE00",
"&	c #FE9800",
"*	c #980065",
"=	c #0000EF",
"-	c #000077",
";	c white",
/* pixels */
"                                ",
"                                ",
"                                ",
"                                ",
"                                ",
"                                ",
"                                ",
"              ......            ",
"             .XXXXXXo           ",
"    OOOOOOOO.X++++++X+OOOOOOOOO ",
"   O.........X+oooooX+o.......++",
"  O.........o++o...o++o......+@+",
" O...........ooo....ooo.....+@@+",
" OOOOOOOOOOOOOOOOOOOOOOOOOO+@@@+",
"OXXXXXXXXXXXXXXXXXXXXXXXXXX+@@@+",
"OXXXXXXXXXXXX#XXXXXXXXXXXXX+@@@+",
"OXXXXXXXXXXX##XXXXXXX$$XXXX+@@@+",
"OXXXXXXXXXX###X@XXXX$$XXXXX+@@@+",
"OXXXXXXXXX#X##@@XXXX$XX@@XX+@@@+",
"OXXXXXXXX#XX##@@X$$$X$$$XXX+@@@+",
"OXXXXXXX#XXX##@@%%%%%%%%%XX+@@@+",
"OXXXXXX#######@@&&&&&&&@@@X+@@@+",
"OXXXXX#XXX@X##@@#######@@@@+@@@+",
"OXXXX#XXX@@@##@@*#*#*#*#*XX+@@@+",
"OXXX#XXX@XXX##@@*********XX+@@@+",
"OX####X@XXX####@X=======@@@+@@@+",
"OXXXXX@XXXXXXX@@XX==@==@@@@+@@@+",
"OXXX@------XX@@@@XX@@@@@@@X+@@@+",
"OXXXXX-XX-XXXXXXXXXX@@X@@XX+@@+ ",
"OXXXX------@@XXXXXXXXXXXXXX+@+  ",
"OXXXXXXX@XX@XXXXXXXXXXXXXXX++   ",
";+++++++++++++++++++++++++++    "};
