/* XPM */
static char * icl8_31753_xpm[] = {
/* width height ncolors chars_per_pixel */
"32 32 17 1",
/* colors */
" 	s None	c None",
".	c #888888",
"X	c #555555",
"o	c #111111",
"O	c #444444",
"+	c #DDDDDD",
"@	c #777777",
"#	c #0000AB",
"$	c wheat",
"%	c #FFCC9A",
"&	c #AB0000",
"*	c #CC9966",
"=	c #770000",
"-	c #BBBBBB",
";	c #222222",
":	c #CCCC99",
"?	c #AAAAAA",
/* pixels */
"               .       XXXXo    ",
"              ..X      O+@Oo    ",
" ############..$XX%&%&%O+@Oo*=  ",
" ###########..$$$XX%%%%O+@Oo**  ",
" ##########..$$$$$XX%%%O+@Oo*=  ",
" #########..$$$$$$$XX%%O+@Oo**  ",
" ########..$$$$$$$$$XX%O+@Oo*=  ",
" %******..$$$$$$$$$$$XXO+@Oo**  ",
" &*****..$$$$$$$$$$$$$XO+@Oo*=  ",
" %%%%%..$$$$$$$$$$$$$$$O+@Oo**  ",
" &%%%..$$@$$$O$$$O$$$@$O+@Oo*=  ",
" %%%..$$$$@$O$O$O$O$@$$O+@Oo**  ",
" &%..$$$$$$O$$$O$$$O$$$OOOoo*=  ",
" %..$$$$$$O$@$$$$$@$O$$$.-;XX*  ",
" ..$$$$$$O$$$@$$$@$$$O$$.-;:XX  ",
"..$$$$$$O$$$$$$$$$$$O$$$..;::XX ",
" XX$$$$$$O$$$$$@$$$O$$$$$.:::$X;",
" %XX$$$$$$O$$$$$$$$$O$$$$.:::;;?",
" &%XX$$$$$$O$@$$$@$$$O$$;$$:;;??",
" %%%XX$$$$$$O$$$$$@$O$$;$$$;;*??",
" &%%%XX$$$$@$O$$$$$O$$$$$$;;*=? ",
" %%%%%XX$$@$$$O$$$O$@$$$$;;***  ",
" &%%%%%XX$$$$$$O$O$$$@$$;;***&  ",
" %%%%%%%XX$$$$$$O$$$$$$;;***%%  ",
" &%%%%%%%XX$$$$$$$$$$$;;***%%&  ",
" %%%%%%%%%XX$$$$$$$$$;;***%%%%  ",
" &%%%%%%%%%XX$$$$$$$;;***%%%%&  ",
" %%%%%%%%%%%XX$$$$$;;***%%%%%%  ",
" &%%%%%%%%%%%XX$$$;;***%%%%%%&  ",
" %%%%%%%%%%%%%XX$;;***%%%%%%%%  ",
" &%&%&%&%&%&%&%XX;*=*&%&%&%&%&  ",
"                ;???            "};
