/* XPM */
static char * 3drcross_xpm[] = {
"32 32 4 1",
"    c #000000",
".   c #FFFFFF",
"X   c red",
"o   c #555555"
"                               X",
" ............................. .",
" .XXXXXXXXXXXXXXXXXXXXXXXXXXXX .",
" .XXXXXXXXX        .XXXXXXXXXX .",
" .XXXXXXXXX ooooooo.XXXXXXXXXX .",
" .XXXXXXXXX ooooooo.XXXXXXXXXX .",
" .XXXXXXXXX ooooooo.XXXXXXXXXX .",
" .XXXXXXXXX ooooooo.XXXXXXXXXX .",
" .XXXXXXXXX ooooooo.XXXXXXXXXX .",
" .XXXXXXXXX ooooooo.XXXXXXXXXX .",
" .XXXXXXXXX ooooooo.XXXXXXXXXX .",
" .X         ooooooo         XX .",
" .X ooooooooooooooooooooooo.XX .",
" .X ooooooooooooooooooooooo.XX .",
" .X ooooooooooooooooooooooo.XX .",
" .X ooooooooooooooooooooooo.XX .",
" .X ooooooooooooooooooooooo.XX .",
" .X ooooooooooooooooooooooo.XX .",
" .X ooooooooooooooooooooooo.XX .",
" .X........ ooooooo.........XX .",
" .XXXXXXXXX ooooooo.XXXXXXXXXX .",
" .XXXXXXXXX ooooooo.XXXXXXXXXX .",
" .XXXXXXXXX ooooooo.XXXXXXXXXX .",
" .XXXXXXXXX ooooooo.XXXXXXXXXX .",
" .XXXXXXXXX ooooooo.XXXXXXXXXX .",
" .XXXXXXXXX ooooooo.XXXXXXXXXX .",
" .XXXXXXXXX ooooooo.XXXXXXXXXX .",
" .XXXXXXXXX ........XXXXXXXXXX .",
" .XXXXXXXXXXXXXXXXXXXXXXXXXXXX .",
" .XXXXXXXXXXXXXXXXXXXXXXXXXXXX .",
"                               .",
"X..............................."} ;
