/* XPM */
static char * 3dx_xpm[] = {
"32 26 4 1",
"   c #000000000000",
".  c #FC00FC00FC00",
"X  c red",
"o  c #540054005400",
"        XXXXXXXXXXXXXXXX        ",
".ooooooo XXXXXXXXXXXXXX ooooooo.",
"X.ooooooo XXXXXXXXXXXX ooooooo.X",
"XX.ooooooo XXXXXXXXXX ooooooo.XX",
"XXX.ooooooo XXXXXXXX ooooooo.XXX",
"XXXX.ooooooo XXXXXX ooooooo.XXXX",
"XXXXX.ooooooo XXXX ooooooo.XXXXX",
"XXXXXX.ooooooo XX ooooooo.XXXXXX",
"XXXXXXX.ooooooo  ooooooo.XXXXXXX",
"XXXXXXXX.oooooooooooooo.XXXXXXXX",
"XXXXXXXXX.oooooooooooo.XXXXXXXXX",
"XXXXXXXXXX.oooooooooo.XXXXXXXXXX",
"XXXXXXXXXXX.oooooooo.XXXXXXXXXXX",
"XXXXXXXXXXX oooooooo XXXXXXXXXXX",
"XXXXXXXXXX oooooooooo XXXXXXXXXX",
"XXXXXXXXX oooooooooooo XXXXXXXXX",
"XXXXXXXX oooooooooooooo XXXXXXXX",
"XXXXXXX ooooooo..ooooooo XXXXXXX",
"XXXXXX ooooooo.XX.ooooooo XXXXXX",
"XXXXX ooooooo.XXXX.ooooooo XXXXX",
"XXXX ooooooo.XXXXXX.ooooooo XXXX",
"XXX ooooooo.XXXXXXXX.ooooooo XXX",
"XX ooooooo.XXXXXXXXXX.ooooooo XX",
"X ooooooo.XXXXXXXXXXXX.ooooooo X",
" ooooooo.XXXXXXXXXXXXXX.ooooooo ",
"........XXXXXXXXXXXXXXXX........" };
