/* XPM */
static char * oclock [] = {
"32 32 4 1",
" 	s None	c None",
".	m black	c black",
"X	m black	c coral",
"o	m black	c gold",
"            .......             ",
"         .............          ",
"       .....       .....        ",
"      ...      X      ...       ",
"     ..        X        ..      ",
"    ...                  ..     ",
"   ..          X         ...    ",
"  ..          XXX          ..   ",
"  ..          XXX          ..   ",
" ..           XXX           ..  ",
" ..           XXX           ..  ",
" ..           XXX           ..  ",
"..            XXX            .. ",
"..            XXX            .. ",
"..            XXXoooooo      .. ",
"..            XXXooooooo     .. ",
"..            XXXoooooo      .. ",
"..                           .. ",
"..                           .. ",
" ..                         ..  ",
" ..                         ..  ",
" ..                         ..  ",
"  ..                       ..   ",
"  ..                       ..   ",
"   ...                    ..    ",
"    ..                   ..     ",
"     ..                 ..      ",
"      ...             ...       ",
"       .....       .....        ",
"         .............          ",
"            .......             ",
"                                "};
