/* XPM */
static char *noname[] = {
/* width height ncolors chars_per_pixel */
"32 32 11 1",
/* colors */
"` c #000000",
"a c #CBFFFF",
"b c #CB9832",
"c c #009865",
"d c #99CCCC",
"e c #FFCBFE",
"f c #663300",
"g c #FFFFFF",
"h c #CBFFCB",
"i c #FFCC66",
"j c #CC99CC",
/* pixels */
"gggggggggggggggggggg``gggggggggg",
"ggggggggggggg```gg``hh``gggggggg",
"ggggg``gggg``f`b``hhhhhh``gggggg",
"ggg``aa````fff``hhhhhhhhhh``gggg",
"g``aaaaaa``ff``hhhhhhhhhhhhh``gg",
"`aaaaaaaaaa``ccccccchhhhhhhhh`gg",
"g``aaaaaaa`````````cchhhhhhh`ggg",
"g`f`aaaadd`eeeeeee``cchhh```gggg",
"```f`aaadd`eeeeeee`j`cc``b```ggg",
"`ii```aadd`eeeeeee`jj`````iii`gg",
"`iiii``add`eeeeeee``````iiiiii`g",
"`iiiiii``d`eeeeeeejj``iiiiiiii``",
"`iiiiiiii``eeeeeee``iiiiiiii``gg",
"`iiiiiiiiii``eee``iiiiiiii```ggg",
"`iiiiiiiiiiii```iiiiiiii``ff`ggg",
"`iiiiiiiiiiiii`b`iiiii``ffff`ggg",
"`iiiiiiiiiiiii`bf`ii``fffffb`ggg",
"`iiiiiiiiiiiii`bbf``fffffbbb`ggg",
"`iiiiiiiiiiiii`bbbfffffbbbbb`ggg",
"`iiiiiiiiiiiii`bbbbffbbbbbbb`ggg",
"`iiiiiiiiiiiii`bbbbbbbbbbbbb`ggg",
"`iiiiiiiiiiiii`bbbbbbbbbbbbb`ggg",
"`iiiiiiiiiiiii`bbbbbbbbbbbbb`ggg",
"``iiiiiiiiiiii`bbbbbbbbbbbbb`ggg",
"g``iiiiiiiiiii`bbbbbbbbbbb``gggg",
"ggg``iiiiiiiii`bbbbbbbbb``gggggg",
"ggggg``iiiiiii`bbbbbbb``gggggggg",
"ggggggg``iiiii`bbbbb``gggggggggg",
"ggggggggg``iii`bbb``gggggggggggg",
"ggggggggggg``i`b``gggggggggggggg",
"ggggggggggggg```gggggggggggggggg",
"gggggggggggggggggggggggggggggggg"
};
