/* XPM */
static char * opus50 [] = {
/* width height ncolors chars_per_pixel */
"48 48 5 1",
/* colors */
" 	s background c none",
".	c black",
"X	c #F3EFEB",
"o	c #CBAA00",
"O	c #AA0000",
/* pixels */
"                                                ",
"                                                ",
"                                                ",
"                   .....                        ",
"                  .XX..X..                      ",
"                 .XXXXXXX .                     ",
"                .XXXXXXXXX..                    ",
"               .XXXXXXXXXXX.                    ",
"              .XXXXXXXXXXXXX.                   ",
"              .XXXXXXXXXXXXX.                   ",
"             ..XXXX.XXX.XXXXX.                  ",
"             .XXXXX.X...XXXXX..                 ",
"            ...XXXXooooo.XX....                 ",
"            XXX...oooooooo.XXX..                ",
"            XXXX.ooooooooooXXXX..               ",
"           .XXX.oooooooooooo.XXX.               ",
"          .XXX.oooooooooooooo.XXX.              ",
"          .XXoooo.oooooooo.ooo..XX.             ",
"         .XXooooo.oooooooo.ooooo.X.             ",
"         .XXoooooooooooooooooooo.X.             ",
"         .XXooooooooooooooooooo...              ",
"          .X.oooooooooooooo.XXX.                ",
"           .XXX....oooooo.XXXXX.                ",
"            XXXXXXXXX...XXXXXXX..               ",
"            XXXXXXXXXXXXXXXXXX.O.               ",
"            .XXXXXXXXXXXXXXXXXOO..              ",
"            O.XXXXXXXXXXXXXXXOOO....            ",
"           .O.OO..XXXXXXXXX.OOO.OOO.            ",
"           .OOOOOOOO....OO.O..OOOOO.            ",
"           ..OOOOOOOOOO.OOOOOOOOOOO.            ",
"           ..OOOOOOOOOO.OOO.OOOOOOO.            ",
"          ...OOO................OOO.            ",
"          ...OO.....................            ",
"          ................. .........           ",
"          .........XXXXXXXXXXXX......           ",
"         ........XXXXXXXXXXXXX........          ",
"        ......XXXXXXXXXXXXXXXXXXX.....          ",
"        .....XXXXXXXXXXXXXXXXXXXXX.X...         ",
"        .... .XXXXXXXXXXXXXXXXXXXXXX...         ",
"        ......XXXXXXXXXXXXXXXXXXXXXX...         ",
"       .....XXXXXXXXXXXXXXXXXXXXXXXXX...        ",
"       .....XXXXXXXXXXXXXXXXXXXXXXXXXX..        ",
"       .....XXXXXXXXXXXXXXXXXXXXXXXXX.X..       ",
"       .....XXXXXXXXXXXXXXXXXXXXXXXXXXX...      ",
"       .....XXXXXXXXXXXXXXXXXXXXXXXXX.XX..      ",
"      ......XXXXXXXXXXXXXXXXXXXXXXXXXXXX...     ",
"      .....XXXXXXXXXXXXXXXXXXXXXXXXXXXXXX...    ",
"      .....XXXXXXXXXXXXXXXXXXXXXXXXXXXXXXX..    "};
