/* XPM */
static char * vtx [] = {
"48 48 5 1",
"  c None",
". c black",
"X c red",
"o c #0D0D20206B6B",
"O c yellow",
"   .............................                ",
"  ..............................                ",
" ...............................                ",
" .                         .....                ",
" .    XX        ..    XX   .....                ",
" .    XX  oo    ..oo  XX   .....                ",
" .XX  XXOOoo    ..oo  XX   .....                ",
" .XXooXXOOoo  XX..oo  XX   .....                ",
" .XXooXXOOoo..XX..ooOOXXoo .....                ",
" .XXooXXOOoo..XX..ooOOXXoo .....                ",
" .XXooXXOOoo..XX..ooOOXXoo .....                ",
" .XXooXXOOoo..XX..ooOOXXoo .....                ",
" .XXooXXOOoo..XX..ooOOXXoo .....                ",
" ...............................                ",
" .        OO               .....  .             ",
" .  XX  XXOOoo             .....  ..            ",
" .ooXX..XXOOoo  oo .       .....  ...           ",
" .ooXX..XXOOooXXoo...      .....  ....          ",
" .ooXX..XXOOooXXoo ...     .....  .. ..         ",
" .ooXX..XXOOooXXoo  ...    ....   ..  ..        ",
" .ooXX..XXOOooXXoo   ...   ...    ..   ..       ",
" ............................     .. o  ..      ",
"                    X             .. oo  ..     ",
"                    X             .. ooo  ..    ",
"                    X             .. ooo   ..   ",
"                    X             .. ooo    ..  ",
"                    X             .. ooo     .. ",
"                X   X             ..  oo      ..",
"                XX  X             ..   o      ..",
"                X X X             ..     X    ..",
"                X  XX             ..     XX   ..",
"                X   X             ..     XXX  ..",
"                X                  ..    XXX  ..",
"                X                   ..   XXX  ..",
"        .........XXXXXXXXXXX         ..   XX  ..",
"       ..........         X           ..   X  ..",
"      ...........        X             ..     ..",
"      ..     ....       X               ..    ..",
"      .       ...      XXXXXXXXXXXXXXXXXX..   ..",
"      .       ...                         ..  ..",
"      .       ...                          .. ..",
"      .       ...                           ....",
"      ..     ....                            ...",
"      ......... .                             ..",
"     .       .  .                              .",
"    . . . . .   .                               ",
"   .       .  ..                                ",
"  ............                                  "};
