/* XPM */
static char *cgi[] = {
/* columns rows colors chars-per-pixel */
"32 24 256 2",
"   c #0C1E0C3C0A0F",
".  c #0CB40A3F0749",
"X  c #14160C0A0C2F",
"o  c #146710090E8F",
"O  c #18C20FAB0BC1",
"+  c #14AF13A40FA8",
"@  c #1A2A157B1369",
"#  c #1C5118AF159D",
"$  c #1CAE1A0619EC",
"%  c #213A18C91515",
"&  c #23401CEF1BC1",
"*  c #28A51A4714BA",
"=  c #1E7F1B601FD4",
"-  c #250721652404",
";  c #29CB248124AA",
":  c #2977269A2C2B",
">  c #2C7F29AD2A8C",
",  c #30452BD726B2",
"<  c #34912D142DB3",
"1  c #38442E032C52",
"2  c #357230872C16",
"3  c #391233782D5A",
"4  c #33972BA62FEB",
"5  c #31D82FBF3009",
"6  c #3CF4334D3344",
"7  c #3DBD384F34C2",
"8  c #38D5379F39B3",
"9  c #442D39B9360A",
"0  c #4858394333A7",
"q  c #452F37673900",
"w  c #44833C263CEA",
"e  c #4A763BE73BF0",
"r  c #40F735793339",
"t  c #45DF42053F60",
"y  c #4DA740BB3E04",
"u  c #537545023DE9",
"i  c #3E0C3C29441D",
"p  c #451F3D7F4302",
"a  c #4BB13F9140E2",
"s  c #470C410E4652",
"d  c #4C76435344A2",
"f  c #4E1947334BB7",
"g  c #442A41B74D05",
"h  c #52E943E34402",
"j  c #5A0C45824533",
"k  c #553149CE45B0",
"l  c #5B0948AC46CA",
"z  c #53A345C04A44",
"x  c #585F46C148AD",
"c  c #548E4A264B4D",
"v  c #5B794BB24C3D",
"b  c #596851844663",
"n  c #5EAD52834C9D",
"m  c #4D3149A25444",
"M  c #4D624C1F5967",
"N  c #56224C1B53DE",
"B  c #5B5D4CC452F0",
"V  c #5CA7523D546E",
"C  c #550450DC5C66",
"Z  c #5F23561A59B0",
"A  c #5DFF5A5D5AA7",
"S  c #61DA4C354C6B",
"D  c #6A1F4D9B4CE4",
"F  c #644B532D4EC4",
"G  c #729E528B4E4A",
"H  c #60EA4F40543A",
"J  c #637353A3541A",
"K  c #6BE954425419",
"L  c #619B590854A8",
"P  c #6AF45AD8524B",
"I  c #62B4543359CB",
"U  c #6F9E566258E0",
"Y  c #65B95B145C43",
"T  c #6BD75ACF5B8F",
"R  c #7486579D5664",
"E  c #73EF5C1D5BB9",
"W  c #7CF25CF55AFF",
"Q  c #77355BEC54B1",
"!  c #6CF561C15C1E",
"~  c #69D8633155E1",
"^  c #7B2061B75E93",
"/  c #71856BFD5BEA",
"(  c #762F68295D13",
")  c #5D12583D64C3",
"_  c #5C8D583E673E",
"`  c #6599575C620F",
"'  c #6AF056BE5FF4",
"]  c #63D55B11637C",
"[  c #6ADA5D3B6408",
"{  c #68375E4A6A1E",
"}  c #756B5CB3630B",
"|  c #6C17634E64C4",
" . c #679D62DB6FD9",
".. c #6E5063F76B2D",
"X. c #6FD2689F6DBE",
"o. c #6CF968B964A4",
"O. c #73DD62F26383",
"+. c #7D5C64B1639D",
"@. c #741A6BB8638A",
"#. c #78546CD964E9",
"$. c #72C665F36B81",
"%. c #7BC566F56A23",
"&. c #74876B106D76",
"*. c #79C86BAC6C2A",
"=. c #730277446F4E",
"-. c #607660D774E9",
";. c #6A9B68177692",
":. c #6B496A267BB3",
">. c #6D3F666873B3",
",. c #742B6C747462",
"<. c #7BFD6DBB73D4",
"1. c #72A86E3B7BCA",
"2. c #7AF86D667980",
"3. c #7D1E728173E8",
"4. c #7DC87AC376D3",
"5. c #755772987D72",
"6. c #7CDF71DA7A34",
"7. c #7FD4799D7EB7",
"8. c #832665936136",
"9. c #858369CA67BA",
"0. c #855D676E67FE",
"q. c #82C56B106AED",
"w. c #8A666E816C24",
"e. c #82CF76CF6CA4",
"r. c #8EF072916EA9",
"t. c #83B46CEC7129",
"y. c #82CA73B8733D",
"u. c #8E4073B672A8",
"i. c #82897815721B",
"p. c #88EB7A15763E",
"a. c #82C274307B55",
"s. c #8ABD76487B88",
"d. c #85707AC47D02",
"f. c #8BCF7CCD7B8E",
"g. c #925B769E78A3",
"h. c #952A7C187A4A",
"j. c #99897A617868",
"k. c #943C7A637702",
"l. c #7FD980C57D2F",
"z. c #888788A86EA8",
"x. c #9A6B94E86BD7",
"c. c #8D3F80E87BA1",
"v. c #8528839A7D9E",
"b. c #917C83217938",
"n. c #8B4391537C93",
"m. c #985A907971A3",
"M. c #9B0A907C7F56",
"N. c #6F256F648426",
"B. c #6F28702B86BD",
"V. c #75E6744E8322",
"C. c #7BF9758482B8",
"Z. c #7C39797E85BF",
"A. c #746E74FE8BF9",
"S. c #7B857DCF9549",
"D. c #7C857E489936",
"F. c #84BF79FD8401",
"G. c #8CE27CDA8332",
"H. c #86C87D9C89D1",
"J. c #8B787E998AB4",
"K. c #8D0D82CA84DD",
"L. c #8712808D8E90",
"P. c #8C6984578B5A",
"I. c #8E448BFB8C10",
"U. c #934E84288395",
"Y. c #9BEA83ED855B",
"T. c #918D884185AF",
"R. c #92DC85698C40",
"E. c #9ED0862E8821",
"W. c #94248B078D6B",
"Q. c #9CFC8D628CD6",
"!. c #9C1D8A3E84AA",
"~. c #9E0E90AB8A2C",
"^. c #8B0384DF91D8",
"/. c #8DDF88C196B8",
"(. c #842886739E20",
"). c #90C586DC914E",
"_. c #913588F39353",
"`. c #99378D059522",
"'. c #99698FC59CE5",
"]. c #92408C6E9B03",
"[. c #92D9929294A1",
"{. c #9A9794779483",
"}. c #9E93996097E5",
"|. c #9CC9934A9991",
" X c #9D00981E9D4D",
".X c #A1E28CF48D66",
"XX c #A24491028F0A",
"oX c #A922943E972E",
"OX c #A1DC95799CDE",
"+X c #A3C19CD09C7E",
"@X c #ABB59A849C1D",
"#X c #A40B90DE9450",
"$X c #9724A79C9979",
"%X c #96B6AB169991",
"&X c #9D98B20A9FEC",
"*X c #AAE5A0269F99",
"=X c #A47CA0D59DBA",
"-X c #86FA8AB4A530",
";X c #891B8A17A523",
":X c #8C3990B9A8EF",
">X c #9E6B97B8A564",
",X c #90709263AF4D",
"<X c #8F8E9401B074",
"1X c #97119B00B5F2",
"2X c #99479CD7B9E6",
"3X c #98B79C32B52D",
"4X c #A5009B3AA3E8",
"5X c #AB0B9BFBA3EF",
"6X c #A6909C48A9B5",
"7X c #964DA2BDA10C",
"8X c #9DB6AE6AA234",
"9X c #9E42B597A130",
"0X c #9C69A057BB85",
"qX c #A495A202A2FB",
"wX c #A9EEA12BA457",
"eX c #AC14A48CAB4C",
"rX c #ADA9A98FAF7E",
"tX c #AEB6AB5DA471",
"yX c #B523A5DDABBB",
"uX c #BEFEACFDAEE1",
"iX c #A1BFB52EA65A",
"pX c #A7A3A1CDB127",
"aX c #AC9FA57BB20E",
"sX c #AEFFAAD0B197",
"dX c #A251A3C0BC87",
"fX c #B157A7EAB0F8",
"gX c #BC43ACCAB80F",
"hX c #B469AD25BA09",
"jX c #B869AF5FBD32",
"kX c #B5D4A9BFB460",
"lX c #B4C7B261B776",
"zX c #B8E4B958BFF7",
"xX c #B922B2DABC11",
"cX c #C86FB76DBB10",
"vX c #99B49F8DC13A",
"bX c #A669A749C3B4",
"nX c #A4AAA9AAC841",
"mX c #ABCEAF78CE73",
"MX c #B121B738D526",
"NX c #B633BD16DC51",
"BX c #BA3DC155DF24",
"VX c #BEC8C4C6E348",
"CX c #C54FC1B3C2A3",
"ZX c #C978C710CA84",
"AX c #CA54CB1ECEAC",
"SX c #CE2ECBFFD1AC",
"DX c #D763D8F6DBED",
"FX c #DCCFDB0CDD86",
"GX c #C12CC64AE4AA",
"HX c #C375CB0AE82A",
"JX c #C5A8CD73EA0F",
"KX c #C86BCF5BECED",
"LX c #CB72D321EF6B",
"PX c #DC1EDDDAE19B",
"IX c #E4E8E142E43E",
"UX c gray100",
/* pixels */
"t L v j c 6.d.~ #.d.v.c.!.x.z./ / O.b / |.pX{.@.*.*.&.X.F.I a.[ ",
"z v j c | G.F.3.T.p.p.c.W.m./ #.~.e./ / c.{.hX{.e.f.K.d.7.V [ { ",
"d h k B ..3.d.P.c.f.u.E.P.*.( b.!.b.c.f.+X!.b.oX@Xb.G.P.d.] I 6.",
"d z B Z J i.<.i.d.h.r.j.h.d.p.XXyXXX.XcXgX5XXXQ.@XU.d.K.d.T v a ",
"z z I [ | d.q.~ Q 8.W w.0.q.yXyX@.0 2 L OXuX@XXXg.0.8.P ~ T o.L ",
"B I ] V I [ *.n G Q } 9.t.Y.[ 6 $ X * O # L .XoXY.w.8.8.#.@.@.$.",
"s v B d B ] t.v D 8.0.Y.s.c 6.DXPXC.= * % . y f.G.j.w.G #.o.X.| ",
"J H [ | 2.T %.H E k.j.g.T rXFXIXUXUXmX, # @ . d s.w.E K n @.&.[ ",
"P H ' ` ` <.$.S ^ w.r.q.ZXAX4XxXkXSXUXSX- +   + H u.^ Q S F ~ ..",
"&.a.a.{ [ $.' J E w.+.eXUXlXrXyX5XCX7XFXA + + $ q O.+.E S P #.! ",
"G.4X`.%.a.F.J S U +.} |.CXrXeX{.{.wX}.W.4.- o 4 ) j +.U l k o.Y ",
"O.s..XG.U.&.V H U ^ %.I.I.eX6X+X].I.[.}.=.3 # ; 5.d U F j k Y V ",
",.d.P.s.a.[ I v Q E +.y.K.hXkXT.=X XqX=X7.7 $ - Z.B K F e k L k ",
"&.I V z [ 7.L j T ^ +.e.[.wXwX3.}.=XtX{.v.7 & : Z.v j j u k n v ",
"6.6.,.N &.3.V n U E } n.&X&X8X$XiXiX&X%X7Xp & : V.J h l u u n c ",
"F.F.6.X.1.3.n u J E O.dXGXGXGXHXJXLXJXBXNXm : 8 V.B l k 0 9 9 u ",
"H.C...] ,.| V e v E E bXGXVXNXGXJXKXBXBXMXM i i V.V v j e r 1 6 ",
"P.F...N O.| V w x J H (.1X3X2XvXmXmXmXnX2X_ m g V.I v x 0 r , r ",
")._.d.d T Y f 9 x v H S.:X3X2X2X0X3X0X,X(._ { _ Z.c h a h 6 1 1 ",
"J.F.6.T &.V k t z B B A.vX2X<X-X-X:XS.A.N.M g ] V.p e a w r , ; ",
"R.y...X.,.c t 8 w s d -.D.A.S.B.V.A.A.1.V.;.C p m ; 6 p e 1 - > ",
"<.F.1.;.&.f w 2 r q w _ :.N.B.B.:.V.5.F.P.^.]./.V.] N f p 4 < , ",
"$.%.6.J...8 d c L Y d.6X>XJ.C.1.C._.`.`.'.OX5XaXjXhXpXJ. .C i : ",
"] *.,.1.V t z $.<.<.G.`.G.a.6.2.a.F.W.5X5X|.'.OX4X4X4X'.H.,.C i "
};
