/* XPM */
static char *dog[] = {
/* columns rows colors chars-per-pixel */
"32 28 256 2",
"   c #0C230AE70BBC",
".  c #04BF065A054A",
"X  c #10120D570CE7",
"o  c #1B0113A706D8",
"O  c #0C210E36116E",
"+  c #126512661401",
"@  c #1C8E19141613",
"#  c #1411158E19D9",
"$  c #1B3F1B171CBD",
"%  c #1DF416CB1126",
"&  c #29AA1C680E28",
"*  c #2441164A0DB4",
"=  c #35DB17770CFD",
"-  c #20491E0D1ED0",
";  c #26FA19A3150D",
":  c #33271A3617A2",
">  c #2B470CF70670",
",  c #2C91258E1B4D",
"<  c #283022711907",
"1  c #347B296A1DA2",
"2  c #369428A41978",
"3  c #3D40300A1E1C",
"4  c #1B981D2A214A",
"5  c #13CB1A32210E",
"6  c #21B21F2625B1",
"7  c #1F8D2104256C",
"8  c #243423E8241B",
"9  c #219A22282BB4",
"0  c #2BA62A952DB7",
"q  c #2984265F237D",
"w  c #36112B8E22A1",
"e  c #3C3D2CBE23BA",
"r  c #36732A3226B5",
"t  c #3BC934482D32",
"y  c #2B382C193203",
"u  c #2F362EB439C3",
"i  c #277125E4329B",
"p  c #31632E813910",
"a  c #2FAA2FE02FE3",
"s  c #353C3446343C",
"d  c #3C393C133B57",
"f  c #39A6368C3715",
"g  c #4FEC2D961E63",
"h  c #4C3D32BE1EAB",
"j  c #457F330C2F55",
"k  c #4A4239362ACE",
"l  c #4AD93A4E25D0",
"z  c #50423C242A4B",
"x  c #48483B8A3ABA",
"c  c #45A33D6537EE",
"v  c #500C32AB3055",
"b  c #60143C992C67",
"n  c #406440773EAC",
"m  c #4ABE45C23EEE",
"M  c #59A445093738",
"N  c #62FE48BF3A6C",
"B  c #77EF4F953253",
"V  c #646E51113CA6",
"C  c #73A352853B5D",
"Z  c #657E421B2912",
"A  c #3D193B2D4410",
"S  c #389934F04026",
"D  c #5A8C3DCE41DE",
"F  c #3DEB400C42E7",
"G  c #3D5A43914CEF",
"H  c #44CF449944C8",
"J  c #4AED44CC4390",
"K  c #478846A44955",
"L  c #4B734A3E4A90",
"P  c #4938484D4665",
"I  c #57634C264715",
"U  c #5CEB52B349DC",
"Y  c #5A1654464AE9",
"T  c #4C074B58506E",
"R  c #457447755460",
"E  c #54204E9D53AA",
"W  c #547B53D654FD",
"Q  c #5BB5571054D6",
"!  c #5BC35A195B95",
"~  c #55C1563E59E6",
"^  c #62A441F641D4",
"/  c #67EA4BF64BDC",
"(  c #68985A1D49EA",
")  c #73B4572F42E3",
"_  c #78695E55433B",
"`  c #64F75CD453A8",
"'  c #660E58EB5627",
"]  c #743C54865226",
"[  c #703E55FE5F4C",
"{  c #782362144D11",
"}  c #6C9164975D7F",
"|  c #63F660505FD8",
" . c #749267285ABA",
".. c #7BB9671E56B1",
"X. c #5D035D7862AC",
"o. c #61F56182620B",
"O. c #6E2B689F6466",
"+. c #6C0E6BA36C93",
"@. c #6A4A66A46758",
"#. c #76CB6AD66434",
"$. c #7D0970D364A8",
"%. c #7A1C716A6AD0",
"&. c #71866F7A71B9",
"*. c #749A7422763A",
"=. c #76F576B4793E",
"-. c #7B8D7B597CEB",
";. c #7B1575367776",
":. c #83CB5DDD44E4",
">. c #90FE6D8C4E52",
",. c #81716DB45B16",
"<. c #88F76F4A5CBD",
"1. c #8B5372F15D16",
"2. c #93B170DA5BA3",
"3. c #8B3564CA4DDA",
"4. c #A3CD717B4D33",
"5. c #BE147E454C40",
"6. c #AC6C7C4254C9",
"7. c #844F73C063B5",
"8. c #88BD76C064D4",
"9. c #86AB79CA6CD2",
"0. c #94B3741D60FA",
"q. c #99847E0A6676",
"w. c #867E7D7A78A6",
"e. c #8A4A7B017398",
"r. c #96D37A38763E",
"t. c #8582634C6906",
"y. c #A1DF80205DAE",
"u. c #B942863D5AB0",
"i. c #963F82946F09",
"p. c #9D17821468C2",
"a. c #8C5183D37D2F",
"s. c #87C580B07E7E",
"d. c #9B0D8E287CFE",
"f. c #973184DC789F",
"g. c #A4F5848865F0",
"h. c #A45786166B28",
"j. c #AC3C88146918",
"k. c #BF8990956BEA",
"l. c #A76B8E8B78C8",
"z. c #B41A8F387283",
"x. c #ABCB956C7C85",
"c. c #AC3895BF7B15",
"v. c #B41C9B4C7DBD",
"b. c #BC099B657AB2",
"n. c #B2CE93A5774C",
"m. c #BB2D89256126",
"M. c #BD1FA2A67F64",
"N. c #C65B9C6F77B5",
"B. c #CC55979D6404",
"V. c #CF2EA13D6F91",
"C. c #DEB6A5526E78",
"Z. c #CB7DA3547DDA",
"A. c #DE47AF29720F",
"S. c #E3D0AF1F74AF",
"D. c #E498B4E57C2A",
"F. c #E84BBBD67E2F",
"G. c #E831A5D26AB4",
"H. c #7E7C7D798153",
"J. c #805B7F5F82D9",
"K. c #8390829D85B4",
"L. c #8705867E8A1A",
"P. c #889C874C8B99",
"I. c #87B4889689C7",
"U. c #8A958A2B8CB9",
"Y. c #8C06877883CF",
"T. c #91AC8BDE8A92",
"R. c #9D67925A8AF1",
"E. c #980B911D8AB2",
"W. c #8EC08E0E9170",
"Q. c #94F88E9F9224",
"!. c #95EE952B9642",
"~. c #9F759B83945A",
"^. c #96C7961B9877",
"/. c #9C089B4D9DAA",
"(. c #9CC4941196CD",
"). c #A1F48B0B837B",
"_. c #B1BC8E9B80A1",
"`. c #A16E92A2866F",
"'. c #A31991438EFB",
"]. c #ACF29C2D8E2C",
"[. c #A87D9A8D8919",
"{. c #BBBE9E518291",
"}. c #B0CD9C778B1B",
"|. c #B04898D680D0",
" X c #A5BF9CF199B1",
".X c #BE7FA3CD8437",
"XX c #BCF1A8258C05",
"oX c #AF0EA37F9BFA",
"OX c #ACFAA1269211",
"+X c #B650A89F9A03",
"@X c #A0309E13A137",
"#X c #A2FAA203A426",
"$X c #A93AA7D8AB0D",
"%X c #B7CEADD1A9C3",
"&X c #BD0EB713B3E6",
"*X c #B141B297B3DA",
"=X c #C8A6AA0B85F5",
"-X c #C53DAB7D8B79",
";X c #CA72ACDE8BBC",
":X c #CADAA42C81FC",
">X c #D422AEE089C7",
",X c #D90FAD39882B",
"<X c #D73FB46A8E10",
"1X c #C712A95B9773",
"2X c #D14EAF9E9EAE",
"3X c #CB6EB47F9714",
"4X c #D3DBB8029BEF",
"5X c #E913BD9E850D",
"6X c #E400B9918727",
"7X c #C720AB85A645",
"8X c #C685B807A707",
"9X c #DC05BFE2A250",
"0X c #DA74B618AFBD",
"qX c #D5F3BE3DA9FD",
"wX c #D443B762A936",
"eX c #C502BCCAB56C",
"rX c #DA3FB84DB0B5",
"tX c #E98BC2F98BCE",
"yX c #EABBC2229502",
"uX c #EFA2CB03962F",
"iX c #E56BC4B49C38",
"pX c #E8FDC69F9863",
"aX c #F0DACA47961D",
"sX c #DB07C337A33D",
"dX c #DAA5C525AB19",
"fX c #D84FC831B592",
"gX c #C9A8C123BB28",
"hX c #E367C78BA45A",
"jX c #E36BC9AEA65F",
"kX c #E3AACA05AAFC",
"lX c #EAC5CB20A74A",
"zX c #F07BD01FA03B",
"xX c #EDBDD487AE5B",
"cX c #EEB9DA0AB00D",
"vX c #F3B3D4CEAD87",
"bX c #F1D3D8DDAE25",
"nX c #E528CFF0B570",
"mX c #EB7CD3AFB453",
"MX c #EC89D9F4BE50",
"NX c #EA18D53AB8F2",
"BX c #F41DDE55BA29",
"VX c #F55ED85CB4F8",
"CX c #CE42C938C727",
"ZX c #DA5ACE42C806",
"AX c #DFBBDDF6DE07",
"SX c #DD6DD49AC988",
"DX c #EE3BDCA8C458",
"FX c #ED96DBF6C910",
"GX c #F274DE24C916",
"HX c #E29FDD9CDCA3",
"JX c #F54CE31DC43E",
"KX c #F4FDE25CC825",
"LX c #ED3AE546DA0A",
"PX c #F928E8FAD53D",
"IX c #F9B7F3C3ED72",
"UX c #F3FFF14AEDD2",
/* pixels */
"#X#X#X#X@X#XK u X.T A f p u u S i i 6 i i 4 9 9 + # ' D v - 4 x ",
"/././././.#XW A R A p i i f ' w.E.Y.O.D q + 5 7 # # / ^ v i # I ",
"@X/././.^./.*.u p 9 0 } ].wXBXJXBXVXmX9X;Xq.q     . / ^ D R # / ",
"!./.^././.!.-.0 . x 8XDXKXGXNXlXjXjXkXiXpXyX>X( O O / I / A O ] ",
"!.^.^.U.J.&.~ y Y FXDXxXmXNXMXDXGXDXFXmXiX9XyXyXr.: [ :.] #.E r.",
"U.U.U.P.J.;.;.T.FXmXhXxXDXGXGXPXIXIXIXPXVXiXyXyXaXJ.t.^ [ '. X'.",
"U.U.U.U.W.I.^.SXfX4XhXDXGXMXJXPXPXJXbXcXbXMXmXhXvXlX_.J.7XJ.r.r.",
"I.U.U.P.I.L.&XfXc.<XmXFXdXVXaXD.5XD.D.5X5XuXxXxXnXmX0X2X2X1X1XwX",
"U.U.I.I.I.!.eXc.=XjXMX.Xb ) m.G.F.uXzXuXF.S.yXvXVXNXkX2X0X0XrXwX",
"U.U.U.U.U.~.[.c.sXkXkXg.> ; g 4.aX6XC.5XaXB.6.3.2.1XkX3Xr.7X%X;.",
"I.I.U.U.Y.OXi.gXsX4XdXx.= = g N.6XB.5.V.uXB > ; ^ c.kX4Xr 6 ' X.",
"I.I.L.s.R.R.[.sX3X<XXX8XZ C ;XzX,XN.u.N.<Xh.2 j r.dXrXsXv   T X.",
"K.I.I.!.l.1.+X3XXXM.M.3Xp.j.:X0.8.b.m.B.q.2.C ) [.3X3X;X' + 8 A ",
"L.U.$XAX}.7.OXXXM.;Xn.OXn.y.z.{ v j.N.:.* l C <.7.l.p.b. .4 $ 4 ",
"I.U.I.W.].R.OXv.;X=Xg.d.n.g.+XqXN.:X,Xn.,.Z _ $.( 7.{ g.m   - # ",
"I.K.*.W.gXa.R.M.M.v.p.7.i.i.OXZXnX9Xn.dX[.z M I V { ) 1.c O - $ ",
"J.=.L.gXoXO.` .Xg.i.q.$.$.7.d.OXHX%XJ.eX$.2 h & l V V ( L 7 # $ ",
"K.K.+.I I a 8.Z.>...1.{ U  .` ;.CXo.p ' U & o 2 M l 2 Z m d + # ",
"K.H.&.Q ! %.sX>Xh.1.$.$.( | Q  .R.J X x t o & 1 , < , l Q L X + ",
"L.H.K.I.-.eXdXj.,.d.a.s.$.} Y #.#.j w w & o , 1 w t n t s 4 + # ",
"J.-.K.=.!.LXfX..Y w.w.a.%.} U t t r , , % , Y Y.T.d   < W F O $ ",
"L.L.J.!.AXAX*Xo.Q m L ! ! } } k , , - @ % | oX&Xo.# + d P n + + ",
"U.H.*XHXSXgXE.s d P H H d n P m c t < @ I ~.eXCXs < L W W ~ G q ",
"-.$XHXCXCX~.n n +.&.O.| ~ P n H f s 8 8 a.%X&X#XW o.+.+.+.+.+.o.",
"L.U.Q.(.;.L o.J.*.&.+.@.o.X.! W L L H P O.@.o.W *.-.-.-.-.=.=.*.",
"W.&.~ @.&.J.K.;.*.+.! L H H L L H W ! T F F W H.I.K.J.K.K.J.H.-.",
"P.U.U.P.P.J.H.H.-.*.| W L P L c f a H L W W +.L.I.U.U.U.K.K.K.K.",
"P.P.P.P.P.L.L.L.L.J.L.I.L.K.K.K.J.*.-.K.I.U.U.U.W.W.U.W.U.L.L.H."
};
