/* XPM */
static char * boxx_colors[] = {
"31 26 3 1",
"- c None s #AAAAAA",
"  c #000000",
"# c #FFFFFF",
"---                         ---",
"-- ######################### --",
"- ########################### -",
" ############################# ",
" ######    ############ ###### ",
" #######    ########## ####### ",
" #######    ######### ######## ",
" ########    ######## ######## ",
" #########    ###### ######### ",
" ##########    #### ########## ",
" ##########    ### ########### ",
" ###########    ## ########### ",
" ############   # ############ ",
" ############  # ############# ",
" ############ #   ############ ",
" ########### ##    ########### ",
" ########## ####    ########## ",
" ######### #####    ########## ",
" ######### ######    ######### ",
" ######## ########    ######## ",
" ####### #########    ######## ",
" ###### ###########    ####### ",
" ############################# ",
"- ########################### -",
"-- ######################### --",
"---                         ---"
} ;
