/* XPM */
static char * m4_xpm[] = {
/* width height ncolors cpp [x_hot y_hot] */
"32 32 6 1 0 0",
/* colors */
" 	s iconColor1	m black	c black",
".	s iconColor2	m white	c white",
"X	s iconColor4	m white	c green",
"o	c #0000FFFF0000",
"O	c #FFFF00000000",
"+	s iconColor3	m black	c red",
/* pixels */
"                                ",
"................................",
".XXXXXXXXX......XXXXXXXXXXXoo...",
" XXXXXXXXXX...  XXXXXXXXXXXoo...",
" XXXXXXXXXX..  oXXXXXXXXXXXoo...",
" XXXXXXXXXXX  oXXXXXXXXXXXXoo...",
" XXXXXXXXXXX oXXXXXXXXXXXXXoX...",
" XXXXXXXXXXXooXXXXXXXXXXXXXXX...",
" XXXXXXXXXXXXXXXXXXXXXXXXXXXX...",
" XXXXXXXXXXXXXXXXXXXXXXXXXXXX...",
" XXXXXXXXXXXXXXXXOOXXXXXXXXXX...",
" XXXXXXXXXXXXXXX+O+XXXXXXXXXX...",
" XXXXXXXXXXXXXX+OO+XXXXXXXXXX...",
" XXXXXXXXXXXXX+O O+XXXXXXXXXX...",
" XXXXXXXXXXXX+O X+OXXXXXXXXXo...",
" XXXXXXXXXXX+O XX+OXXXXXXXXXo...",
" XXXXXXXXXX+O XXX+OXXXXXXXXoo...",
" XXXXXXXXX++ XXXX+OXXXXXXXXoo...",
" XXXXXXXX+++++++++OXXXXXXXXoo...",
" XXXXXXXX+++++++++OXXXXXXXXoo...",
" XXXXXXXXXo XX. X+OXXXXXXXXoo...",
" XXXXXXXXXo XX. X+OXXXXXXXXoo...",
" XXXXXXXXXo  .. X+OXXXXXXXXoo...",
" XXXXXXXXXo.... X+OXXXXXXXXoo...",
" XXXXXXXXXo.... X+OXXXXXXXXoo...",
" XXXXXXXXXo.... X+OXXXXXXXXoo...",
" XXXXXXXXXo.... X+OXXXXXXXXoo...",
" XXXXXXXXXo.... XXXXXXXXXXXoo...",
" XXXXXXXXXo.... XXXXXXXXXXXoo...",
" XXXXXXXXXo.... XXXXXXXXXXXoo...",
" XXXXXXXXXo.... XXXXXXXXXXXoo...",
"          .....             ...."};
