/* XPM */
static char *meander[] = {
/* columns rows colors chars-per-pixel */
"32 24 256 2",
"   c #6E466C100A85",
".  c #6EB1767E1F4F",
"X  c #7B7B72D11F23",
"o  c #5B4176113DC9",
"O  c #74D171E524D9",
"+  c #781274C52208",
"@  c #749A743F2C5D",
"#  c #6CB26BAB319D",
"$  c #009A1C2A4BA1",
"%  c #010D1D3C5099",
"&  c #020220CA4EFD",
"*  c #01C124775332",
"=  c #021E29F754D6",
"-  c #07E827D75507",
";  c #0C522F545F64",
":  c #01E92C355F50",
">  c #010931415691",
",  c #04AF331F5B7E",
"<  c #0F1D399D5F0C",
"1  c #078137A25D4D",
"2  c #136834F85FBB",
"3  c #02B62B9E6166",
"4  c #05FB34A864C1",
"5  c #1EB13E6A6603",
"6  c #02DD3D0F7B8A",
"7  c #11AD3DED718F",
"8  c #07444B2767E5",
"9  c #06F242FB647C",
"0  c #11A840016B88",
"q  c #1B1544746771",
"w  c #0F0742107781",
"e  c #21C249DE6499",
"r  c #2B504E0D6D05",
"t  c #21A14402643D",
"y  c #2E765E2D6F5C",
"u  c #31575A136EAD",
"i  c #3DD45D796EA2",
"p  c #28A04E2C7090",
"a  c #23224CBF7B0D",
"s  c #3ADE5E167C82",
"d  c #3A225C9D7177",
"f  c #605E7AC04383",
"g  c #644A74214CB1",
"h  c #6A607BD84BB6",
"j  c #7D0F7C164C97",
"k  c #6F0869695FDA",
"l  c #68E365735E68",
"z  c #7048652E5A18",
"x  c #74E46B1D5EB8",
"c  c #7C386E315D61",
"v  c #715863815617",
"b  c #64B6740A55B5",
"n  c #79C8713F5FA5",
"m  c #41C2580E6D24",
"M  c #494E5E7C6E02",
"N  c #41C15DB7733E",
"B  c #517266956E1A",
"V  c #5C8563616AEF",
"C  c #5CDA697A6EDB",
"Z  c #4BF378226FE5",
"A  c #4D2D62BB74EF",
"S  c #57F2678F71C1",
"D  c #51EA677D7B81",
"F  c #516568F07A7B",
"G  c #589A6A9E7535",
"H  c #58AF73507EDD",
"J  c #6CC5674562B6",
"K  c #6C6868A563D5",
"L  c #6039672F6A3B",
"P  c #63FE68E16AA7",
"I  c #6C386F2B6B56",
"U  c #73016C3463F1",
"Y  c #7AE16E0D62BA",
"T  c #77CC729C67B1",
"R  c #7DB774BF64E9",
"E  c #740672686A9F",
"W  c #7BA0740F69AC",
"Q  c #7DCC79916C0F",
"!  c #6B966C0C70E0",
"~  c #6C0E748573D5",
"^  c #608A720B799C",
"/  c #6E77777C7888",
"(  c #7A4377BD73C5",
")  c #75A37C1A746D",
"_  c #7D6B7BB87513",
"`  c #75CB7C807C07",
"'  c #7B317CC57B45",
"]  c #821A73746323",
"[  c #81E87A17671B",
"{  c #88AB7A646615",
"}  c #840C7717691D",
"|  c #83DF7C646C95",
" . c #891A7D096D60",
".. c #84077E237139",
"X. c #895E7F5A705F",
"o. c #80667B7C7A45",
"O. c #6A9D80613616",
"+. c #64F680F74440",
"@. c #68A181006F84",
"#. c #6CCE86B176F2",
"$. c #74F28BC679EE",
"%. c #87648171748F",
"&. c #8C838480737F",
"*. c #89B38A2370D8",
"=. c #853787C67DA8",
"-. c #893E851E7939",
";. c #80598F3B7F5C",
":. c #8C0A895D7E56",
">. c #912586B57418",
",. c #92DB8903775A",
"<. c #94778B517A56",
"1. c #9EE098A77E28",
"2. c #9D7096EB7C44",
"3. c #081242CD82D9",
"4. c #10A94AE88DA5",
"5. c #14B9524A8414",
"6. c #0001471A93D9",
"7. c #001249D19641",
"8. c #0AB04D2091F7",
"9. c #00674D679BA4",
"0. c #00FA51B39E69",
"q. c #2A045F658378",
"w. c #31A85F228244",
"e. c #340C6340873E",
"r. c #370D648393A6",
"t. c #010F540EA496",
"y. c #04D858D4A79E",
"u. c #007A56D3A965",
"i. c #02ED5AF0ACCD",
"p. c #03385E1CB151",
"a. c #0433610FB4E5",
"s. c #08F3630CB55C",
"d. c #064E666DBB4D",
"f. c #05D768D3BDEA",
"g. c #0A7E69A6BE24",
"h. c #0A7D6612BA41",
"j. c #4415618D808B",
"k. c #4BB66B7283FA",
"l. c #452C6B6389A6",
"z. c #48D975E79B5F",
"x. c #58DE7CB99763",
"c. c #69007EE182D5",
"v. c #63F1760F8641",
"b. c #76F67F4A83FF",
"n. c #06EF6B1AC242",
"m. c #0CD46D2AC2D0",
"M. c #090D6F5CC8F8",
"N. c #102F6E21C2E2",
"B. c #0CD874C8CBCE",
"V. c #0DC9786BCEED",
"C. c #108271A6C6C8",
"Z. c #11E4766ECC2B",
"A. c #14177983CF58",
"S. c #0DC37A19D2EA",
"D. c #14017C0FD372",
"F. c #18A97E66D4C8",
"G. c #107C7EE4D9AD",
"H. c #57C4827A83F4",
"J. c #68848D5888C6",
"K. c #6CA78C0F8376",
"L. c #77CE856E86F2",
"P. c #7BF685328CB2",
"I. c #7BC4874F8907",
"U. c #6B2E81DD910C",
"Y. c #61898FBB9236",
"T. c #6D6E97E1975E",
"R. c #63D898849BAE",
"E. c #419381D5AD36",
"W. c #509881FAA143",
"Q. c #6E6D9E17A0D8",
"!. c #69D6A16EA579",
"~. c #7CA1B822A617",
"^. c #68D1C65BBA72",
"/. c #6469C99FBCDD",
"(. c #706BC3BBBCDB",
"). c #182A822AD7C6",
"_. c #15EF8588DDD7",
"`. c #1B878585DB34",
"'. c #18CD88FFDFAD",
"]. c #151587DAE0E5",
"[. c #16548B04E33C",
"{. c #1BE38C76E310",
"}. c #18F790EAE7C5",
"|. c #1C4E9441EB1C",
" X c #20EE8F12E429",
".X c #22AA93C7E6D1",
"XX c #2553972BE991",
"oX c #22769D8AEE34",
"OX c #212F9EDBF092",
"+X c #29609AC1F12F",
"@X c #2480A054F004",
"#X c #227CA37AF1D9",
"$X c #2A9AA514F273",
"%X c #2583A9CDF552",
"&X c #3176AC8CF4A5",
"*X c #35D4B177F76D",
"=X c #3697BBC7FD9D",
"-X c #399ABC05FD34",
";X c #4007B9E7FE74",
":X c #3768C329FC0E",
">X c #3BEBC2BFFE59",
",X c #628BCD51C67D",
"<X c #7861CBAAC365",
"1X c #6869D61DDDEF",
"2X c #4418C540FCDF",
"3X c #48F6CAFEFD38",
"4X c #4F5ADC7CFC43",
"5X c #5275DDD9FCFC",
"6X c #5E1FDF3DFB0F",
"7X c #73B3DE78E37A",
"8X c #6218DED6FA48",
"9X c #6B5BDE19FDEF",
"0X c #7C0BDE1BFECA",
"qX c #5635E113FDF2",
"wX c #5AA2E2DFFDCC",
"eX c #7D94E5A4E8F9",
"rX c #61F6E644FBBD",
"tX c #65E0EB2EFB98",
"yX c #6956EBB7FDE2",
"uX c #73B7E15BFA34",
"iX c #7F7FE445FB61",
"pX c #7E81F652FC25",
"aX c #8409892A841D",
"sX c #8C5C8BE7820A",
"dX c #86CD8CBF8B80",
"fX c #8F138F9B8996",
"gX c #812885DF82BF",
"hX c #8411948A82A3",
"jX c #89319A218689",
"kX c #8C4492588E5A",
"lX c #8CE59AD18A79",
"zX c #90D693858126",
"xX c #9D3592DB8375",
"cX c #9DA49B1181B5",
"vX c #91BE93BD8A9F",
"bX c #99C094508B51",
"nX c #9B4E9AC48B14",
"mX c #860B8EBA92A3",
"MX c #8BF992139557",
"NX c #A20C9170800A",
"BX c #A16F9A3A80C8",
"VX c #8E98D379CD2C",
"CX c #84D2D8C6D29D",
"ZX c #8B5FDE1EFA47",
"AX c #83BBDDE6FC1A",
"SX c #8876E391E674",
"DX c #8783E965E820",
"FX c #87A5E55AF048",
"GX c #88DEE2C9E950",
"HX c #87F3EDA8EFBD",
"JX c #94BCE72EEAE3",
"KX c #87D2E0A7FB66",
"LX c #88B6E78AF58A",
"PX c #8922F6E3FBCE",
"IX c #8303F9D0FDEE",
"UX c #8ADCF728F98C",
/* pixels */
"0.9.9.9.9.7.7.7.7.7.7.6.6.6.6.6.6.6.6.6.6.6.7.7.7.0.7.0.0.0.0.0.",
"u.u.t.t.t.t.0.0.0.9.9.9.9.9.9.9.9.9.9.9.9.9.9.t.0.0.t.y.y.y.y.s.",
"a.p.i.i.i.u.u.u.u.t.t.t.t.t.t.t.t.t.t.t.u.u.y.y.y.y.i.p.s.h.s.s.",
"f.f.f.d.p.d.p.p.p.p.p.p.p.p.i.p.i.p.i.p.p.p.p.s.h.h.h.g.g.g.g.g.",
"B.B.M.M.M.M.n.n.n.f.f.f.f.f.d.d.d.d.g.g.g.g.g.N.g.g.Z.g.A.A.A.F.",
"G.].G.G.G.G.S.S.V.V.V.B.B.B.C.B.B.B.Z.Z.Z.D.A.A.`.).`.).`.`.`.`.",
"|.|.|.}.}.}.[.[.].[.].].].'.'.'.G.].].].[.{.'. X X X X.X.XXX+X+X",
"%X%X%X#X#X#X#XOX#X#XOXOXoXoXoXXX+XOX+X#X#X$X$X$X$X;X&X&X&X&X*X;X",
">X:X:X:X:X=X=X=X-X;X-X-X-X-X=X=X=X=X-X-X-X-X-X>X;X2X3X2X2X2X3X3X",
"wX6X8X6X9X0X0XAXKXZXZXKXuXwX5X5X4X4X4X5X5XqXwXqXwX8XwXwXtXtXtXtX",
"~.~.VXJXLXLXFXGXSXHXeX7X1X,X,X/./.^.(.(.<XCXSXUXHXUXpXpXIXIXUXUX",
"    . O.+.f o o f h g g b @.#.$.hXjXlXlXjX$.K.J.T.Q.!.!.R.Y.#.Z ",
"+ + + O O @ @ # j *.zXlXMXkXkXMXdXdXmXmXP.b.` ' ` ' b.` $.b.' ( ",
"2.1.BXBXBXcXcXnXbX2.bXbXvXvXdXP.L.` ` ` ' ' _ ' o.( ' _ ( ( ( ( ",
"sXsXsXsXfXvXxXxXxXbXbXNXNXbXMXMXmXdXI.U.x.E.x.v.! J J J K K J J ",
":.<.,.:.&.&.=.I.P.P.U.x.z.z.l.k.D F F F C P C P J U U U U U T U ",
"&.&.%.I.c.H l.e.q.e.s A V L K x x U Y Y T W c ] Y T Q T T Q W Q ",
"E W / d 5.8.8.4.r.I U W W W W R E Q Q Q [ Q Q Q } } [ } [  .} | ",
"z v l C s a w 6 3.a j.H ) ( Q | [ [ { } } | | %.| Q | [ |  ... .",
"} ] n U k l V M r 0 4 4 7 r N H ` _ ....} $. . . . .%.%.| ..| | ",
":.&.%...} Q R R c U V m t ; 3 3 ; 5 r A ! _ ....[ { { [ | [ %.[ ",
",.,.<.>.>.&.&.[ ..} Q W W I M q , = * = - 4 e i G ~ _ Q Q Q Q Q ",
"<.<.<.<.,.&.>.&.&.&.&.&. . . .( u 9 , = & $ $ & > < r A E n x n ",
"<.<.<.<.<.<.<.,.,.>.&.&.&.&.%.) y 8 1 > - & & $ $ $ = , q B l x "
};
