#define text.s.xbm_width 16
#define text.s.xbm_height 16
static unsigned char text.s.xbm_bits[] = {
   0x00, 0x00, 0xff, 0x0f, 0x01, 0x18, 0xf9, 0x29, 0x01, 0x48, 0x01, 0xf0,
   0xf9, 0x81, 0x01, 0x80, 0x01, 0x80, 0xf9, 0x81, 0x01, 0x80, 0x01, 0x80,
   0xf9, 0x81, 0x01, 0x80, 0xfe, 0xff, 0x00, 0x00};
