/* XPM */
static char * verilog_xpm[] = {
/* width height ncolors cpp [x_hot y_hot] */
"32 32 5 1 0 0",
/* colors */
" 	s iconColor2	m white	c white",
".	s iconColor1	m black	c black",
"X	c #000080800000",
"o	s iconColor3	m black	c red",
"O	c #0000FFFF0000",
/* pixels */
"                                ",
"    ...       ...               ",
"    .  . ... .  .               ",
"    .   .XXX.   .               ",
"        .XXX.   .               ",
"       .XXXXX.     ..           ",
" oooooo.  X  .    .XXooooooooooo",
" oooooo.X.X.X.    .X.ooooooooooo",
" oooooo.XXXXX.    .XXooooooooooo",
" oooooo.XX XX.   ..XXooooooooooo",
"   oooo.XXoXX.  .XXXX. oooooo   ",
"   oooo .XXX.  .XXX.. oooooo    ",
"    oooo.XXX. .XXX.  oooooo     ",
"    ooooO...X.XXX.  oooooo      ",
"    ooooOXXXXXX..  oooooo       ",
"     oooOXXXXX..  oooooo        ",
"    ...ooOXXX..  oooooo         ",
"   .XX.ooOXXX.. oooooo          ",
"  .XXX.ooOXXXX.oooooo           ",
" .XX..ooooOXXXoooooo            ",
"  .X. ooooOXXoooooo             ",
"   .  ooooOXoooooo              ",
"       oooOoooooo               ",
"       ooooooooo                ",
"       oooooooo                 ",
"      ..oooooo.                 ",
"     .XXoooooXX.                ",
"    .XX.ooooXXXX.               ",
"   .XX. ooo ..XX.               ",
"  ..X.   o   ..X...             ",
" .XXX.        .XXXX.            ",
" .....         .....            "};
