/* XPM */
static char *noname[] = {
/* width height ncolors chars_per_pixel */
"32 32 7 1",
/* colors */
"` c #000000",
"a c #CB9832",
"b c #330000",
"c c #663300",
"d c #9A6633",
"e c #FFFFFF",
"f c #FFCC66",
/* pixels */
"eeeeeeeeeeeeeeeeeeeeeeeeeeeeeeee",
"eeeeeeeeeeeee```eeeeeeeeeeeeeeee",
"eeeeeeeeeee``c`a``eeeeeeeeeeeeee",
"eeeeeeeee``ccc`aaa``eeeeeeeeeeee",
"eeeeeee``ccccc`aaaaa``eeeeeeeeee",
"eeeee``ccccccc`aaaaaaa``eeeeeeee",
"eee``ccccccccc`aaaaaaaaa``eeeeee",
"e``ccccccccccb`daaaaaaaaaa``eeee",
"```cccccccbcbc`adadaaaaaaa```eee",
"`ff``ccbcbcbcb`dadadadaa``fff`ee",
"`ffff``cbcbcbc`adadada``ffffff`e",
"`ffffff``bcbcb`dadad``ffffffff``",
"`ffffffff``bbb`dcd``ffffffff``ee",
"`ffffffffff````c``ffffffff```eee",
"`ffffffffffff```ffffffff``cc`eee",
"`fffffffffffff`a`fffff``cccc`eee",
"`fffffffffffff`ac`ff``ccccca`eee",
"`fffffffffffff`aac``cccccaaa`eee",
"`fffffffffffff`aaacccccaaaaa`eee",
"`fffffffffffff`aaaaccaaaaaaa`eee",
"`fffffffffffff`aaaaaaaaaaaaa`eee",
"`fffffffffffff`aaaaaaaaaaaaa`eee",
"`fffffffffffff`aaaaaaaaaaaaa`eee",
"``ffffffffffff`aaaaaaaaaaaaa`eee",
"e``fffffffffff`aaaaaaaaaaa``eeee",
"eee``fffffffff`aaaaaaaaa``eeeeee",
"eeeee``fffffff`aaaaaaa``eeeeeeee",
"eeeeeee``fffff`aaaaa``eeeeeeeeee",
"eeeeeeeee``fff`aaa``eeeeeeeeeeee",
"eeeeeeeeeee``f`a``eeeeeeeeeeeeee",
"eeeeeeeeeeeee```eeeeeeeeeeeeeeee",
"eeeeeeeeeeeeeeeeeeeeeeeeeeeeeeee"
};
