/* XPM */
static char * icl8_30030_xpm[] = {
/* width height ncolors chars_per_pixel */
"32 32 17 1",
/* colors */
" 	s None	c None",
".	c #0000FE",
"X	c black",
"o	c #CC9966",
"O	c wheat",
"+	c coral",
"@	c #EF0000",
"#	c #444444",
"$	c #FFCC9A",
"%	c #10105C5C5858",
"&	c light sea green",
"*	c #0000EF",
"=	c #777777",
"-	c #99CCCC",
";	c #888888",
":	c #111111",
"?	c white",
/* pixels */
" .............XXXXXX            ",
" .............ooOOOXX           ",
" .............ooOOOX+X          ",
" .............ooOOOX++X         ",
" .............ooOOOX+++X        ",
" XOoooooooooooooOOOX++++X       ",
" XOoooooooooooooOOOXXXXXXX      ",
" XOOOOOOOO@@@@@@@OOOoooooX      ",
" XOOOOOOOO@+++++@OOOoooooX      ",
" XOOOOOOOO@+++++@########X      ",
" XOOOOOOOO@+++++@ooOOOOOOX      ",
" XOOOOOOOO@@@@@@@ooooooooX      ",
" XOOOOOOO#OOoooooXXXXXX$$X      ",
" XOOOOOO#OOOoooXXOOOOOOXXX      ",
" XOOOOO#OOOoooXOOOOOOOOOOX      ",
" XOOOO#OOOoOOXO%%%%%%%%%%%X     ",
" XOOO#OOOoOOOXO%&&&&&&&&&&X     ",
" X***OOOoOOOXOO%&X#=X&#X=&&X    ",
" X--*OOoOOOOX##%&&&&&&&&&&&X    ",
" X--*#######XOO%&X#&=#X&X#&X    ",
" X--*ooOOOOOXOO%&&&&&&&&&&&X    ",
" X--*oooooooXOO%&#X=#&X&#=&X    ",
" X***ooOOOOOOXO%&&&&&&&&&&X     ",
" XoooooOOOOOOXO%%%%%%%%%%%X     ",
" XoooooOOOOOOOXOOooooooooX      ",
" XOOOOOOOOOOOOOXXooooooXX;#     ",
" XOOOOOOOOOOOOOOOXXXXXXO::;#    ",
" XOOOOOOOOOOOOOOOOOOOOOOOX:;#   ",
" XOOOOOOOOOOOOOOOOOOOOOOOX :;#  ",
" XOOOOOOOOOOOOOOOOOOOOOOOX  :;# ",
" XXXXXXXXXXXXXXXXXXXXXXXXX   :;#",
"                              :?"};
