/* XPM */
static char * icl8_28935_xpm[] = {
/* width height ncolors chars_per_pixel */
"32 32 10 1",
/* colors */
" 	s None	c None",
".	c #EEEEEE",
"X	c #BBBBBB",
"o	c #777777",
"O	c #111111",
"+	c #444444",
"@	c #FE0000",
"#	c white",
"$	c #FF33FE",
"%	c #0000EF",
/* pixels */
"                                ",
"                                ",
"                                ",
"                                ",
"                                ",
"                                ",
" .............................X ",
" .XXXXXXXXXXXXXXXXXXXXXXXXXXXXo ",
" .XO+OOoOXXXXXXXXXXXXXXX@@@@@Xo ",
" .XXXXXXXXXXXXXXXXXXXXXX@##OOXo ",
" .XOO+OOOXXXXXXXXXXXXXXXO$O#%Xo ",
" .XXXXXXXXXXXXXXXXXXXXXXOo%#OXo ",
" .XXXXXXXXXXXXXXXXXXXXXX%#$O%Xo ",
" .XXXXXXXXXXXXXXXXXXXXXX%%%%%Xo ",
" .XXXXXXXXXXXXXXXXXXXXXXXXXXXXo ",
" .XXXXXXXXXXXXXXXXXXXXXXXXXXXXo ",
" .XXXXXXXXXXO+XOO+OX+OXXXXXXXXo ",
" .XXXXXXXXXXXXXXXXXXXXXXXXXXXXo ",
" .XXXXXXXXXXOo+OOoOXO+XXXXXXXXo ",
" .XXXXXXXXXXXXXXXXXXXXXXXXXXXXo ",
" .XXXXXXXXXXOOO++OXOoOXXXXXXXXo ",
" .XXXXXXXXXXXXXXXXXXXXXXXXXXXXo ",
" .XXXXXXXXXXXXXXXXXXXXXXXXXXXXo ",
" Xooooooooooooooooooooooooooooo ",
"                                ",
"                                ",
"                                ",
"                                ",
"                                ",
"                                ",
"                                ",
"                                "};
