/* XPM */
static char *noname[] = {
/* width height ncolors chars_per_pixel */
"32 32 16 1",
/* colors */
"` c #000000",
"a c #CBFFFF",
"b c #AB0000",
"c c #220000",
"d c #440000",
"e c #EF0000",
"f c #550000",
"g c #9AFFFF",
"h c #770000",
"i c #33FFFF",
"j c #00FEFE",
"k c #66FFFF",
"l c #BA0000",
"m c #FFFFFF",
"n c #DC0000",
"o c #890000",
/* pixels */
"mmmmmmmmmmmmmmmmmmmmmmmmmmmmmmmm",
"mmmmmmmmmmmmmmmmmmmmmmmmmmmmmmmm",
"mmmmmmmmmmmmmmmmmmmmmmmmmmmmmmmm",
"mmmmmmmmmmmmmmmmmmmmmmmmmmmmmmmm",
"mmmmmmmmmmmmmmmmmmmmmmmmmmmmmmmm",
"mmmmmmmmmmmmmmmmmmmmmmmmmmmmmmmm",
"mmmmmmmmmmmmmmmmmmmmmmmmmmmmmmmm",
"mmmmmmmmmmmmmmmmmmmmmmmmmmmmmmmm",
"mmmmmmmmmmmmmmmmmmmmmmmmmmmmmmmm",
"mmmmmmmmmmmmmmmmmmmmmmmmmmmmmmmm",
"mmmmmmmmmmmmmmmmmmmmmmmmmmmmmmmm",
"``````````mmmmmmmmccccccccccmmmm",
"m`jjjjjjjj`mmmmmmddddddddddmmmmm",
"mm`jjjjjjjj`mmmmddddddddddmmmmmm",
"mmm`jjjjjjjj`mmffffffffffmmmmmmm",
"mmmm`iiiiiiii`ffffffffffmmmmmmmm",
"mmmmm`iiiiiiii`hfhfhfhfmmmmmmmmm",
"mmmmmm`iiiiiiii`hhhhhhmmmmmmmmmm",
"mmmmmmm`kikikiki`ohohmmmmmmmmmmm",
"mmmmmmmm`kkkkkkkk`oommmmmmmmmmmm",
"mmmmmmmmm`kkkkkkkk`mmmmmmmmmmmmm",
"mmmmmmmmbb`gkgkgkgk`bbbbbbbbbbbb",
"mmmmmmmllbl`gggggggg`lblblblblbm",
"mmmmmmllllll`gggggggg`llllllllmm",
"mmmmmnnlnlnln`agagagag`nlnlnlmmm",
"mmmmnnnnnnnnnn`aaaaaaaa`nnnnmmmm",
"mmmeenenenenene`aaaaaaaa`eemmmmm",
"mmeeeeeeeeeeeeee`mammammm`mmmmmm",
"mmmmmmmmmmmmmmmmmmmmmmmmmmmmmmmm",
"mmmmmmmmmmmmmmmmmmmmmmmmmmmmmmmm",
"mmmmmmmmmmmmmmmmmmmmmmmmmmmmmmmm",
"mmmmmmmmmmmmmmmmmmmmmmmmmmmmmmmm"
};
