/* XPM */
static char * rballoon_xpm[] = {
"21 32 4 1",
"  c #000000",
". c #FFFFFF",
"X c red",
"o s background c none",
"ooooooooXXXXXoooooooo",
"ooooooXXXXXXXXXoooooo",
"ooooXXXXXXXXXXXXXoooo",
"oooXXXXX....XXXXXXooo",
"oooXXX....XXXXXXXXooo",
"ooXXX...XXXXXXXXXXXoo",
"oXXX...XXXXXXXXXXXXXo",
"oXXX..XXXXXXXXXXXXXXo",
"oXX..XXXXXXXXXXXXXXXo",
"XXX..XXXXXXXXXXXXXXXX",
"XXX.XXXXXXXXXXXXXXXXX",
"XXX.XXXXXXXXXXXXXXXXX",
"XXXXXXXXXXXXXXXXXXXXX",
"XXXXXXXXXXXXXXXXXXXXX",
"XXXXXXXXXXXXXXXXXXXXX",
"XXXXXXXXXXXXXXXXXXXXX",
"oXXXXXXXXXXXXXXXXXXXo",
"oXXXXXXXXXXXXXXXXXXXo",
"oXXXXXXXXXXXXXXXXXXXo",
"ooXXXXXXXXXXXXXXXXXoo",
"oooXXXXXXXXXXXXXXXooo",
"oooXXXXXXXXXXXXXXXooo",
"ooooXXXXXXXXXXXXXoooo",
"ooooooXXXXXXXXXoooooo",
"oooooooXXXXXXXooooooo",
"oooooooooXXXooooooooo",
"oooooooooo  ooooooooo",
"oooooooooXXXooooooooo",
"oooooooooXXX oooooooo",
"oooooooooooo oooooooo",
"ooooooooooooo ooooooo",
"ooooooooooooo ooooooo"
} ;
