/* XPM */
static char * redbox_xpm[] = {
"37 32 4 1",
"  c #AA0000",
". s background c none"
"X c #555555",
"o c red",
"....ooooooooooooooooooo .............",
"...ooooooooooooooooooo  .............",
"..ooooooooooooooooooo   .............",
".ooooooooooooooooooo    .............",
"ooooooooooooooooooo     .............",
"oooooooooooooooooo      .............",
"o o o o o o o o o       .............",
" o o o o o o o o o      .............",
"o o o o o o o o o       .............",
" o o o o o o o o o      .............",
"o o o o o o o o o       .............",
" o o o o o o o o o      .............",
"o o o o o o o o o       .............",
" o o o o o o o o o      .............",
"o o o o o o o o o       .............",
" o o o o o o o o o      .............",
"o o o o o o o o o       .............",
" o o o o o o o o o      .............",
"o o o o o o o o o       .............",
" o o o o o o o o o     ..............",
"o o o o o o o o o     ...............",
" o o o o o o o o o   ................",
"o o o o o o o o o   .................",
" o o o o o o o o o ..................",
".....................................",
".....................................",
".............XXXXXXXXXXXXXXXXXXXXXXXX",
"............XXXXXXXXXXXXXXXXXXXXXXXX.",
"...........XXXXXXXXXXXXXXXXXXXXXXXX..",
"..........XXXXXXXXXXXXXXXXXXXXXXXX...",
".........XXXXXXXXXXXXXXXXXXXXXXXX....",
"........XXXXXXXXXXXXXXXXXXXXXXXX....."
} ;
