/* XPM */
static char * icl8_14809_xpm[] = {
/* width height ncolors chars_per_pixel */
"32 32 11 1",
/* colors */
" 	s None	c None",
".	c #FE3200",
"X	c #FE6500",
"o	c #EF0000",
"O	c #770000",
"+	c #440000",
"@	c #888888",
"#	c #444444",
"$	c #CB9832",
"%	c #986500",
"&	c #663300",
/* pixels */
"                                ",
"                                ",
"               .                ",
"              Xo.               ",
"             Xooo.              ",
"            XooOoo.             ",
"           Xoo+ Ooo.            ",
"          Xoo+   Ooo.           ",
"         Xoo+     Ooo.          ",
"        Xoo+       Ooo.         ",
"       Xoo+         Ooo.        ",
"      Xoo+     @#    Ooo.       ",
"     Xoo+     @#      Ooo.      ",
"    Xoo+      ##                ",
"   Xoo+      @###$$$$$$$$$$$$$  ",
"  oooO       @###%%%%%%%%%%%%%  ",
"   Ooo.      @###&&&&&&&&&&&&&  ",
"    Ooo.      ##                ",
"     Ooo.    @###     Xoo+      ",
"      Ooo.   @###    Xoo+       ",
"       Ooo.         Xoo+        ",
"        Ooo.       Xoo+         ",
"         Ooo.     Xoo+          ",
"          Ooo.   Xoo+           ",
"           Ooo. Xoo+            ",
"            Ooo.oo+             ",
"             Oooo+              ",
"              Oo+               ",
"               +                ",
"                                ",
"                                ",
"                                "};
