/* XPM */
static char *report[] = {
/* width height ncolors chars_per_pixel */
"32 32 6 1",
/* colors */
"` c black",
"a c green",
"b c dodger blue",
"c c red",
"d c white",
"e c slate grey",
/* pixels */
"`````````````````````````````ddd",
"`ddddddddddddddddddddddddddd`edd",
"`ddbbddbddbddbdbbbdbbbbddddd`edd",
"`ddddddddddddddddddddddddddd`edd",
"`dbbbddbddbbdbddbbddbddbdddd`edd",
"`ddddddddddddddddddddddddddd`edd",
"`dbbbddbbddbbbdddbbbddbbbddd`edd",
"`ddddddddddddddddddddddddddd`edd",
"`ddddddddddddddddddddddddddd`edd",
"`d`````````````````````````````d",
"`d`ddddddddddddddddddddddddddd`e",
"`d`ddddddddddddddedddddddddaad`e",
"`d`ddddddddddcdddeddddddadaddd`e",
"`d`ddddddcdddcddeeddddaadadddd`e",
"`d`ddcdddcdddcdddedaaaddddddcd`e",
"`d`ddcdddcddecdddeddddddddccdd`e",
"`d`ddcdddcddecddeeddddcddcdddd`e",
"```decddecddecdddedcccdccddddd`e",
"de`decddecddecdddedddddddddddd`e",
"dd`decddecddecddeeeeeeeeeeeeed`e",
"dd`ddddddddddddddeddeddeddeddd`e",
"dd`deeddeeddeedddddddddddddddd`e",
"dd`ddddddddddddddddddddddddddd`e",
"dd`ddddddddddddddddddddddddddd`e",
"dd`ddddddddddddddddddddddddddd`e",
"dd`dbbbddbbbdbbddddbbbdbddbbdd`e",
"dd`ddddddddddddddddddddddddddd`e",
"dd`ddddddddddddddddddddddddddd`e",
"dd`````````````````````````````e",
"dddeeeeeeeeeeeeeeeeeeeeeeeeeeeee",
"dddddddddddddddddddddddddddddddd",
"dddddddddddddddddddddddddddddddd"
};
