/* XPM */
static char *rlogin[] = {
/* width height ncolors chars_per_pixel */
"32 32 7 1",
/* colors */
"` c black",
"a c green",
"b c dodger blue",
"c c grey",
"d c red",
"e c white",
"f c slate grey",
/* pixels */
"eeeeeeeeeeeeeeeeeeeeeeeeeeeeeeee",
"eeeeeeeeeeeeeeeeeeeeeeeeeeeeeeee",
"eeeecccccccccceeeeeeeeeeeeeeeeee",
"eeeecffffffffc``eeeeeeeeeeeeeeee",
"eeeecfbbbbbbfc``eeeeeeeeeeeeeeee",
"eeeecfbebebbfc``eeeeeeeeeeeeeeee",
"eeeecfbbbbbbfcaaaaaaaeeeeeeeeeee",
"eeeecfbbebebfc``````a``eeeeeeeee",
"eeeecfbbbbbbfc``eeeea``eeeeeeeee",
"eeeecffffffffc``eeeea``eeeeeeeee",
"eeeecccccccccc``eeeea``eeeeeeeee",
"eeeeeffffffff```eeeea``eeeeeeeee",
"eeccccccccccccccceeea``eeeeeeeee",
"eec`ffffffffffffc`eea``eeeeeeeee",
"eeccccccccccccccc`eea``eeeeeeeee",
"ecfcfcfcfcfcfcfcfc``a``eeeeeeeee",
"ee````d`````````````a``eeeeeeeee",
"ee````d`````````````a``eeeeeeeee",
"eeeeeed``eeeeecccccccccc``eeeeee",
"eeeeeed``eeeeecffffffffc``eeeeee",
"eeeeeed``eeeeecfbbbbbbfc``eeeeee",
"eeeeeed``eeeeecfbebebbfc``eeeeee",
"eeeeeeddddddddcfbbbbbbfc``eeeeee",
"eeeeeee```````cfbbebbefc``eeeeee",
"eeeeeee```````cfbbbbbbfc``eeeeee",
"eeeeeeeeeeeeeecffffffffc``eeeeee",
"eeeeeeeeeeeeeecccccccccc``eeeeee",
"eeeeeeeeeeeeeeeffffffff```eeeeee",
"eeeeeeeeeeeccccccccccccccccceeee",
"eeeeeeeeeeec`ffffffffffffffc``ee",
"eeeeeeeeeeeccccccccccccccccc``ee",
"eeeeeeeeeecfcfcfcfcfcfcfcfcfc``e"
};
