/* XPM */
static char * roids_xpm[] = {
"32 32 4 1",
"  c #000000",
". c #AAAAAA",
"X c #FFFF55",
"s c #AA0000",
"............................ ...",
"........................... . ..",
"........... .............. ... .",
".......... . ............ ..... ",
"......... ... ............ ... .",
"........ ..... ............ . ..",
"....... ....... ........X... ...",
"........ ..... ........X........",
"......... ... ........X.........",
".......... . ...................",
"........... ....................",
"...................X............",
"..................X.............",
".... ............X..............",
"... . ..........................",
".. ... .........................",
"... . ........X.................",
".... ........X..................",
"............X...................",
"........................ .......",
"..........s............ . ......",
"........ss........ ... ... .....",
"......ssss....... . . ..... ....",
"....sssss....... ... ....... ...",
"..sssssss...... ... . ....... ..",
"..ssssss...... ... ... ....... .",
"...sssss....... ... . ....... ..",
"....sss......... ... ....... ...",
".....ss.......... . . ..... ....",
".................. ... ... .....",
"....................... . ......",
"........................ ......."
} ;
