/* XPM */
static char * rudebug_xpm[] = {
"41 32 7 1",
"  c #000000",
". c #FFFFFF",
"X c #00AA00",
"o s background c none",
"O c #555555",
"+ c #55FF55",
"@ c #FF5555",
"oooooooooooooooooooooO OooooO Ooooooooooo",
"ooooooooooooooooooooo   oooo   oooooooooo",
"oooooooooooooooooooooO OooooO Ooooooooooo",
"oooooooooooooooooooo oooooo ooooooooooooo",
"ooooooooooooooo         ooo ooooooooooooo",
"oooooooooooo   XXXX XXXX   oooooooooooooo",
"ooooooooooo XXXXXXX XXXXXX  ooooooooooooo",
"ooooooooo  XXXXXXX   XXXX     ooooooooooo",
"oooooooo XXXXXXXX ... XX ... X oooooooooo",
"ooooooo XXXXXXXX .....  ..... X ooooooooo",
"ooooooo XXXXXXX ... ...... ...  ooooooooo",
"oooooo XXXXXXX  ..   ....   ..   oooooooo",
"oooooo XXXXXX X ... ...... ... + oooooooo",
"ooooo XXXXXX X+X .....  ..... +X+  oooooo",
"ooooo XXXXX X+X+X ... X+ ... +X+X+X ooooo",
"ooooo XXXXX +X+X+X   X+X+   +X+X+X+ ooooo",
"oooo  XXXX +X+X+X+X+X+X+X+X+X+X+X+X+ oooo",
"ooo o XXXX X+X+X+X+X+X+X+X+X+X+X+X+X  ooo",
"oo oo XXXX +X+X+X+X+X+X+X+X+X+X+X+X+ o oo",
"o oo o XXXX +X+X+X+X      XX+X+X+X+  oo o",
"o o oo XXXX X+X+X+X+X  @@@  X+X+X+X o o o",
" oo o o XXXX  +X+X+X+X+ @@@@ X+X+   o oo ",
" o oo oo XXXXX +X+X+X+X+ @@@@ X+ oo oo o ",
" o o oooo  XXXX    X+X+X+ @@@   oooo o o ",
" o o oooooo XXXXXXX       @@@@ ooooo o o ",
" o o ooooooo   XXXXXXXXX      oooooo o o ",
" o o oooooooooo         ooooooo oooo o o ",
" o o ooooooooooooooooooooooooooo ooo o o ",
" o o oooooooooooooooooooo oo ooo  oo o o ",
"ooooooooooooooooooooooooo ooo oo  ooooooo",
"ooooooooooooooooooooooooo  oo  oooooooooo",
"ooooooooooooooooooooooooo  oo  oooooooooo"
} ;
