/* XPM */
static char * batsignal [] = {
"32 32 3 1",
" 	s None	c None",
".	m white	c yellow",
"X	m black	c black",
"             .......            ",
"          ............          ",
"       ...................      ",
"      ....................      ",
"      .....................     ",
"     .......................    ",
"   ...........X...X...........  ",
"  ............X...X...........  ",
"  ............X...X...........  ",
"  ...X........XXXXX........X..  ",
" ...XXX.......XXXXX......XXXX.. ",
" ...XXXXX.XXXXXXXXXXXX.XXXXXX.. ",
" ..XXXXXXXXXXXXXXXXXXXXXXXXXXX..",
"...XXXXXXXXXXXXXXXXXXXXXXXXXXX..",
"..XXXXXXXXXXXXXXXXXXXXXXXXXXXX..",
"..XXXXXXXXXXXXXXXXXXXXXXXXXXXX..",
"..XXXXXXXXXXXXXXXXXXXXXXXXXXXX..",
"..XXXXXXXXXXXXXXXXXXXXXXXXXXXX..",
" ..XXXXXXXXXXXXXXXXXXXXXXXXXXX. ",
" ..XXXX..XXX..XXXX...XXX..XXXX. ",
" ...XXX...X...XXXX....X...XXX.. ",
"  ..XX.........XXX....X...XXX.  ",
"  ...X.........XXX........XX..  ",
"  ....X........XXX........X...  ",
"   ...X.........X.............  ",
"    ............X............   ",
"      ..........X..........     ",
"      ....................      ",
"       ...................      ",
"        .................       ",
"             .........          ",
"                                "};
