/* XPM */
static char * bigpen_xpm[] = {
"13 55 6 1",
"  c #000000",
". s background c none",
"O c #FF55FF",
"+ c #FF5555",
"@ c #FFFFFF",
"# c #0000AA",
"....     ....",
"... O+O+O ...",
".. O+O+O+O ..",
".. +O   O+ ..",
".. O+   +O ..",
".. +O   O+ ..",
".. O+   +O ..",
".. +O+ +O+ ..",
".. O+O O+O ..",
".. +O+ +O+ ..",
".. O+O O+O ..",
".. +O+ +O+ ..",
".. O+O O+O ..",
".. +O+ +O+ ..",
".. O+O O+O ..",
".. +O   O+ ..",
".. O+O O+O ..",
".. +O+O+O+ ..",
".. O+O+O+O ..",
"..         ..",
".. O+O+O+O ..",
".. +O+O+O+ ..",
".. O+O+O+O ..",
".. +O+O+O+ ..",
".. O+O+O+O ..",
".. +O+O+O+ ..",
"... +O+O+ ...",
"... O+O+O ...",
"... +O+O+ ...",
"... O+O+O ...",
"... +O+O+ ...",
"... O+O+O ...",
"... +O+O+ ...",
"... O+O+O ...",
"... +O+O+ ...",
"... O+O+O ...",
"... +O+O+ ...",
"... O+O+O ...",
"....     ....",
".... @@@ ....",
".... @ @ ....",
".... @ @ ....",
".... @ @ ....",
".... @@@ ....",
".... @@@ ....",
"..... @ .....",
"..... @ .....",
".....   .....",
".....##......",
"...###.......",
"..###........",
"...#########.",
".........####",
"..........###",
"..........###"
} ;
