/* XPM */
static char * blaqjaq_xpm[] = {
"30 32 6 1",
"  c #000000",
". s background c none",
"X c #FFFFFF",
"o c #555555",
"O c #AA0000",
"+ c #FF5555",
".                 ............",
". XXXXXXXXXXXXXXX ............",
"o X X XXXXXXXXXXX ............",
"o X X XXXXXXXXXXX ............",
"o X   X                 ......",
"o XXX X XXXXXXXXXXXXXXX ......",
"o XXXXX XXXOXXXXXXXXXXX ......",
"o XXXXX XXXOXXXXXXXXXXX ......",
"o XXX   XOXOX                 ",
"o XXX   XXOXX XXXXXXXXXXXXXXX ",
"o XXXXX XXXXX XX XXXXXXXXXXXX ",
"o XXXXX XXXXX X X XXXXXXXXXXX ",
"o XXXXX XXXXX X   XXXXXXXXXXX ",
"o XXXXX XX  X X X XXXXXXXXXXX ",
"o XXXXX XX+ + XXXXXXXXXXXXXXX ",
"o XXX   XX+ + XXXXXXX XXXXXXX ",
"o XXX   XX+   XXXXXX   XXXXXX ",
"o XXXXX XX+ + XXXXX     XXXXX ",
"o XXXXX XX+ + XXXX       XXXX ",
"o XXXXX XX+   XXXX       XXXX ",
"o XXXXX XXX + XXXX  X X  XXXX ",
"o XXXXX XXX + XXXXXXX XXXXXXX ",
"o       XXXX  XXXXXX   XXXXXX ",
"ooooooo XXXXX XXXXX     XXXXX ",
"......o XXXXX XXXXXXXXXXXXXXX ",
"......o XXXXX XXXXXXXXXXX X X ",
"......o       XXXXXXXXXXX   X ",
"......ooooooo XXXXXXXXXXX X X ",
"............o XXXXXXXXXXXX XX ",
"............o XXXXXXXXXXXXXXX ",
"............o                 ",
"............oooooooooooooooo.."
} ;
