/* XPM */
static char *book_open[] = {
/* width height ncolors chars_per_pixel */
"32 32 7 1",
/* colors */
"` c black",
"a c grey",
"b c dark slate grey",
"c c red",
"d c tomato",
"e c white",
"f c slate grey",
/* pixels */
"ee`````````bbfaeafbb``````````ee",
"ee`eeeeeeeeaafbfbfaaeeeeeeeee`ee",
"dd`eab`beeffbaebeaffbfefffffe```",
"dc`ebaeeeefbffebeffbffefbfbfe`c`",
"dc`e`ef`feffbfabebbffeefbbbfe`c`",
"dc`ebae`eefbfaebefffbfeeffffe`c`",
"dc`eab``eeffffebefbfffefbfbfe`c`",
"dc`eeeeeeeffbfabefbfbfeffbfee`c`",
"dc`efbfbfefbffebebfbffebffffb`c`",
"dc`efbfffefffaabeaaeeeefbfebb`c`",
"dc`effbfeebfbfebebaa`aefffefb`c`",
"dc`eeffbfefffbaba`ee`eeefffee`c`",
"dc`efbffbebfffebe````eeffbffe`c`",
"dc`effbffeffbaebe`ee`eeffffee`c`",
"dc`ebbfbeeffffabe`aa`aefbfbbe`c`",
"dc`efffffeffbfabafeeeeeffffee`c`",
"dc`ebfbbbefbfaebeaffffefbfffe`c`",
"dc`efffbeefffbebeffbffeffbffe`c`",
"dc`efbfffefbffabefbfbfefbffbe`c`",
"dc`effbbfeffffebeffffeefffffe`c`",
"dc`eeeeeeeeeaaebeaeeeeeeeeeee`c`",
"dc``````````bfabafb```````````c`",
"dc`bbbbbbbbbb`bbbbbbbbbbbbbbb`c`",
"dc`bbbbbbbbbb``f`bbbbbbbbbbbb`c`",
"dc`bbbbbbbbbb`b`bbbbbbbbbbbbb`c`",
"dc````````````f`f`````````````c`",
"dcccccccccccc`a`a`ccccccccccccc`",
"c```````````````````````````````",
"eeeeeeeeeeeeee```eeeeeeeeeeeeeee",
"eeeeeeeeeeeeeeeeeeeeeeeeeeeeeeee",
"eeeeeeeeeeeeeeeeeeeeeeeeeeeeeeee",
"eeeeeeeeeeeeeeeeeeeeeeeeeeeeeeee"
};
