/* XPM */
static char *noname[] = {
/* width height ncolors chars_per_pixel */
"32 32 16 1",
/* colors */
"` c #000000",
"a c #FF6666",
"b c #FFCC9A",
"c c #0000EF",
"d c #FF9966",
"e c #6699FF",
"f c #000066",
"g c #CB6532",
"h c #9A6633",
"i c #666666",
"j c #FFFFFF",
"k c #DDDDDD",
"l c #FE0000",
"m c #890000",
"n c #653232",
"o c #BBBBBB",
/* pixels */
"jjjjjjjjjjjjjjjbbbbbbbkkejjjjjjj",
"jjjjjjjjjjjbbbbdddddddjjcekkjjjj",
"jjjjjjjjbbbdddhhhgghhgjjccjjaaaj",
"jjjjjjbbddhhghhgghghggkkccjjlllm",
"jjjjjbdhhhhghghhhghghgooccoollmm",
"jjjjbdhghhhhghhhnnnnnniiffiimmmj",
"jjjbdhghhhhhhhnnn```nhjjjjjjjjjj",
"jjjbdghhhhhhnnn`hjjjjjjjjjjjjjjj",
"jjbdhhhhhhhnn`hjjjjjjjjjjj`jjjjj",
"jjbdhhhhhhnn`jjjjjjjjj`jjj`jjjjj",
"jjbhhhhhhnn`jjjjjjjjjj`jjjj`jjjj",
"jbdhhhhhnn`jjjjjjjjjjjjijjj`jjjj",
"jbdhhhhnn`jjjj`jjjjjjjjijjjjijjj",
"jbdhhhhn`jjj`jj`jjjjjjjjjjjjijjj",
"jbhhhhnnhjjjj`jjijjjjjjjjjjjjjjj",
"bdhghhn`jjj`jjijjojjjjjjojjjjjjj",
"bdhghhnhjjjj`jjijjkjjjjjojjjjijj",
"bdghhn`jjjjjjijjojjjjjjjjkjjjijj",
"bdghhn`jjjjjjjojjojjjjjjjkjjjjoj",
"bdhhhn`jjjjjjjjkjjkjjjjjjjjjjjoj",
"bdghhnnjjjjjjjjjjjjjjjjjjjjjjjjk",
"bdgggghjjjjjjjjjjjjjjjjjjjjjjjjk",
"kjjkoijjj``jjjjjjjjjjjjjjjjjjjjj",
"kjjkoijjjjjiijjjjjjjjjjjjjjjjjjj",
"eccccfjjjjjjjjjoojjjjjjjjjjjjjjj",
"jecccfjjjjjjjjjjjkkjjjjjjjjjjjjj",
"jkjjoijj``jjjjjjjjjjjjjjjjjjjjjj",
"jkjjoijjjj``jjjjjjjjjjjjjjjjjjjj",
"jjallmjjjjjjiijjjjjjjjjjjjjjjjjj",
"jjallmjjjjjjjjjjiijjjjjjjjjjjjjj",
"jjalmmjjjjjjjjjjjjoojjjjjjjjjjjj",
"jjjmmjjjjjjjjjjjjjjjkkjjjjjjjjjj"
};
