/* XPM */
static char * icl8_30075_xpm[] = {
/* width height ncolors chars_per_pixel */
"32 32 21 1",
/* colors */
" 	s None	c None",
".	c #9AFF9A",
"X	c #EEEEEE",
"o	c light sea green",
"O	c #BBBBBB",
"+	c #222222",
"@	c #980000",
"#	c #000022",
"$	c #000044",
"%	c #000055",
"&	c #003333",
"*	c white",
"=	c black",
"-	c #006633",
";	c #002200",
":	c #659865",
"?	c #777777",
">	c #AAAAAA",
",	c #00EF00",
"<	c #FE0000",
"1	c #888888",
/* pixels */
"                   ..           ",
"     XXXXXXXXXXXXX.oo.XXXXX     ",
"    XOOOOOOOOOOOO.oooo.OOOO+    ",
"    XOOOOOOOOOOO.oooooo.OOO+    ",
"    XOOO+++++++.oo@@@@oo.OO+    ",
"    XOO+#$$%%&.oo@@@@@@oo.O+    ",
"    XOO+$$%%&.oo@@@**@@@oo.+    ",
"    XOO+$%%&.ooo@@*==*@@ooo.    ",
"    XOO+%%&.oooo@@*==*@@oooo.   ",
"    XOO+%&.ooooo@@@**@@@oooo-   ",
"    XOO+&.ooooooo@@@@@@oooo-;   ",
"    XOO+.ooo@@oooo@@@@oooo-:;   ",
"    XOO+ooo@**@ooooo@oooo-:;    ",
"    XOO+oo@*==*@ooo@oooo-:;+    ",
"    XOO+oo@*==*@oo@oooo-:;O+    ",
"    XOO+oo@@**@@o@oooo-:;OO+    ",
"    XOO+-oo@@@@@@oooo-:;XOO+    ",
"    XOOOXXXXXXXXXXXXXXXXOOO+    ",
"    XOOOOOOOOOOOOOOOOOOOOOO+    ",
"    XOOOOOOOOOOOOOOOOOOOOOO+    ",
"    XOOOOOOOOOOOOOOOOOOOOOO+    ",
"    XOOOOOOOOOOOOOOOO???OOO+    ",
"    XOOOOOOOOOOOO+++++++OOO+    ",
"    XOOOOOOOOOOOOOOOO>>>OOO+    ",
"    XO,,OOOOOOOOOOOOOOOOOOO+    ",
"    XO<<OOOOOOOOOOOOOOOOOOO+    ",
"    XOOOOOOOOOOOOOOOOOOOOOO+    ",
"     ++++++++++++++++++++++     ",
"     ?????????????????????+     ",
"     >11111111111111111111+     ",
"     O>>>>>>>>>>>>>>>>>>>>+     ",
"     ?+++++++++++++++++++++     "};
