/* XPM */
static char * textdoc_colors[] = {
"31 34 4 1",
"  c #000000",
". c #FFFFFF",
"X c None s Background",
"o c #555555",
"XXXXXXXooooooooooooooooooooooXX",
"XXXXXXoo....................oXX",
"XXXXXo.o....................ooo",
"XXXXo..o....................ooo",
"XXXo...o....................ooo",
"XXo....o....................ooo",
"Xo.....o....................ooo",
"oooooooo....................ooo",
"o...........................ooo",
"o...........................ooo",
"o...........................ooo",
"o...........................ooo",
"o...........................ooo",
"o...........................ooo",
"o..     .     . ... .     ..ooo",
"o.... ... ..... ... ... ....ooo",
"o.... ... ...... . .... ....ooo",
"o.... ... ...... . .... ....ooo",
"o.... ...    .... ..... ....ooo",
"o.... ... ...... . .... ....ooo",
"o.... ... ...... . .... ....ooo",
"o.... ... ..... ... ... ....ooo",
"o.... ...     . ... ... ....ooo",
"o...........................ooo",
"o...........................ooo",
"o...........................ooo",
"o...........................ooo",
"o...........................ooo",
"o...........................ooo",
"o...........................ooo",
"o...........................ooo",
"ooooooooooooooooooooooooooooooo",
"XXooooooooooooooooooooooooooooo",
"XXooooooooooooooooooooooooooooo"
} ;
