/* XPM */
static char * icl8_28372_xpm[] = {
/* width height ncolors chars_per_pixel */
"32 32 8 1",
/* colors */
" 	s None	c None",
".	c black",
"X	c #FE9800",
"o	c #555555",
"O	c #FFCC9A",
"+	c #0000EF",
"@	c #66CCFF",
"#	c white",
/* pixels */
"                                ",
" .............................. ",
" .XXXXXXXXXXXXXXXXXXXXXXXXXXXX. ",
" .X..........................X.o",
" .X.OOOOOOOOOOOOOOOOOOOOOOOO.X.o",
" .X.O+++O+++++O+++++OOOOOOOO.X.o",
" .X.OOOOOOOOOOOOOOOOOOOOOOOO.X.o",
" .X.O+O+++O+++++OOOOOOOOOOOO.X.o",
" .X.OOOOOOOOOOOOOOOOOOOOOOOO.X.o",
" .X.O++O++++O+++++O++++OOOOO.X.o",
" .X.OOOOOOOOOOOOOOOOOOOOOOOO.X.o",
" .X.O+++O+++OOOOOOOOOOOOOOOO.X.o",
" .X.OOOOOOOOOOOOOOOOOOOOOOOO.X.o",
" .X.O++O+++++O++++OOOOOOOOOO.X.o",
" .X.OOOOOOOOOOOOOOOOOOOOOOOO.X.o",
" .X.O++++O+++++OOOOOOOOOOOOO.X.o",
" .X.OOOOOOOOOOOOOOOOOOOOOOOO.X.o",
" .X.OOOOOOOOOOOOOOOOOOOOOOOO.X.o",
" .X..........................X.o",
" .XXXXXXXXXXXXXXXXXXXXXXXXXXXX.o",
" .X..........................X.o",
" .X.@@@@@@@@@@##############.X.o",
" .X.@@@@@@@@@@##############.X.o",
" .X..........................X.o",
" .XXXXXXXXXXXXXXXXXXXXXXXXXXXX.o",
" .X..........................X.o",
" .X.@@@@@@@@@@@@@@@@@#######.X.o",
" .X.@@@@@@@@@@@@@@@@@#######.X.o",
" .X..........................X.o",
" .XXXXXXXXXXXXXXXXXXXXXXXXXXXX.o",
" ..............................o",
"   ooooooooooooooooooooooooooooo"};
