/* XPM */
static char * trickflier_xpm [] = {
"49 49 5 1",
"  c #FFFFFFFFFFFF",
". c #000000000000",
"X c #64649595EDED",
"o c #FFFF00000000",
"O c #D2D2B4B48C8C",
"                                                 ",
"                                                 ",
"                                                 ",
"                                                 ",
"                                                 ",
"                                                 ",
"                                                 ",
"                                                 ",
"                                                 ",
"                                                 ",
"                                                 ",
"                                                 ",
"                                                 ",
"                                                 ",
"                                                 ",
"                            ...                  ",
"                           ..... ...             ",
"                           ..........            ",
"                            X.X .....       .    ",
"                            X.X  X.X        .    ",
"                   XXXXXXXXXXXXXXXXXXXX.X.  .    ",
"               XXXXXXXXXXXXXXXXXXXXXXXXX..  .    ",
"      XXXXXXXXXXXXXXXXXXXXXXXXXXXXXXXXX.X.  .    ",
"   XXXXXXXXXXXXOOOOOOOOOOOOOOOXXXXXXXXXX..  .    ",
"   XXXXXXXXXXXXXOOOOOOOOOOOOOOOXXXXXXXX.X.  .    ",
"   OOOOOOOXXXXXXXXOOOOOOOOOOOOOOXXXXXXXX..  .    ",
"   XXOOOOOOOXXXXXXXXOOOOOOOOOOOOOOXXXXX.X.XX.    ",
"   XXXXO OOOOOXXXXXXX XX XX XX XOXOOXXXX......   ",
"   XXXXXXXXXXXXXXXXXXXXXXXXXXXXXXXXXXXX.X.XX.    ",
"   XXXXXXXXXXXXXXXXXXXXXXXXXXXXXXXXXXXXX..  .    ",
"   XXXXXXXX           X  ooooX XXXXXXXX.X.  .    ",
"   XXXXXXX           . .oo   X X XXXXXXX..  .    ",
"   XXXXXX   o        o.ooXXXXX X  XXXXX.X.  .    ",
"   XXXXX   oooo   ooo  ..    XXX  X   X     .    ",
"   XXXXX   ooooooooooo... .. XX   X   X     .    ",
"   XXXX     oooooooooo....        X  .           ",
"   XXX        ooooo   ... ....    X .            ",
"                      ........    XX             ",
"                       .......                   ",
"                        .....                    ",
"                                                 ",
"                                                 ",
"                                                 ",
"                                                 ",
"                                                 ",
"                                                 ",
"                                                 ",
"                                                 ",
"                                                 "};
