/* XPM */
static char *noname[] = {
/* width height ncolors chars_per_pixel */
"32 32 6 1",
/* colors */
"` c #000000",
"a c #00CD9A",
"b c #009865",
"c c #FFFFFF",
"d c #32CB98",
"e c #CBFFCB",
/* pixels */
"ccccccccc``````````````ccccccccc",
"cccc`````aaaaaaaaaaaaaa````ccccc",
"cc``aaaaaaaaaaaaaaaaaaaaaaa``ccc",
"c`aaaaaaaaaaaaaaaabababaaaaaa``c",
"`aaaaaaaaaaaaaaaaabababababaaaa`",
"`aaaaaaaaaaaaaaaaababababababaa`",
"`aaaaaaaaaaaaaaaaababababababaa`",
"``aaaaaaaaaaaaaaaababababababaa`",
"`e``aaaaaaaaaaaaaababababababaa`",
"`eee``aaaaaa`aaaaababababababaa`",
"`eeeee```aaa``aaaababababababaa`",
"`edeeeeee````e`aaaaaaaaabababaa`",
"`ededeeeeeeeeee`aaaaaaaaaaaabaa`",
"`ededededeeeeeee`abababaaaaaaaa`",
"`ededededeeeeeeee`bababababaaaa`",
"`eeededeeeeeeeeeee`abababababaa`",
"`ededededeeeeeeeeee`bababababaa`",
"`ededeeedeeeeeeeeeee`ababababaa`",
"`edeeededeeeeeeeeeeee`babababaa`",
"`edededeeeeeeeeeeeeeee`abababaa`",
"`eeedededeeeeeeeeeeeeee`bababaa`",
"`ededeeedeeeeeeeeeeeee`aaababaa`",
"`ededededeeeeeeeeeeee`aaaaaabaa`",
"`edeeedeeeeeeeeeeeee`````aaaaaa`",
"`eeedededeeeeeeeeee`ccccc```aaa`",
"c`eeeededeeeeeeeee`ccccccccc``a`",
"cc``eeeeeeeeeeeee`cccccccccccc``",
"cccc``eeeeeeeeee`cccccccccccccc`",
"cccccc```eeeeee`cccccccccccccccc",
"ccccccccc````e`ccccccccccccccccc",
"cccccccccccc``cccccccccccccccccc",
"cccccccccccc`ccccccccccccccccccc"
};
