/* XPM */
static char * biscodyne_xpm[] = {
/* width height ncolors cpp [x_hot y_hot] */
"32 32 4 1 0 0",
/* colors */
" 	s iconColor1	m black	c black",
".	c #000000008080",
"X	c #000080800000",
"o	s iconColor4	m white	c green",
/* pixels */
"                                ",
"................................",
"................................",
"XXXXXXXXXXXXXXXXXXXXXXXXXXX.....",
"XXXXXXXXXXXXXXXXXXXXXXXXXXXXX...",
"XXXXXXXXXXXXXoooooooooooooXXXXXX",
"..........ooooooooooooooooooo...",
"XXXXXXXXXooooooooooooooooooooo..",
"XXXXXXXXooooooooooooooooooooooo.",
"XXXXXXXXXoooooooooooooooooooooXX",
"..........ooooooooooooooooooo...",
"XXXXXXXXXXXXXooooooooooooo......",
"XXXXXXXXXXXXXXXXXXXXXX..........",
"XXXXXXXXXXXXXXXXXXXXXXXXXXXXXXXX",
"................................",
"XXXXXXXXXooooooooooooo..........",
"XXXXXooooooooooooooooooooo......",
"XXXXoooooooooooooooooooooooXXXXX",
"....oooooooooooooooooooooooo....",
"XXXXXoooooooooooooooooooooo.....",
"XXXXXXoooooooooooooooooooo......",
"XXXXXXXXXXooooooooooooXXXXXXXXXX",
"................................",
"XXXXXXXX........................",
"XXXXXXXXXXX.....................",
"XXXXXXXXXXXXXXXXXXXXXXXXXXXXXXXX",
"................................",
"XXXXX...........................",
"XXXXXXXX........................",
"XXXXXXXXXXXXXXXXXXXXXXXXXXXXXXXX",
"................................",
"XX.............................."};
