/* XPM */
static char *noname[] = {
/* width height ncolors chars_per_pixel */
"32 32 25 1",
/* colors */
"` c #CBFFFF",
"a c #AB0000",
"b c #FFFE9A",
"c c #220000",
"d c #CB9832",
"e c #FFCC9A",
"f c #440000",
"g c #777777",
"h c #CC9999",
"i c #550000",
"j c #660000",
"k c #555555",
"l c #770000",
"m c #986565",
"n c #EEEEEE",
"o c #0000EF",
"p c #111111",
"q c #AAAAAA",
"r c #BA0000",
"s c #FF3333",
"t c #444444",
"u c #DC0000",
"v c #DDDDDD",
"w c #890000",
"x c #BBBBBB",
/* pixels */
"nnnnnnnnnnnnnnnnnnnnnnnnnnnnnnnx",
"nbbbbbbbbnnnnnnnnnnnnnnnnnnnnnxk",
"nbeeeeeeeqxxxxxxxxxxxxxxxxxxxxkk",
"nbeeeeeeeqxxxxxxxxxxxxxxxxxxxxkk",
"nbeeeeeeeqxxxxxxxxvvvvvxxxxxxxkk",
"nbeeeeeeeqxxxxxxvn`````nvxxxxxkk",
"nbeeoeeeeqxxxxxn`````````nxxxxkk",
"nbeeoeeeeqxxxxn```````````nxxxkk",
"nbeeoeeeeqxxxn`````````````vxxkk",
"nbeeeeeeeqxxn``````````````nxxkk",
"nbeeeeeeeqxx`uu```uu`uu``uu`vxkk",
"nbeeeeeeeqxv`rr```rr`rr``rr`nxkk",
"nbeeeeeeeqxn`aah`haa`aa``aa``xkk",
"nbeeeeeeeqx``hww`wwh`ww``ww``xkk",
"nbeeeeeeeqx```ll`ll``ll``ll``xkk",
"nbeeeeeeeqx```iihii``ii``ii``xkk",
"nbeeeeeeeqx```mfffm``ffffff``xkk",
"nbeeeeeeeqx````ccc```mccccm``xkk",
"nbeeeeeeeqx``````````````````xkk",
"nbeeeeeeeqx``````````````````xkk",
"nbeeejjqqqx``ptpgpttppg``````xkk",
"nbeeeeeqxxx`````````````````nxkk",
"nbeeeeeqxxx````ptgppggptpp``vxkk",
"nbeeeeeqxxx````````````````nxxkk",
"nbeeeeeqxxx``pgpptpppgp````vxxkk",
"nbeeeeeqxxn```````````````nxxxkk",
"nbeesssqn```````````````nvxxxxkk",
"nbeeeeeqxxxvn`````````nvxxxxxxkk",
"nbeeeeeqxxxxxxxxxxxxxxxxxxxxxxkk",
"nbeeeeeqxxxxxxxxxxxxxxxxxxxxxxkk",
"nedddddkkkkkkkkkkkkkkkkkkkkkkkkk",
"xkkkkkkkkkkkkkkkkkkkkkkkkkkkkkkk"
};
