/* XPM */
static char *noname[] = {
/* width height ncolors chars_per_pixel */
"32 32 12 1",
/* colors */
"` c #000000",
"a c #EF0000",
"b c #00EF00",
"c c #00AB00",
"d c #008900",
"e c #007700",
"f c #005500",
"g c #FF9933",
"h c #00DC00",
"i c #FFFFFF",
"j c #00BA00",
"k c #BBBBBB",
/* pixels */
"````````````````````````iiiiiiii",
"`bbbbbbbbbbaaaaaaaaabbb``iiiiiii",
"`bbbbbbbaaaaaaaaaaaaaab`f`iiiiii",
"`bbbbbaaaaaaaaabbbbbbba`ff`iiiii",
"`bbbbaaaaaaaabbbbbbbbbb`fff`iiii",
"`bbbbaaaaaaabbbbbbbbbbb`ffff`iii",
"`hhhaaaaaaaahhhhhhhhhh``fffff`ii",
"`hhhaaaaaaaaahhhhhhhh`g`ffffff`i",
"`hhhaaaaaaaaaahhhhhh`g``````````",
"`hhhaaaaaaaaaaahhhh`g``ffffffff`",
"`hhhhaaaaaaaaaaahh`g``hhhhhhhhh`",
"`jjjjaaaaaaaaaajj`g``jjjjjjaajj`",
"`jjjjjaaaaaaaajj`g``jjjjjjjaajj`",
"`jjjjjjaaaaaajj`g``jjjjjjjjaajj`",
"`jjjjjjjaaaajj`g``jjjjjjjjjaajj`",
"`jjjjjjjjaajj`g``jjaajjjjjjaajj`",
"`ccccccccccc`g``ccaaaacccccaacc`",
"`cccccccccc`g``ccaaaaaaccccaacc`",
"`ccccccccc`g``ccaaaaaaaaccccccc`",
"`ccccccc`````ccaaaaaaaaaaccaacc`",
"`cccccc``k``ccaaaaaaaaaaaccaacc`",
"`dddddd`kkk`dddaaaaaaaaaaaddddd`",
"`ddddd``kk``ddddaaaaaaaaaaddddd`",
"`ddddd``k``ddddddaaaaaaaaaddddd`",
"`ddddd````ddddddddaaaaaaaaddddd`",
"`ddddd```ddddddddddaaaaaaaddddd`",
"`eeeee```eeeeeeeeeeaaaaaaeeeeee`",
"`eeeeee```eeeeeeeeeaaaaaaeeeeee`",
"`eeeeaeeeeeeeeeeeeaaaaaaeeeeeee`",
"`eeeeeaaeeeeeeeeaaaaaaaeeeeeeee`",
"`eeeeeeeaaaaaaaaaaaaaeeeeeeeeee`",
"````````````````````````````````"
};
