/* XPM */
static char *noname[] = {
/* width height ncolors chars_per_pixel */
"32 32 10 1",
/* colors */
"` c #000000",
"a c #CBFFFF",
"b c #999999",
"c c #99CCCC",
"d c #EEEEEE",
"e c #888888",
"f c #FFFFFF",
"g c #444444",
"h c #DDDDDD",
"i c #BBBBBB",
/* pixels */
"ffffffffffffffffffffffffffffffff",
"ffffffffffffffffffffffffffffffff",
"ffffffffffffffffffffffffffffffff",
"ffffffffffffffffffffffffffffffff",
"ffffffffffffffffffffffffffffffff",
"ffddddddddddddddddddddddddddddff",
"fdiiiiiiiiiiiiiidddddddddddddddf",
"diiiiiiiiiiiiiiidddddddddddddddb",
"diiiiiiiiiiiiiiidddddddddddddddb",
"diiie```````````bbbbbbbbbbbhdddb",
"diii`cccccccccccaaaaaaaaaaabdddb",
"diii`cccccccccccaaaaaaaaaaabdddb",
"diii`cc`````````bbbbbbbbbaabdddb",
"diii`cc``````dddfffbbbbbbaabdddb",
"diii`cc`````````bbbbbbbbbaabdddb",
"diii`cc`ddddddddfffffffbbaabdddb",
"diii`cc`d```````bbbbbbfbbaabdddb",
"diii`cc`ddddddddfffffffbbaabdddb",
"diii`cc`d```````bbbbbbfbbaabdddb",
"diii`cc`ddddddddfffffffbbaabdddb",
"diii`cc`d```````bbbbbbfbbaabdddb",
"diii`cc`ddddddddfffffffbbaabdddb",
"diii`cc`d```````bbbbbbfbbaabdddb",
"diii`cc`ddddddddfffffffbbaabdddb",
"diii`cc`ddddddddfffffffbbaabdddb",
"diii`cc`````````bbbbbbbbbaabdddb",
"diii`cccccccccccaaaaaaaaaaabdddb",
"diiie```````````bbbbbbbbbbbddddb",
"diiiiiiiiiiiiiiidddddddddddddddb",
"diiiiiiiiiiiiiiidddddddddddddddb",
"fiiiiiiiiiiiiiiiddddddddddddddbf",
"ffggggggggggggggbbbbbbbbbbbbbbff"
};
