/* XPM */
static char * sickmon_colors[] = {
"32 32 5 1",
"  c #000000",
". c #FFFFFF",
"X c None s #AAAAAA",
"o c #555555",
"O c #FF5555",
"XXXXXXXXXXXXXXXXXXXXXXXXXXXXXXXX",
"XXXXXXXXXXXXXXXXXXXXXXXXXXXXXXXX",
"XXXXXXXXXXXXXXXXXXXXXXXXXXXXXXXX",
"X                              X",
" oooooooooooooooooooooooooooooo ",
" oo                          oo ",
" o .......................... o ",
" o .......................... o ",
" o .......................... o ",
" o .......   ......   ....... o ",
" o ......   . .... ... ...... o ",
" o .....    .. .. ..... ..... o ",
" o .....   ... .. ...   ..... o ",
" o ..... ..... .. ..    ..... o ",
" o ...... ... .... .   ...... o ",
" o .......   ......   ....... o ",
" o .......................... o ",
" o .......................... o ",
" o .......................... o ",
" o .........         ........ o ",
" o ......   ..... OO    ..... o ",
" o ....  ........ OO OO   ... o ",
" o ... .......... OO OO .. .. o ",
" o .............. OO OO ..... o ",
" o .............. OO OO ..... o ",
" o .............. OO OO ..... o ",
" oo               OO OO      oo ",
" oooooooooooooooo OO OO ooooooo ",
"X                 OO OO        X",
"XXXXXXXXXXXXXXXXX OOOOO XXXXXXXX",
"XXXXXXXXXXXXXXXXXX OOO XXXXXXXXX",
"XXXXXXXXXXXXXXXXXXX    XXXXXXXXX"
} ;
