/* XPM */
static char * sickface_spm[] = {
"31 31 4 1",
"  c #000000",
". c #00AA00",
"X c None s Background",
"o c #FF5555",
"XXXXXXXXXXXX       XXXXXXXXXXXX",
"XXXXXXXXX   .......   XXXXXXXXX",
"XXXXXXX  .............  XXXXXXX",
"XXXXXX ................. XXXXXX",
"XXXXX ................... XXXXX",
"XXXX ..................... XXXX",
"XXX ....................... XXX",
"XX ......................... XX",
"XX ......................... XX",
"X ........................... X",
"X ....... ... ... ... ....... X",
"X ........ . ..... . ........ X",
" .......... ....... .......... ",
" ......... . ..... . ......... ",
" ........ ... ... ... ........ ",
" ............................. ",
" ............................. ",
" ............................. ",
" ............................. ",
"X ..........       .......... X",
"X ........  .... o   ........ X",
"X ....... ...... o o  ....... X",
"XX ..... ....... o o . ..... XX",
"XX .... ........ o o .. .... XX",
"XXX ............ o o ...... XXX",
"XXXX ........... o o ..... XXXX",
"XXXXX .......... ooo .... XXXXX",
"XXXXXX ..........   .... XXXXXX",
"XXXXXXX  .............  XXXXXXX",
"XXXXXXXXX   .......   XXXXXXXXX",
"XXXXXXXXXXXX       XXXXXXXXXXXX"
} ;
