/* XPM */
static char *maggie_xpm[] = {
/* width height ncolors chars_per_pixel */
"32 32 5 1",
/* colors */
"` c black",
"a c red",
"b c sea green",
"c c white",
"d c yellow",
/* pixels */
"cccccccccccccccccccccccccccccccc",
"cccccccccccccccccccccccccccccccc",
"cccccccccccccccccccccccccccccccc",
"cccccccccccccccccccccccccccccccc",
"ccccccccccc`cccccccccccccccccccc",
"ccccc``ccc```ccccccccccccccccccc",
"cccc``b``c`d``bcc`cccccccccccccc",
"ccccc`bbbb`bbbbc```ccccccccccccc",
"ccccc`bbbbbbbbb`dd`````ccccccccc",
"ccc```bbbbdbbbbdddddd`cccccccccc",
"cc`dddb`d`ddddbd`ddd`ccccccccccc",
"``ddd`d```dddd```d`dd``ccccccccc",
"`ddddd`ccc`dd`ccc`dddd```ccccccc",
"c``dd`cc`cc``cc`cc`ddd`ccccccccc",
"ccc`dd`ccc`dd`ccc`ddd`cccccccccc",
"cc`dddd``````d```ddddd`ccccccccc",
"``dddddd`aaaa`dddddd````cccccccc",
"cc``ddd`aaaaaa`ddd``cccccccccccc",
"cccc``d`aa``aa`dd`cccccccccccccc",
"cccccc````aaaa`ddd`ccccccccccccc",
"cccccc``aa``aa``````cccccccccccc",
"c``c``c`aaaaaabbbbb`cccccccccccc",
"c`````cc`aaaa`bbbbb```cccccccccc",
"```dd```c````bbbbbbb``cccccccccc",
"``ddd```c`bbbbbbbbbbb``ccccccccc",
"cc`dd`cc``bbbbbbbbbbbb`ccccccccc",
"cc`````c`bbbbbbbbbbbbb``cccccccc",
"cc`bbb```bbbbbbbbbbbbbb``ccccccc",
"cc`bbb`bbbbbbbbbbbbbbbb``ccccccc",
"cc`bbb`bbbbbbbbbbbbbbbb``ccccccc",
"cc```````````````````````ccccccc",
"cccc`````````````````````ccccccc"
};
