/* XPM */
static char *noname[] = {
/* width height ncolors chars_per_pixel */
"32 32 13 1",
/* colors */
"` c #CBFFFF",
"a c #326565",
"b c #FF9A9A",
"c c #777777",
"d c #555555",
"e c #326532",
"f c #EEEEEE",
"g c #FFCBFE",
"h c #653265",
"i c #FFFFFF",
"j c #CBFFCB",
"k c #FE0000",
"l c #BBBBBB",
/* pixels */
"iiiiiiiiiiiiiiiiiiiiiiiiiiiiiiii",
"iiiiiiiiiiiiiiiiiiijjjjjjjjjjjii",
"iiiiiiiiiiiiiiiiiiijjjjjjjjjjjii",
"iiiiiiiiiiiiiiiiiiijjjjjjjjjjjci",
"iiiiiiiiiiiiiiiiiiijjeeejeejjjci",
"iiiiiiiiiiiiiiiiiiijjjeeejeejjci",
"iiiiiiiiiiiiiiiiiiijjjeejjeejjci",
"iiiiiiiiiiiiiiiiiiijjjeejjeejjci",
"ii```````````````iijjjeejjeejjci",
"ii```````````````iijjeejjeejjjci",
"ii``aaaaaaaaaaa``cijjeejjeejjjci",
"ii```aaa``````a``cijjeejjeeejjci",
"ii````aaaffffffffffffffffljjjjci",
"ii`````aafllllllllllllllldjjjjci",
"ii``````aflkkblklbkklkkkldjjjjci",
"ii```````flklklklkllllklldccccci",
"ii```````flkkblklkllllklldiiiiii",
"ii```````flklllklkllllklldgggiii",
"ii``````aflklllklbkkllklldgggiii",
"ii`````aafllllllllllllllldgggcii",
"ii````aaalddddddddddddddddhggcii",
"ii```aaaaaaaaaa``ciggghhghhggcii",
"ii``aaaaaaaaaaa``ciggghhhghggcii",
"ii```````````````ciggghhgggggcii",
"ii```````````````ciggghhgggggcii",
"iiiiccccccccccccccigghhggggggcii",
"iiiiiiiiiiiiiiiiiiigghhggggggcii",
"iiiiiiiiiiiiiiiiiiigghhggggggcii",
"iiiiiiiiiiiiiiiiiiiggggggggggcii",
"iiiiiiiiiiiiiiiiiiiggggggggggcii",
"iiiiiiiiiiiiiiiiiiiggggggggggcii",
"iiiiiiiiiiiiiiiiiiiiicccccccccii"
};
