/* XPM */
static char *spaceQ3[] = {
/* width height ncolors chars_per_pixel */
"32 32 16 1",
/* colors */
"  c #000000000000",
"! c #800080008000",
"# c #3f003f003f00",
"$ c #cc00cc00cc00",
"% c #ff00ff00ff00",
"& c #800080000000",
"' c #000080000000",
"( c #000000008000",
") c #0000ff00ff00",
"* c #000080004000",
"+ c #ff000000ff00",
", c #800000008000",
"- c #ff00ff000000",
". c #ff0000000000",
"/ c #0000ff000000",
"0 c #00000000ff00",
/* pixels */
"                                ",
"---                          ---",
"-                      %       -",
"-            $                 -",
"     $                    !     ",
"                                ",
"            &$&$&               ",
"          $0$0&&$0$             ",
"         00$$0&$&000            ",
"        %0000// 00000           ",
"       % 0'&''$0'$000%          ",
"      ) 00'$$&/&''0000%         ",
"      ) 00''$$/&' 00000%        ",
"     ) 00$0$& 00'00$000%        ",
"     ) 000// */'$00$00%         ",
"     )/ $00&$''%'00'%%0       $ ",
"     // 00$$'/00%%%%000         ",
"      )/ 00'&'00000000          ",
"      /// 00''0$000000          ",
"   !   /-/  $''000000  !        ",
"        //--  000000            ",
"         --.-.   00          $  ",
"           -..-.                ",
"             .....              ",
"               .....%           ",
"                 ..%%%          ",
"                   %%%          ",
"                                ",
"  $   $                         ",
"                                ",
"-                         !    -",
"-           $      $           -"
} ;
