/* XPM */
static char * icl8_24628_xpm[] = {
/* width height ncolors chars_per_pixel */
"32 32 10 1",
/* colors */
" 	s None	c None",
".	c black",
"X	c #CD6600",
"o	c #CD9A00",
"O	c #FECB00",
"+	c #986500",
"@	c #983200",
"#	c #CBFFFF",
"$	c white",
"%	c #99CCCC",
/* pixels */
"                                ",
"                                ",
"                                ",
"                                ",
"     ......................     ",
"    .XoXoOOOoXoOOoXOoXoXX+@.    ",
"     .XXX..XXXX..XXXX..XXX.     ",
"    .XoXoOOOoXoOOoXOoXoXX+@.    ",
"     ......................     ",
"     .####################.     ",
"    .##$$$$$$$$$$$$$#######.    ",
"    .#$###################%.    ",
"    .#$###################%.    ",
"    .#$######.####.#######%.    ",
"    .#$###.###.##.###.####%.    ",
"    .#$####..#....#..#####%.    ",
"    .#$######......#######%.    ",
"    .#$####..#....#..#####%.    ",
"    .#$###.##......##.####%.    ",
"    .#$#####.#....#.######%.    ",
"    .#$####.#......#.#####%.    ",
"    .#$###.##......##.####%.    ",
"    .#####.###....###.####%.    ",
"    .#####################%.    ",
"    .#####################%.    ",
"    .#####################%.    ",
"     .###%%%%%%%%%%%%%%%%%.     ",
"      ....................      ",
"                                ",
"                                ",
"                                ",
"                                "};
