/* XPM */
static char * icl8_27665_xpm[] = {
/* width height ncolors chars_per_pixel */
"32 32 11 1",
/* colors */
" 	s None	c None",
".	c #AAAAAA",
"X	c #888888",
"o	c #DDDDDD",
"O	c #111111",
"+	c #222222",
"@	c #EF0000",
"#	c #BBBBBB",
"$	c #777777",
"%	c #444444",
"&	c white",
/* pixels */
"    ..................X         ",
"    .oooooooooooooooooXO        ",
"    .+++++++o@@o++++++X#O       ",
"    .$$$$$$o@@o$$$$$$$X##O      ",
"    .+++++o@@o++++++++X###O     ",
"    .$$$$o@@ooo$$$$$$$X####O    ",
"    .+++o@@oo@@o++++++OOOOOOO   ",
"    .$$o@@@@@@@@o$$$$$$%%%%%O   ",
"    .+++ooo@@ooo++++++++++++O   ",
"    .$$$$o@@o$$$$$$$$$$$$$$$O   ",
"    .+++++oo++++++++++++++++O   ",
"    .$$$$$$$$$$$$$$$$$$$$$$$O   ",
"    .oooooooooooooooooooooooO   ",
"    .oooooooooooooooooooooooO   ",
"    .oooooooooooooooooooooooO   ",
"    .oooooo$$$$$$$$$$$$$ooooO   ",
"    .oooooo$$&&@@&&@@&&$ooooO   ",
"    .oooooo$$&&@@&&@@&&$ooooO   ",
"    .oooooo$$@@&&@@&&@@$ooooO   ",
"    .oooooo$$@@&&@@&&@@$ooooO   ",
"    .oooooo$$&&@@&&@@&&$ooooO   ",
"    .oooooo$$&&@@&&@@&&$ooooO   ",
"    .oooooo$$$$$$$$$$$$$ooooO   ",
"    .oooooo$+oooooooooooooooO   ",
"    .oooooo$+oooooooooooooooO   ",
"    .oooooo$+oooooooooooooooO   ",
"    .oooooo$+oooooooooooooooO   ",
"    .oooooo$+oooooooooooooooO   ",
"    .oooooooooooooooooooooooO   ",
"    .oooooooooooooooooooooooO   ",
"    .oooooooooooooooooooooooO   ",
"    $OOOOOOOOOOOOOOOOOOOOOOOO   "};
