/* XPM */
static char * icl8_9616_xpm[] = {
/* width height ncolors chars_per_pixel */
"32 32 18 1",
/* colors */
" 	s None	c None",
".	c black",
"X	c wheat",
"o	c tan",
"O	c #000011",
"+	c #000022",
"@	c white",
"#	c #000044",
"$	c #000055",
"%	c #EF0000",
"&	c #AB0000",
"*	c #550000",
"=	c #000077",
"-	c #000089",
";	c #0000AB",
":	c #0000BA",
"?	c #0000DC",
">	c #0000EF",
/* pixels */
"                                ",
"                                ",
"                                ",
"                                ",
"                                ",
"                                ",
"                                ",
"..........................      ",
".XXXXXXXXXXXXXXXXXXXXXXXX..     ",
".XXXXXXXXXXXXXXXXXXXXXXXX.o.    ",
".XXXXXXXXXXXXXXXXXXXXXXXX.oo.   ",
".XXXXXXXXXXXXXXXXXXXXXXXX.ooo.  ",
".XXXXXXXXXXXXXXXXXXXXXXXX.oooo. ",
".XXXXXXXXXXXXXXXXXXXXXXXX.......",
".XXXXXXXOOOOOOOOOOOOOOOOXXooooo.",
".XXXXXXX++@++++++++++@++XXooooo.",
".XXXXXXX++++++++++++@+++XXXXXXX.",
".XXXXXXX####@###########XXXXXXX.",
".XXXXXXX################XXXXXXX.",
".XXXXXXX$@$$$$$$$$$$$$@$XXXXXXX.",
".XXXX%&X$$$$$$$$$@$$$$$$X%&XXXX.",
".XXXX&*X================X&*XXXX.",
".XXXX&*X================X&*XXXX.",
".XXXX&*X-----@----------X&*XXXX.",
".XXXX&*X-------------@--X&*XXXX.",
".XXXX&*X;;@;;;@;;;;;;;;;X&*XXXX.",
".XXX%&*X::::::::::::::::X&&*XXX.",
".X%&&&*X???????????@????X&&&&*X.",
".X*****X>>>>>>>>>>>>>>>>X*****X.",
".XXXXXXXXXXXXXXXXXXXXXXXXXXXXXX.",
".XXXXXXXXXXXXXXXXXXXXXXXXXXXXXX.",
"................................"};
