/* XPM */
static char *starfleeQ2[] = {
/* width height ncolors chars_per_pixel */
"32 32 16 1",
/* colors */
"  c #000000000000",
"! c #800000000000",
"# c #000080000000",
"$ c #000080008000",
"% c #000000008000",
"& c #800000008000",
"' c #ff00ff000000",
"( c #cc00cc00cc00",
") c #c000c000c000",
"* c #ff0000000000",
"+ c #0000ff000000",
", c #ff00ff000000",
"- c #00000000ff00",
". c #ff000000ff00",
"/ c #600060002000",
"0 c #ff00ff00ff00",
/* pixels */
"                                ",
"                /               ",
"               /'/              ",
"              /','/             ",
"             /'',''/            ",
"             /',,,'/            ",
"           //'',,,''//          ",
"         //0/',,,,,'/0//        ",
"       //00/'',,,,,''/00//      ",
"      /00((/',,,,,,,,/((00/     ",
"     /0(((/'',,,,,,,''/(((0/    ",
"    /0((((/'',,,,,,,''/((((0/   ",
"   /0(((((/',,,,,,,,,'/(((((0/  ",
"   /0((((/'',,,,,,,,,''/((((0/  ",
"  /0(((((/'',,,,,,,,,''/(((((0/ ",
"  /0(((((/',,,,,,,,,,,'/(((((0/ ",
"  /0(((((/',,,,,,,,,,,'/(((((0/ ",
"  /0((((/'',,,,,,,,,,,''/((((0/ ",
"   /0(((/'',,,,,,,,,,,''/(((0/  ",
"   /0(((/',,,,,,,,,,,,,'/(((0/  ",
"    /0((/',,,,,,,,,,,,,'/((0/   ",
"     /0(/',,,,,,,,,,,,,'/(0/    ",
"      /0/',,,,,,,''',,,'/0/     ",
"       /'',,,,,''///',,''/      ",
"       /',,,,''//000/',,'/      ",
"       /',,,'/////// /','/      ",
"       /',,'/         /''/      ",
"       /','/          /''/      ",
"       /''/            /'/      ",
"       /'/              //      ",
"       //                       ",
"                                "
} ;
