/* XPM */
static char * icl8_17619_xpm[] = {
/* width height ncolors chars_per_pixel */
"32 32 16 1",
/* colors */
" 	s None	c None",
".	c black",
"X	c wheat",
"o	c tan",
"O	c #989878786767",
"+	c #000011",
"@	c white",
"#	c #000022",
"$	c #000044",
"%	c #000055",
"&	c #000077",
"*	c #000089",
"=	c #0000AB",
"-	c #0000BA",
";	c #0000DC",
":	c #0000EF",
/* pixels */
"   ....................         ",
"   .XXXXXXXXXXXXXXXXXX..        ",
"   .XXXXXXXXXXXXXXXXXX.o.       ",
"   .XXXXXXXXXXXXXXXXXX.oo.      ",
"   .XXXXXXXXXXXXXXXXXX.ooo.     ",
"   .XXXXXXXXXXXXXXXXXX.oooo.    ",
"   .XXXXXXXXXXXXXXXXXX.......   ",
"   .XXXXXXXXXXXXXXXXXXXOOOOO.   ",
"   .XXX++++++++++++++++++OOO.   ",
"   .XXX++++@+++++++++++++XXX.   ",
"   .XXX++@++++++@++++++++XXX.   ",
"   .XXX###############@##XXX.   ",
"   .XXX####@#############XXX.   ",
"   .XXX#######@##########XXX.   ",
"   .XXX$$$$$$@$@$$$$$$$$$XXX.   ",
"   .XXX$$$$@$$$$$$@$$$$$$XXX.   ",
"   .XXX$$$$$$@$$$$$$$$$$$XXX.   ",
"   .XXX%%%%%%%%%%%%%%%@%%XXX.   ",
"   .XXX%%%%%%%%%%%%%%%%%%XXX.   ",
"   .XXX&&&&&&&&&&&&&&&&&&XXX.   ",
"   .XXX&&&&&&&&&&&&&&&&&&XXX.   ",
"   .XXX**@****@**********XXX.   ",
"   .XXX=========@========XXX.   ",
"   .XXX------------------XXX.   ",
"   .XXX;;;;;;;;;;;;;;@;;;XXX.   ",
"   .XXX::::::::::::::::::XXX.   ",
"   .XXXXXXXXXXXXXXXXXXXXXXXX.   ",
"   .XXXXXXXXXXXXXXXXXXXXXXXX.   ",
"   .XXXXXXXXXXXXXXXXXXXXXXXX.   ",
"   .XXXXXXXXXXXXXXXXXXXXXXXX.   ",
"   .XXXXXXXXXXXXXXXXXXXXXXXX.   ",
"   ..........................   "};
