/* XPM */
static char * icl8_11432_xpm[] = {
/* width height ncolors chars_per_pixel */
"32 32 11 1",
/* colors */
" 	s None	c None",
".	c #0000FE",
"X	c #00FEFE",
"o	c #999999",
"O	c black",
"+	c #333333",
"@	c #111111",
"#	c #FF6666",
"$	c #FEFE00",
"%	c #DDDDDD",
"&	c #BBBBBB",
/* pixels */
"                           .    ",
"                           .    ",
"                          .X.   ",
"                          .X.   ",
"                          .XX.  ",
"                         .XXX.  ",
"                         .XXX.  ",
"                        .XXXXX. ",
"           oOoOo        .XXX.X. ",
"          O     Oo      .XXX.X. ",
"         o        O     .XXXXX. ",
"         O        o      .XXX.  ",
"       +++++       O      ...   ",
"       +@@@+       o            ",
"      +@@O@@+       O           ",
"    ++@OOO@O@++     o  #       $",
"   +@@OOOOOOO@@+    O      $  # ",
"  +@OOOOOOOOOOO@+    o  $       ",
"  +@OOOOOO%&oOO@+    O   #  $   ",
" +@OOOOOOOO%&oOO@+    o         ",
" +@OOOOOOOOOOOOO@+     OoO # $ #",
" +@OOOOOOOOO%&oO@+              ",
" +@OOOOOOOOO%&oO@+      $   $   ",
" +@OOOOOOOOO%&oO@+        #  #  ",
" +@OOOOOOOO%&oOO@+     #        ",
" +@OOOOOOOO%&oOO@+    $   $    $",
"  +@OOOOOO%&oOO@+               ",
"  +@OOOOOOOOOOO@+         #     ",
"   +@@OOOOOOO@@+                ",
"    ++@@@@@@@++                 ",
"      +++++++                   ",
"                                "};
