/* XPM */
static char * icl8_27571_xpm[] = {
/* width height ncolors chars_per_pixel */
"32 32 11 1",
/* colors */
" 	s None	c None",
".	c #CB9832",
"X	c #663300",
"o	c #777777",
"O	c #110000",
"+	c #FFCC66",
"@	c #659898",
"#	c #003333",
"$	c #FFCC9A",
"%	c #CBFFFF",
"&	c #326565",
/* pixels */
"                                ",
"                                ",
"                                ",
"                                ",
"                                ",
"                                ",
"                                ",
"             ......X            ",
"            .XXXXXXXX           ",
"    oOOOOOO.XXOOOOOXXOOOOOOOOOOo",
"   O+++++++OXO+++++OXO++++++++OO",
"  O++++++++OOO+++++OOO+++++++OXO",
" O++++++++++++++++++++++++++OXXO",
"oOOOOOOOOOOOOOOOOOOOOOOOOOOOXXXO",
"O..........................OXXXO",
"O..........................OXXXO",
"O.......XXXXXXXXXXXX.......OXXXO",
"O.......X@@#@@#@@#@@$......OXXXO",
"O.......X@%&%%&%%&%%$......OXXXO",
"O.......X#&&&&&&&&&&$......OXXXO",
"O.......X@%&%%&%%&%%$......OXXXO",
"O.......X@%&%%&%%&%%$......OXXXO",
"O.......X#&&&&&&&&&&$......OXXXO",
"O.......X@%&%%&%%&%%$......OXXXO",
"O.......X@%&%%&%%&%%$......OXXXO",
"O.......X#&&&&&&&&&&$......OXXXO",
"O.......X@%&%%&%%&%%$......OXXXO",
"O.......X@%&%%&%%&%%$......OXXXo",
"O........$$$$$$$$$$$$......OXXO ",
"O..........................OXO  ",
"O..........................OO   ",
"oOOOOOOOOOOOOOOOOOOOOOOOOOOO    "};
