/* XPM */
static char *noname[] = {
/* width height ncolors chars_per_pixel */
"32 32 19 1",
/* colors */
"` c #777777",
"a c #FE6500",
"b c #EEEEEE",
"c c #0000EF",
"d c #000077",
"e c #FEFE00",
"f c #000055",
"g c #0000AB",
"h c #00FE00",
"i c #000044",
"j c #0000DC",
"k c #FFFFFF",
"l c #444444",
"m c #000089",
"n c #000022",
"o c #FE0000",
"p c #0000BA",
"q c #000011",
"r c #BBBBBB",
/* pixels */
"kkkkkkkkkkkkkkkkkkkkkkkkkkkkkkkk",
"kkkkkkkkkkkkkkkkkkkkkkkkkkkkkkkk",
"kkkkkkkkkkkkkkkkkkkkkkkkkkkkkkkk",
"kkkkkkkkkkkkkkkkkkkkkkkkkkkkkkkk",
"kkkkkkkkkkkkkkkkkkkkkkkkkkkkkkkk",
"kkbbbbbbbbbbbbbbbbbbbbbbbbbbbbkk",
"krrrrrrrrrrrrrrrrrrrrrrrrrrrrr`k",
"brrrrrrrrrrrrrrrrrrrrrrrrrrrrrrl",
"brrlllllllllllllllllllllllllrrrl",
"brrlqqqqqqqqqqqqqqqqqqqqqqqqbrrl",
"brrlqqqqqqqqqqqqqqqqqqqqqqqqbrrl",
"brrlnqnqnqnqnqnqnqnqnqnqnqnqbrrl",
"brrlnnnnnnnnnnnnnnnnnnnnnnnnbrrl",
"brrlininininininininininininbrrl",
"brrliiiiiiiiiiiiiiiiiiiiiiiibrrl",
"brrlfififififififififiaififibrrl",
"brrlffffffffffffffffffffffafbrrl",
"brrldfdfdfdfdfdfdfdadfdadfddbrrl",
"brrlddddddddddddddddddddddaabrrl",
"brrlmdmdmdmdmdmdmdmdmammaaeebrrl",
"brrlmmmmmmmmmmmmammmmmmaeeeebrrl",
"brrlgmgmgmgmgmgmgmgaggaeeeeebrrl",
"brrlgggggggggggggggggaeeeeeebrrl",
"brrlpgpgpgpgpgpapppppaeeeeeebrrl",
"brrlppppppppppppppapaeeeeeeebrrl",
"brrljpjpjpjpjpjpjpjpaeeeeeeebrrl",
"brrljjjjjjjjjjjjajjjaeeeeeeebrrl",
"brrlccccccccccccccccaeeeeeeebrrl",
"brrrbbbbbbbbbbbbbbbbbbbbbbbbrrrl",
"brrrhrrrrrrrrrrrrrrrrrrrrrhhrrrl",
"k`rrorrrrrrrrrrrrrrrrrrrrrrrrr`k",
"kkllllllllllllllllllllllllllllkk"
};
