/* XPM */
static char * icl8_12607_xpm[] = {
/* width height ncolors chars_per_pixel */
"32 32 9 1",
/* colors */
" 	c #777777",
".	c black",
"X	c white",
"o	c wheat",
"O	c #EF0000",
"+	c tan",
"@	c #FF9966",
"#	c #FFCC9A",
"$	c #BA0000",
/* pixels */
" ........................ XXXXXX",
".oooooooooooooooooooooooo.XXXXXX",
".oOOOOOOOOOOOOoo+OOOOO+oo.XXXXXX",
".oOoooooooooooo+OOO+OOO+o.XXXXXX",
".oOooooooooooooOOO+o+OOOo.XXXXXX",
".oOooooooooooooOOO+ooOOOo.XXXXXX",
".oOooooooooooooOOOOo+OOOo.XXXXXX",
".oOoooooooooooo+OOOoOOO+o.XXXXXX",
".oOoooooooooooooooo+OOOoo.XXXXXX",
".oOooooooooooooooooOOO+oo.XXXXXX",
".oOooooooooooooooo+OO+ooo.XXXXXX",
".oOoooooooooooooooOOOoooo.XXXXXX",
".oOoooooooooooooooOO+oooo.XXXXXX",
".oOoooooooooooooooooooooo.XXXXXX",
".oOoooooooooooooooOOOoooo.XXXXXX",
".oOoooooooooooooooOOOoooo.XXXXXX",
".oOoooooooooooooooooooooo.XXXXXX",
".oOoooooo...ooooooooooooo.XXXXXX",
".oOoooooo.........ooooooo.XXXXXX",
".oOoooo++..@@@@@@@.o......XXXXXX",
".oOoooo++..#######@.@@@@@.XXXXXX",
".oOoooo++..#######.@#####@.XXXXX",
".oOoooo++..######.@##..###@.XXXX",
".oOoooo++...#####.##.@@.###@....",
".oOoooo+++++.####.##.##.####@@..",
".oOoooo++++++.###@..@##.######..",
".oOooooooo++++.###@@##.@######..",
".oOoooooooo++++.#####.@#######..",
".oOooooooooo++++.....+.#######..",
".oOOOOOOOOOOO$+++++++++.........",
".ooooooooooooo+++++oo++++.XXX...",
" ........................ XXXXXX"};
