/* XPM */
static char *noname[] = {
/* width height ncolors chars_per_pixel */
"32 32 12 1",
/* colors */
"` c #000000",
"a c #CBFFFF",
"b c #FFCC9A",
"c c #EF0000",
"d c #66CCCC",
"e c #555555",
"f c #FF9966",
"g c #AAAAAA",
"h c #888888",
"i c #FFFFFF",
"j c #DDDDDD",
"k c #BBBBBB",
/* pixels */
"````````````````````iiiiiiiiiiii",
"`jjjjjjjjjjjjjjjjjj``iiiiiiiiiii",
"`jheeeeeeeehjjjjjjj`h`iiiiiiiiii",
"`jekkkkkkkkejjjjjjj`hh`iiiiiiiii",
"`jekheeeehkejjjjjjj`hhh`iiiiiiii",
"`jekedddddkejjjjjjj`hhhh`iiiiiii",
"`jekeddaadkejjjjjjj```````iiiiii",
"`jekeaaaadkejjjjjjjjjjjjj`iiiiii",
"`jekeaaaadkejjjjjjjjjjjjj`iiiiii",
"`jekhddddgkejjjjjjjjjjjjj`iiiiii",
"`jekkkkkkkkejjjjjjjjjjjjj`iiiiii",
"`jekckk```kejjjjjjjjjjjjj`iiiiii",
"`jekkkkkkkkejjjjjjjjjjjjj`iiiiii",
"`jeeeeeeeeeejjjjjjjjjjjjj`iiiiii",
"`jekkkkkkkkejjjjjjjjjjjjj`iiiiii",
"`jheeeeeeeehjjjjjjjjjjjjj`iiiiii",
"`jjjjjjjjjjjjjjjjjjjjjjjj`iiiiii",
"`jjjjjjjj```jjjjjjjjjjjjj`iiiiii",
"`jjjjjjjj`````````jjjjjjj`iiiiii",
"`jjjjjjgh``fffffff`j``````iiiiii",
"`jjjjjjgh``bbbbbbbf`fffff`iiiiii",
"`jjjjjjgh``bbbbbbb`fbbbbbf`iiiii",
"`jjjjjjgh``bbbbbb`fbb``bbbf`iiii",
"`jjjjjjgh```bbbbb`bb`ff`bbbf````",
"`jjjjjjghhhh`bbbb`bb`bb`bbbbff``",
"`jjjjjjgggggh`bbbf``fbb`bbbbbb``",
"`jjjjjjjjjgggh`bbbffbb`fbbbbbb``",
"`jjjjjjjjjjgggh`bbbbb`fbbbbbbb``",
"`jjjjjjjjjjjgggh`````h`bbbbbbb``",
"`jjjjjjjjjjjjggghhhghgh`````````",
"`jjjjjjjjjjjjjgggggjggghh`iii```",
"``````````````````````````iiiiii"
};
