/* XPM */
static char * icl8_1467_xpm[] = {
/* width height ncolors chars_per_pixel */
"32 32 13 1",
/* colors */
" 	s None	c None",
".	c #888888",
"X	c #444444",
"o	c #BBBBBB",
"O	c #555555",
"+	c #66CCCC",
"@	c #CBFFFF",
"#	c black",
"$	c #FF9966",
"%	c #AAAAAA",
"&	c #FFCC9A",
"*	c #00EF00",
"=	c #EF0000",
/* pixels */
"                                ",
"  .XXXXXXXXXXXXXXXXXXXXXX.      ",
"  XooooooooooooooooooooooX      ",
"  XooooooooooooooooooooooX      ",
"  Xoo.OOOOOOOOOOOOOOOO.ooX      ",
"  XooO+++++++++++++++++ooX      ",
"  XooO+++++++++++@@@@@+ooX      ",
"  XooO++++++++@@@@@@@@+ooX      ",
"  XooO++++++@@@@@@@@@@+ooX      ",
"  XooO+++++@@@@@@@@@@@+ooX      ",
"  XooO++++@@@@@@@@@@@@+ooX      ",
"  XooO+++@@@@@@@@@@@@@+ooX      ",
"  XooO+++@@@@@@@@@@@@@+ooX      ",
"  XooO###@@@@@@@@@@@@@+ooX      ",
"  XooO#########@@@@@@@+ooX      ",
"  Xoo.##$$$$$$$#@#####%ooX      ",
"  Xooo##&&&&&&&$#$$$$$#ooX      ",
"  Xooo##&&&&&&&#$&&&&&$#oX      ",
"  Xooo##&&&&&&#$&&##&&&$#X      ",
"  Xooo###&&&&&#&&#$$#&&&$####   ",
"  Xoooooo#&&&&#&&#&&#&&&&$$##   ",
"  Xooooooo#&&&$##$&&#&&&&&&##   ",
"  Xoooooooo#&&&$$&&#$&&&&&&##   ",
"  Xooo**oooo#&&&&&#$&&&&&&&##   ",
"  Xooo==ooooo#####o#&&&&&&&##   ",
"  Xooooooooooooooooo#########   ",
"  XooooooooooooooooooooooX###   ",
"  .XXXXXXXXXXXXXXXXXXXXXX.      ",
"   XooooooooooooooooooooX       ",
"   XooooooooooooooooooooX       ",
"   XooooooooooooooooooooX       ",
"   .XXXXXXXXXXXXXXXXXXXX.       "};
