/* XPM */
static char * icl8_12692_xpm[] = {
/* width height ncolors chars_per_pixel */
"32 32 14 1",
/* colors */
" 	s None	c None",
".	c black",
"X	c wheat",
"o	c #000077",
"O	c #0000BA",
"+	c #AAAAAA",
"@	c #888888",
"#	c #FF9966",
"$	c #000055",
"%	c #FFCC9A",
"&	c #000044",
"*	c #000022",
"=	c #000011",
"-	c #000089",
/* pixels */
"               .                ",
"              .X.               ",
"             .XXX.              ",
"            .XXXXX.             ",
"           .XXXXXXX.            ",
"          .XXXXXXXXX.           ",
"         .XXXXXXXXXXX.          ",
"        .XXXXXXXXXXXXX.         ",
"       .XXXXXXXXXXXXXXX.        ",
"      .XXXXXXXXXXXXXXXXX.       ",
"     .XXXXXXXXXXXXXXXXXXX.      ",
"    .XXXXXXXXXXXXXXXXXXXXX.     ",
"   .XXXXXXXXXXXXXXXXXXXXXXX.    ",
"  .XXXXXXoo.XXXXXXXXXXXXXXXX.   ",
" .XXXXXXXOO.......XXXXXXXXXXX.  ",
".XXXXXX+@oo#######.X.....XXXXX. ",
" .XXXXX+@$$%%%%%%%#.#####.XXXXX.",
"  .XXXX+@&&%%%%%%%.#%%%%%#.XXX. ",
"   .XXX+@**%%%%%%.#%%..%%%#.X.  ",
"    .XX+@==.%%%%%.%%.##.%%%#..oo",
"     .X+@@@@.%%%%.%%.%%.%%%%##OO",
"      .+++++@.%%%#..#%%.%%%%%%--",
"       .XX+++@.%%%##%%.#%%%%%%oo",
"        .XX+++@.%%%%%.#%%%%%%%$$",
"         .XX+++@.....@.%%%%%%%&&",
"          .XX+++@@@++@........**",
"           .XX+++++X+.       .==",
"            .XXXXXXX.           ",
"             .XXXXX.            ",
"              .XXX.             ",
"               .X.              ",
"                .               "};
