/* XPM */
static char * icl8_8763_xpm[] = {
/* width height ncolors chars_per_pixel */
"32 32 13 1",
/* colors */
" 	s None	c None",
".	c black",
"X	c #550000",
"o	c #DDDDDD",
"O	c #AAAAAA",
"+	c #980000",
"@	c #0000AB",
"#	c #0066FE",
"$	c #0098FE",
"%	c #0000DC",
"&	c #000077",
"*	c #000044",
"=	c #FECB00",
/* pixels */
"                                ",
"     ........................   ",
"    .Xoooooooooooooooooooooo.   ",
"   .Xoooooooooooooooooooooo..   ",
"   ........................O.   ",
"   .+++++++++++++++++++++.OO.   ",
"   .+++++++++++++++++++++.OO.   ",
"   .++@#$++@#$++@#$++++++.OO.   ",
"   .++@%#++@%#++@%#++++++.OO.   ",
"   .++@@@++@@@++@@@++++++.OO.   ",
"   .+++++++++++++++++++++.OO.   ",
"   .+++++++++++++++++++++.OO.   ",
"   .++&%#++&%#++&%#++++++.OO.   ",
"   .++&@%++&@%++&@%++++++.OO.   ",
"   .++&&&++&&&++&&&++++++.OO.   ",
"   .+++++++++++++++++++++.OO.   ",
"   .+++++++++++++++++++++.OO.   ",
"   .++*@%++*@%++*@%++++++.OO.   ",
"   .++*&@++*&@++*&@++++++.OO.   ",
"   .++***++***++***++++++.OO.   ",
"   .+++++++++++++++++++++.OO.   ",
"   .+++++++++++++++++++++.OO.   ",
"   .+++++++++++++++++++++.OO.   ",
"   .+++++++++++++++++++++.OO.   ",
"   .++++++==+=++==++==+++.OO.   ",
"   .+++++=+++=++=+==+=+++.OO.   ",
"   .+++++==+=++=++=++=+++.OO.   ",
"   .++++++=+=+==+=++=++++.OO.   ",
"   .++++==++==+=+=++=+=++.O..   ",
"   .++++++++++=++++++++++..     ",
"   .++++++++==+++++++++++.      ",
"   .......................      "};
