/* XPM */
static char * icl8_28933_xpm[] = {
/* width height ncolors chars_per_pixel */
"32 32 9 1",
/* colors */
" 	s None	c None",
".	c black",
"X	c wheat",
"o	c tan",
"O	c #FE0000",
"+	c #0000FE",
"@	c #CCCCCC",
"#	c white",
"$	c #FE6500",
/* pixels */
"                                ",
"                                ",
"  .......................       ",
"  .XXXXXXXXXXXXXXXXXXXXX..      ",
"  .XXXXXXXXXXXXXXXXXXXXX.o.     ",
"  .XXXXXXXXXXXXXXXXXXXXX.oo.    ",
"  .XXXXXXXXXXOO..XXXXXXX.....   ",
"  .XXXXXXXXOOO..+.XXXXXXXooo.   ",
"  .XXXXXXXOOOO..+...XXXXXooo.   ",
"  .XXXXXXXXOXXX.++.+.XXXXXXX.   ",
"  .XXXXXXXXXXXX..+....XXXXXX.   ",
"  .XXXXXXX.........++..XXXXX.   ",
"  .XXXXXX..@@..+++..++.XXXXX.   ",
"  .XXXXX...@@.........XXXXXX.   ",
"  .XXXX..@@@@.##.@.XXXXXXXXX.   ",
"  .XXXX.@@@@@.#.#..XXXXXXXXX.   ",
"  .XXXX.@@@@@.#..@@.XXXXXXXX.   ",
"  .XXXX.@@@@@@......XXXXXXXX.   ",
"  .XXXX.@@@@@......XXXXXXXXX.   ",
"  .XXXX.@@..@.$$$$$.XXXXXXXX.   ",
"  .XXXX......$$$$$$$...XXXXX.   ",
"  .XXXXX......$$$$$$$$..XXXX.   ",
"  .XXXX.@..$$..$$$$$$$..XXXX.   ",
"  .XXXX.@@........$$$...XXXX.   ",
"  .XXXX@@..XXXX......XXXXXXX.   ",
"  .XXXXXXXXXXXXXXXXXXXXXXXXX.   ",
"  .XXXXXXXXXXXXXXXXXXXXXXXXX.   ",
"  .XXXXXXXXXXXXXXXXXXXXXXXXX.   ",
"  .XXXXXXXXXXXXXXXXXXXXXXXXX.   ",
"  .XXXXXXXXXXXXXXXXXXXXXXXXX.   ",
"  ...........................   ",
"                                "};
