/* XPM */
static char *noname[] = {
/* width height ncolors chars_per_pixel */
"32 32 30 2",
/* colors */
"`` c #000000",
"`a c #3200FE",
"`b c #6666FF",
"`c c #777777",
"`d c #3266CB",
"`e c #555555",
"`f c #EEEEEE",
"`g c #0000EF",
"`h c #111111",
"`i c #AAAAAA",
"`j c #000077",
"`k c #3333FF",
"`l c #6699FF",
"`m c #888888",
"`n c #0000FE",
"`o c #000055",
"`p c #0000AB",
"`q c #666666",
"`r c #000044",
"`s c #33669A",
"`t c #0000DC",
"`u c #FFFFFF",
"`v c #444444",
"`w c #000089",
"`x c #000022",
"`y c #DDDDDD",
"`z c #222222",
"a` c #FE0000",
"aa c #0000BA",
"ab c #BBBBBB",
/* pixels */
"`u`u`u`u`u`u`u`u`u`u`u`u`u`a`a`a`m`m`m`m`m`m`m`m`m`m`m`e`a`a`u`u",
"`u`u`u`u`u`u`u`u`u`u`u`u`a`w`w`w`m`e`e`e`e`e`e`e`e`e`e```w`w`x`u",
"`u`u`u`u`u`u`u`u`u`u`u`u`a`o`o`o`v`v`v`v`v`v`v`v`v`v`v```w`w`w`x",
"`u`u`u`u`u`u`u`u`u`u`k`k`k`i`i`i`i`i`i`i`i`i`i`i`c`k`k`o`w`w`w`x",
"`u`u`u`u`u`u`u`u`u`k`p`p`p`i`c`c`c`c`c`c`c`c`c`c`h`p`p`x`o`w`w`x",
"`u`u`u`u`u`u`u`u`u`k`j`j`j`e`e`e`e`e`e`e`e`e`e`e`h`p`p`p`x`o`w`x",
"`u`u`u`u`u`u`u`d`d`dababababababababababab`m`d`d`j`p`p`p`x`o`w`x",
"`u`u`u`u`u`u`daaaaaaab`m`m`m`m`m`m`m`m`m`m`zaaaa`x`j`p`p`x`o`w`x",
"`u`u`u`u`u`u`d`w`w`w`c`c`c`c`c`c`c`c`c`c`c`zaaaaaa`x`j`p`x`o`w`x",
"`u`u`u`u`b`b`b`y`y`y`y`y`y`y`y`y`y`y`i`b`b`waaaaaa`x`j`p`x`o`w`x",
"`u`u`u`b`t`t`t`y`i`i`i`i`i`i`i`i`i`i`v`t`t`x`waaaa`x`j`p`x`o`w`x",
"`u`u`u`b`p`p`p`m`m`m`m`m`m`m`m`m`m`m`v`t`t`t`x`waa`x`j`p`x`o`w`x",
"`u`l`l`l`f`f`f`fab`f`u`m`i`c`fab`l`l`p`t`t`t`x`waa`x`j`p`x`o`w`x",
"`l`g`g`g`fababab`f`u`m`i`cabab`e`g`g`x`p`t`t`x`waa`x`j`p`x`o`w`x",
"`l`g`g`g`fabab`f`u`m`i`c`````i`c`g`g`g`x`p`t`x`waa`x`j`p`x`o`w`x",
"`l`g`g`g`fab`f`u`m`i`cab```j`m`c`g`g`g`x`p`t`x`waa`x`j`p`x`o`w`x",
"`l`g`g`gab`f`u`m`i`cabab```j`u`e`g`g`g`x`p`t`x`waa`x`j`p`x`o`w`x",
"`l`g`g`g`f`u`m`i`cabab`i```jab`e`g`g`g`x`p`t`x`waa`x`j`p`x`o`w`x",
"`l`g`g`g`u`m`i`cabab`i`m`uabab`e`g`g`g`x`p`t`x`waa`x`j`p`x`o`w`x",
"`l`g`g`g`s`e`e`e`e`e`c`c`e`e`e`q`g`g`g`x`p`t`x`waa`x`j`p`x`x`xab",
"`l`g`g`g`g`g`g`g`g`g`g`g`g`g`g`g`g`g`g`x`p`t`x`waa`x`j`p`x`mabab",
"`l`g`g`g`g`g`g`g`g`g`g`g`g`g`g`g`g`g`g`x`p`t`x`waa`x`j`p`xababab",
"`l`g`g`r`r`r`r`r`r`r`r`r`r`r`r`r`r`g`g`x`p`t`x`waa`x`x`xabababab",
"`l`g`r`s`c`c`c`c`c`c`c`c`m`m`i`iab`l`g`x`p`t`x`waa`x`mabababab`u",
"`l`g`r`c`m`m`m`m`mabababababababab`l`g`x`p`t`x`waa`xabababababab",
"`l`g`r`c`m`i`iababababa`a`a`a`abab`l`g`x`p`t`x`x`xababababababab",
"`l`g`r`c`m`iababababa`a`ababababab`l`g`x`p`t`x`mabababab`u`u`u`u",
"`l`g`r`c`mababababababa`a`abababab`l`g`x`p`t`xababababababab`u`u",
"`l```r`cababababababababa`a`ababab`l`g`x`x`xabababababababab`u`u",
"`l`g`r`mabababababa`a`a`a`abababab`l`g`x`mabababab`u`u`u`u`u`u`u",
"`l`n`r`iababababababababababababab`l`g`xababababababab`u`u`u`u`u",
"`u`x`xab`v`v`v`v`v`v`v`v`v`v`v`v```x`xabababababababab`u`u`u`u`u"
};
