/* XPM */
static char * icl8_24605_xpm[] = {
/* width height ncolors chars_per_pixel */
"32 32 19 1",
/* colors */
" 	s None	c None",
".	c #888888",
"X	c #555555",
"o	c #222222",
"O	c black",
"+	c #3366FF",
"@	c #CCCCCC",
"#	c #0000AB",
"$	c #000077",
"%	c #000055",
"&	c #666666",
"*	c #DDDDDD",
"=	c white",
"-	c #CC9966",
";	c #663300",
":	c #9A6633",
"?	c #FFCC9A",
">	c #000089",
",	c #000044",
/* pixels */
"                                ",
"        ..............          ",
"       .XXXXXXXXXXXXXXo         ",
"       .XXXXoooooooXXXXo        ",
"       .XXXo       oXXXo        ",
"      OOOOOOO       .XXo        ",
"   +++@@.@@@X+#     .XXo        ",
"   +##@.@@$@X###    .XXo        ",
"   +##.@@@$@X##%    .XXo        ",
"   +##&XXXXXO##%    .XXo        ",
"   +###########%    .XXo        ",
"   +#.*******.#%    .XXo        ",
"   +#*=======*#%    .XXo        ",
"   +#*=======*#%    .XXo        ",
"   +#*=======*#%    .XXo        ",
"   +#*=======*#%    .XXo        ",
"   +#*=======*#%    .XXo        ",
"   #%.........%%  --.XXo        ",
"      oooooOO    ;:-.XXo-       ",
"       ooOOO     ;:?OXXo?-      ",
"        oXO       ;?-OXo:?-     ",
"      ..oooooooooO;:?-OO:?-     ",
"      .XXXXXXXXXXo;:??::??-     ",
"      oOOOOOOOOOOOO;-?????-     ",
"        OXO        ;:?????-     ",
"        OOO         ;:?????-    ",
"   O    OXO    O     ;:????-    ",
"   OOOOOOOOOOOOO      ;:???-    ",
"   O    OOO    O      ;:???-    ",
"                      %>#>$%,   ",
"                      %>#>$%,   ",
"                                "};
