/* XPM */
static char *noname[] = {
/* width height ncolors chars_per_pixel */
"32 32 24 1",
/* colors */
"` c #FFCC9A",
"a c #777777",
"b c #EF0000",
"c c #555555",
"d c #EEEEEE",
"e c #CC9966",
"f c #000077",
"g c #888888",
"h c #CCCC99",
"i c #CB6532",
"j c #000055",
"k c #663300",
"l c #0000AB",
"m c #000044",
"n c #989865",
"o c #0000DC",
"p c #FFFFFF",
"q c #444444",
"r c #000089",
"s c #000022",
"t c #DDDDDD",
"u c #222222",
"v c #BBBBBB",
"w c #CD6600",
/* pixels */
"dddddddddddddddddddddddddddddddv",
"dvvvvvvvvvvvvvvvvvvvvvvvvvvvvvvq",
"dvvccccccccccccccccccccccccccvvq",
"dvvchhhhhhhhhhhhhhhhhhhhhhhhgvvq",
"dvvchhhhuuuuuuuuuuuuchhhhhhhgvvq",
"dvvchuuuuuuuuuuuuuuuuuuuuuuhgvvq",
"dvvchhhhununnnnnnnnnchhhhhhhgvvq",
"dvvchhhhccccccccccccchbbhhhhgvvq",
"dvvchhhhhhhhhhhhhhhhhhhhhhhhgvvq",
"dvvcccccccccccccccccccccccccgvvq",
"dvvchhhhhhhhhhhhhhhhhhhhhhhhgvvq",
"dvvchhhhhhhuuuuuuuuuchhhhhhhgvvq",
"dvvchhhhuuuuuuuuuuuuuuuuhhhhgvvq",
"dvvchhhhhhhuuuuuuuuuchhhhhhhgvvq",
"dvvchhhhhhhcccccccccchbbhhhhgvvq",
"dvvchhhhhhhhhhhhhhhhhhhhhhhhgvvq",
"dvvuuuuuuuuuuuuuuuuggggggggggvvq",
"dvvuuuuuuuuuuuuuuuuvvvvvvvvvvvvq",
"dvvuuuuuuuuwuuuuuuuiiiiivvvvvvvq",
"dvvuuuuuuuuwuuuuuuu`````ivvvvvvq",
"dvvuuuuuuuuwuuuuuuuee````ivvvvvq",
"vqquuuuuuuuuuuuuuuuuue````iqqqqq",
"pppuuuuuuuuauuuuuuuppke````ipppp",
"pppuuuuuuutptuuuuuupppke````ffff",
"pppuuuuuuapppauuiiupppie````llll",
"pppuuuuuuutptuuie`ippie`````oooo",
"pppuuuuuuuuauuuke``ii```````llll",
"pppuuuuuuuuuuuuuke``````````rrrr",
"pppuuuuuuuuuuuuuukeeeeee````ffff",
"ppppuuuuuuuuuuuuuukkkkkkeeeejjjj",
"pppuuuuuuuuuuuuuuuupppppkkkkmmmm",
"pppuuuuuuuuuuuuuuuupppppppppssss"
};
