/* XPM */
static char * icl8_5941_xpm[] = {
/* width height ncolors chars_per_pixel */
"32 32 18 1",
/* colors */
" 	s None	c None",
".	c #0000EF",
"X	c #000044",
"o	c #444444",
"O	c #0000AB",
"+	c #AAAAAA",
"@	c white",
"#	c #BBBBBB",
"$	c #888888",
"%	c black",
"&	c #DDDDDD",
"*	c #555555",
"=	c #222222",
"-	c #111111",
";	c #9A6633",
":	c #CC9966",
"?	c #FFCC66",
">	c #663300",
/* pixels */
"       .   .   .   .   .        ",
"      ..X ..X ..X ..X ..X       ",
"     o...XO..XO..XO..XO..X      ",
"    o++...XO..XO..XO..XO..X     ",
"   o+O++...XO..XO..XO..XO..X    ",
"  o+++O+..@.XO#.XO#.XO#.XO#.X   ",
" ..++++..@@@.X$#.X$#.X$#.X$#.X  ",
"....++..@@@@@.X$#.X$#.X$#.X$#.X ",
" X.....@@@@@@X$##X$##X$##X$##X  ",
"  X...@@@@@@X$##X$##X$##X$##X   ",
"   X.@@@@@@X$##X$##X$##X$##X    ",
"    X.@@@@X$##X$##X$##X$##X     ",
"     X.@@XO##XO##XO##XO##X      ",
"      X.X %.X %.X %.X %.X       ",
"       X   X   X   X   X        ",
"%%%%%%%%%%%%%%%%%%%%%%%%%%%%%%%%",
" $&&&####++++$$$$*****ooo===--% ",
"  %%%%%%%%%%%%%%%%%%%%%%%%%%%%  ",
"       ;:?;?;?;      ;?;        ",
"        ;?;?;?;      ;?;        ",
"        >:;?;??;     ;?;        ",
"         ;;??;???; ;;;?;        ",
"          >:??;???;;?;;?;       ",
"           ;;:?;????;:;?;       ",
"            >;:??????>:?;       ",
"              >;::????;?;       ",
"                >;:?????;       ",
"                  ;:???;        ",
"                  >:???;        ",
"                 o=--%%%%       ",
"                 o=--%%%%       ",
"                 o=--%%%%       "};
