/* XPM */
static char *noname[] = {
/* width height ncolors chars_per_pixel */
"32 32 10 1",
/* colors */
"` c #000000",
"a c #CBFFFF",
"b c #009865",
"c c #555555",
"d c #FFCBFE",
"e c #333300",
"f c #CCCC99",
"g c #989865",
"h c #FFFFFF",
"i c #CBFFCB",
/* pixels */
"hhhh```````````````````hhhhhhhhh",
"hhhh`fffffffffffffffff``hhhhhhhh",
"hhhh`feeeeeeeeeeeeeeee`g`hhhhhhh",
"hhhh`feiiiiiiiiiiiiiii`gg`hhhhhh",
"hhhh`feiiiiiiiiiiiiiii`ggg`hhhhh",
"hhhh`feiiiiiiiiiiiiiii`gggg`hhhh",
"hhhh`feiiiiiiiiiiiiiii```````hhh",
"hhhh`feiiiiiiiiiiiiiiiibbbeg`hhh",
"hhhh`feeeeeeeeeeeeeeeeeeeeef`hhh",
"hhhh`fffffffffffffffffffffff`hhh",
"hhhh`fffffffffffffffffffffff`hhh",
"hhhh`f``````````f``````````f`hhh",
"hhhh`fffffffffffffffffffffff`hhh",
"hhhh`f``````````feeeeeeeeeef`hhh",
"hhhh`ffffffffffffecddddddcef`hhh",
"hhhh`f``````````fedcddddcdef`hhh",
"hhhh`ffffffffffffeddcddcddef`hhh",
"hhhh`feeeeeeeeeefedddccdddef`hhh",
"hhhh`feacacaccaefedddccdddef`hhh",
"hhhh`fecaaaaaacefeddcddcddef`hhh",
"hhhh`feca````aaefedcddddcdef`hhh",
"hhhh`feaaaaaaacefecddddddcef`hhh",
"hhhh`feca````aaefeeeeeeeeeef`hhh",
"hhhh`feaaaaaaaceffffffffffff`hhh",
"hhhh`feca````aaef``````````f`hhh",
"hhhh`feaaaaaaaceffffffffffff`hhh",
"hhhh`fecaaaaaacef``````````f`hhh",
"hhhh`feaccacacaeffffffffffff`hhh",
"hhhh`feeeeeeeeeef``````````f`hhh",
"hhhh`fffffffffffffffffffffff`hhh",
"hhhh`fffffffffffffffffffffff`hhh",
"hhhh`````````````````````````hhh"
};
