/* XPM */
static char *noname[] = {
/* width height ncolors chars_per_pixel */
"32 32 29 2",
/* colors */
"`` c #000000",
"`a c #CBFFFF",
"`b c #999999",
"`c c #FFFECB",
"`d c #440000",
"`e c #777777",
"`f c #555555",
"`g c #326532",
"`h c #CC9966",
"`i c #CCFF9A",
"`j c #111111",
"`k c #659898",
"`l c #AAAAAA",
"`m c #CBCB32",
"`n c #66CC66",
"`o c #888888",
"`p c #659865",
"`q c #9A6633",
"`r c #339A33",
"`s c #FFFFFF",
"`t c #444444",
"`u c #33FE00",
"`v c #669A33",
"`w c #CBFFCB",
"`x c #DDDDDD",
"`y c #222222",
"`z c #890000",
"a` c #9AFF9A",
"aa c #BBBBBB",
/* pixels */
"`s`s`s`s`s`s`s`s`s`s`s`s`s`s`s`s`s`s`s`s`s`s`s`s`s`s`s`s`s`s`s`s",
"`s`s`s`s`s`s`s`s`s`s`s`s`s`s`s`s`s`s`s`s`s`s`s`s`s`s`s`s`s`s`s`s",
"`s`s`h`h`h`h`h`h`h`h`h`h`h`s`s`s`s`s`s`s`s`s`s`e`e`e`e`e`e`e`e`s",
"`s`s`h`c`c`c`c`c`c`c`c`c`h`h`s`s`s`s`s`s`s`s`e`l`l`l`l`l`l`l`y`s",
"`s`s`h`c`t`l`e`l```c`c`c`q`q`h`s`s`s`s`s`s`e`y`y`y`y`y`y`y`y`y`s",
"`s`s`h`c`c`c`c`c`c`c`c`c`c`c`q`s`s`s`s`s`e`t`t`t`t`t`t`j`t`y`s`s",
"`s`s`h`c`c`c`c`c`c`c`c`c`c`c`q`s`s`s`s`e`t`t`t`t`t`t`j`t`y`s`s`s",
"`s`s`h`c`l`t`l`l`e`e`l`j`t`c`q`s`s`s`e`j`j`j`j`j`j`j`j`j`s`s`s`s",
"`s`s`h`c`c`c`c`c`c`c`c`c`c`c`q`s`s`s`e`o`o`o`o`o`o`o`y`s`s`s`s`s",
"`s`s`h`c`l`t`l`l`e`e`l`j`t`c`q`s`s`saa`e`e`e`e`e`e`e`l`y`s`s`s`s",
"`s`s`h`c`c`c`c`c`c`c`c`c`c`c`q`s`s`saa`o`f`f`f`f`f`f`l`l`y`s`s`s",
"`s`s`h`c`l`t`e`c`t`t`l`e`l`c`q`s`s`saa`x`o`o`o`o`o`o`o`o`f`s`s`s",
"`s`s`h`c`c`c`c`c`c`c`c`c`c`c`q`s`s`saa`x`o`l`l`l`l`l`l`l`f`s`s`s",
"`s`s`h`c`e`l`t`j`e`c`l`t`l`c`q`s`s`s`o`x`o`l`l`l`l`l`l`l`f`s`s`s",
"`s`s`h`c`c`c`c`c`c`c`c`c`c`c`q`s`s`s`s`o`o`l`l`l`l`l`l`l`f`s`s`s",
"`s`s`c`q`q`q`q`q`q`q`q`q`q`q`q`s`s`s`s`s`f`f`f`f`f`f`f`f`f`s`s`s",
"`s`s`s`s`s`s`s`s`s`s`s`s`s`s`s`s`s`s`s`s`s`s`s`s`s`s`s`s`s`s`s`s",
"`s`s`s`s`s`s`s`s`s`s`s`s`s`s`s`s`s`s`s`s`s`s`s`s`s`s`s`s`s`s`s`s",
"`s`s`w`w`w`w`w`w`w`w`w`wa``s`s`s`s`s`b`b`b`b`b`b`b`b`b`b`b`s`s`s",
"`s`s`wa``ga``ga``ga``ga``ga``s`s`s`s`b`e`a`a`a`a`a`e`a`a`b`b`s`s",
"`s`s`w`g`g`g`g`g`g`g`g`g`g`ga``s`s`s`b`a`z`z`z`z`z`z`z`a`b`b`b`s",
"`s`s`wa``ga``pa``pa``pa``pa``p`s`s`s`b`w`e`w`w`z`w`w`e`w`w`w```s",
"`s`s`w`g`g`p`p`p`p`p`p`p`p`p`p`s`s`s`b`i`i`e`i`z`i`i`i`e`i`i```s",
"`s`s`wa``ga``pa``pa``pa``pa``p`s`s`s`b`u`n`u`z`z`z`z`z`z`z`m```s",
"`s`s`w`g`g`p`p`p`p`p`p`p`p`p`p`s`s`s`b`n`n`n`e`d`n`z`u`n`e`u```s",
"`s`s`wa``ga``pa``pa``pa``pa``p`s`s`s`b`n`r`n`n`e`n`z`n`v`n`e```s",
"`s`s`w`g`g`p`p`p`p`p`p`p`p`p`p`s`s`s`b`v`n`n`v`z`z`z`z`z`z`z```s",
"`s`s`wa``ga``pa``pa``pa``pa``p`s`s`s`b`n`n`n`n`e`n`d`n`z`n`n```s",
"`s`s`w`g`g`p`p`p`p`p`p`p`p`p`p`s`s`s`b`n`n`v`r`n`e`z`v`z`n`r```s",
"`s`s`wa``ga``pa``pa``pa``pa``p`s`s`s`b`r`n`n`n`n`n`e`n`z`v`n```s",
"`s`sa``p`p`p`p`p`p`p`p`p`p`p`p`s`s`s`k`k`k`k`k`k`k`k`k`k`k`k`k`s",
"`s`s`s`s`s`s`s`s`s`s`s`s`s`s`s`s`s`s`s`s`s`s`s`s`s`s`s`s`s`s`s`s"
};
