/* XPM */
static char *noname[] = {
/* width height ncolors chars_per_pixel */
"32 32 15 1",
/* colors */
"` c #000000",
"a c #AB0000",
"b c #777777",
"c c #EF0000",
"d c #FECB00",
"e c #AAAAAA",
"f c #0066FE",
"g c #888888",
"h c #FFCBCB",
"i c #6699CC",
"j c #9ACCFF",
"k c #FFFFFF",
"l c #009800",
"m c #DDDDDD",
"n c #66FE00",
/* pixels */
"kkkkkkk```````````````````kkkkkk",
"kkkkkkk`mmmmmmmmmmmmmmmmm``kkkkk",
"kkkkkkk`mmmmmmmmmmmmmmmmm`e`kkkk",
"kkkkkkk`mmffffffmmmmmmmmm`ee`kkk",
"kkkkkkk`mmfjjjjfmmmmmmmmm`eee`kk",
"kkkkkkk`mmfjjjjfmmmmmmccc`eeee`k",
"kkkkkkk`mmfjjjjflllmmchhh```````",
"kkkkkkk`mmfjjjjfnnlmchhhhhagggg`",
"kkkkkkk`mmffffffnnlmchhhhhagggg`",
"kkkkkkk`mmmmmlnnnnlmchhhhhcmmmm`",
"kkkkkkk`mmmmmlnnnnlmmchhhcmmmmm`",
"kkkkkkk`mmmmmllllllmmmcccmmmmmm`",
"kkkkkkk`eeeeeeeeeeeeeeeeeeeeeem`",
"kkkkkkk`bbbbbbbbbbbbbbbbbbbbbem`",
"````````````````````````````bem`",
"`mmmmmmmmmmmmmmmmmmmmmmmmmm`bem`",
"`mmimiiiimmmmmmmmmmmmmmdddm`bem`",
"`mmmmmmmmmmmmmmmmmmmmmmdddm`bem`",
"`mmiiimiimmmmmmmmmmmmmmdddm`bem`",
"`mmmmmmmmmmmmmmmmmmmmmmdddm`bem`",
"`mmmmmmmmmmmmmmmmmmmmmmmmmm`bem`",
"`mmmmmmmmmmmmmmmmmmmmmmmmmm`bem`",
"`mmmmmmmmmmmmmmmmmmmmmmmmmm`bem`",
"`mmmmmmiiimmiimiiiiiimmmmmm`bem`",
"`mmmmmmmmmmmmmmmmmmmmmmmmmm`bem`",
"`mmmmmmiiiiimiiimiiiimmmmmm`bem`",
"`mmmmmmmmmmmmmmmmmmmmmmmmmm`bem`",
"`mmmmmmiiimiiimiiiiiimmmmmm`bem`",
"`mmmmmmmmmmmmmmmmmmmmmmmmmm`bem`",
"`mmmmmmmmmmmmmmmmmmmmmmmmmm`bem`",
"`mmmmmmmmmmmmmmmmmmmmmmmmmm`bem`",
"````````````````````````````````"
};
