/* XPM */
static char * icl8_28921_xpm[] = {
/* width height ncolors chars_per_pixel */
"32 32 12 1",
/* colors */
" 	s None	c None",
".	c black",
"X	c #CBFFCB",
"o	c #00CBFE",
"O	c #009865",
"+	c #0066FE",
"@	c #0098FE",
"#	c #659865",
"$	c #0000AB",
"%	c #0000DC",
"&	c #000077",
"*	c #000044",
/* pixels */
"                                ",
"                                ",
"     ...................        ",
"     .XXXXXXXXXXXXXXXXX..       ",
"     .XXXXXoXXXXXXXXXXX.O.      ",
"     .XXXX+@+#XXXXXXXXX.OO.     ",
"     .XXX$%+%$#XXXXXXXX.OOO.    ",
"     .XXXX$%$###XX..X...OOOO.   ",
"     XXoXXX$###@XXXXXXX.......  ",
"     X+@+#XXX#%+%#XX..X.#####.  ",
"     $%+%$#XX&$%$&#XXXXX#####.  ",
"     X$%$###XX&$&###XX....XXX.  ",
"   o XX$###@XXX&###+XXXXXXXXX.  ",
"  +@+#XXX#%+%#XXX#$%$#XXXXXXX.  ",
" $%+%$#XX&$%$&#XX*&$&*#XXXXXX.  ",
"  $%$###XX&$&###XX*&*###XXXXX.  ",
"   $ ##@XXX&###+XXX*###...XXX.  ",
"     #%+%#XXX#$%$#XXX#XXXXXXX.  ",
"     &$%$&#XX*&$&*#X.X....XXX.  ",
"     X&$&###XX*&*###XXXXXXXXX.  ",
"     XX&###+XXX*##....X...XXX.  ",
"     XXXX#$%$#XXX#XXXXXXXXXXX.  ",
"     .XXX*&$&*#XXX..X....XXXX.  ",
"     .XXXX*&*###XXXXXXXXXXXXX.  ",
"     .XXXXX*###XXXXXXXXXXXXXX.  ",
"     .XXX...X...XXXX..X...XXX.  ",
"     .XXXXXXXXXXXXXXXXXXXXXXX.  ",
"     .XXX..X..XXXXX....X..XXX.  ",
"     .XXXXXXXXXXXXXXXXXXXXXXX.  ",
"     .XXXXXXXXXXXXXXXXXXXXXXX.  ",
"     .XXXXXXXXXXXXXXXXXXXXXXX.  ",
"     .........................  "};
