/* XPM */
static char * icl8_6774_xpm[] = {
/* width height ncolors chars_per_pixel */
"32 32 8 1",
/* colors */
" 	s None	c None",
".	c #CCCC99",
"X	c #989865",
"o	c #FFFECB",
"O	c #444444",
"+	c #EF0000",
"@	c #00BA00",
"#	c #0000EF",
/* pixels */
" ..................X            ",
" .oooooooooooooooooXOXXX X      ",
" .oooooooooooooooooX.O          ",
" .oooooooooooooooooX..O         ",
" .oooooooooooooooooX...OX X X   ",
" .oooo+++++++++ooooX....O       ",
" .oooo+ooooooo+ooooXOOOOOO      ",
" .oooo+o......+..oooXXXXXOXXX X ",
" .oooo+o.ooooo+o.oooXXXXXO      ",
" .oooo+o.ooooo+o.ooooooooO      ",
" .oooo+o.ooooo+o.ooooooooOXX X  ",
" .oooo+o.ooooo@@@@@ooooooO      ",
" .oooo+o.oooo@oo.oo@oooooO      ",
" .oooo++++++@ooo....@ooooOXXX X ",
" .oooooo.oo@ooo.ooooo@oooO      ",
" .oooooo...@...oooooo@.ooO      ",
" .ooooooooo@o.ooooooo@o.oOXXX X ",
" .ooooooooo@o.ooooooo@o.oO      ",
" .oooooooooo@.oooooo@oo.oO      ",
" .ooooooooooo@ooooo@ooo.oOXX X  ",
" .oooooooooooo@@@@@ooo.ooO      ",
" .ooooooooooooo.ooooo.oooO      ",
" .oooooooo#ooooo.....ooooOXXX X ",
" .ooooooo#o#oooooooooooooO      ",
" .oooooo#ooo#ooooooooooooO      ",
" .ooooo#ooo.o#oooooooooooOXX X  ",
" .oooo#ooo.ooo#ooooooooooO      ",
" .ooo###########oooooooooO      ",
" .oooooo.ooooooo.ooooooooOXXX X ",
" .ooooo...........oooooooO      ",
" .oooooooooooooooooooooooO      ",
" XOOOOOOOOOOOOOOOOOOOOOOOOX X X "};
