/* XPM */
static char *noname[] = {
/* width height ncolors chars_per_pixel */
"32 32 19 1",
/* colors */
"` c #000000",
"a c #FFCC9A",
"b c #777777",
"c c #555555",
"d c #99CCCC",
"e c #EEEEEE",
"f c #111111",
"g c #FF9966",
"h c #AAAAAA",
"i c #888888",
"j c #CB6532",
"k c #99CC66",
"l c #FFFFFF",
"m c #444444",
"n c #669A33",
"o c #CBFFCB",
"p c #DDDDDD",
"q c #222222",
"r c #BBBBBB",
/* pixels */
"llllllllllllllllllllllllllllllll",
"llllllllllllllllllllllllllllllll",
"lllllllllllllllkllllllllllllllll",
"llllllllllllllooklleeeeeeeblllll",
"lllllllllllllooookleeeeeeerbllll",
"llllllllllllooooookbeeeeeerrblll",
"lllllllllllooooooookbeeeeerrrbll",
"lllllaaajlooooooooookbeeeebbbbll",
"lllaaaaaaaaaaaaajooookbeeeeeebll",
"lllaaaaaaaaaaaaajnooookbeeeeebll",
"lllaaaaaaaaaaaaajnkooookbeeeebll",
"lllaaaaaaaaaaaaajnkoookbheeeebll",
"lllaaaaaaaaaaaaajnkookbheeeeebll",
"lllaaaaaaaaaaaaajnkokbheeeeeebll",
"lllaaaaaaaaaaaaajnkkbheeeeeeebll",
"lllaaaaaaaaaaaaajnkbheeeeeeeebll",
"lllgggggggggggggjnbhrrrrrrrrrbll",
"qmcbbiiihhhhhiiiicccmmqqqqqqqqq`",
"lbihrpeeeeeppppprrrrhhhiibcmqf`l",
"llffqqqqqmmmmmmmqqqqq`````````ll",
"lllllllllllllllllllllcmqllllllll",
"lllllllllllllllllllllicqllllllll",
"llllllllllllllllllllldiqllllllll",
"llllllllllllllllllllldiqllllllll",
"llllllllllllllllllllddddilllllll",
"lllllllllllllllllllldiiiqlllllll",
"lllllllllllllllllllldiiiqlllllll",
"lllllllllllllllllllliqqqqlllllll",
"lllllllllllllllllllldiqiqlllllll",
"dlddddddddddddddddddiiqiiiddldll",
"iliiiiiiiiiiiiiiiiiiiqlqiiiilill",
"qlqqqqqqqqqqqqqqqqqqqlllqqqqlqll"
};
