/* XPM */
static char * icl8_18264_xpm[] = {
/* width height ncolors chars_per_pixel */
"32 32 13 1",
/* colors */
" 	s None	c None",
".	c black",
"X	c #CC9966",
"o	c #006600",
"O	c #9A6633",
"+	c #EEEEEE",
"@	c #BBBBBB",
"#	c #444444",
"$	c gray50",
"%	c blue",
"&	c #555555",
"*	c #888888",
"=	c #AAAAAA",
/* pixels */
"                 ...            ",
"                .XXX.           ",
"               .XXX.X.          ",
"              ..XX. .           ",
"       .... ..XXX.              ",
"      .XXXX.XXXXXX.             ",
"      .X..XXXXXXoX.             ",
"     .XX...XXXXXXXX.            ",
"     ...   .XoXXXXXX.           ",
"           .XXXXX..X.         ..",
"            .XXXX..X.        .X.",
"             .X.XXX.O.       .X.",
"              .O...OXX..    .XX.",
"++++++++++++@  .OOOXXXXX.   .X. ",
"+@@@@@@@@@@@#  .XXXXXXXXX.  .X. ",
"+@########@@#  .XXXXXXXXX.  .X. ",
"+@#$$$$$$$+@#  .XXXXXXXXXX. .X. ",
"+@#%$$$$$%+@#   .XXXXXXXXX..OX. ",
"+@#$%$%%%$+@#   .XX.XXXXXX..OO  ",
"+@#$$%$$$$+@#   .XXXX.XXXXX.O.  ",
"+@#$$$$$$$+@#   .XX.XX.X.XX.O.  ",
"+@@++++++++@#   .XX.XX.X.XXX..  ",
"+@@@@@@@@@@@#    .X.XX.XX.XX..  ",
"+@@@@@@@@@@@#    .X.XXX.X.XX..  ",
"+@@@@@&&&.&@#    .X..XX.X.XX..  ",
"+@@@@@@@@@@@#    .X.O.X.X.XXX.  ",
"+@@@@@@@@@@@#    .X.O.X.XX.XX.  ",
"*############   .XX.O.XX.X.XX.  ",
"@===========#   .X.O.O...X.X.   ",
"@############  .XX..... .XX.    ",
"               ....      ..     ",
"                                "};
