/* XPM */
static char *donald_mad[] = {
/* width height ncolors chars_per_pixel */
"32 32 5 1",
/* colors */
"` c black",
"a c peru",
"b c grey",
"c c white",
"d c blue",
/* pixels */
"cccccccccccc```````ccccccccccccc",
"cccccccccc``ccc`ddd`cccccccccccc",
"cccccccc``ccc```dddd`ccccccccccc",
"ccccccc``c```c``dddd`ccccccccccc",
"cccccc`cc`ccccc`ddddd```cccccccc",
"cccccccc`ccccccc`dddd`dd`ccccccc",
"cccccccccccccccc``dddd`dd`cccccc",
"ccccccccccccccc``d`dddd`dd`ccccc",
"cccccccc`cc`````dd```dddddd`cccc",
"ccccccc`b``b`bbb`ddd``dddddd`ccc",
"ccccc`c`bbb`bb`bb`ddd```dddd`ccc",
"cccc`b`bbbb`bbb`bb`dd`c`````cccc",
"cc`c`bbbbbbbb```bb````cccccccccc",
"c`c`bbbbbbbb`cc`bb`bbb`ccccccccc",
"cc`bbbbbbbbb`ccc`b`bbb`ccccccccc",
"c`bbbbbbbbb`cccc`bb`bb`ccccccccc",
"c`bbbbbbbbb`cc`cc`bbbb`ccccccccc",
"`bbbbbbbbbb`cc`c``bbbbb`cccccccc",
"`b``bbbbbb`ccc```c`bb`b`cccccccc",
"``bbbbbbbb`ccc```c``````cccccccc",
"`b```bbbbb`ccc````aaaa`ccccccccc",
"``aaa`bbbbb`c```aaa`aa`ccccccccc",
"c`aaaa```bb``aaaaa`a`aa`cccccccc",
"c`a```aaa``aaaaaaaa``aaa``cccccc",
"c`aa`````aaaaaaaaaaaaaaaaa```ccc",
"cc``a``````aaaaaaaaaaaaaaaaaa``c",
"cc`b`aaa`````aaaaaaaaaaaaaaaaaa`",
"c`bbb```aaaa```aaaaaaaaaaaaa````",
"`bbbbbbb````aaa`aaaaaaaaaaa`aaa`",
"`bbbbbb`cccc````````aaaaaa`````c",
"ccbbbb`ccccccccc``````aa``cccccc",
"ccccb`ccccccccccccc`````cccccccc"
};
