/* XPM */
static char *door[] = {
"32 32 3 1",
" 	c white",
".	c black",
"X	c slate grey",
"                                ",
"          ..................    ",
"          .                .    ",
"          . .............. .    ",
"          . .            . .    ",
"          . . XXXXXXXXXX . .    ",
"          . . X        X . .    ",
"          . . X        X . .    ",
"          . . X        X . .    ",
"          . . X        X . .    ",
"          . . X        X . .    ",
"          . . X        X . .    ",
"          . . XXXXXXXXXX . .    ",
"          . .            . .    ",
"          . .         .. . .    ",
"          . . XXXXXXXX.. . .    ",
"          . . X        X . .    ",
"          . . X        X . .    ",
"          . . X        X . .    ",
"          . . X        X . .    ",
"          . . X        X . .    ",
"          . . X        X . .    ",
"          . . XXXXXXXXXX . .    ",
"          . .            . .    ",
" ...............................",
"  . . . . . . . . . . . . . . . ",
" . . . . . . . . . . . . . . . .",
"  . . . . . . . . . . . . . . . ",
" . . . . . . . . . . . . . . . .",
"  . . . . . . . . . . . . . . . ",
" . . . . . . . . . . . . . . . .",
"                                "};
