/* XPM */
static char * icl8_30026_xpm[] = {
/* width height ncolors chars_per_pixel */
"32 32 15 1",
/* colors */
" 	s None	c None",
".	c black",
"X	c wheat",
"o	c #CBFFCB",
"O	c #FFCBFE",
"+	c #FFCC9A",
"@	c #CB6532",
"#	c white",
"$	c #000077",
"%	c #0000DC",
"&	c #CBFFFF",
"*	c #0000AB",
"=	c #000055",
"-	c #000044",
";	c #000022",
/* pixels */
"                  .             ",
"                 .X.            ",
"                .X.X.           ",
"               .X.o.X.          ",
"              .X.ooo.X.         ",
"             .X.ooo.XXX.        ",
"            .X.ooo.XX.XX.       ",
"           .X.ooo.XX.O.XX.      ",
"          .X.ooo.XX.OOO.XX.     ",
"         .X.ooo.XX.OOOOO.XX.    ",
"        .X.ooo.XXXX.OOOOO.XX.   ",
"       .X.ooo.XX.XXX.....O.XX.  ",
"      .X.ooo.XX.X.XX.++++.O.XX. ",
"       .X.o.XX.X.XX.+@@+++.XX.  ",
"        .X.XX.X.XX.@@..@+++..   ",
"         .XX.X........#..+++.$$$",
"          .XX.XXX.@++..@@@+++%%%",
"           .XXXX.&.@+++++++++***",
"            .XX.&&&.@@@@@@@@+$$$",
"      .   ....XX.&&&........@===",
"     .X.   .. .XX.&.XX.     .---",
"    .XXX. . .  .XX.XX.       ;;;",
"   .XX.XX.      .XXX.           ",
"  .XX. .XX.      .X.            ",
" .XX. . .XX.      .             ",
".XX. . . .XX.                   ",
" .XX. . .XX.                    ",
"  .XX. .XX.                     ",
"   .XX.XX.                      ",
"    .XXX.                       ",
"     .X.                        ",
"      .                         "};
