/* XPM */
static char * icl8_20510_xpm[] = {
/* width height ncolors chars_per_pixel */
"32 32 16 1",
/* colors */
" 	s None	c None",
".	c black",
"X	c #00AB00",
"o	c #FECB00",
"O	c #EF0000",
"+	c #3333FF",
"@	c #FE6500",
"#	c #FF9966",
"$	c #FFCC9A",
"%	c white",
"&	c #000055",
"*	c #000089",
"=	c #0000BA",
"-	c #000077",
";	c #000044",
":	c #000022",
/* pixels */
"                                ",
"      .                         ",
"     ..                         ",
"    .XX.                        ",
"    .XX.      ....              ",
"    .XXX.   ..XXX.              ",
"    .XXX.  .XXXX.               ",
"    .XXX.  .XXX.                ",
"     .XX. .XXXo.                ",
"     .XX. .XXoo.                ",
"      ..  .Xooo.                ",
"       .  .oooo..        .      ",
"         .ooooo .       ..      ",
"     ....ooooo   ..  ...O.      ",
"   ..XXXooooo      ..OOOO..     ",
"  .XXXXooooo        OOOOOO.     ",
"  .XXXooooo        OOOOOO+.     ",
" .XXXooooo        ......++.     ",
" .XXooooo   @    .######.+.     ",
" .Xooooo@  @    .#$$$$$$#.      ",
" .ooooo@@ @@   .#$..$$$$$#.     ",
" .oooo@@  @@@ ....OO.$$$$$#.    ",
"  .oo@@%@  @...##........$$#.&&&",
"  .o@@@@    OO.$$#..#####$$$#***",
"   .@@@%@  OOOO.$$##$$$$$$$$$===",
"    .@@@  OOOOOO.$$$$$$$$$$$$***",
"     .@%@OOOOOO++..$$$$$$$$$$---",
"      .@OOOOOO+++++........$$&&&",
"       .OOOOO+++++.        ..;;;",
"        ...O+++++..          :::",
"           ......               ",
"                                "};
