/* XPM */
static char * dungeon_colors[] = {
"32 32 6 1"
"  c #000000",
". c #AA5500",
"X s background c none",
"o c #555555",
"O c #FF5555",
"+ c #FFFF55",
"XXXXXXXXX        XXXXXXXXXXXXXXX",
"XXXXXX   ...Oo...   XXXXXXXXXXXX",
"XXXX  Oo....Oo....Oo  XXXXXXXXXX",
"XXX ..Oo....Oo....Oo.. XXXXXXXXX",
"XXX ..Oo....Oo....Oo.. XXXXXXXXX",
"XX ...Oo..     +..Oo... XXXXXXXX",
"XX ...Oo.. . . +..Oo... XXXXXXXX",
"XX ...Oo..  . .+..Oo... XXXXXXXX",
"XX OOOOoOO . . +OOOoOOO XXXXXXXX",
"XX oooOooo  . .+ooOoooo XXXXXXXX",
"XX ...Oo.. . . +..Oo... XXXXXXXX",
"XX ...Oo..  . .+..Oo... XXXXXXXX",
"XX ...Oo.. +++++..Oo... XXXXXXXX",
"XX ...Oo....Oo....Oo... XXXXXXXX",
"XX ...Oo....Oo....Oo... XXXXXXXX",
"XX OOOOoOOOOOoOOOO   OO XXXXXXXX",
"XX oooOoooooOoooo Ooo o XXXXXXXX",
"XX ...Oo....Oo... Oo. . XXXXXXXX",
"XX ...Oo....Oo... O . . XXXXXXXX",
"XX ...Oo....Oo....   .. XXXXXXXX",
"XX ...Oo....Oo....O ... XXXXXXXX",
"XX ...Oo....Oo....Oo... XXXXXXXX",
"XX OOOOoOOOOOoOOOOOoOOO XXXXXXXX",
"XX oooOoooooOoooooOoooo XXXXXXXX",
"XX ...Oo....Oo....Oo... XXXXXXXX",
"XX ...Oo....Oo....Oo... XXXXXXXX",
"XX ...Oo....Oo....Oo... XXXXXXXX",
"X                        XXXXXXX",
" XoXoXoXoXoXoXoXoXoXoXoXo XXXXXX",
" oXoXoXoXoXoXoXoXoXoXoXoX XXXXXX",
" XoXoXoXoXoXoXoXoXoXoXoXo XXXXXX",
"X                        XXXXXXX"
} ;
