/* XPM */
static char * image_name [] = {
"32 32 2 1",
/* pixels*/
" 	c None s Background",
"B	c #000099990000",
"BBBBBBBBBBBBBBBBBBBBBBBBBBBBBBBB",
"B                              B",
"B  B B  B  BB   BB B B B BBB   B",
"B  B B B B B B B   B B B B     B",
"B   B  BBB BB  B   BBB B BB    B",
"B  B B B B B B B   B B B B     B",
"B  B B B B B B  BB B B B BBB   B",
"B                              B",
"BBBBBBBBBBBBBBBBBBBBBBBBBBBBBBBB",
"B         B          B         B",
"BB BBBBBB BB BBBBBBB BB BBBBBB B",
"B         B          B         B",
"BB BBBBBB BB BBBBBBB BB BBBBBB B",
"B         B          B         B",
"BB BBBBBB BB BBBBBBB BB        B",
"B         B          B         B",
"BB BBBBBB BB         BB        B",
"B         B          B         B",
"BB        BB         BB        B",
"B         B          B         B",
"BB        BB         BB        B",
"BBBBBBBBBBBBBBBBBBBBBBBBBBBBBBBB",
"B                              B",
"B BBB  B BB B B  BBB B BB BB B B",
"B                              B",
"B BBBB BB BB B BB B B  BB B BB B",
"B                              B",
"B BBB  B B B BB  BB B BB BB BB B",
"B                              B",
"B BBB BBB   BBB BBBB   BBBB BB B",
"B                              B",
"BBBBBBBBBBBBBBBBBBBBBBBBBBBBBBBB",
};
