/* XPM */
static char * icl8_16187_xpm[] = {
/* width height ncolors chars_per_pixel */
"32 32 15 1",
/* colors */
" 	s None	c None",
".	c #659898",
"X	c #222222",
"o	c white",
"O	c wheat",
"+	c black",
"@	c #440000",
"#	c #006666",
"$	c #550000",
"%	c #770000",
"&	c #890000",
"*	c #AB0000",
"=	c #BA0000",
"-	c #DC0000",
";	c #EF0000",
/* pixels */
"   .....................XXXX    ",
"   .ooooooooooooooooooo.OOOX    ",
"   .o+++++ooooo@@@@@ooo.#OOX#   ",
"   .oo+OOO+ooo$$$$$oooo.#OOX#   ",
"   .ooo+OOO+o%%%%%ooooo.#OOX#   ",
"   .oooo+OOO+&&&&oooooo.#OOX#   ",
"   .ooooo+OOO+**ooooooo.#OOX#   ",
"   .oooooo+OOO+oooooooo.#OOX#   ",
"   .ooooo==+OOO+=====oo.#OOX#   ",
"   .oooo----+OOO+---ooo.#OOX#   ",
"   .ooo;;;;;;+ooo+;oooo.#OOX#   ",
"   .ooooooooooooooooooo.#OOX#   ",
"   .....................#OOX#   ",
"   XO####################OOX#   ",
"   XOOOOOOOOOOOOOOOOOOOOOOOX#   ",
"   XOO###################OOX#   ",
"   XOO#OOOOOOOO#OOOOOOOO#OOX#   ",
"   XOO#OO++++OO#OO++++OO#OOX#   ",
"   XOO#OOOOOOOO#OOOOOOOO#OOX#   ",
"   XOO###################OOX#   ",
"   XOO#OOOOOOOO#OOOOOOOO#OOX#   ",
"   XOO#OO++++OO#OO++++OO#OOX#   ",
"   XOO#OOOOOOOO#OOOOOOOO#OOX#   ",
"   XOO###################OOX#   ",
"   XOO#OOOOOOOO#OOOOOOOO#OOX#   ",
"   XOO#OO++++OO#OO++++OO#OOX#   ",
"   XOO#OOOOOOOO#OOOOOOOO#OOX#   ",
"   XOO###################OOX#   ",
"   XOOOOOOOOOOOOOOOOOOOOOOOX#   ",
"   XOOOOOOOOOOOOOOOOOOOOOOOX#   ",
"   XXXXXXXXXXXXXXXXXXXXXXXXX#   ",
"     ########################   "};
