/* XPM */
static char * xeyes [] = {
"32 32 3 1",
" 	s None	c None",
".	m black	c black",
"X	c white",
"                                ",
"                                ",
"       ...            ...       ",
"      .....          .....      ",
"     ..XXX..        ..XXX..     ",
"     .XXXXX..      ..XXXXX.     ",
"    .XXXXXXX.      .XXXXXXX.    ",
"   ..XXXXXXXX.    .XXXXXXXX..   ",
"   .XXXXXXXXX..  ..XXXXXXXXX.   ",
"   .XXXXXXXXX..  ..XXXXXXXXX.   ",
"  .XXXXXXXXXXX.  .XXXXXXXXXXX.  ",
"  .XXXXXXXXXXX.  .XXXXXXXXXXX.  ",
"  .XXXXXXXXXXX.  .XXXXXXXXXXX.  ",
"  .XXXXXXXXXXX.  .XXXXXXXXXXX.  ",
"  .XXXXXXXXXXX.  .XXXXXXXXXXX.  ",
"  .XXXXXXXXXXX.  .XXXXXXXXXXX.  ",
"  .XXXXXXXXXXX.  .XXXXXXXXXXX.  ",
"  .XXXXXXX..XX.  .XXXXXXXXXXX.  ",
"  .XXXXXXX..XX.  .XXXXXXX..XX.  ",
"  .XXXXXXX..XX.  .XXXXXXX..XX.  ",
"  .XXXXXXXXXXX.  .XXXXXXX..XX.  ",
"  .XXXXXXXXXXX.  .XXXXXXXXXXX.  ",
"  .XXXXXXXXXX..  .XXXXXXXXXX.   ",
"   .XXXXXXXXX.   .XXXXXXXXXX.   ",
"   .XXXXXXXXX.   ..XXXXXXXX..   ",
"   ..XXXXXXX..    .XXXXXXXX.    ",
"    .XXXXXXX.     ..XXXXXXX.    ",
"    .XXXXXX..      .XXXXXX.     ",
"     ..XXX..       ..XXXX..     ",
"     ......         ......      ",
"      .....          ....       ",
"                                "};
