/* XPM */
static char * xfishtank [] = {
"32 32 5 1",
" 	s None	c None",
".	m black	c black",
"X	m white	c SkyBlue",
"o	m black	c gold",
"O	m white	c LightSalmon",
"            ...        .        ",
"           .XXX.       .        ",
"          .XXXXX.   .  .        ",
"          .XXXXX.    .   ....   ",
"          .XXXXX.     .         ",
"   ..      .XXX.                ",
"  .XX.      ...       .  .      ",
"  .XX.              ..    .     ",
"  .XX.                     .    ",
"   ..                           ",
"                                ",
"         oooooooo       ooooo   ",
"       ooOOOOOOOOo    ooOOOOOo  ",
"      oOOOOOOOOOOOo   oOOOOOOOo ",
"     oOOOOOOOOOOOOOo oOOOOOoOOOo",
"    oO...OOOOooooOOOoOOOOOOOoOo ",
"   oO.XX..OOoOOOOooOOOOOOoOOoo  ",
"  oOO.X...OoOOOOOOOoooOOOOoOo   ",
"  oOO.....OoOOOOOOOOoOOOOOOo    ",
" oOOOO...OOOOOOOOoOoOOOOooo     ",
" oOOOOOOOOOOOOOOOoooOOOOOo      ",
" oOOOOOOOOOOOOoOOOoOOOOOOOoo    ",
" oOO..OOOOOOOOOoooOOOOOOOOoOo   ",
"  oO..OOOOOOOOOOOOOOOOOOOoOOoo  ",
"   oOOOOOOOOOOOOOOOoOOOOOOOOoOo ",
"    ooOOOOOOOOOOOOo oOOOOOOoOOoo",
"      ooOOOOOOOOOo   oOOOOOOoo  ",
"        ooOOOOOOo     oOOOOo    ",
"          oooooo       oooo     ",
"                                ",
"                                ",
"                                "};
