/* XPM */
static char * icl8_29846_xpm[] = {
/* width height ncolors chars_per_pixel */
"32 32 21 1",
/* colors */
" 	s None	c None",
".	c #659898",
"X	c #222222",
"o	c white",
"O	c wheat",
"+	c black",
"@	c #440000",
"#	c #006666",
"$	c #33FFFF",
"%	c #550000",
"&	c #66FFFF",
"*	c #770000",
"=	c #890000",
"-	c #9AFFFF",
";	c #AB0000",
":	c #BA0000",
"?	c #CBFFFF",
">	c #DC0000",
",	c #EF0000",
"<	c #DDDDDD",
"1	c #000055",
/* pixels */
"   .....................XXXX    ",
"   .ooooooooooooooooooo.OOOX    ",
"   .o+++++ooooo@@@@@ooo.#OOX#   ",
"   .oo+$$$+ooo%%%%%oooo.#OOX#   ",
"   .ooo+&&&+o*****ooooo.#OOX#   ",
"   .oooo+&&&+====oooooo.#OOX#   ",
"   .ooooo+-&-+;;ooooooo.#OOX#   ",
"   .oooooo+---+oooooooo.#OOX#   ",
"   .ooooo::+?-?+:::::oo.#OOX#   ",
"   .oooo>>>>+???+>>>ooo.#OOX#   ",
"   .ooo,,,,,,+ooo+,oooo.#OOX#   ",
"   .ooooooooooooooooooo.#OOX#   ",
"   .....................#OOX#   ",
"   XO####################OOX#   ",
"   XOOOOOOOOOOOOOOOOOOOOOOOX#   ",
"   XO+++++++++++++++++++++OX#   ",
"   XO+<<<<<<<<<<<<<<<<<<<+OX#   ",
"   XO+<,,,,<<<<<<<<<<<<<<+OX#   ",
"   XO+<,,,,<++<+++++<++<<+OX#   ",
"   XO+<,,,,<++<+++++<++<<+OX#   ",
"   XO+<,,,,<<<<<<<<<<<<<<+OX#   ",
"   XO+<<<<<<<<<<<<<<<<<<<+OX#   ",
"   XO+<<<<<<<<<<<<<<<<<<<+OX#   ",
"   XO+<1111<<<<<<<<<<<<<<+OX#   ",
"   XO+<1111<++<+++<++<+<<+OX#   ",
"   XO+<1111<++<+++<++<+<<+OX#   ",
"   XO+<1111<<<<<<<<<<<<<<+OX#   ",
"   XO+<<<<<<<<<<<<<<<<<<<+OX#   ",
"   XO+++++++++++++++++++++OX#   ",
"   XOOOOOOOOOOOOOOOOOOOOOOOX#   ",
"   XXXXXXXXXXXXXXXXXXXXXXXXX#   ",
"     ########################   "};
