/* XPM */
static char * icl8_25777_xpm[] = {
/* width height ncolors chars_per_pixel */
"32 32 13 1",
/* colors */
" 	s None	c None",
".	c #FFCC9A",
"X	c #440000",
"o	c #EF0000",
"O	c #0000EF",
"+	c #00EF00",
"@	c #FEFE00",
"#	c #FE0000",
"$	c #FE00FE",
"%	c #9800FE",
"&	c #444444",
"*	c #FE9800",
"=	c #008900",
/* pixels */
"                                ",
"                                ",
"          .X.X.X..              ",
"        .X.......X.X            ",
"       X......o......X          ",
"      .......ooo......X         ",
"     X..O....ooo.......X        ",
"    X..OOO....o.....+...X       ",
"    ...OOO.........+++...       ",
"   X....O..........+++..X       ",
"   .................+....       ",
"   X..@.................X       ",
"   ..@@@#######.$......X  ###   ",
"   X.@@@.#######$$....X  ###    ",
"   ...@...#######$..X.  ###     ",
"   X.......######...   ###      ",
"   .........######.X  ###       ",
"   X..%.....#######.X###        ",
"   ..%%%.....######.###         ",
"   X.%%%......####.#####        ",
"   ...%.......###&#######       ",
"   X.........###&&&######       ",
"   .........###.&&&.######      ",
"   X....*..###...&...######     ",
"    ...***###==......#######    ",
"    X..**###===.....X #######   ",
"     X..*....=.....X            ",
"      X..........X              ",
"        X.X.X.X.X               ",
"                                ",
"                                ",
"                                "};
