/* XPM */
static char * image_name [] = {
"56 53 3 1",
/* pixels*/
" 	c None s Background",
"C	c #000000000000",
"D	c #ffffffffffff",
"DDDDDDDDDDDDDDDDDDDDDDDDDDDDDDDDDDDDDDDDDDDDDDDDDDDDDDDD",
"DDDDDDDDDDDDDDDCDDDCDDDDDDDDDDDDDDDDDDDDDDDDDDDDDDDDDDDD",
"DCDDDDDDDCDDDDDCCDDCDDDDDDDDDDDDDDDDDDDDDDDDDDCDDDDDDDCD",
"DCDDDDDDDCDDDDDCCDDCDDDCCCDDDCDDDCDDDCCCDDDDDDCDDDDDDDCD",
"CCCDCDCDCCCDCDDCDCDCDDCDDDCDDCDDDCDDCDDDCDDCDCCCDCDCDCCC",
"CCCCDDDCCCCCDDDCDCDCDDCDDDCDDCDCDCDDCDDDDDDDCCCCCDDDCCCC",
"CCCDDDDDCCCDDDDCDDCCDDCCCCCDDCDCDCDDDCCCDDDDDCCCDDDDDCCC",
"CDCDDDDDCDCDDDDCDDCCDDCDDDDDDCDCDCDDDDDDCDDDDCDCDDDDDCDC",
"DDDCDDDCDDDCDDDCDDDCDDCDDDCDDCDCDCDDCDDDCDDDCDDDCDDDCDDD",
"DDDDDDDDDDDDDDDCDDDCDDDCCCDDDDCDCDDDDCCCDDDDDDDDDDDDDDDD",
"DDDDDDDDDDDDDDDDDDDDDDDDDDDDDDDDDDDDDDDDDDDDDDDDDDDDDDDD",
"CCCCCCCCCCCCCCCCCCCCCCCCCCCCCCCCCCCCCCCCCCCCCCCCCCCCCCCC",
"DDDDDDDDDDDDDDDDDDDDDDDDDDDDDDDDDDDDDDDDDDDDDDDDDDDDDDDD",
"CCCDCCCDCDCDCCCDCCCDCDCDCDCDDDDDDDDDDCCCDCCCDCDDDCCDDCCC",
"CDDDCDCDCCCDCDCDCDCDCCCDCDCDDDDDDDDDDCDDDCDCDCDDDCDCDCDD",
"CDDDCDCDCDCDCCCDCCCDCCCDDCDDDDDDDDDDDCCDDCDCDCDDDCDCDCCC",
"CDDDCDCDCDCDCDDDCDCDCDCDDCDDDDDDDDDDDCDDDCDCDCDDDCDCDDDC",
"CCCDCCCDCDCDCDDDCDCDCDCDDCDDDDDDDDDDDCDDDCCCDCCCDCCDDCCC",
"DDDDDDDDDDDDDDDDDDDDDDDDDDDDDDDDDDDDDDDDDDDDDDDDDDDDDDDD",
"CCCDCDCDCCCDCCCDCCCDCCCDCCCDCDCDCCCDDDDDDCDCDCCCDCDCDCCC",
"CDDDDCDDCDDDCDDDCDDDCDDDDCDDCDCDCDDDDDDDDCCCDCDDDCDCDCDD",
"CCDDDCDDCDDDCCDDCCCDCCCDDCDDDCDDCCDDDDDDDCCCDCCDDCCCDCCC",
"CDDDCDCDCDDDCDDDDDCDDDCDDCDDDCDDCDDDDDDDDCDCDCDDDCCCDDDC",
"CCCDCDCDCCCDCCCDCCCDCCCDCCCDDCDDCCCDDDDDDCDCDCCCDCDCDCCC",
"DDDDDDDDDDDDDDDDDDDDDDDDDDDDDDDDDDDDDDDDDDDDDDDDDDDDDDDD",
"CCCDCCCDDCDDCCDDCCCDCDCDCCCDDDDDDCCCDCDDDDCDDCDCDCCCDCCD",
"CDCDCDDDCDCDCDCDDCDDCCCDCDDDDDDDDCDCDCDDDCDCDCCCDCDDDCDC",
"CCCDCCDDCCCDCDCDDCDDCCCDCDCDDDDDDCCCDCDDDCCCDCCCDCCDDCDC",
"CCDDCDDDCDCDCDCDDCDDCDCDCDCDDDDDDCDCDCDDDCDCDCDCDCDDDCDC",
"CDCDCCCDCDCDCCDDCCCDCDCDCCCDDDDDDCCCDCCCDCDCDCDCDCCCDCCD",
"DDDDDDDDDDDDDDDDDDDDDDDDDDDDDDDDDDDDDDDDDDDDDDDDDDDDDDDD",
"CCCCCCCCCDCCCCCCCCCCCDCCCCCCCCCCCDCCCCCCCCCCCCCCCCCCCCCD",
"DDDDDDDDDDCDCDCDCDCDCDDDDDDDDDDDDDCDDDDDDDDDDDDDDDDDDDCD",
"CCCCCCCCCDCC       CCDCCCCCCCCCCCDCCDDDDDDDDDDDDDDDDDDCD",
"DDDDDDDDDDCD       DCDDDDDDDDDDDDDCDCDDDDDDDDDDDDDDDDDCD",
"CCCCCCCCCDCC       CCDCCCCCCCCCCCDCDDCDDDDDDDDDDDDDDDDCD",
"DDDDDDDDDDCD       DCDDDDDDDDDDDDDCDDDCDDDDDDDDDDDDDDDCD",
"CCCCCCCCCDCC       CCDCCCCCCCCCCCDCDDDDCDDDCCDDDDDDDDDCD",
"DDDDDDDDDDCD       DCDDDDDDDDDDDDDCDDDDDCDCDDCDDDDDDDDCD",
"CCCCCCCCCDCC       CCDCCCCCCCCCCCDCDDDDDDCDDDDCDDDDDDDCD",
"DDDDDDDDDDCD       DCDDDDDDDDDDDDDCDDDDDDDDDDDDCDDDDDDCD",
"CCCCCCCCCDCC       CCDCCCCCCCCCCCDCDDDDDDDDDDDDDCDDDDDCD",
"DDDDDDDDDDCD       DCDDDDDDDDDDDDDCDDDDDDDDDDDDDDCDCCDCD",
"CCCCCCCCCDCC       CCDCCCCCCCCCCCDCDDDDDDDDDDDDDDDCDDCCD",
"DDDDDDDDDDCD       DCDDDDDDDDDDDDDCDDDDDDDDDDDDDDDDDDDCD",
"CCCCCCCCCDCCDCDCDCDCCDCCCCCCCCCCCDCDDDDDDDDDDDDDDDDDDDCD",
"DDDDDDDDDDCCCCCCCCCCCDDDDDDDDDDDDDCDDDDDDDDDDDDDDDDDDDCD",
"CCCCCCCCCDDDDDDDDDDDDDCCCCCCCCCCCDCDDDDDDDDDDDDDDDDDDDCD",
"DDDDDDDDDDDDDDDDDDDDDDDDDDDDDDDDDDCDDDDDDDDDDDDDDDDDDDCD",
"CCCCCCCCCDCCCCCCCCCCCDCCCCCCCCCCCDCDDDDDDDDDDDDDDDDDDDCD",
"DDDDDDDDDDDDDDDDDDDDDDDDDDDDDDDDDDCDDDDDDDDDDDDDDDDDDDCD",
"CCCCCCCCCDCCCCCCCCCCCDCCCCCCCCCCCDCCCCCCCCCCCCCCCCCCCCCD",
"DDDDDDDDDDDDDDDDDDDDDDDDDDDDDDDDDDDDDDDDDDDDDDDDDDDDDDDD",
}
