/* XPM */
static char * icl8_28902_xpm[] = {
/* width height ncolors chars_per_pixel */
"32 32 8 1",
/* colors */
" 	c #111111",
".	c #9B9BDDDDD9D9",
"X	c #FE0000",
"o	c #659898",
"O	c wheat",
"+	c #AAAAAA",
"@	c #777777",
"#	c #444444",
/* pixels */
"                                ",
" .............................. ",
"          ...XX..XX...          ",
" ............XXo.XXo........... ",
"  .....   ....XXXXoo..          ",
" ..............XXo............. ",
"  .....   ....XXXX....          ",
" ............XXooXX............ ",
"          ...XXo.XXo..          ",
" .............oo..oo........... ",
"                                ",
" OOOOOOOOOOOOOOOOOOOOOOOOOOOOOO ",
" OOOOOO+@#++ @+ @+OOOOOOOOOOOOO ",
" OOOOOOOOOOOOOOOOOOOOOOOOOOOOOO ",
" OOOOOOOOOO#+ @+ ##+ OOOOOOOOOO ",
" OOOOOOOOOOOOOOOOOOOOOOOOOOOOOO ",
" OOOOOOOOO@#  + # #OOOOOOOOOOOO ",
" OOOOOOOOOOOOOOOOOOOOOOOOOOOOOO ",
" OOOOOO#+@ + ##@ +OOOOOOOOOOOOO ",
" OOOOOOOOOOOOOOOOOOOOOOOOOOOOOO ",
" OOOOOOOO @+#OOOOOOOOOOOOOOOOOO ",
" OOOOOOOOOOOOOOOOOOOOOOOOOOOOOO ",
" OOOOOOOOOO +# @+OOOOOOOOOOOOOO ",
" OOOOOOOOOOOOOOOOOOOOOOOOOOOOOO ",
" OOOOOOOOOO##@++ #+ OOOOOOOOOOO ",
" OOOOOOOOOOOOOOOOOOOOOOOOOOOOOO ",
" OOOOOO #+ # OOOOOOOOOOOOOOOOOO ",
" OOOOOOOOOOOOOOOOOOOOOOOOOOOOOO ",
" OOOOOOOO  + #@ #+OOOOOOOOOOOOO ",
" OOOOOOOOOOOOOOOOOOOOOOOOOOOOOO ",
" OOOOOOOOOOOOOOOOOOOOOOOOOOOOOO ",
"                                "};
