/* XPM */
static char * icl8_1660_xpm[] = {
/* width height ncolors chars_per_pixel */
"32 32 17 1",
/* colors */
" 	s None	c None",
".	c #EEEEEE",
"X	c #BBBBBB",
"o	c #222222",
"O	c #444444",
"+	c #339A9A",
"@	c #CBFFFF",
"#	c #006666",
"$	c #66CCCC",
"%	c #EF0000",
"&	c #FF9966",
"*	c #770000",
"=	c #777777",
"-	c #00EF00",
";	c #DDDDDD",
":	c #AAAAAA",
"?	c #888888",
/* pixels */
"                                ",
"     ......................     ",
"    .XXXXXXXXXXXXXXXXXXXXXXo    ",
"    .XXXXXXXXXXXXXXXXXXXXXXo    ",
"    .XXXOOOOOOOOOOOOOOOOXXXo    ",
"    .XXO++++++++++++++++.XXo    ",
"    .XXO+@@@@@@@@@@@#$@@.XXo    ",
"    .XXO+@@@@@%@@@#$@#@@.XXo    ",
"    .XXO+@@@@&*@#$@#@++@.XXo    ",
"    .XXO+@@@&%*@@#@++@#@.XXo    ",
"    .XXO+&&&%%*@@#@@#@#@.XXo    ",
"    .XXO+&%%%%*@@#@@#@#@.XXo    ",
"    .XXO+****%*@@#@@#@#@.XXo    ",
"    .XXO+@@@***@@#@++@#@.XXo    ",
"    .XXO+@@@@**@#$@#@++@.XXo    ",
"    .XXO+@@@@@*@@@#$@#@@.XXo    ",
"    .XXO+@@@@@@@@@@@#$@@.XXo    ",
"    .XXO+@@@@@@@@@@@@@@@.XXo    ",
"    .XXX................XXXo    ",
"    .XXXXXXXXXXXXXXXXXXXXXXo    ",
"    .XXXXXXXXXXXXXXXXXXXXXXo    ",
"    .XXXXXXXXXXXXXXXX===XXXo    ",
"    .XXXXXXXXXXXooooooooXXXo    ",
"    .XXXXXXXXXXXXXXXXXXXXXXo    ",
"    .XX--XXXXXXXXXXXXXXXXXXo    ",
"    .XX%%XXXXXXXXXXXXXXXXXXo    ",
"    .XXXXXXXXXXXXXXXXXXXXXXo    ",
"     oooooooooooooooooooooo     ",
"     X====================o     ",
"     ;:???????????????????o     ",
"     ;::::::::::::::::::::o     ",
"     ;ooooooooooooooooooooo     "};
