/* XPM */
static char *noname[] = {
/* width height ncolors chars_per_pixel */
"32 32 19 1",
/* colors */
"` c #000000",
"a c #CBFFFF",
"b c #330000",
"c c #777777",
"d c #EF0000",
"e c #00EF00",
"f c #555555",
"g c #99CCCC",
"h c #EEEEEE",
"i c #007700",
"j c #AAAAAA",
"k c #888888",
"l c #663300",
"m c #9A6633",
"n c #FFFFFF",
"o c #444444",
"p c #CBFFCB",
"q c #DDDDDD",
"r c #BBBBBB",
/* pixels */
"nnnnnqqqqqqnqqqpppppppppppppnnnn",
"nnnqqjjjjkkokkopppppppppppppppnn",
"nnqkkjkkkkkkkkopppppppppppppppin",
"nqkkkjkkkkk`kkopppppppppppppppin",
"qkk``jkkkkk`oooppppppppppppppppi",
"qk`pp``k```p```ppppppppppppppppi",
"q`ppppqjk`pppppppppppppppppppppi",
"ppppppqjk`pppppppppppppppppppppi",
"ppppppqjk`pppphhhhhhhhhhhhhhhppi",
"ppppppqjk`ppphrrrrrrrrrrrrrrropi",
"ppppppqjk`ppphrcooooooooooorropi",
"ppppppqjk`ppphroggggdddgggghropi",
"ppppppqjk`ppphroggadaaadaaahropi",
"pppppp````ppphrogaaaaaadaaahropi",
"ppppppmllbppphrogaaaaadaaaahropi",
"pppppmlllb`pphrogaaaadaaaaahropi",
"pppppmlllb`pphrogaaaaaaaaaahropi",
"pppppmlllb`pphroaaaaadaaaaahropi",
"pppppmlllb`pphroaaaaaaaaaaahropi",
"pppppmlllb`pphrrhhhhhhhhhhhqropi",
"pppppmlllb`pphrrrrrrrrrrrrrrropi",
"pppppmlllb`pphrrrrrrrrrrrrrrropi",
"pppppmlllb`pphrrrrrrr``````rropi",
"pppppmlllb`pphrerrrrrrrrffrrropi",
"pppppmlllb`pphrdrrrrrrrrrrrrropi",
"pppppmlllb`pphrrrrrrrrrrrrrrropi",
"pppppmlllb`pprooooooooooooooo`pi",
"pppppmlllb`pprccccccccffffooo`pi",
"nppppmlllb`pprjjjjjjjjjjjjjjj`pi",
"nppppp````pppr```````````````pin",
"nniipppppppppppppppppppppppppiin",
"nnnniiiiiiiiiiiiiiiiiiiiiiiiinnn"
};
