/* XPM */
static char * icl8_9741_xpm[] = {
/* width height ncolors chars_per_pixel */
"32 32 7 1",
/* colors */
" 	s None	c None",
".	c black",
"X	c wheat",
"o	c tan",
"O	c #BBBBBB",
"+	c #CBFFFF",
"@	c #888888",
/* pixels */
"   ...................          ",
"   .XXXXXXXXXXXXXXXXX..         ",
"   .XXXXXXXXXXXXXXXXX.o.        ",
"   .XXXXXXXXXXXXXXXXX.oo.       ",
"   .XXXXXXXXXXXXXXXXX.ooo.      ",
"   .XXXXXXXXXXXXXXXXX.oooo.     ",
"   .XXXXXXXXXXXXXXXXX.......    ",
"   .XXXXXXXXXXXXXXXXXXooooo.    ",
"   .XXXX..........XXXXooooo.    ",
"   .XXX.OOOOOOOOOO.XXXXXXXX.    ",
"   .XXX.OO......OO.XXXXXXXX.    ",
"   .XXX.O.++++++.O.XXXXXXXX.    ",
"   .XXX.O.++.....O.XXXXXXXX.    ",
"   .XXX.O.++.....O.XXXXXXXX.    ",
"   .XXX.O.++.....O.XXXXXXXX.    ",
"   .XXX.O.++.....O.XXXXXXXX.    ",
"   .XXX.O........O.XXXXXXXX.    ",
"   .XXX.OO......OO.XXXXXXXX.    ",
"   .XXX.OOOOOOOOOO.XXXXXXXX.    ",
"   .XXX.OOOOO....O.XXXXXXXX.    ",
"   .XXX.OOOOOOOOOO.XXXXXXXX.    ",
"   .XXX............X...XX...    ",
"   .XXX.@@@@@@@@@@.......XX.    ",
"   .XXX............X...XXXX.    ",
"   .XXXXXXXXXXXXXXXXXXXXXXX.    ",
"   .XXXXXXXXXXXXXXXXXXXXXXX.    ",
"   .XXXXXXXXXXXXXXXXXXXXXXX.    ",
"   .XXXXXXXXXXXXXXXXXXXXXXX.    ",
"   .XXXXXXXXXXXXXXXXXXXXXXX.    ",
"   .XXXXXXXXXXXXXXXXXXXXXXX.    ",
"   .XXXXXXXXXXXXXXXXXXXXXXX.    ",
"   .........................    "};
