/* XPM */
static char * icl8_20617_xpm[] = {
/* width height ncolors chars_per_pixel */
"32 32 15 1",
/* colors */
" 	s None	c None",
".	c #EEEEEE",
"X	c #BBBBBB",
"o	c #222222",
"O	c #777777",
"+	c slate gray",
"@	c gray50",
"#	c #EF0000",
"$	c #770000",
"%	c #AAAAAA",
"&	c #444444",
"*	c #00FE00",
"=	c #888888",
"-	c #FE0000",
";	c #555555",
/* pixels */
"       ................         ",
"      .XXXXXXXXXXXXXXXXo        ",
"      .XOooooooooooooOXo        ",
"      .Xo++++++++++++.Xo        ",
"      .Xo++++@###@@@@.Xo        ",
"      .Xo+@@@#$@#$@@@.Xo        ",
"      .Xo+@@@@@@#$@@@.Xo        ",
"      .Xo+@@@@@#$@@@@.Xo        ",
"      .Xo+@@@@#$@@@@@.Xo        ",
"      .Xo+@@@@@@@@@@@.Xo        ",
"      .Xo+@@@@#$@@@@@.Xo        ",
"      .Xo+@@@@@@@@@@@.Xo        ",
"      .XO............XXo        ",
"      .XXXXXXXXXXXXXXXXo        ",
"      .XXXXXXXXXXX%%XXXo        ",
"      .XXXXXXXXX&&oo&XXo        ",
"      .X*XXXXXXXXX==XXXo        ",
"      .X-X;==X;=XXXXXXXo        ",
"      .XXXXXXXXXXXXXXXXo        ",
"       oooooooooooooooo         ",
"       ;==============o         ",
"       ;ooooooooooooooo         ",
"                 X=o            ",
"                 .Xo            ",
"                ....X           ",
"                .XXXo           ",
"                .XXXo           ",
"                Xoooo           ",
"                .XoXo           ",
"  . ............XXoXX... .      ",
"  XXXXXXXXXXXXXXXo oXXXXXX      ",
"  o ooooooooooooo   oooo o      "};
