/* XPM */
static char * magic_xpm[] = {
"48 48 4 1",
" 	s None	c None",
".	c black",
"X	c white",
"o	c red",
"                                                ",
"                                                ",
"                                                ",
"                                                ",
"                                                ",
"                                                ",
"                                                ",
"                                                ",
"                                                ",
"                                                ",
"                                                ",
"                                                ",
"                                                ",
"                                        ..X     ",
"                                     .....X     ",
"                                  .....X        ",
"              X      X          ....XX  X       ",
"               o    o        .....X             ",
"                o  o      .....XX               ",
"                o o    .....XX                  ",
"                ooo .....XX                     ",
"            Xoooooo...XX                        ",
"                  oo                            ",
"                 o  oo                          ",
"            XXXXXoXXXXXXXXXXXXXX X              ",
"          XX.....................               ",
"          X.......................              ",
"         X..XXXX.............   X..             ",
"         XXX    X..X........     XX             ",
"                X..X........                    ",
"                X..X........                    ",
"                X..X........                    ",
"                X..X........                    ",
"                X..X........                    ",
"                X...........                    ",
"               X.............                   ",
"              X..XXXXXXXXXXX..                  ",
"               XX          XXX                  ",
"                                                ",
"                                                ",
"                                                ",
"                                                ",
"                                                ",
"                                                ",
"                                                ",
"                                                ",
"                                                ",
"                                                "};
