/* XPM */
static char *mail[] = {
/* width height ncolors chars_per_pixel */
"32 32 8 1",
/* colors */
"` c black",
"a c grey",
"b c dark slate grey",
"c c magenta",
"d c red",
"e c white",
"f c slate grey",
"g c blue",
/* pixels */
"eeeeeeeeeeeeeeeeeeeeeeeeeeeeeeee",
"eeeeeeeeeeeeeeeeeeeeeeeeeeeeeeee",
"eeeeeeeeeeeeeeeeeeeeeeeeeeeeeeee",
"eeeeeeeeeeeeeeeeeeeeeeeeeeeeeeee",
"eeeeeeeeeeeeeeeeeeeeeeeeeeeeeeee",
"eeeeeeeeeeeeeeeeeeeeeeeeeeeeeeee",
"eeeeeeeeeeeeeeeeeeeeeeeeeeeeeeae",
"eeaaaaaaaaaaaaaaaaaaaaaaaaaaaafe",
"eea`b``f`aaaaaaaaaaaaaaadddddafe",
"eeaaaaaaaaaaaaaaaaaaaaaadee``afe",
"eea``b```aaaaaaaaaaaaaaa`c`egafe",
"eeaaaaaaaaaaaaaaaaaaaaaa`fge`afe",
"eeaaaaaaaaaaaaaaaaaaaaaagec`gafe",
"eeaaaaaaaaaaaaaaaaaaaaaagggggafe",
"eeaaaaaaaaaaaaaaaaaaaaaaaaaaaafe",
"eeaaaaaaaaaaaaaaaaaaaaaaaaaaaafe",
"eeaaaaaaaaaa`ba``b`ab`aaaaaaaafe",
"eeaaaaaaaaaaaaaaaaaaaaaaaaaaaafe",
"eeaaaaaaaaaa`fb``f`a`baaaaaaaafe",
"eeaaaaaaaaaaaaaaaaaaaaaaaaaaaafe",
"eeaaaaaaaaaa```bb`a`f`aaaaaaaafe",
"eeaaaaaaaaaaaaaaaaaaaaaaaaaaaafe",
"eeaaaaaaaaaaaaaaaaaaaaaaaaaaaafe",
"eafffffffffffffffffffffffffffffe",
"eeeeeeeeeeeeeeeeeeeeeeeeeeeeeeee",
"eeeeeeeeeeeeeeeeeeeeeeeeeeeeeeee",
"eeeeeeeeeeeeeeeeeeeeeeeeeeeeeeee",
"eeeeeeeeeeeeeeeeeeeeeeeeeeeeeeee",
"eeeeeeeeeeeeeeeeeeeeeeeeeeeeeeee",
"eeeeeeeeeeeeeeeeeeeeeeeeeeeeeeee",
"eeeeeeeeeeeeeeeeeeeeeeeeeeeeeeee",
"eeeeeeeeeeeeeeeeeeeeeeeeeeeeeeee"
};
