/* XPM */
static char *noname[] = {
/* width height ncolors chars_per_pixel */
"32 32 32 2",
/* colors */
"`` c #000000",
"`a c #000098",
"`b c #FF6666",
"`c c #999999",
"`d c #220000",
"`e c #CBCBFF",
"`f c #0033FE",
"`g c #6666FF",
"`h c #FF9A9A",
"`i c #440000",
"`j c #777777",
"`k c #00FE32",
"`l c #9AFFFF",
"`m c #770000",
"`n c #0000EF",
"`o c #659898",
"`p c #000077",
"`q c #3333FF",
"`r c #FEFE00",
"`s c #0000FE",
"`t c #980000",
"`u c #FFCBCB",
"`v c #000044",
"`w c #BA0000",
"`x c #FFFFFF",
"`y c #FF3333",
"`z c #444444",
"a` c #9A9AFF",
"aa c #DC0000",
"ab c #222222",
"ac c #FE0000",
"ad c #BBBBBB",
/* pixels */
"`x`xadadadadadadad`j`x`x`x`x`x`x`xadadadadadadad`j`x`x`x`x`x`x`x",
"`x`xad`o`o`o`o`o`cab`x`x`x`x`x`x`xad`o`o`o`o`o`cab`x`x`x`x`x`x`x",
"`x`xad`o`l`l`l`l`cab`x`x`x`x`x`x`xad`o`l`l`l`l`cab`x`x`x`x`x`x`x",
"`x`xad`o`l`l`l`l`cab`x`x`x`x`x`x`xad`o`l`l`l`l`cab`x`x`x`x`x`x`x",
"`x`xad`c`c`c`c`c`cab`x`x`x`x`x`x`xad`c`c`c`c`c`cab`x`x`x`x`x`x`x",
"adadadadadadadadadadad`j`x`x`xadadadadadadadadadadad`j`x`x`x`x`x",
"ad`k`c`c`c`c`c`c`c`c`cab`r`r`rad`k`c`c`c`c`c`c`c`c`cab`r`r`r`r`x",
"adac`c`c`c`c`c`c`c`c`cab`x`x`xadac`c`c`c`c`c`c`c`c`cab`x`x`x`r`x",
"`j`z`z`zababababababab```x`x`x`j`z`z`zababababababab```x`x`x`r`x",
"`x`x`x`x`x`x`x`x`x`x`x`x`x`x`x`x`x`x`x`x`x`x`x`x`x`x`x`x`x`x`r`x",
"`x`x`x`x`x`x`x`x`x`e`e`ea``g`q`f`s`n`a`p`x`x`x`x`x`x`x`x`x`x`r`x",
"`x`x`x`x`x`x`x`x`x`e`e`v`g`v`f`v`n`v`p`v`x`x`x`x`x`x`x`x`x`x`r`x",
"`x`x`x`x`x`x`x`x`x`e`e`v`g`v`f`v`n`v`p`v`x`x`x`x`x`x`x`x`x`x`r`x",
"`x`x`x`x`x`x`x`x`x`e`e`v`g`v`f`v`n`v`p`v`x`x`x`x`x`x`x`x`x`x`r`x",
"`x`x`x`x`x`x`x`x`x`e`e`v`g`v`f`v`n`v`p`v`x`x`x`x`x`x`x`x`x`x`r`x",
"`x`x`x`x`x`x`x`x`x`e`e`v`g`v`f`v`n`v`p`v`x`x`x`x`x`x`x`x`x`x`r`x",
"`x`x`x`x`x`x`x`x`x`e`e`v`g`v`f`v`n`v`p`v`x`x`x`x`x`x`x`x`x`x`r`x",
"`x`x`x`x`x`x`x`x`x`e`e`v`g`v`f`v`n`v`p`v`x`x`x`x`x`x`x`x`x``````",
"`x`x`x`x`x`x`u`u`u`u`u`u`u`u`u`h`h`h`h`b`bac`i`r`r`r`r`r`r``````",
"`x`x`x`x`x`x`u`h`b`y`yacacacacaa`w`w`w`t`m`i`d`x`x`x`x`x`x``````",
"`x`x`x`x`x`x`h`h`b`y`yacacacacaa`w`w`w`t`m`i`d`x`x`x`x`x`x`x`r`x",
"`x`x`x`x`x`x`m`i`i`i`i`d`d`d`d`d`d`d`d`d`d`d`d`x`x`x`x`x`x`x`r`x",
"`x`x`x`x`x`x`x`x`x`x`x`x`x`x`x`x`x`x`x`x`x`x`x`x`x`x`x`x`x`x`r`x",
"adadadadadad`j`x`x`x`xadadadadadad`j`x`x`x`xadadadadadad`j`x`r`x",
"ad`o`o`o`o`oab`x`x`x`xad`o`o`o`o`oab`x`x`x`xad`o`o`o`o`oab`x`r`x",
"ad`o`l`l`l`cab`x`x`x`xad`o`l`l`l`cab`x`x`x`xad`o`l`l`l`cab`x`r`x",
"ad`o`l`l`l`cab`x`x`x`xad`o`l`l`l`cab`x`x`x`xad`o`l`l`l`cab`r`r`x",
"ad`c`c`c`c`cab`r`r`r`rad`c`c`c`c`cab`r`r`r`rad`c`c`c`c`cab`x`x`x",
"ad`k`c`c`c`cab`x`x`x`xad`k`c`c`c`cab`x`x`x`xad`k`c`c`c`cab`x`x`x",
"adac`z`z`z`zab`x`x`x`xadac`z`z`z`zab`x`x`x`xadac`z`z`z`zab`x`x`x",
"`c`j`j`j`j`jab`x`x`x`x`c`j`j`j`j`jab`x`x`x`x`c`j`j`j`j`jab`x`x`x",
"`jababababab```x`x`x`x`jababababab```x`x`x`x`jababababab```x`x`x"
};
