/* XPM */
static char * maze_colors[] = {
"29 31 4 1",
"  c #000000",
". c #AAAAAA",
"X c #555555",
"o c #FFFFFF",
"..                           ",
".. oooooooooo oooooooooooooo ",
"XX oooooooooo oooooooooooooo ",
"XX oooooooooo oooooooooooooo ",
"XX ooo    ooo ooo            ",
"XX oooooo ooo ooo oooooooooo ",
"XX oooooo ooo ooo oooooooooo ",
"XX oooooo ooo ooo oooooooooo ",
"XX ooo        ooo ooo        ",
"XX oooooooooo ooo oooooooooo ",
"XX oooooooooo ooo oooooooooo ",
"XX oooooooooo ooo oooooooooo ",
"XX ooo     oooooo       oooo ",
"XX ooo ooo ooooooooooooooooo ",
"XX ooo ooo ooooooooooooooooo ",
"XX ooo ooo ooooooooooooooooo ",
"XX ooo ooo ooo       ooo     ",
"XX ooo ooo ooooooooo ooo ooo ",
"XX ooo ooo ooooooooo ooo ooo ",
"XX ooo ooo ooooooooo ooo ooo ",
"XX ooo ooo       ooo ooo ooo ",
"XX ooo ooo ooooooooo ooo ooo ",
"XX ooo ooo ooooooooo ooo ooo ",
"XX ooo ooo ooooooooo ooo ooo ",
"XX ooo ooo ooo       ooo ooo ",
"XX ooo ooooooooooooooooooooo ",
"XX ooo ooooooooooooooooooooo ",
"XX ooo ooooooooooooooooooooo ",
"XX                           ",
"XXXXXXXXXXXXXXXXXXXXXXXXXXX..",
"XXXXXXXXXXXXXXXXXXXXXXXXXXX.."
} ;
