/* XPM */
static char * icl8_27515_xpm[] = {
/* width height ncolors chars_per_pixel */
"32 32 8 1",
/* colors */
" 	s None	c None",
".	c #CB00FE",
"X	c black",
"o	c #EF0000",
"O	c #FE9800",
"+	c #FEFE00",
"@	c #986500",
"#	c #0000EF",
/* pixels */
"  ............................  ",
" ....................XXX....... ",
"...................XXXXXX.......",
".................XXXXXXXX.......",
"................XXXXXXXXX.......",
"...............XXXXXXXXXX.......",
"XXXXXXXXXXXXXXXXXXXXXXXXXXXXXXXX",
"oooooooooooooXXXXooXXXXXoooooooo",
"ooooooooooooXXXXoooXXXXooooooooo",
"oooooooooooXXXXoooXXXXXooooooooo",
"oooooooooooXXXXooXXXXXoooooooooo",
"ooooooooooXXXXXXXXXXXooooooooooo",
"ooooooooooXXXXXXXXXXoooooooooooo",
"XXXXXXXXXXXXXXXXXXXXXXXXXXXXXXXX",
"OOOOOOOOOXXXXXXXXOOOOOOOOOOOOOOO",
"OOOOOOOOOXXXXXXOOOOOOOOOOOOOOOOO",
"OOOOOOOOOOXXXOOOOOOOOOOOOOOOOOOO",
"OOOOOOOOOOOOOOOOOOOOOOOOOOOOOOOO",
"OOOOOOOOOOOOOOOOOOOOOOOOOOOOOOOO",
"OOOOOOOOOOOOOOOOOOOOOOOOOOOOOOOO",
"XXXXXXXXXXXXXXXXXXXXXXXXXXXXXXXX",
"X+XXX+X+XXXXXXXXXXX+XX+XXXXXX+XX",
"X++X++XXXXXXXXXXXXX++X+XXXXX+++X",
"X+X+X+X+X++X++X@+@X+X++X+++XX+XX",
"X+XXX+X+X+XX+XX+X+X+XX+X+@XXX+XX",
"X+XXX+X+X++X+XX@+@X+XX+X@++XX+XX",
"XXXXXXXXXXXXXXXXXXXXXXXXXXXXXXXX",
"################################",
"################################",
"################################",
" ############################## ",
"  ############################  "};
