/* XPM */
static char * icl8_27700_xpm[] = {
/* width height ncolors chars_per_pixel */
"32 32 13 1",
/* colors */
" 	s None	c None",
".	c #FF9A9A",
"X	c #FF3333",
"o	c #BA0000",
"O	c #770000",
"+	c #FF6666",
"@	c #FE0000",
"#	c black",
"$	c #EEEEEE",
"%	c #888888",
"&	c #AAAAAA",
"*	c #BBBBBB",
"=	c #DDDDDD",
/* pixels */
"                    ..XoO       ",
"                ..+X@@@@oO      ",
"            ..+X@@@@@@@ooO      ",
"        ..+X@@@@@@@@@oOO        ",
"     ..+@@@@@@@oOO@@oO          ",
"   .+@@@@@@@oOOO  X@oO          ",
"   o@@@oO@@oO     .@oO          ",
"    O@oO .@oO     .@oO          ",
"                                ",
"#####   ########################",
"#$$$$# #$$$$#%&*=##%&*=##%&*=$$#",
"#$$$$# #$$$$#%&*=$$#%&*=$#%&*=$#",
"#$$$$$#$$$$$#%##=$$####=$#######",
"#$$#$$#$$#$$##  #$$$#  #$$#     ",
"#$$#$$$$$#$$#    #$$#  #$$######",
"#$$##$$$##$$#    #$$###=$#%&*=$#",
"#$$##$$$##$$#    #$$#%&*=#%&*=$#",
"#$$# #$# #$$#    #$$#%&*#%######",
"#$$# #$# #$$##  #$$$##&*=##     ",
"#$$#  #  #$$#%##=$$## #=$$######",
"#$$#  #  #$$#%&*=$$##  #$$#%&*=#",
"#$$#     #$$#%&*=##%#  #$$#%&*=#",
"####     ############  #########",
"                                ",
"        .@oO      .@oO          ",
"        .@oO      .@@@@@ooOO    ",
"        .@oO  ..++@@@ooOOO      ",
"       .@@@@X.@@@@ooOOO         ",
"    ..X@@@@@@@ooOOOO            ",
"   .@@@@@@ooOOOO                ",
"   X@@ooOOOO                    ",
"    OOOO                        "};
