/* XPM */
static char *moric163[] = {
/* width height ncolors chars_per_pixel */
"32 32 16 1",
/* colors */
"  c #000000000000",
"! c #c00000000000",
"# c #0000c0000000",
"$ c #c000c0000000",
"% c #00000000c000",
"& c #c0000000c000",
"' c #0000c000c000",
"( c #c000c000c000",
") c #800080008000",
"* c #ff0000000000",
"+ c #0000ff000000",
", c #ff00ff000000",
"- c #00000000ff00",
". c #ff000000ff00",
"/ c #0000ff00ff00",
"0 c #ff00ff00ff00",
/* pixels */
"                                ",
"                                ",
"  ((((((((((((((((((((((((((((  ",
" (----- (----- (--- ------)(((( ",
" ((--- (((--- (((- ((-------((( ",
" ((--- (((--- (((-)(--- ((---(( ",
" ((--- ((---- ((- ((--- (((--)( ",
" ((--- ((---- ((- ((---)(((-- ( ",
" ((--- ((---- ((-)(--- ((((-- ( ",
" ((--- (- --- (- ((--- ((((-- ( ",
" ((--- (- --- (- ((---)((()-- ( ",
" ((--- (-)--- (-)(--- (((()-- ( ",
" ((--- - (--- - ((--- ((((--- ( ",
" ((--- - (--- - ((---)((()---)( ",
" ((---%-)(---%-)(--- ((((--- (( ",
" ((---- ((---- ((--- (((---- (( ",
" ((---- ((---- ((---)(----- ((( ",
" ((--- )((--- )(---------  (((( ",
" ((    (((    ((--- (    (((((( ",
" (((((((((((((((---)((((((((((( ",
" ((((((((((((((--- ((((((()  (( ",
" (((((      (((--- (((((((()  ( ",
" (((  )(((((  ----)(((((((((  ( ",
" ((  (((((((((--- ((((((((((  ( ",
" (  (((((((((----   (((((((   ( ",
" (  (((((((((    (((  ((((   (( ",
" (  (((((((( 000 (((((     )((( ",
" (  ((((((( 00  ((((((((((((((( ",
" ((  ((((( 0  ((((((((((((((((( ",
" (((  )((   ((((((((((((((((((( ",
" (((((    ((((((((((((((((((((( ",
"  ((((((((((((((((((((((((((((  "
} ;
