/* XPM */
static char * icl8_28781_xpm[] = {
/* width height ncolors chars_per_pixel */
"32 32 25 1",
/* colors */
" 	s None	c None",
".	c #222222",
"X	c #FE0000",
"o	c #FF9A9A",
"O	c #FF6666",
"+	c #440000",
"@	c #EF0000",
"#	c #890000",
"$	c #FE6500",
"%	c #333300",
"&	c #666600",
"*	c #FFCC9A",
"=	c #FF3333",
"-	c #BA0000",
";	c #AB0000",
":	c #AAAAAA",
"?	c #555555",
">	c #777777",
",	c #444444",
"<	c #111111",
"1	c #DDDDDD",
"2	c #888888",
"3	c #006666",
"4	c #BBBBBB",
"5	c #FECB00",
/* pixels */
"                                ",
"                                ",
"             .X                 ",
"             . XX       .X      ",
"             .          . XX    ",
"             o          .       ",
"            oO+         .       ",
"           oO@#+       $$%      ",
"          oO@@@#+      $&%      ",
"         *O@@@@@#@     $&%      ",
"         o=@@@@@#+     $&%      ",
"         o=@@@@@#+    $&&&%     ",
"         o=@@@@@#+    $&&&%     ",
"         O=@@@@##+    $&&&%     ",
"         *-;####+o    $&&&%     ",
"          :?:>,<1111111111111111",
"      1111121:>,1111111111111111",
"  11111111121:>,1..>1..>1..>1..>",
"1111111111121:>,1.341.341.341.34",
"1111111111121:>,1.341.341.341.34",
"1111+++111121:>,1.341.341.341.34",
"111+###+11121:>,1.341.341.341.34",
"11+##@@#O1121:>,1.341.341.341.34",
"11+#5@5@O1121:>,1.341.341.341.34",
"11+#@@@@O1121:>,1>441>441>441>44",
"11+#@@@@O1121:>,1111111111111111",
"11+#5@5@O1121:>,1111111111111111",
"11+#@@@@O1121:>,1111111111111111",
"11+#@@@@O1121:>,1111111111111111",
"11+#5@5@O1121:>,1111111111111111",
"11+#@@@@O1121:>,1111111111111111",
"11+#####@1121:>,1111111111111111"};
