/* XPM */
static char * icl8_8884_xpm[] = {
/* width height ncolors chars_per_pixel */
"32 32 11 1",
/* colors */
" 	s None	c None",
".	c black",
"X	c wheat",
"o	c #FFCC9A",
"O	c tan",
"+	c #0000EF",
"@	c #00CBFE",
"#	c #EF0000",
"$	c #FFCBFE",
"%	c #00AB00",
"&	c #00EF00",
/* pixels */
" ...................            ",
" .XXXXXXXXXXXXXXXXX..ooo o      ",
" .XXXXXXXXXXXXXXXXX.O.          ",
" .XXXXXXXXXXXXXXXXX.OO.         ",
" .XXXXXXXXXXXXXXXXX.OOO.o o o   ",
" .XXXX+++++++++XXXX.OOOO.       ",
" .XXXX+@@@@@@@+XXXX.......      ",
" .XXXX+@@@@@@@+XXXXXOOOOO.ooo o ",
" .XXXX+@@@@@@@+XXXXXOOOOO.      ",
" .XXXX+@@@@@@@+XXXXXXXXXX.      ",
" .XXXX+@@@@@@@+XXXXXXXXXX.oo o  ",
" .XXXX+@@@@@@@#####XXXXXX.      ",
" .XXXX+@@@@@@#$$$$$#XXXXX.      ",
" .XXXX++++++#$$$$$$$#XXXX.ooo o ",
" .XXXXXXXXX#$$$$$$$$$#XXX.      ",
" .XXXXXXXXX#$$$$$$$$$#XXX.      ",
" .XXXXXXXXX#$$$$$$$$$#XXX.ooo o ",
" .XXXXXXXXX#$$$$$$$$$#XXX.      ",
" .XXXXXXXXXX#$$$$$$$#XXXX.      ",
" .XXXXXXXXXXX#$$$$$#XXXXX.oo    ",
" .XXXXXXXXXXXX#####XXXXXX.      ",
" .XXXXXXXXXXXXXXXXXXXXXXX.      ",
" .XXXXXXXX%XXXXXXXXXXXXXX.ooo o ",
" .XXXXXXX%&%XXXXXXXXXXXXX.      ",
" .XXXXXX%&&&%XXXXXXXXXXXX.      ",
" .XXXXX%&&&&&%XXXXXXXXXXX.oo o  ",
" .XXXX%&&&&&&&%XXXXXXXXXX.      ",
" .XXX%%%%%%%%%%%XXXXXXXXX.      ",
" .XXXXXXXXXXXXXXXXXXXXXXX.ooo o ",
" .XXXXXXXXXXXXXXXXXXXXXXX.      ",
" .XXXXXXXXXXXXXXXXXXXXXXX.      ",
" .........................o o o "};
