/* XPM */
static char *multi[] = {
/* width height ncolors chars_per_pixel */
"32 32 16 1",
/* colors */
"  c #000000000000",
"! c #000000000000",
"# c #000000000000",
"$ c #000000000000",
"% c #000000000000",
"& c #000000000000",
"' c #000000000000",
"( c #000000000000",
") c #000000000000",
"* c #000000000000",
"+ c #000000000000",
", c #000000000000",
"- c #000000000000",
". c #000000000000",
"/ c #000000000000",
"0 c #ff00ff00ff00",
/* pixels */
"                                ",
"                         0000000",
" 00000000000000000000000 0000000",
" 00000000000000000000000 0000000",
" 00                          000",
" 00 000000000000000000000000 000",
" 00 000000000000000000000000 000",
" 00 00          000000000000 000",
" 00 000000000000         000 000",
" 00 000000000000000000000000 000",
" 00 00         0000000000000 000",
" 00 00000000000          000 000",
" 00 000000000000000000000000 000",
" 00 000000000000000000000000 000",
" 00 00          000000000000 000",
" 00 000000000000         000 000",
" 00 000000000000000000000000 000",
" 00 000000000000000000000000 000",
" 00 00          000000000000 000",
" 00 000000000000         000 000",
" 00 000000000000000000000000 000",
" 00 00          000000000000 000",
" 00 000000000000         000 000",
" 00 000000000000000000000000 000",
" 00 0          0000000000000 000",
"    00000000000          000 000",
"000 000000000000000000000000 000",
"000                          000",
"00000000000000000000000000000000",
"000000000 000 000 000 0000000000",
"000000000  0  000  0  0000000000",
"000000000 0 0 000 0 0 0000000000"
} ;
