/* XPM */
static char * icl8_20228_xpm[] = {
/* width height ncolors chars_per_pixel */
"32 32 11 1",
/* colors */
" 	s None	c None",
".	c black",
"X	c wheat",
"o	c #777777",
"O	c #333333",
"+	c tan",
"@	c #66CCCC",
"#	c #989878786767",
"$	c white",
"%	c #BBBBBB",
"&	c #659898",
/* pixels */
"  .........................     ",
"  .XXXXXXXXXXXXXXXXXXXXXXX.     ",
"  .XXXXXXXXXXXXXXXXXXXXXXX.oo   ",
"  .XXO....O+X@@@@@@@@@@@XX.oo   ",
"  .XXX..XX#.+XXXXXXXXXX@XX.oo   ",
"  .XXX..XXX.OXXXXXXXXXX@XX.oo   ",
"  .XXX..XXX..XXXXXXXXXX@XX.oo   ",
"  .XXX..XXX.OXXXXXXXXXX@XX.oo   ",
"  .XXX..XX#.+XXXXXXXXXX@XX.oo   ",
"  .XXX....O+XXXXXXXXXXX@XX.oo   ",
"  .XXX..XXXXXXXXXXXXXXX@XX.oo   ",
"  .XXX..XXXXXXXXXXXXXXX@XX.oo   ",
"  .XXX..XXXXXXXXXXXXXXX@XX.oo   ",
"  .XXX..XXXXXXXXXXXXXXX@XX.oo   ",
"  .XXO..OXXXXXXXXXXXXXX@XX.oo   ",
"  .XXXXXXXXXXXXXXXXXXXX@XX.oo   ",
"  .XX@XXXXXXXXX.............o   ",
"  .XX@XXXXXXXXX.............oo  ",
"  .XX@XXXXXXXXX..$$$...O$O..oo  ",
"  .XX@XXXXXXXXX....$...%O%..oo  ",
"  .XX@XXXXXXXXX...oo...$.$..oo  ",
"  .XX@XXXXXXXXX...$....$.$..oo  ",
"  .XX@XXXXXXXXX...O%...$.$..oo  ",
"  .XX@XXXXXXXXX....$...$.$..oo  ",
"  .......XXXXXX..$.%...%O%..oo  ",
"  .+++++.##XXXX..O$O.$.O$O..oo  ",
"   .++++.##XXXX.............oo  ",
"    .+++.&&@@@@.............oo  ",
"     .++.##XXXXXoooooooooo.ooo  ",
"      .+.##XXXXXXXXXXXXXXX.oo   ",
"       ....................oo   ",
"        ooooooooooooooooooooo   "};
