/* XPM */
static char * icl8_11722_xpm[] = {
/* width height ncolors chars_per_pixel */
"32 32 11 1",
/* colors */
" 	s None	c None",
".	c black",
"X	c wheat",
"o	c #BBBBBB",
"O	c #333333",
"+	c #777777",
"@	c #DDDDDD",
"#	c #AAAAAA",
"$	c tan",
"%	c #002200",
"&	c #004400",
/* pixels */
"               .                ",
"              .X.               ",
"             .XXX.              ",
"            .XXXXX.             ",
"           .XXX.XXX.            ",
"          .XXX.XX.XX.           ",
"         .XXX.XX.XXXX.          ",
"        .XXXXXX.XX.XXX.         ",
"       .XXooXXXXX.XX.XX.        ",
"      .XX...OXXX.XX.XXXX.       ",
"     .XX.oX..OXXXX.XX.XXX.      ",
"    .XX.XXXX..oXX.XX.XX.XX.     ",
"   .XX...XXXo.oX.XX.XX.XXXX.    ",
"  .XX.X...XXX.oXXX.XX.XX.XXX.   ",
"   .XXXX...XO+XXX.XX.XX.X.XXX.  ",
"    .XXXX...+XXX.XX.XX.XXX.XXX. ",
"......XXXX...XXXXX.XX.XXXXX.XXX.",
".@@@@#.XXXX...XXXXXX.XXXXX.XXX..",
".@...@#.XXXX...X.XXXX.XXX.XXX.#.",
".@@@O@@#.XXXX...XX.XXX.X.XXX.##.",
".@@.@@@@..XXXX.XX.XX.XX.XXX...@.",
".@@@.@@@.#.XX.XX.XX.XXXXXX.##@@.",
".@.@.@@@.@..XXX.XX.XX.XXX.....@.",
".@+.+@.@+.+#.XXXX.XX.XXX.##@@@@.",
".@@@@@@@@@@@#.XX.XX.XXX.##@@@@@.",
"...............$$$.$$$..........",
" .######....................##. ",
" .@@...@....................@@. ",
" .@@@@@@@%&&&&&&&&&&&&&&&&%@@@. ",
" .@@@@@@@%%%%%%%%%%%%%%%%%%@@@. ",
" .@@@@@@@@@@@@@@@@@@@@@@@@@@@@. ",
" .............................. "};
