/* XPM */
static char *paint[] = {
/* width height ncolors chars_per_pixel */
"32 32 17 1",
/* colors */
"` c black",
"a c tan",
"b c green",
"c c wheat",
"d c dodger blue",
"e c grey",
"f c sienna",
"g c dark slate grey",
"h c magenta",
"i c red",
"j c navy blue",
"k c orange",
"l c white",
"m c yellow",
"n c orange",
"o c sea green",
"p c blue",
/* pixels */
"``````````````````````llllllllll",
"`cccccccccccccccccccc`glllllllll",
"`ccccciccmmmcccmmcccc`glllllllll",
"`cciiiiccmmmmmmmmcccc`glllllllll",
"`ciiiiicmmmmmmmmbbbcc`glllllllll",
"`cciiiinnnnmmmmmbbbcc`glllllllll",
"`chiiinnn````nmbbbbbc`glllllllll",
"`chhhhn```````dbdbbbc`glllllllll",
"`cchhh````e`e``ddbbbc`glllllllll",
"`cchh````````e`dddddc`glllllllll",
"`chhhhhh```````dddccc`glllllllll",
"`ccchhhhp```````ddccc`glllllllll",
"`ccchhpppp`````a`ddcc`glllllllll",
"`ccdppppppddd`ffa`ccc`glllllllll",
"`cddpp`````ddd`ffa`cc`glllllllll",
"`ccdd```````ddd`ffa`c`glllllllll",
"`ccd`````````bbb`ffa`ckf``llllll",
"`ccbboooo```ooboo`ff`ckfckf`llll",
"`cnnnmmmooooooooo``f`ckfckfcf`ll",
"`ccnnnnmmooofooo`cc``cckcckcfkfl",
"`ccciinnnmfffff`cfc``cckcckckkfl",
"`cciiiinnnmfffff`fcc`cccccccckfl",
"`ccciiiccnmccffgg`fcccccccccckfl",
"`cccccccccccccgggg`kccccccccckfl",
"````````````````````ccccccccckfl",
"lggggggggggggggggggg`ccccccckkfl",
"lllllllllllllllgggggg`cccccckkfl",
"llllllllllllllgggggggg`cccckkkfl",
"lllllllllllllllggggggg`kkkkkkk`l",
"llllllllllllllllgggggjjjpjjjjj``",
"lllllllllllllllllggggjjjpjjjjj``",
"llllllllllllllllllgggjjjpjjjjj``"
};
