/* XPM */
static char * icl8_8812_xpm[] = {
/* width height ncolors chars_per_pixel */
"32 32 9 1",
/* colors */
" 	c #DDDDDD",
".	c #888888",
"X	c #111111",
"o	c #555555",
"O	c #222222",
"+	c tan",
"@	c wheat",
"#	c #EF0000",
"$	c #659898",
/* pixels */
"                               .",
" ..............................X",
" ..............................X",
" ..                         o..X",
" .. .......................oO..X",
" .. .......................OO..X",
" .. ..OOOOOOOOOOOOOOOOOO...OO..X",
" .. ..O+++++++++++++++++ ..OO..X",
" .. ..O+@@@@@@@#####@@@@ ..OO..X",
" .. ..O+@@@@@##@@@@@##@@ ..OO..X",
" .. ..O+@@@@#@@@@$$$$$#@ ..OO..X",
" .. ..O+@@@#@@@$##@@@@#$ ..OO..X",
" .. ..O+@@@#@@$#@@@@@@#@ ..OO..X",
" .. ..O+@@@@#$@#@@$$@@#@ ..OO..X",
" .. ..O+@@@@@$#@@$@@@#@@ ..OO..X",
" .. ..O+@@@@@@##@$@@#@@@ ..OO..X",
" .. ..O+@@##@#@@####@@@$ ..OO..X",
" .. ..O+@#@@@#@@$$@@@@$@ ..OO..X",
" .. ..O+@#@@#$@$@@$$$$@@ ..OO..X",
" .. ..O+#@@$#@@$@@@@@@@@ ..OO..X",
" .. ..O+#@@#@@$@@@@@@@@@ ..OO..X",
" .. ..O+#@$#@@$@@@@@@@@@ ..OO..X",
" .. ..O+@##@@$@@@@@@@@@@ ..OO..X",
" .. ..O+@@$@@$@@@@@@@@@@ ..OO..X",
" .. ...                  ..OO..X",
" .. .......................OO..X",
" .. .......................OO..X",
" .. oOOOOOOOOOOOOOOOOOOOOOOOO..X",
" ..oOOOOOOOOOOOOOOOOOOOOOOOOO..X",
" ..............................X",
" ..............................X",
".XXXXXXXXXXXXXXXXXXXXXXXXXXXXXXX"};
