/* XPM */
static char *noname[] = {
/* width height ncolors chars_per_pixel */
"32 32 7 1",
/* colors */
"` c #000000",
"a c #777777",
"b c #333333",
"c c #00FE00",
"d c #FFFFFF",
"e c #DDDDDD",
"f c #BBBBBB",
/* pixels */
"dddddddfffffffffffffffffffdddddd",
"ddddddfaaaaaaaaaaaaaaaaaaabddddd",
"ddddddfabbbbbbbbbbbbbbbbfabddddd",
"ddddddfabeeeeeeeeeeeeeeefabddddd",
"ddddddfabee``e``e``e``eefabddddd",
"ddddddfabee``e``e``e``eefabddddd",
"ddddddfabee``e``e``e``eefabddddd",
"ddddddfabeeaaeaaeaaeaaeefabddddd",
"ddddddfabeeaaeaaeaaeaaeefabddddd",
"ddddddfabeefaefaefaefaeefabddddd",
"ddddddfabeefaefaefaefaeefabddddd",
"ddddddfabeeeaefaefaefaeefabddddd",
"ddddddfabeeeeefaefaefaeefabddddd",
"ddddddfabeeeeeeaefaefaeefabddddd",
"ddddddfabeeeeeeeefaefaeefabddddd",
"ddddddfabeeeeeeeeeaefaeefabddddd",
"ddddddfabeeeeeeeeeeefaeefabddddd",
"ddddddfabeeeeeeeeeeeeaeefabddddd",
"ddddddfabeeeeeeeeeeeeeeefabddddd",
"ddddddfafffffffffffffffffabddddd",
"ddddddfaaaaaaaaaaaaaaaaaaabddddd",
"dddddddbbbbbbbbbbbbbbbbbbbdddddd",
"dddfffffffffffffffffffffffffffdd",
"ddfaaaaaaaaaaaaaaaaaaaaaaaaaaabd",
"ddfacaaaaaaaaa```````a``````aabd",
"ddfaaaaaaaaaaaaaaaaaaaaaaaaaaabd",
"ddfbbbbbbbbbbbbbbbbbbbbbbbbbbbbd",
"ddfaaa`a`a`a`a`a`a`a`a`aa`a`aabd",
"dfaaa`a`a`a`a`a`a`a`a`aa`a`a`aab",
"faaaaaaaaaaaaaaaaaaaaaaaaaaaaaab",
"fbbbbbbbbbbbbbbbbbbbbbbbbbbbbbbb",
"fbbbbbbbbbbbbbbbbbbbbbbbbbbbbbbb"
};
