/* XPM */
static char * icl8_21214_xpm[] = {
/* width height ncolors chars_per_pixel */
"32 32 18 1",
/* colors */
" 	s None	c None",
".	c black",
"X	c wheat",
"o	c #66CCCC",
"O	c tan",
"+	c #777777",
"@	c #333333",
"#	c #FFCC9A",
"$	c #FF9966",
"%	c #FECB00",
"&	c #FE9800",
"*	c #000055",
"=	c #000089",
"-	c #0000BA",
";	c #000077",
":	c #000044",
"?	c #000022",
">	c #000011",
/* pixels */
"             ..                 ",
"            .XX.                ",
"   oooooooo.XXXX.oooooooooooo   ",
"   ooooooo.XXXXXX.ooooooooooo   ",
"   oooooo.XXXX.XXX.oooooooooo   ",
"   ooooo.XXXX.XXXXX.ooooooooo   ",
"   oooo.XXXX.XX.XXXX.oooooooo   ",
"   ooo.XXXX.XX.XX.XXX.ooooooo   ",
"   oo.XXO+XXX.XX.XXXXX.oooooo   ",
"   o.XX@..@XXXX.XX.XXXX.ooooo   ",
"   .XX@+X@.@XX.XX.XX.XXX.oooo   ",
"  .XX.OXXX@.OXXX.XX.XXXXX.ooo   ",
" .XX...XXXX@+XX.XX.XX.XXXX.oo   ",
".XX@O...XXX@OX.XX.XX.XX.XXX.o   ",
".XXXXX...X+@XXXX.XX.XX.X.XXX.   ",
"..XXXXX....XXXX.XX.XX.XXX.XXX.  ",
" ..XXXXX...XXXXXX.OO+OXXXX.XXX. ",
"  ..XXXXX...XXXXXO+O#O++XXX.XXX.",
"   ..XXXXX...O.X+#####OO@XXX.XX.",
"   o..XXXXX...X+###O####O@X.XX. ",
"   oo..XXXXO.X+##O@@O####O@XX.  ",
"   ooo..XXX@XX+++@..@O####O@.   ",
"   oooo..XXX$%+##%%%%%%&$##O@***",
"   ooooo..XXXX@###..OO+O####O===",
"   oooooo..XXXX@+######O+O###---",
"   ooooooo..XXXX@++OOOOOOO###===",
"   oooooooo..XXXX@@+++++++O+O;;;",
"   ooooooooo..XXXXX@@@@@@@@@+***",
"   oooooooooo..XXXXXX.ooooo@@:::",
"              ..XXXX.        ???",
"               ..XX.         >>>",
"                ...             "};
