/* XPM */
static char * icl8_837_xpm[] = {
/* width height ncolors chars_per_pixel */
"32 32 14 1",
/* colors */
" 	s None	c None",
".	c #DDDDDD",
"X	c #AAAAAA",
"o	c wheat",
"O	c #659800",
"+	c #555555",
"@	c #888888",
"#	c tan",
"$	c #CBFE00",
"%	c #CC66FF",
"&	c #336600",
"*	c #9AFFFF",
"=	c #00FEFE",
"-	c #00CDCD",
/* pixels */
"  .........................X    ",
"  .oooooooOoooooooooooooooo+    ",
"  .oooooooooooooooooooooooo+    ",
"  .oooOoOoOoOoOoOoOoOoOoOoo+    ",
"  .oooooooooo+ooooooooooooo+@@  ",
"  .oooOoooOoo+++ooooooooOoo+@@  ",
"  .oooooooo#oo+++++oooooooo+@@  ",
"  .oooOoooO###$+%%%++oooOoo+@@  ",
"  .ooooooooo####+%%%%++oooo+@@  ",
"  .oOoOoOoOoO#&#+%%%%%++ooo+@@  ",
"  .ooooooooooo###+%%%%%++oo+@@  ",
"  .oooOoooOooo####+%%%%+++o+@@  ",
"  .oooooooooooo####+%+++**++@@  ",
"  .oooOoooOooooo###+%+==+**+@@  ",
"  .oooooooooooooo###+++==+*+@@  ",
"  .oooOoooOoooooo####+-+==++@@  ",
"  .ooooooooooooooo####+-+==+@@  ",
"  .oooOoooOoooooooo####+-+=+@@  ",
"  .ooooooooooooooooo####+-++@@  ",
"  .oooOoooOoooooooooo###&+-+@@  ",
"  .ooooooooooooooooooo####++@@  ",
"  .oooOoooOoooooooooooo#&##+@@  ",
"  .ooooooooooooooooooooo###+@@  ",
"  .oooOoooOoooooooooooooO##+@@  ",
"  .ooooooooooooooooo.......+@@  ",
"  .oooOoooOooooooooo.######+@@  ",
"  .ooooooooooooooooo.#####+@@   ",
"  .oooOoOoOoOoOoOoOo.####+@@    ",
"  .ooooooooooooooooo.###+@@     ",
"  .oooooooOooooooooo.##+@@      ",
"  X++++++++++++++++++++@@       ",
"    @@@@@@@@@@@@@@@@@@@@        "};
