/* XPM */
static char * icl8_32149_xpm[] = {
/* width height ncolors chars_per_pixel */
"32 32 17 1",
/* colors */
" 	s None	c None",
".	c #DDDDDD",
"X	c #888888",
"o	c #BDBDC5C5CCCC",
"O	c white",
"+	c wheat",
"@	c #AAAAAA",
"#	c #444444",
"$	c #FF3399",
"%	c #9ACD00",
"&	c #555555",
"*	c #BBBBBB",
"=	c #CC66FF",
"-	c #9AFFFF",
";	c #00FEFE",
":	c #00CDCD",
"?	c #FE9800",
/* pixels */
"  ...................X          ",
"  .oooooooO++OOO++++@#XX        ",
"  .oooooOOO++O$$O+++@%#XX       ",
"  .ooooO&&&O+OO$$OO+@%%#XX      ",
"  .OooO&&&O+++OO$$$O@%%%#XX     ",
"  .+OoO&&&&O+++O$$$$@%%%%#XX    ",
"  .++O&&O&&&O+++O$$$@######XX   ",
"  .+++OO+O&&O++++O$$$$*%%%#XX   ",
"  .+++++++OO&O++++O$$=&O++#XX   ",
"  .+++++++++O&O++++O$==&O+#XX   ",
"  .++++++OOOOO++++++O&==&O#XX   ",
"  .O+++++O&&&OOO+++++O&==&#XX   ",
"  .&O+++++O&&&&&OO++++O&==#XX   ",
"  .$&O+++++O&===&&OO+++O&=#XX   ",
"  .$$&O+++++O&====&&O+++O&#XX   ",
"  .$$$&O++++O&=====&&O+++O#XX   ",
"  .$$$&&O++++O&=====&&O+++#XX   ",
"  .$$$&o&O++++O&====&-&O++#XX   ",
"  .$$&ooo&O++++O&=&&&--&O+#XX   ",
"  .&&ooooo&O+++O&=&;;&--&O#XX   ",
"  .O&oooooo&O+++O&&&;;&--##XX   ",
"  .+O&oooooo&O+++O&:&;;&--#XX   ",
"  .O+O&oooooo&O+++O&:&;;&-#XX   ",
"  .&O+O&&&oooo&O+++O&:&;;##XX   ",
"  .;&O+OOO&&&oo&O+++O&:&;;#XX   ",
"  .;;&O+++OOO&&?&O+++O&:&;#XX   ",
"  .;&;&O+++++OO&&&O+++O&:##XX   ",
"  .;;;;&O++++++OOO&O+++O&:#XX   ",
"  .;;;&;&O++++++++OO++++O##XX   ",
"  .;;;;;;&O++++++++++++++O#XX   ",
"  .########################XX   ",
"   XXXXXXXXXXXXXXXXXXXXXXXXXX   "};
