/* XPM */
static char *noname[] = {
/* width height ncolors chars_per_pixel */
"32 32 26 1",
/* colors */
"` c #AB0000",
"a c #220000",
"b c #FFCC9A",
"c c #440000",
"d c #EF0000",
"e c #550000",
"f c #555555",
"g c #770000",
"h c #EEEEEE",
"i c #0000EF",
"j c #FF9966",
"k c #AAAAAA",
"l c #888888",
"m c #000055",
"n c #BA0000",
"o c #FFFFFF",
"p c #444444",
"q c #000089",
"r c #DC0000",
"s c #000022",
"t c #DDDDDD",
"u c #222222",
"v c #0000BA",
"w c #890000",
"x c #BBBBBB",
"y c #CD6600",
/* pixels */
"oooooooooooooooooooooooooooooooo",
"oooooooooooooooooooooooooooooooo",
"oooooooooooooooooooooooooooooooo",
"ooooooooobbbbbbboooooooooooooooo",
"oooooooobjjjjjjjyooooooooooooooo",
"oooooobbbbbbbbbbbbbbbbbbbboooooo",
"ooooobbbbbbbbbbbbbbbbbbbbbyooooo",
"ooooobbbbdddddbbbddddddbbbyooooo",
"ooooobbbbrrbbrrbbrrbbbbbbbyooooo",
"ooooobbbbnnbbnnbbnnbbbbbbbyooooo",
"ooooobbbb``bb``bb``bbbbbbbyooooo",
"ooooobbbbwwwwwbbbwwwwbbbbbyooooo",
"ooooobbbbggbbbbbbggbbbbbbbyooooo",
"ooooobbbbeebbbbbbeebbbbbbbyooooo",
"ooooobbbbccbbbbbbccbbbbbbbyooooo",
"ooooobbbbaabbbbbbaabbbbbbbyooooo",
"ooooobbbbbbbbbbbbbbbbbbbbbyooooo",
"ooooobyyyyyyyyyyyyyyyyyyyyyooooo",
"oooooooooooxluoooooooooooooooooo",
"oooooooooootkpoooooooooooooooooo",
"ooooooooooohxfoooooooooooooooooo",
"oooooooooohhhhxooooooiooooiioooo",
"oooooooooohxxxfooooovvooovoovooo",
"oooooooooohxxxfooooooqoooqooqooo",
"ooooooooooxffffoooooomooomoomooo",
"oooooooooooxlxooooooososoossoooo",
"ooooooooootkxktooooooooooooooooo",
"hohohhhhhhxxfxxhhhhhhhhhhhhhohoh",
"xxxxxxxxxxxfofxxxxxxxxxxxxxxxxxx",
"fofofffffffoooffffffffffffffofof",
"oooooooooooooooooooooooooooooooo",
"oooooooooooooooooooooooooooooooo"
};
