/* XPM */
static char *noname[] = {
/* width height ncolors chars_per_pixel */
"32 32 11 1",
/* colors */
"` c #000000",
"a c #AB0000",
"b c #FFCC9A",
"c c #FFFECB",
"d c #EF0000",
"e c #FE6500",
"f c #FF9933",
"g c #BA0000",
"h c #FFFFFF",
"i c #DC0000",
"j c #890000",
/* pixels */
"hhh```````````````````hhhhhhhhhh",
"hhh`ccccccccccccccccc``hhhhhhhhh",
"hhh`ccccccccccccccccc`b`hhhhhhhh",
"hhh`ccccccccccccccccc`bb`hhhhhhh",
"hhh`ccccccccccccccccc`bbb`hhhhhh",
"hhh`ccccccccccccccccc`bbbb`hhhhh",
"hhh`ccccccccccccccccc```````hhhh",
"hhh`ccccccccccccccccccfffff`hhhh",
"hhh`ccccccccccccccccccfffff`hhhh",
"hhh`ccccccccccccccccccccccc`hhhh",
"hhh`ccccccccccccccccccccccc`hhhh",
"hhh`ccccccccccccccccccccccc`hhhh",
"hhh`ccccccccccccccccccccccc`hhhh",
"hhh`cddddccccccccccccccddec`hhhh",
"hhh`cdcccccccccccccccccccdc`hhhh",
"hhh`ciccccccccccccccccccicc`hhhh",
"hhh`ciccciicccccccccccciiic`hhhh",
"hhh`cgggccccgggcggeceggcccc`hhhh",
"hhh`cgccccccgccgccgcgcccccc`hhhh",
"hhh`cacccaacaccaccacacccccc`hhhh",
"hhh`caccccccaccaccacacccccc`hhhh",
"hhh`cjccccccjccjccjcjcccccc`hhhh",
"hhh`cjjjjcccjccjccjcejjcccc`hhhh",
"hhh`ccccccccccccccccccccccc`hhhh",
"hhh`ccccccccccccccccccccccc`hhhh",
"hhh`ccccccccccccccccccccccc`hhhh",
"hhh`ccccccccccccccccccccccc`hhhh",
"hhh`ccccccccccccccccccccccc`hhhh",
"hhh`ccccccccccccccccccccccc`hhhh",
"hhh`ccccccccccccccccccccccc`hhhh",
"hhh`ccccccccccccccccccccccc`hhhh",
"hhh`````````````````````````hhhh"
};
