/* XPM */
static char *noname[] = {
/* width height ncolors chars_per_pixel */
"32 32 21 1",
/* colors */
"` c #000000",
"a c #FFCC9A",
"b c #986598",
"c c #FECB00",
"d c #555555",
"e c #FFCBFE",
"f c #FF9966",
"g c #000077",
"h c #FF9ACC",
"i c #888888",
"j c #FEFE00",
"k c #CB6532",
"l c #000055",
"m c #0000AB",
"n c #000044",
"o c #CC6699",
"p c #653265",
"q c #FFFFFF",
"r c #000089",
"s c #000022",
"t c #222222",
/* pixels */
"qq```````````````qqqqqqqqqqqqqqq",
"q``hhhhhhhhhhhhhh`qqqqqqqqqqqqqq",
"`pp`eeeeeeeeeeeeee`qqqqqqqqqqqqq",
"`bb`etd`ti`dtit`ee`qqqqqqqqqqqqq",
"````eeeeeeeeeeeeeee`qqqqqqqqqqqq",
"qqq`eeeeeeeeeeeeeee`qqqqqqqqqqqq",
"qqq`edtit`d`t``eeee`qqqqqqqqqqqq",
"qqq`eeeeeeeeeeeeeee`qqqqqqqqqqqq",
"qqq`eeeeeeeeeeeeeee`qqqqqqqqqqqq",
"qqq`ee`dt`i`t`dt`ee`qqqqqqqqqqqq",
"qqq`eeeeeeeeeeeeeee`qqqqqqqqqqqq",
"qqq`eeeeeeeeeeeeeee`qqqqqqqqqqqq",
"qqq`eedeit``d`tdeee`qqqqqqqqqqqq",
"qqq`eeeeeeeeeeeeeee`qqqqqqqqqqqq",
"qqq`eeeeeeeeeeeeeeekkkkkqqqqqqqq",
"qqq`ehet`dti``dhekkaaaaakqqqqqqq",
"qqq`hohohohohohkkaffaaaaakqqqqqq",
"qqqq`hohohohohkaafkkfaaaaakqqqqq",
"qqqq`ehe`dt`ijkkkkjjjjjjaaakqqqq",
"qqqqq`eeeeeeecfaakccccccaaaakggg",
"qqqqq`eeeeeeeekfaakkkkkkkaaaarrr",
"qqqqqq`eeeeeeeekfaaaaaaaaaaaammm",
"qqqqqqq`eeeeeeeekffaaaaaaaaaarrr",
"qqqqqqqq`eeeeeeeekkffffffffaaggg",
"qqqqqqqq`eeeeeeeeeekkkkkkkkfflll",
"qqqqqqqq`eeeeeeeeeeeeeee`qqkknnn",
"qqqq``````eeeeeeeeeeeeee`qqqqsss",
"qqqq`bbbp`eeeeeeeeeeeeee`qqqqqqq",
"qqqq`bbbp`hhhhhhhhhhhhh`qqqqqqqq",
"qqqq`bbbp`ooooooooooooo`qqqqqqqq",
"qqqqq`pp`bbbbbbbbbbbbb`qqqqqqqqq",
"qqqqqq``ppppppppppppp`qqqqqqqqqq"
};
