/* XPM */
static char * icl8_24260_xpm[] = {
/* width height ncolors chars_per_pixel */
"32 32 8 1",
/* colors */
" 	s None	c None",
".	c black",
"X	c #3333FF",
"o	c #0000FE",
"O	c #9A9AFF",
"+	c #00CBFE",
"@	c white",
"#	c #FE0000",
/* pixels */
"            ...      ..       ..",
"           .XXo..    .o..   ..o.",
"       ......OOXo.   .X.o...o.X.",
"     ...+++++...Xo.  .OOX.o.XOO.",
"    .@@@.++...++..o.  ..OOXOO.. ",
"   .@@...+.@@..+++..    .+++.   ",
"  ..@@...+.@...++++.     .+.    ",
"  .+....+++...++++++.    .+.    ",
" .+++++++++++++++++++.  .++.    ",
" .....+++....+++++++++..++++.   ",
".#####...####..+++++++++++++.   ",
".##############.++++++++++++.   ",
" ....#####....##.++++++++++++.  ",
" .@.@.....@.@..##.+++++++++++.  ",
" .@.@.@.@.@.@...#.+++++..++++.  ",
"  . ..@.@.......##.+++++O.+++.  ",
"      ...........#.++++.OX.++.  ",
"      ...........#.++++O.o.++.  ",
"   .  ...........#.+++.OX..+.   ",
"  .@.............#.+.OO.Xo.+.   ",
"  .@.@.@.....@..##.++.Xo..++.   ",
" ....@.@.@.@.@.##.++++...++.    ",
".###.....@.@..###.+++++++++.    ",
".########...####.++++++++++.    ",
" ...###########.++++++++++.     ",
"  .+....#####..+++++++++++.     ",
"  .+++++.....++++++++++++.      ",
"   .++++++++++++++++++++.       ",
"    .+++++++++++++++++..        ",
"     ..+++++++++++++..          ",
"       ...+++++++...            ",
"          .......               "};
