/* XPM */
static char * icl8_7440_xpm[] = {
/* width height ncolors chars_per_pixel */
"32 32 10 1",
/* colors */
" 	s None	c None",
".	c black",
"X	c wheat",
"o	c tan",
"O	c #3333FF",
"+	c #0000FE",
"@	c #9A9AFF",
"#	c #00CBFE",
"$	c white",
"%	c #FE0000",
/* pixels */
"    ...................         ",
"    .XXXXXXXXXXXXXXXXX..        ",
"    .XXXXXXXXXXXXXXXXX.o.       ",
"    .XXXXXXXXXXXXX...X.oo.      ",
"    .XXXXXXXXXXXX.OO+..ooo.     ",
"    .XXXXXXXX......@O+.oooo.    ",
"    .XXXXXX...#####..........   ",
"    .XXXXX.$$$.##...##..+.XX.   ",
"    .XXXX.$$...#.$$..###..XX.   ",
"    .XXX..$$...#.$...####.XX.   ",
"    .XXX.#....###...######.X.   ",
"    .XX.###################..   ",
"    .XX.....###....#########.   ",
"    .X.%%%%%...%%%%..#######.   ",
"    .X.%%%%%%%%%%%%%%.######.   ",
"    .XX....%%%%%....%%.#####.   ",
"    .XX.$.$.....$.$..%%.####.   ",
"    .XX.$.$.$.$.$.$...%.####.   ",
"    .XXX.X..$.$.......%%.###.   ",
"    .XXXXXXX...........%.###.   ",
"    .XXXXXXX...........%.###.   ",
"    .XXXX.XX...........%.###.   ",
"    .XXX.$.............%.###.   ",
"    .XXX.$.$.$.....$..%%.###.   ",
"    .XX....$.$.$.$.$.%%.####.   ",
"    .X.%%%.....$.$..%%%.####.   ",
"    .X.%%%%%%%%...%%%%.#####.   ",
"    .XX...%%%%%%%%%%%.######.   ",
"    .XXX.#....%%%%%..#######.   ",
"    .XXX.#####.....#########.   ",
"    .XXXX.##################.   ",
"    .........................   "};
