/* XPM */
static char * PLAID2_xpm[] = {
"33 27 3 1",
"  c #000000",
"# c #FFFFFF",
"@ c #AA0000",
" # @@@ # @@@ # @@@ # @@@ # @@@ # ",
" # @@@ # @@@ # @@@ # @@@ # @@@ # ",
" # @@@ # @@@ # @@@ # @@@ # @@@ # ",
"                                 ",
" # ### # ### # ### # ### # ### # ",
"                                 ",
" # @@@ # @@@ # @@@ # @@@ # @@@ # ",
" # @@@ # @@@ # @@@ # @@@ # @@@ # ",
" # @@@ # @@@ # @@@ # @@@ # @@@ # ",
"                                 ",
" # ### # ### # ### # ### # ### # ",
"                                 ",
" # @@@ # @@@ # @@@ # @@@ # @@@ # ",
" # @@@ # @@@ # @@@ # @@@ # @@@ # ",
" # @@@ # @@@ # @@@ # @@@ # @@@ # ",
"                                 ",
" # ### # ### # ### # ### # ### # ",
"                                 ",
" # @@@ # @@@ # @@@ # @@@ # @@@ # ",
" # @@@ # @@@ # @@@ # @@@ # @@@ # ",
" # @@@ # @@@ # @@@ # @@@ # @@@ # ",
"                                 ",
" # ### # ### # ### # ### # ### # ",
"                                 ",
" # @@@ # @@@ # @@@ # @@@ # @@@ # ",
" # @@@ # @@@ # @@@ # @@@ # @@@ # ",
" # @@@ # @@@ # @@@ # @@@ # @@@ # "
} ;
