/* XPM */
static char *noname[] = {
/* width height ncolors chars_per_pixel */
"32 32 10 1",
/* colors */
"` c #777777",
"a c #555555",
"b c #770000",
"c c #EEEEEE",
"d c #888888",
"e c #FFFFFF",
"f c #DDDDDD",
"g c #222222",
"h c #FE0000",
"i c #BBBBBB",
/* pixels */
"eeeeeeeeeeeeeeeeeeeeeeeeeeeeeeee",
"eeeeeeeeeeeeeeeeeeeeeeeeeeeeeeee",
"eeeeeeeeeeeeeeeeeeeeeeeeeeeeeeee",
"eeeeeeeeeeeeeeeeeeeeeeeeeeeeeeee",
"eeeeeeeeeeeeeeeeeeeeeeeeeeeeeeee",
"eeecccccccccccceecccccccccccceee",
"eecffffffffffidadifffffffffffaee",
"eecfg`fffffffidadiffffffffagfahe",
"eecfagfffffffidadiffffffffggfahe",
"eecffffffffffidadifffffffffffahe",
"eecffg`aaggagidadifggag``agffahe",
"eecffffffffffidadifffffffffffahe",
"eecffffffffffidadifffffffffffahe",
"eecfggfffffffidadiffffffffgafahe",
"eecf`gfffffffidadiffffffffg`fahe",
"eecffffffffffidadifffffffffffahe",
"eecffgagg``ggidadifa`ggaaggffahe",
"eecffffffffffidadifffffffffffahe",
"eecffffffffffidadifffffffffffahe",
"eecfgafffffffidadifffff`gfgafahe",
"eecfg`fffffffidadifffffgaf`gfahe",
"eecffffffffffidadifffffffffffahe",
"eecffg`ggaaggidadifgag`gaggffahe",
"eecffffffffffidadifffffffffffahe",
"eecffffffffffidadifffffffffffahe",
"eecffffffffffidadiffffffffffdahe",
"eeeaaaaaaaaaaaabbaaaaaaaaaaaahhe",
"eeeehhhhhhhhhhhhhhhhhhhhhhhhhhee",
"eeeeeeeeeeeeeeeeeeeeeeeeeeeeeeee",
"eeeeeeeeeeeeeeeeeeeeeeeeeeeeeeee",
"eeeeeeeeeeeeeeeeeeeeeeeeeeeeeeee",
"eeeeeeeeeeeeeeeeeeeeeeeeeeeeeeee"
};
