/* XPM */
static char * icl8_32442_xpm[] = {
/* width height ncolors chars_per_pixel */
"32 32 14 1",
/* colors */
" 	s None	c None",
".	c #0033FE",
"X	c black",
"o	c gold",
"O	c #0000EF",
"+	c #0000DC",
"@	c #0000BA",
"#	c #0000AB",
"$	c #000089",
"%	c #000077",
"&	c #000055",
"*	c #000044",
"=	c #000022",
"-	c #000011",
/* pixels */
"  ..............XXXXXXXXXXXXXX  ",
"  ..............oooooooooooooX  ",
"  ..............oooooooooooooX  ",
"  O.O.O.O.O.O.O.oooooooooooooX  ",
"  OOOOOOOOOOOOOOoooooooooooooX  ",
"  OOOOOOOOOOOoooOOOooooooooooX  ",
"  +++++++++++oooOOOooooooooooX  ",
"  +++++++++++ooo+++ooooooooooX  ",
"  +++++++++++ooo+++ooooooooooX  ",
"  @@@@@@@@@@@ooo+++ooooooooooX  ",
"  @@@@@@@@@@@ooo@@@ooooooooooX  ",
"  @@@@@ooooooooo@@@@@@@@@ooooX  ",
"  #####ooooooooo@@@@@@@@@ooooX  ",
"  #####ooooooooo#########ooooX  ",
"  #####ooooooooo#########ooooX  ",
"  $$$$$ooooooooo#########ooooX  ",
"  $$$$$ooooooooo$$$$$$$$$ooooX  ",
"  $$$$$$$$$$$ooo$$$ooooooooooX  ",
"  %%%%%%%%%%%ooo$$$ooooooooooX  ",
"  %%%%%%%%%%%ooo%%%ooooooooooX  ",
"  %%%%%%%%%%%ooo%%%ooooooooooX  ",
"  &&&&&&&&&&&ooo&&&ooooooooooX  ",
"  &&&&&&&&&&&ooo&&&ooooooooooX  ",
"  &&&&&&&&&&&&&&oooooooooooooX  ",
"  **************oooooooooooooX  ",
"  **************oooooooooooooX  ",
"  **************oooooooooooooX  ",
"  ==============XoooooooXooooX  ",
"  ===== =======  XoooooX XoooX  ",
"  ====   =====    XoooX   XooX  ",
"  ---     ---      XoX     XoX  ",
"  --       -        X       XX  "};
