/* XPM */
static char * icl8_15563_xpm[] = {
/* width height ncolors chars_per_pixel */
"32 32 9 1",
/* colors */
" 	s None	c None",
".	c black",
"X	c #BBBBBB",
"o	c wheat",
"O	c #777777",
"+	c tan",
"@	c #333333",
"#	c #444444",
"$	c white",
/* pixels */
"   ...................X         ",
"   .ooooooooooooooooo..OX       ",
"   .ooooooooooooooooo.+.OX      ",
"   .oo@....@XooO@O@O@.++.OX     ",
"   .ooo..ooO.XooO@O@O.+++.OX    ",
"   .ooo..ooo.@oooXooX.++++.OX   ",
"   .ooo..ooo..ooOO@OO.+++++.OX  ",
"   .ooo..ooo.@oo@O@O@.......OO  ",
"   .ooo..ooO.XooO@@O@O#@#++.OO  ",
"   .ooo....@XooX@OO@OO@##++.OO  ",
"   .ooo..oooooXOO@@O@O@@Ooo.OO  ",
"   .ooo..oooXO@O@@OOO@OOOoo.OO  ",
"   .ooo..oooooXooXooXoooXoo.OO  ",
"   .ooo..oooX@OO@O@OOO@@Ooo.OO  ",
"   .oo@..@ooXOO@OOOO@OOO@oo.OO  ",
"   .ooooooooX@Ooooooooooooo.OO  ",
"   .ooXXXXXXXOOo.............O  ",
"   .ooO@OO@O@O@o.............OO ",
"   .ooOO@OOOO@Oo..$$$...@$@..OO ",
"   .ooOOO@O@O@Oo....$...X@X..OO ",
"   .ooO@OO@OO@Oo...OO...$.$..OO ",
"   .ooOO@O@O@OOo...$....$.$..OO ",
"   .ooO@O@OOOO@o...@X...$.$..OO ",
"   .ooXoooXoXoXo....$...$.$..OO ",
"   .oo@OOO@OO@Oo..$.X...X@X..OO ",
"   .ooOO@OO@OO@o..@$@.$.@$@..OO ",
"   .oo@@O@O@@OOo.............OO ",
"   .ooO@O@OOO@Oo.............OO ",
"   .ooooooooooooooOOOOOOOOO.OOO ",
"   .ooooooooooooooooooooooo.OO  ",
"   .........................OO  ",
"      OOOOOOOOOOOOOOOOOOOOOOOO  "};
