/* XPM */
static char *noname[] = {
/* width height ncolors chars_per_pixel */
"32 32 10 1",
/* colors */
"` c #777777",
"a c #EEEEEE",
"b c #0000EF",
"c c #111111",
"d c #AAAAAA",
"e c #FFFFFF",
"f c #444444",
"g c #FFFE66",
"h c #222222",
"i c #BBBBBB",
/* pixels */
"eeeeeeeeeeeeeeeeeeeeeeeeeeeeeeee",
"eiiiiiiiiiiiiiiiiiiiiiiiiiiiidee",
"iiaaaaaaaaaaaaaaaaaaaaaaaaaad`fe",
"iaiaaaaaaaaaaaaaaaaaaaaaaadd``fe",
"iaaddddddddddddddddddddddd````fe",
"iaadiiiiiiibbbbbbiiiiiiiif````fe",
"iaadiiiiibbbbbbbbbbiiiiiif````fe",
"iaadiiiibbb``````bbbiiiiif````fe",
"iaadiiibb```iiiiii`bbiiiif````fe",
"iaadiibb``iiiiiiiiibb`iiif````fe",
"iaadiibb`iiiiiiiiiiibbiiif````fe",
"iaadibb``iiiiiiiiiiibb`iif````fe",
"iaadibb`iiigiiigiiiibb`iif````fe",
"iaadibb`iiiigiig`iiibb`iif````fe",
"iaadibb`iiiigggggiiiib`iif````fe",
"iaadibb`iiiiigggggigii`iif````fe",
"iaadiibbiiiiigg`gg`g`iiiif````fe",
"iaadiibbbiiiiig`gggggiiiif````fe",
"iaadiiibbbiiiii`igggg`iiif````fe",
"iaadiiiibbbbiiiiigg`ggiiif````fe",
"iaadiiiiibbbbbbbiig`ig`iif````fe",
"iaadiiiiii`bbbbb`ii`ig`iif````fe",
"iaadiiiiiiii`````iiiii`iif````fe",
"iaadiiiiiiiiiiiiiiiiiiiiif````fe",
"iaadffffffffffffffffffffff````fe",
"iadfffffffffffffffffffffffc```fe",
"iadffffffffffffffffffffffffc``fe",
"idffffffffffffffffffffffffffc`fe",
"dffffffffffffffffffffffffffffcfe",
"efhhhhhhhhhhhhhhhhhhhhhhhhhhhhee",
"eeeeeeeeeeeeeeeeeeeeeeeeeeeeeeee",
"eeeeeeeeeeeeeeeeeeeeeeeeeeeeeeee"
};
