/* XPM */
static char *noname[] = {
/* width height ncolors chars_per_pixel */
"32 32 24 1",
/* colors */
"` c #000000",
"a c #CBFFFF",
"b c #326565",
"c c #FFFECB",
"d c #440000",
"e c #777777",
"f c #555555",
"g c #770000",
"h c #99CCCC",
"i c #986565",
"j c #00FEFE",
"k c #CC9966",
"l c #111111",
"m c #659898",
"n c #66CD00",
"o c #AAAAAA",
"p c #888888",
"q c #659865",
"r c #9A6633",
"s c #FFFFFF",
"t c #444444",
"u c #FE0000",
"v c #9AFF9A",
"w c #BBBBBB",
/* pixels */
"shhhhhhhhhhhhhhhhhhhhhhhhhssssss",
"shaaaaaaaaaaaaaaaaaaaaalwhhsssss",
"shkkkkkkkkkkkaaaaaaaaalwwhhhssss",
"shkccccccccckkaaaaaaalwiuhhhhsss",
"shkctoeo`cccrrkaaaaalwiuwhhhhhss",
"shkcccccccccccraaaalwwuwwhhhhhhs",
"shkcccccccccccraaalwwwuwwmmmmmms",
"shkcotooeeoltcraalwiuwwuuwbbbbmf",
"shkcccccccccccralwiuwwwwwwwuwwmf",
"shkcotooeeoltcrlwiuwwwwwwuuiwwmf",
"shkccccccccccclwwuiwiuwwwwwwwlmf",
"shkcotecttoeolwiwwuiuwwwwwwwlamf",
"shkccccccccclwiuwwwuiwwwwwwlaamf",
"shkceotlecolwiuwwwwwuiwwwwlpaamf",
"shkccccccclwiuwwiwwwwuiwwlppaamf",
"shcrrrrrrlwwuiwiuwwwwwwwltttaamf",
"shaaaaaalwwwwuiuwwwuiwwlaaaaaamf",
"shaaaaalwiuuiwuiwwuiwwlaaaaaaamf",
"shqqqqlwiuwwuwwuiuiwwl``````aamf",
"shvqvlwwuiwwuuwwuiwwljjjpjj``amf",
"shqqlwwwwuiuwiuuwwwlggggggj```mf",
"shvlwiuuiwuiwwwwwwlpjjgjjpjjj`mf",
"shlwiuwwuwwuiwwwwlnnpngnnnpnj`mf",
"slwwuiwwuwwwuiwwl`nnngggggggn`mf",
"slwwwuiuiwwwwwwla`nnnpdngnnpn`mf",
"shlwwwuiwwwwwwlaa`nnnnpngnnnp`mf",
"shvlwwwuiwwwwlaaa`nnnngppnnnn`mf",
"shqqlwwwuiwwlqaaa`nnnngngppnn`mf",
"shvqvlwwwwwlvqaaa`nnnnnngnnpp`mf",
"shqqqqlwwwlqqqaaa`````````````mf",
"sammmmmlwlmmmmmmmmmmmmmmmmmmmmmf",
"ssfffffflfffffffffffffffffffffff"
};
