/* XPM */
static char * icl8_7718_xpm[] = {
/* width height ncolors chars_per_pixel */
"32 32 23 1",
/* colors */
" 	s None	c None",
".	c #FF9A9A",
"X	c #CC6666",
"o	c #FFCBCB",
"O	c #653232",
"+	c #444444",
"@	c #222222",
"#	c #EF0000",
"$	c #550000",
"%	c #440000",
"&	c white",
"*	c #888888",
"=	c #111111",
"-	c #555555",
";	c #986500",
":	c #CC9966",
"?	c #663300",
">	c #220000",
",	c #000089",
"<	c #000077",
"1	c #000055",
"2	c #000044",
"3	c #000022",
/* pixels */
"    ..................X         ",
"    .oooooooooooooooooXO        ",
"    .ooooooooooo+@ooooX.O       ",
"    .ooooooooooo+@ooooX..O      ",
"    .oo#oooooooo+@..ooX...O     ",
"    .o##oooooooo+@..ooX....O    ",
"    .o##o.ooooo+++@.ooXOOOOOO   ",
"    .o###.oooo++oo+@oooXXXXX$   ",
"    .o##%%oooo+oo..@.ooXXXXX$   ",
"    .o#%&%%ooo+o..o@..ooooooO   ",
"    .o#%%%%.oo++.o@@o.ooooooO   ",
"    .o#%%%%*.oo++++oo.ooooooO   ",
"    .oo%%%&&*oo++++o..ooooooO   ",
"    .ooo.=-&&*=+o.++.oooooooO   ",
"    .oooo.=-&=;@o.++.oooooooO   ",
"    .oooooo==:?;..++..ooooooO   ",
"    .ooooooo>?:?;.+++.ooooooO   ",
"    .oooooooo>?:?;o++.ooooooO   ",
"    .oooooooo@>?:?;@+..oooooO   ",
"    .ooooooo++@>?:?;@+.oooooO   ",
"    .ooooooo++o.>?:?;@.oooooO   ",
"    .ooooooo++..@>?:?;..ooooO   ",
"    .ooooooooo...o......ooooO   ",
"    .ooooooooo..oo......ooooO   ",
"    .oooooooooooooooooooooooO   ",
"    .oo,,,o,,,o,,,o,,,o,,,ooO   ",
"    .oo<o<o<o<o<ooo<ooo<ooooO   ",
"    .oo111o111o11oo11oo111ooO   ",
"    .oo2ooo22oo2ooo2ooooo2ooO   ",
"    .oo3ooo3o3o333o3ooo333ooO   ",
"    .oooooooooooooooooooooooO   ",
"    XOOOOOOOOOOOOOOOOOOOOOOOO   "};
