/* XPM */
static char * puzzle_xpm[] = {
"32 32 5 1",
"  c #000000",
". c #FFFFFF",
"X c #555555",
"o c #AAAAAA",
"O c #5555FF",
"                               .",
" XXXXXXXXXXXXXXXXXXXXXXXXXXXXXX.",
" X...... ...... ...... ...... X.",
" X.oOoOo .OoOoO .oOoOo .OoOoO X.",
" X.OoOoO .oOoOo .OoOoO .oOoOo X.",
" X.oOoOo .OoOoO .oOoOo .OoOoO X.",
" X.OoOoO .oOoOo .OoOoO .oOoOo X.",
" X.oOoOo .OoOoO .oOoOo .OoOoO X.",
" X.      .      .      .      X.",
" X...... ...... ...... ...... X.",
" X.OoOoO .oOoOo .OoOoO .oOoOo X.",
" X.oOoOo .OoOoO .oOoOo .OoOoO X.",
" X.OoOoO .oOoOo .OoOoO .oOoOo X.",
" X.oOoOo .OoOoO .oOoOo .OoOoO X.",
" X.OoOoO .oOoOo .OoOoO .oOoOo X.",
" X.      .      .      .      X.",
" X...... ...... ...... XXXXXXXX.",
" X.oOoOo .OoOoO .oOoOo XXXXXXXX.",
" X.OoOoO .oOoOo .OoOoO XXXXXXXX.",
" X.oOoOo .OoOoO .oOoOo XXXXXXXX.",
" X.OoOoO .oOoOo .OoOoO XXXXXXXX.",
" X.oOoOo .OoOoO .oOoOo XXXXXXXX.",
" X.      .      .      XXXXXXXX.",
" X...... ...... ...... ...... X.",
" X.OoOoO .oOoOo .OoOoO .oOoOo X.",
" X.oOoOo .OoOoO .oOoOo .OoOoO X.",
" X.OoOoO .oOoOo .OoOoO .oOoOo X.",
" X.oOoOo .OoOoO .oOoOo .OoOoO X.",
" X.OoOoO .oOoOo .OoOoO .oOoOo X.",
" X.      .      .      .      X.",
" XXXXXXXXXXXXXXXXXXXXXXXXXXXXXX.",
" ..............................."
} ;
